<svg height="31" viewBox="0 0 31 31" width="31" xmlns="http://www.w3.org/2000/svg"><path d="m29.8 9.7q.1.1.2.2.2.2.2.4.1.1.1.3 0 9.3 0 18.6 0 .2-.1.4-.1.2-.2.4-.2.1-.4.2-.2.1-.4 0-6.4 0-12.9 0-.1 0-.1 0-.1 0-.2 0 0 0-.1-.1-.1 0-.1-.1-.1-.1-.3-.2-.2 0-.4 0-.2 0-.3 0-.2.1-.3.2-.1.1-.2.1 0 .1-.1.1-.1 0-.2 0 0 0-.1 0-6.4 0-12.9 0-.1.1-.3 0-.2 0-.3-.1-.2-.1-.3-.3-.1-.1-.1-.3 0 0 0 0 0 0 0-.1 0 0 0 0v-2.7q0 0 .1-.1 0-.1.1-.1 0-.1.1-.1.1 0 .1 0 .1 0 .1 0c.3.1.5.2.5.6q0 .9 0 1.8c0 .4 0 .4.4.4q6 0 12 0 .1 0 .1 0 .1 0 .2 0 .1-.1.1-.1.1 0 .2-.1.2-.1.5-.2.3-.1.6-.1.3 0 .6.1.3 0 .5.2.1.1.2.1.1 0 .2.1.1 0 .2 0 .1 0 .2 0 5 0 10 0 .2 0 .4 0h1.5c.3 0 .3 0 .3-.3 0-.1 0-17.6 0-17.7q0-.1 0-.2c0-.4 0-.4-.4-.4s-.4 0-.4.5v16.5c0 .7-.2.9-.9.9h-.1q-.1 0-.3 0h-24.2q-.1 0-.1 0-.1 0-.2 0 0 0-.1 0 0 0-.1 0-.1 0-.2-.1-.1 0-.2-.1-.1-.1-.1-.2 0-.1 0-.2-.1-.2-.1-.5c0-.1 0-16.3 0-16.4 0-.3 0-.4-.3-.4-.5 0-.5 0-.5.5v13q0 .1 0 .2-.1.1-.1.2-.1.1-.1.1-.1.1-.2.1h-.1q-.1 0-.2 0 0 0-.1 0-.1-.1-.1-.1 0-.1-.1-.1 0-.1 0-.1 0 0 0-.1 0 0 0 0v-13.8q0-.1 0-.1 0-.1 0-.1.1-.2.2-.3.1-.2.2-.3.2-.1.4-.1.2-.1.3-.1.2 0 .4 0 .1 0 .1 0 .1 0 .2 0 0 0 .1-.1 0 0 0-.1.1-.1.1-.1.1-.1.1-.1.1-.1.1-.1.1 0 .2 0 .2-.1.4-.2.3-.1.5-.2.3-.1.5-.1.2-.1.5-.2c.5-.1.5-.1.5-.7q0-2.5 0-5 0-.2 0-.3 0-.2 0-.3.1-.2.2-.2.1-.1.3-.2.2 0 .3.1.2 0 .4.1.2 0 .5.1.2 0 .4.1.2.1.4.2c.5.1.5.1.5-.3q0-.7 0-1.4c0-.2 0-.4.3-.5h.4q0 0 0 0 .6.1 1.2.3.5.2 1 .4.6.3 1 .6.5.4.9.8.4.4.8.8.3.4.6.9.3.5.5 1 .3.4.4 1 .1.3.2.6.1.3.2.6.1.4.1.7.1.3.1.6c.1.4.1.4.3.2q.9-.7 1.9-1.2.9-.5 1.9-.9 1-.4 2-.7 1.1-.3 2.2-.4.2 0 .5-.1.2 0 .5 0 .3 0 .5 0 .3 0 .5 0c.6 0 .8.2.8.8q.1 1 0 2.1c0 .4.1.4.4.5q.4.2.9.4 0 0 .1 0 .1 0 .1.1.1 0 .1.1.1.1.1.1 0 .1.1.1 0 .1.1.1 0 0 .1 0 0 0 .1 0 .1 0 .2 0 .1 0 .2 0 .1 0 .2 0 .1.1.1.1.2 0 .4.1zm-26.9.1q0 0 0 .1-.1 0-.1 0 0 .1 0 .1 0 7.9 0 15.7c0 .2 0 .2.3.2q.4-.2.8-.3.5-.1 1-.2.4-.1.9-.1.4-.1.9-.1.5-.1 1.1-.1.5 0 1.1.1.5 0 1 .1.6 0 1.1.2.4 0 .7.1.4.1.7.3.4.1.7.2.3.2.7.3 0 0 0 0 0 0 0-.1-.1 0-.1 0-.7-1.1-1.6-2-.9-.9-1.9-1.6-1.1-.8-2.3-1.3-1.1-.5-2.4-.8c-.6-.2-.6-.2-.6-.8v-10.3c0-.3 0-.3-.4-.2q-.7.2-1.5.4 0 0-.1.1zm10.9 17.7c0-.1-.1-.1-.1-.1q-.6-.3-1.3-.6-.6-.2-1.2-.4-.7-.2-1.4-.3-.6-.1-1.3-.1-.7 0-1.4 0-.7.1-1.4.2-.6.1-1.3.2-.7.2-1.3.4c-.4.1-.3.4-.3.6s.2.1.3.1q5.2 0 10.4 0zm-.3-3q.1.2.3.4.2.2.3.4.2.3.4.5c-.1-.3-.1-.5-.2-.6q-.1-.6-.3-1.1-.2-1-.8-1.8-.5-.9-1.2-1.6-.8-.7-1.7-1.2-.9-.4-1.8-.7c-.7-.1-.7-.1-.7-.7 0-.7 0-13.8 0-14.5 0-.1 0-.2-.1-.2q-.2-.1-.5-.2-.2-.1-.5-.2-.2-.1-.4-.1-.3-.1-.5-.2 0 .1 0 .2 0 8.3 0 16.6c0 .2 0 .2.2.3q1 .2 2 .6 1 .5 1.9 1 .9.5 1.7 1.2.8.7 1.5 1.5.2.2.4.4zm1.1-1.5q.1 0 .1 0 0-.1 0-.1 0 0 0-.1 0-6.4 0-12.8 0-.5-.1-.9 0-.4 0-.8-.1-.4-.2-.8-.1-.4-.2-.7-.2-.7-.4-1.3-.3-.7-.7-1.3-.3-.5-.8-1-.5-.5-1-1-.3-.2-.6-.4-.3-.2-.6-.3-.4-.2-.7-.3-.3-.1-.7-.2v.2q0 8.3 0 16.6c0 .2.1.2.3.3q.8.2 1.6.6.8.4 1.5 1 .7.5 1.3 1.3.5.7.9 1.5.2.3.3.6 0 0 0-.1zm1.1 3.6q1-.8 2.2-1.4 1.1-.6 2.3-1.1 1.3-.4 2.5-.6 1.3-.3 2.6-.3c.3 0 .3-.1.3-.3q0-4.7 0-9.3c0-.4.1-.5.3-.6q.1 0 .1 0 .1-.1.1 0 0 0 .1 0 0 0 .1 0 0 0 .1.1 0 .1.1.1 0 .1 0 .2 0 0 0 .1 0 5 0 10c0 .4-.1.6-.6.6q-.4 0-.8 0-.5 0-.9.1-.4 0-.9.1-.4 0-.8.1-.4.1-.7.2-.3.1-.7.2-.3.1-.7.2-.3.2-.6.3 0 0 .1 0 0 0 .1 0 0 0 0 0 .1 0 .1 0 .2 0 .4-.1.2 0 .4 0 .1 0 .3 0 .2-.1.4-.1.7 0 1.4 0 .7.1 1.4.2.7.1 1.3.2.7.1 1.4.4c.3 0 .3 0 .3-.3q0-7.6 0-15.1c0-.7 0-.7-.7-.9q-.2-.1-.2.1 0 .4 0 .9c0 .3-.1.5-.4.5q-.1 0-.1 0-.1 0-.1 0-.1-.1-.2-.1 0-.1 0-.2-.1 0-.1-.1 0-.1 0-.2 0-2 0-4.1c0-.2 0-.3-.2-.3q-.5.1-1 .1-.4.1-.9.1-.5.1-.9.2-.5.1-.9.2-.9.2-1.6.5-.8.4-1.6.7-.7.4-1.4.9-.7.5-1.3 1-.1.1-.1.1-.1.1-.1.1 0 .1 0 .1 0 .1 0 .1 0 8.1 0 16.2c0 .1-.1.2 0 .3q.1 0 .1-.1zm11.5.2q-.4-.1-.7-.2-.3-.1-.7-.2-.3 0-.6-.1-.4-.1-.7-.1-.8-.2-1.7-.2-.8 0-1.6.1-.8 0-1.6.2-.9.2-1.6.4-.2.1-.5.2-.2.1-.4.2-.2.1-.4.2-.2.1-.4.2h10.8.3c.1-.2 0-.6-.2-.7z" fill="#114668" fill-rule="evenodd"/><g fill="#ef9b11"><path d="m14.5 25.8q-.2-.2-.4-.5-.1-.2-.3-.4-.2-.2-.3-.4-.2-.2-.4-.4-.7-.8-1.5-1.5-.8-.7-1.7-1.2-.9-.5-1.9-1-1-.4-2-.6c-.2-.1-.2-.1-.2-.3q0-8.3 0-16.6 0-.1 0-.2.2.1.5.2.2 0 .4.1.3.1.5.2.2.1.5.2c.1 0 .1.1.1.2q0 1.1 0 2.1v12.4c0 .6 0 .6.6.7q1 .3 1.9.7.9.5 1.7 1.2.7.7 1.2 1.6.6.8.8 1.8.2.5.3 1.1c.1.1.1.3.2.6z"/><path d="m29.3 11.2q0 8.9 0 17.7c0 .4 0 .4-.4.4q-.7 0-1.5 0-1.4 0-2.9 0-3.8 0-7.7 0-.1 0-.2 0-.1 0-.1 0-.1 0-.2-.1 0 0-.1 0-.2-.2-.5-.3-.3-.1-.6-.1-.3 0-.6.1-.3.1-.6.3 0 0-.1.1 0 0-.1 0 0 0-.1 0 0 0-.1 0-6.1 0-12.3 0c-.2 0-.3 0-.3-.3q0-1 0-2c0-.4-.1-.5-.5-.5q0 0 0 0 0-.1 0-.1 0 0 0-.1 0 0 .1 0 0 0 0 0-.1-.8-.1-1.6c.4-.2.5-.2.5-.7v-13.1c0-.4 0-.4.4-.4.6 0 .6 0 .6.7v16.5c0 .6.1.7.7.7h24.4q.2 0 .4 0 .1 0 .2 0c.5 0 .7-.1.7-.6q0-8.5 0-16.9c0-.3 0-.4.3-.4.9 0 .7 0 .7.7z"/></g></svg>