<svg height="24" viewBox="0 0 24 24" width="24" xmlns="http://www.w3.org/2000/svg"><path d="m18.9.4q.9.4 1.6 1.1.7.7 1.1 1.6.4.9.4 1.9v14q0 1-.4 1.9-.4.9-1.1 1.6-.7.7-1.6 1.1-.9.4-1.9.4h-11q-.8 0-1.5-.3-.8-.3-1.3-.9-.6-.5-.9-1.3-.3-.7-.3-1.5v-15q0-1 .4-1.9.4-.9 1.1-1.6.7-.7 1.6-1.1.9-.4 1.9-.4h10q1 0 1.9.4zm-14.9 16.1q.2-.1.5-.2.2-.1.5-.2.2 0 .5-.1.2 0 .5 0v-13.8q-.4.1-.8.4-.4.3-.6.7-.3.3-.5.8-.1.4-.1.9zm16 1.5h-14c-.5 0-1 .2-1.4.5-.4.4-.6.9-.6 1.5 0 .5.2 1 .6 1.4.4.3.9.6 1.4.6h11q.6 0 1.1-.3.6-.2 1-.6.4-.4.7-1 .2-.5.2-1.1zm0-13q0-.6-.2-1.2-.3-.5-.7-1-.4-.4-1-.6-.5-.2-1.1-.2h-9v14h12z" fill="#212121" fill-rule="evenodd"/><g fill="#ef9b11"><path d="m20 18v1q0 .6-.2 1.1-.3.6-.7 1-.4.4-1 .7-.5.2-1.1.2h-11c-.5 0-1-.2-1.4-.6s-.6-.9-.6-1.4.2-1 .6-1.4.9-.6 1.4-.6z"/><path d="m6 2.2v13.8q-.3 0-.5 0-.3.1-.5.1-.3.1-.5.2-.3.1-.5.2v-11.5q0-.5.1-.9.2-.5.5-.8.2-.4.6-.7.4-.3.8-.4z"/><path d="m20 5v11h-12v-14h9q.6 0 1.1.2.6.3 1 .7.4.4.7 1 .2.5.2 1.1z"/></g><path d="m0 0h24v24h-24z" fill="none"/></svg>