<svg height="31" viewBox="0 0 31 31" width="31" xmlns="http://www.w3.org/2000/svg"><path d="m8.9.3v2.9q0 .3-.1.5-.1.3-.3.5-.2.2-.5.4-.3.1-.6.1v-3.6z" fill="#ef9b11"/><path d="m26 .3v2.9q0 .3.2.5.1.3.3.5.2.2.5.4.2.1.5.1v-3.6z" fill="#ef9b11"/><path d="m11.9 16.7v8.1q0 .3-.1.6-.1.3-.4.5-.2.2-.5.3-.2.1-.5.1h-8.9l-.3-1.1q-.1-.4-.2-.9-.2-.5-.2-1-.1-.5-.1-1.1 0-.5.1-1l.1-1.1q0-.1 0-.3.1-.2.1-.3.1-.2.2-.4.1-.1.1-.2.4-.5.8-1 .4-.4.8-.8.4-.4.9-.8.4-.3.9-.6.1-.1.1-.1.1 0 .1 0 .1-.1.1-.1.1 0 .1 0 .6-.2 1.2-.3.6-.1 1.2-.1.6-.1 1.2-.1.6 0 1.2.1l.6.1q.1 0 .1 0 0 0 .1 0 0 0 0 0 0 0 .1 0 .2.1.4.2.2.2.4.4.1.2.2.4.1.2.1.5z" fill="#ef9b11"/><g fill="#22577a"><path d="m6.8 2.9q0-.7 0-1.3 0-.4.1-.6.1-.3.3-.6.3-.2.5-.3.3-.1.6-.1.5 0 .9 0 .3 0 .6.1.2.1.4.3.3.3.4.5.1.3.1.6 0 .7 0 1.4h13.7q0-.5 0-.9-.1-.1-.1-.2 0-.1.1-.2 0-.1 0-.2 0-.1 0-.2 0-.2.1-.4.1-.2.3-.4.2-.2.4-.3.2 0 .5-.1.1 0 .3 0 .1 0 .3 0 .2 0 .3 0 .2 0 .3 0 .3.1.5.2.3.1.5.3.1.2.2.5.1.2.1.5 0 .7 0 1.4.2 0 .4 0 .3 0 .6.1.3.1.5.4.3.2.4.5.1.3.1.6 0 6.4 0 12.7 0 3.2 0 6.4 0 .4-.1.7-.1.3-.4.6-.2.2-.5.3-.4.1-.7.1-6.6 0-13.2 0-.1 0-.1 0-.1 0-.2.1-.1 0-.1.1-.1 0-.1.1-.4.9-1 1.7-.6.8-1.4 1.4-.8.5-1.7.9-1 .4-1.9.5c-1.9.2-3.8-.2-5.3-1.2-1.6-1-2.7-2.6-3.2-4.4-.5-1.7-.4-3.7.4-5.3.8-1.7 2.1-3.1 3.8-3.9q.1 0 .2 0 0-.1.1-.2 0 0 0-.1.1-.1.1-.2c-.1-3.4 0-6.8-.1-10.1q0-.4.1-.7.1-.4.4-.6.2-.3.6-.4.3-.1.7-.1 0 0 0 0 0 0 .1 0 0 0 0 0 .1 0 .1 0zm22.4 16.5v-.1-9.6h-20.4v-.9h20.4c0-1.4 0-3.1 0-4.4q0-.1 0-.2 0-.1-.1-.2 0 0-.1-.1-.1 0-.2 0-.1 0-.1 0-.1 0-.2 0-.1 0-.1 0-.1 0-.2 0 0 .7 0 1.4 0 .3 0 .5-.1.3-.3.5-.2.2-.4.3-.2.1-.5.2-.2 0-.4 0-.2 0-.4 0-.2 0-.4 0-.1 0-.3-.1-.2 0-.4-.1-.2-.1-.3-.2-.1-.1-.2-.3-.1-.2-.2-.3 0-.1 0-.2 0-.1 0-.1 0-.1 0-.2 0-.1 0-.1 0-.7 0-1.3h-13.7q0 .7 0 1.4 0 .3-.1.6-.1.3-.3.5-.2.2-.5.3-.3.1-.6.1-.4 0-.8 0-.3 0-.6-.1-.3-.1-.6-.3-.2-.3-.3-.6-.1-.3-.1-.6 0-.7 0-1.3c-.7-.1-1 0-1 .8q0 4.9 0 9.8v.4l1.5-.3c-.5-.1-.5-.5-.5-.8q0-1.2 0-2.4c0-.5.2-.7.6-.7q1.4 0 2.7 0c.4 0 .6.2.6.7q0 1.2 0 2.5c0 .5-.2.7-.7.7h-1.7q1.2.1 2.3.6 1.2.4 2.1 1.2.9.7 1.6 1.7.6 1.1.9 2.2l-.8.2c-.5-1.6-1.5-3-2.9-3.9-1.5-.9-3.2-1.2-4.8-.9-1.7.2-3.2 1.1-4.3 2.4-1 1.4-1.6 3-1.5 4.7q.1 1.2.6 2.2.4 1.1 1.2 2 .8.9 1.8 1.4 1 .6 2.2.8.5.1 1.1.1.6 0 1.2-.2.6-.1 1.1-.3.6-.2 1.1-.5.6-.4 1.2-.9.6-.5 1-1.2.5-.6.8-1.4.3-.7.4-1.5l.9.2-.2.8q0 0 .1 0 0 0 0 .1 0 0 0 0 0 0 .1 0 1.3 0 2.7 0 0 0 .1-.1 0 0 .1 0 0 0 0 0 .1-.1.1-.1 2.8-2.3 5.7-4.7 0 0 0-.1.1 0 .1-.1 0 0 0-.1.1-.1.1-.1 0-1.5 0-2.9c0-.4.1-.6.6-.6q1.5 0 2.9 0 .2 0 .3 0v.9h-2.9v2.1l1.5-1.3c.5-.4.6-.3 1 .1q.7 1 1.4 2zm-2-1.2-7.3 6.1q.1 0 .3 0 .1.1.3 0 .2 0 .3 0 .2 0 .3-.1 3.5-1.5 7.1-3.1.3-.2.8-.4zm-17.5-14.8q0-.9 0-1.8 0-.6-.5-.6-.5 0-.9 0-.1 0-.2 0-.1 0-.2.1-.1.1-.1.2-.1.1 0 .2 0 1.9 0 3.8-.1.1 0 .3 0 .1.1.1.1.1.2.2.1 0 .2 0 .4 0 .9 0 .5 0 .5-.6 0-.9 0-1.9zm15.6 0q0 1 0 1.9 0 .2 0 .3.1.1.1.1.1.1.2.2.1 0 .2 0 .5 0 .9 0 .2 0 .3 0 .1-.1.1-.2.1 0 .2-.1 0-.1 0-.2 0-2 0-3.9 0-.1 0-.2-.1-.1-.2-.2 0 0-.1-.1-.1 0-.2 0-.5 0-.9 0c-.4 0-.6.2-.6.6q0 .9 0 1.8zm3.9 18.3-5.9 2.6v.1h5.4c.3 0 .5-.2.5-.4 0-.8 0-1.5 0-2.3zm-21.4-8h1.9v-2h-1.9z" fill-rule="evenodd"/><path d="m6 23.1q.1-.1.1-.1 0-.1.1-.1 0-.1 0-.1.1-.1.1-.1 2.3-2.4 4.7-4.7c.4-.4.6-.4 1 0q.6.6 1.2 1.2c.4.4.4.6 0 .9q-3.4 3.4-6.8 6.8c-.3.4-.5.3-.9 0q-1.6-1.6-3.2-3.3c-.4-.3-.4-.5 0-.9q.6-.6 1.2-1.3c.4-.3.6-.3.9 0 .5.5 1 1.1 1.6 1.7zm-2.7.1 2.7 2.7 6.2-6.3-.8-.8q0 .1 0 .1-.1 0-.1.1 0 0-.1.1 0 0 0 .1-2.3 2.2-4.6 4.5c-.6.6-.7.6-1.3 0q-.6-.7-1.3-1.3z" fill-rule="evenodd"/><path d="m14.6 10.7q.7 0 1.4 0 .1 0 .2 0 .1 0 .2.1.1.1.2.2 0 .1 0 .3 0 1.4 0 2.8 0 .1 0 .2-.1.1-.2.2-.1.1-.2.1-.1.1-.2.1-1.4 0-2.8 0-.1 0-.2-.1-.2 0-.2-.1-.1-.1-.2-.2 0-.1 0-.2 0-1.4 0-2.8 0-.2 0-.3.1-.1.2-.2 0-.1.2-.1.1 0 .2 0 .7 0 1.4 0zm-1 1v2h2v-2z" fill-rule="evenodd"/><path d="m22.4 12.7q0 .7 0 1.4 0 .1 0 .2-.1.1-.1.2-.1.1-.2.1-.2.1-.3.1-1.4 0-2.8 0-.1 0-.2-.1-.1 0-.2-.1-.1-.1-.1-.2-.1-.1-.1-.2 0-1.4 0-2.8 0-.2.1-.3 0-.1.1-.2.1-.1.2-.1.1 0 .2 0 1.4 0 2.8 0 .1 0 .3 0 .1 0 .2.1 0 .1.1.2 0 .1 0 .3 0 .7 0 1.4zm-1-1h-2v2h2z" fill-rule="evenodd"/><path d="m26.2 10.7q.7 0 1.4 0 .1 0 .2 0 .1 0 .2.1.1.1.1.2.1.1.1.3 0 1.4 0 2.8 0 .1-.1.2 0 .1-.1.2-.1.1-.2.1-.1.1-.2.1-1.4 0-2.8 0-.1 0-.3-.1-.1 0-.2-.1 0-.1-.1-.2 0-.1 0-.2 0-1.4 0-2.8 0-.2 0-.3.1-.1.1-.2.1-.1.2-.1.2 0 .3 0 .7 0 1.4 0zm-1 3h2v-2h-2z" fill-rule="evenodd"/><path d="m20.4 19.5q-.7 0-1.4 0-.1 0-.2 0-.1-.1-.2-.1-.1-.1-.2-.3 0-.1 0-.2 0-1.4 0-2.8 0-.6.6-.6 1.4 0 2.8 0 .6 0 .6.6 0 1.4 0 2.8 0 .6-.6.6-.7 0-1.4 0zm1-1v-2h-2v2z" fill-rule="evenodd"/><path d="m15.6 16.5h-2.5v-.9q0 0 .1 0 0 0 0-.1 0 0 0 0 .1 0 .1 0 1.3 0 2.7 0 .6 0 .6.6 0 1.7 0 3.4h-1z"/><path d="m6.8 8.8h1v.9h-1z"/><path d="m14.6 21.5.9-.1.1 1h-1z"/></g><path d="m19.6 24.3 7.5-6.2 2 2.7-7.7 3.4q-.2 0-.4.1-.3.1-.5.1-.2 0-.5 0-.2 0-.4-.1z" fill="#ef9b11"/></svg>