<svg height="24" viewBox="0 0 24 24" width="24" xmlns="http://www.w3.org/2000/svg"><g fill="#212121"><path d="m6 6q0-.2.1-.4.1-.2.2-.3.1-.1.3-.2.2-.1.4-.1h5q.4 0 .7.3.3.3.3.7 0 .4-.3.7-.3.3-.7.3h-5q-.2 0-.4-.1-.2-.1-.3-.2-.1-.1-.2-.3-.1-.2-.1-.4z"/><path d="m18 14q0 .2-.1.4-.1.2-.2.3-.1.1-.3.2-.2.1-.4.1h-10q-.4 0-.7-.3-.3-.3-.3-.7 0-.4.3-.7.3-.3.7-.3h10q.2 0 .4.1.2.1.3.2.1.1.2.3.1.2.1.4z"/><path d="m18 10q0 .2-.1.4-.1.2-.2.3-.1.1-.3.2-.2.1-.4.1h-10q-.4 0-.7-.3-.3-.3-.3-.7 0-.4.3-.7.3-.3.7-.3h10q.2 0 .4.1.2.1.3.2.1.1.2.3.1.2.1.4z"/><path d="m21.5.3q.8.3 1.3.9.6.5.9 1.3.3.7.3 1.5v12q0 .8-.3 1.5-.3.8-.9 1.3-.5.6-1.3.9-.7.3-1.5.3h-2.9l-4.5 3.8q-.1.1-.3.1-.1.1-.3.1-.2 0-.3-.1-.2 0-.3-.1l-4.5-3.8h-2.9q-.8 0-1.5-.3-.8-.3-1.3-.9-.6-.5-.9-1.3-.3-.7-.3-1.5v-12q0-.8.3-1.5.3-.8.9-1.3.5-.6 1.3-.9.7-.3 1.5-.3h16q.8 0 1.5.3zm.5 3.7q0-.4-.2-.8-.1-.3-.4-.6-.3-.3-.6-.4-.4-.2-.8-.2h-16q-.4 0-.8.2-.3.1-.6.4-.3.3-.4.6-.2.4-.2.8v12q0 .4.2.8.1.3.4.6.3.3.6.4.4.2.8.2h2.9q.2 0 .3 0 .2.1.4.1.2.1.3.2.2.1.3.2l3.8 3.2 3.8-3.2q.1-.1.3-.2.1-.1.3-.2.2 0 .4-.1.1 0 .3 0h2.9q.4 0 .8-.2.3-.1.6-.4.3-.3.4-.6.2-.4.2-.8z" fill-rule="evenodd"/></g><path d="m20.8 2.2q.3.1.6.4.3.3.4.6.2.4.2.8v12q0 .4-.2.8-.1.3-.4.6-.3.3-.6.4-.4.2-.8.2h-2.9q-.2 0-.3 0-.2.1-.4.1-.2.1-.3.2-.2.1-.3.2l-3.8 3.2-3.8-3.2q-.1-.1-.3-.2-.1-.1-.3-.2-.2 0-.4-.1-.1 0-.3 0h-2.9q-.4 0-.8-.2-.3-.1-.6-.4-.3-.3-.4-.6-.2-.4-.2-.8v-12q0-.4.2-.8.1-.3.4-.6.3-.3.6-.4.4-.2.8-.2h16q.4 0 .8.2zm-14.5 3.1q-.3.3-.3.7 0 .4.3.7.3.3.7.3h5q.4 0 .7-.3.3-.3.3-.7 0-.4-.3-.7-.3-.3-.7-.3h-5q-.4 0-.7.3zm11.4 9.4q.3-.3.3-.7 0-.4-.3-.7-.3-.3-.7-.3h-10q-.4 0-.7.3-.3.3-.3.7 0 .4.3.7.3.3.7.3h10q.4 0 .7-.3zm0-4q.3-.3.3-.7 0-.4-.3-.7-.3-.3-.7-.3h-10q-.4 0-.7.3-.3.3-.3.7 0 .4.3.7.3.3.7.3h10q.4 0 .7-.3z" fill="#ef9b11" fill-rule="evenodd"/><path d="m13 6q0 .2-.1.4-.1.2-.2.3-.1.1-.3.2-.2.1-.4.1h-5q-.4 0-.7-.3-.3-.3-.3-.7 0-.4.3-.7.3-.3.7-.3h5q.2 0 .4.1.2.1.3.2.1.1.2.3.1.2.1.4z" fill="#212121"/><path d="m18 10q0 .2-.1.4-.1.2-.2.3-.1.1-.3.2-.2.1-.4.1h-10q-.4 0-.7-.3-.3-.3-.3-.7 0-.4.3-.7.3-.3.7-.3h10q.2 0 .4.1.2.1.3.2.1.1.2.3.1.2.1.4z" fill="#212121"/><path d="m18 14q0 .2-.1.4-.1.2-.2.3-.1.1-.3.2-.2.1-.4.1h-10q-.4 0-.7-.3-.3-.3-.3-.7 0-.4.3-.7.3-.3.7-.3h10q.2 0 .4.1.2.1.3.2.1.1.2.3.1.2.1.4z" fill="#212121"/><path d="m0 0h24v24h-24z" fill="none"/></svg>