<svg height="30" viewBox="0 0 30 30" width="30" xmlns="http://www.w3.org/2000/svg"><path d="m21.7 24.7c-1.9 0-3.8-.8-5.1-2.1-1.4-1.4-2.2-3.3-2.2-5.2s.8-3.8 2.2-5.2c1.3-1.3 3.2-2.1 5.1-2.1 2 0 3.8.8 5.2 2.1 1.4 1.4 2.1 3.3 2.1 5.2s-.7 3.8-2.1 5.2c-1.4 1.3-3.2 2.1-5.2 2.1z" fill="#ef9b11"/><g fill="#114668"><path d="m5.6 3.9c0-.2.1-.2.2-.2q1.2 0 2.4 0 .2 0 .3-.1.2 0 .3-.1.1-.1.1-.3.1-.1.1-.3c0-.4.2-.8.5-1.2.3-.3.7-.4 1.2-.4.4 0 .9.1 1.2.4.3.4.5.8.5 1.2q0 .2 0 .3.1.2.2.3.1.1.2.1.2.1.4.1 1.1 0 2.3 0c.2 0 .2 0 .2.2q0 .8 0 1.5c0 .2 0 .2-.2.2q-2.4 0-4.8 0-2.4 0-4.8 0c-.2 0-.3 0-.3-.3q0-.7 0-1.4z"/><path d="m11.2 30q-4.9 0-9.7 0-.3 0-.6-.1-.3-.1-.5-.4-.2-.2-.3-.4-.1-.3-.1-.6 0-4.1 0-8.3v-3.3q0-1.5 0-3.1c0-2.7 0-5.5 0-8.3q0-.2 0-.3.1-.2.1-.3.1-.2.2-.3.1-.2.2-.3.1-.1.2-.2.1-.1.3-.1.1-.1.3-.1.1-.1.3-.1.4.1.9.1.3 0 .5 0 .3 0 .6 0h.3.1q0 0 0 0 .1 0 .1-.1.1 0 .1 0 0 0 .1 0 0-.1 0-.1 0 0 0-.1 0 0 .1-.1 0 0-.1-.1 0-.1 0-.2 0-.1 0-.2.1-.1.1-.2 0-.1.1-.2.1-.1.1-.1.1 0 .2-.1.1 0 .2 0 .1 0 .2 0 .1 0 .2 0 .3 0 .7 0 .3 0 .5 0 .3 0 .5 0h.3q.1 0 .2 0 0 0 .1-.1.1 0 .1-.1 0 0 0-.1c.2-.6.6-1.1 1.1-1.5s1.2-.6 1.8-.6 1.2.2 1.7.6c.6.4.9.9 1.1 1.5q0 .1.1.1 0 .1.1.1 0 .1.1.1.1 0 .2 0 .6 0 1.2 0h1.2q.6 0 .6.7c0 .7.1.8.8.8h1.8 1.2q.3 0 .6.1.3.1.5.3.2.2.3.5.1.3.1.6v2.3c0 .4-.2.7-.5.7q-.2 0-.3-.1-.1 0-.2-.1-.1-.1-.1-.2 0-.2 0-.3 0-.6 0-1.1 0-.5 0-1c0-.5-.1-.6-.6-.6h-1.6c-.5 0-1 0-1.6 0q0 0-.1 0 0 0-.1 0 0 0 0 0-.1.1-.1.1 0 0 0 .1-.1 0-.1 0 0 .1 0 .1 0 .1 0 .1 0 .4 0 .9 0 .1 0 .3 0 .1-.1.1-.1.1-.2.2-.1 0-.2 0h-5.8-5.8q-.1 0-.2 0-.1-.1-.2-.2-.1 0-.1-.1-.1-.1-.1-.3 0-.5 0-.9.1-.1.1-.1-.1-.1-.1-.1 0 0 0-.1 0 0 0 0-.1-.1-.1-.1 0 0-.1 0 0 0 0 0-.1 0-.1 0-.5 0-1.2 0h-.9-.3q-.1 0-.2 0-.1 0-.1.1-.1.1-.1.2-.1.1-.1.2 0 0 0 .1v22.6c0 .6.1.7.7.7h18.7c.6 0 .7-.1.7-.7q0-.2 0-.4 0-.4 0-.7 0-.1 0-.3.1-.1.1-.1.1-.1.2-.2.1 0 .2 0h.1q.1 0 .2 0 .1.1.2.2 0 0 .1.1 0 .2 0 .3 0 .8 0 1.4 0 .3-.1.6-.1.3-.3.5-.2.2-.5.3-.3.1-.6.1z"/><path d="m6.8 26.2q0 0-.1-.1 0 0-.1 0 0 0-.1 0 0-.1-.1-.1c-.4-.4-.7-.7-1-1q0-.1-.1-.1-.1-.1-.2-.1 0 0-.1.1-.1 0-.2.1-.4.4-.8.8l-.1.1q0 .1-.1.1 0 .1-.1.1-.1 0-.1 0-.1 0-.2 0 0 0-.1 0 0 0-.1 0 0 0-.1 0 0-.1 0-.1-.1 0-.1-.1 0 0-.1-.1 0 0 0-.1 0 0 0-.1 0-.1 0-.1 0-.1.1-.2 0 0 0-.1.1 0 .1-.1l.2-.1q.3-.4.7-.8.1 0 .1 0 0-.1.1-.1 0-.1 0-.1 0-.1 0-.1 0 0 0-.1 0 0 0-.1-.1 0-.1-.1 0 0-.1 0-.4-.4-.7-.8l-.2-.1q-.1-.1-.1-.2-.1-.1-.1-.2 0-.2 0-.3.1-.1.2-.2 0 0 0-.1.1 0 .1 0 .1 0 .1 0 .1-.1.1-.1.1.1.2.1 0 0 .1 0 .1 0 .1.1.1 0 .1.1c.3.3.7.6 1 .9q0 .1.1.1.1.1.1.1.1 0 .2-.1.1 0 .1-.1.5-.5 1-.9 0-.1.1-.1 0-.1.1-.1.1 0 .1 0 .1 0 .2 0 0 0 .1 0 0 0 .1 0 0 0 .1 0 0 .1 0 .1.1.1.2.2 0 .1 0 .3 0 .1-.1.2 0 .1-.1.2c-.3.3-.6.6-.9.9q-.1 0-.1.1 0 0-.1 0 0 .1 0 .1 0 .1 0 .1 0 0 0 .1 0 0 0 .1.1 0 .1 0 0 .1 0 .1.4.4.8.7l.2.2q0 .1.1.1 0 .1 0 .1.1.1.1.2 0 0 0 .1 0 .1 0 .1 0 .1-.1.2 0 .1-.1.1-.1.1-.1.1-.1 0-.1 0 0 0-.1 0 0 0 0 .1-.1 0-.1 0z"/><path d="m4.9 19.9q0 0-.1 0-.1 0-.1 0-.1-.1-.1-.1-.1 0-.1-.1-.7-.7-1.4-1.4-.1-.1-.2-.2 0-.1 0-.2 0-.1 0-.2.1-.1.2-.2 0-.1 0-.1.1 0 .1 0 .1-.1.1-.1.1 0 .2 0 0 0 .1 0 0 0 .1.1 0 0 .1 0 0 .1.1.1.2.2.4.5.2.1.3.2l.1.2.6-1.1c.3-.7.6-1.3 1-2q0-.1.1-.1 0-.1.1-.2.1 0 .1-.1.1 0 .2 0 0 0 .1 0 0 0 0 0 0 0 .1 0 0 0 0 0 .1.1.1.1.1 0 .1.1.1 0 .1.1 0 0 0 .1.1 0 .1.1 0 .1 0 .1 0 .1 0 .2-.1 0-.1.1-.6 1.1-1.1 2.2l-.5.9q0 .1-.1.2-.1.3-.2.5 0 0-.1.1 0 .1-.1.1-.1.1-.1.1-.1 0-.2 0z"/><path d="m4.9 13.6q0 0-.1 0-.1 0-.1 0-.1 0-.1-.1-.1 0-.1-.1-.7-.6-1.4-1.4-.1 0-.2-.1 0-.1 0-.3 0-.1 0-.2.1-.1.2-.2 0 0 0 0 .1-.1.1-.1.1 0 .1 0 .1 0 .1 0 .1 0 .2 0 0 0 .1 0 0 0 .1.1 0 0 .1.1.2.2.4.4.2.1.3.3l.1.1.1-.2.5-.9q.5-1 1-2 0 0 .1-.1 0-.1.1-.1.1-.1.1-.1.1 0 .2 0 0 0 .1 0 0 0 0 0 0 0 .1 0 0 0 0 0 .1 0 .1 0 .1.1.1.1.1.1.1.1 0 0 0 .1.1.1.1.1 0 .1 0 .2 0 0 0 .1-.1.1-.1.1-.6 1.2-1.1 2.3l-.5.9q0 .1-.1.2-.1.2-.2.4 0 .1-.1.1 0 .1-.1.1-.1.1-.1.1-.1 0-.2 0z"/><path d="m11.9 12.2h-2.6q-.2 0-.4-.2-.2-.1-.2-.4 0-.2.2-.4.2-.1.4-.1h5.2q.2 0 .4.1.2.2.2.4 0 .3-.2.4-.2.2-.4.2z"/><path d="m11.9 24.5h-2.6q-.2 0-.4-.2-.2-.1-.2-.4 0-.2.2-.4.2-.2.4-.2h5.2q0 0 .1.1.1 0 .1 0 .1 0 .1 0 .1.1.1.1.1 0 .1.1 0 0 .1.1 0 0 0 .1 0 0 0 .1 0 .1-.1.2 0 .1-.1.2-.1.1-.2.1-.1.1-.2.1z"/><path d="m10.7 18.4h-.9-.5q-.3.1-.5-.1-.1-.2-.1-.4 0-.3.2-.4.1-.2.4-.2h1.5 1.3q.1 0 .1 0 .1 0 .1.1.1 0 .1 0 .1 0 .1.1.1 0 .1.1 0 0 0 .1.1 0 .1.1 0 0 0 .1 0 .1-.1.2 0 .1-.1.2-.1.1-.2.1-.1.1-.2 0h-.6z"/></g><path d="m15.7 5.4c0 .2 0 .2-.2.2q-2.4 0-4.8 0-2.4 0-4.8 0c-.2 0-.3 0-.3-.3q0-.7 0-1.4c0-.2.1-.2.2-.2q1.2 0 2.4 0 .2 0 .3 0 .2-.1.3-.2.1-.1.1-.3.1-.1.1-.3c0-.4.2-.8.5-1.2.3-.3.7-.4 1.2-.4.4 0 .9.1 1.2.4.3.4.5.8.5 1.2q0 .2 0 .3.1.2.2.3.1.1.2.2.2 0 .3 0 1.2 0 2.4 0c.2 0 .2 0 .2.2q0 .8 0 1.5z" fill="#ef9b11"/><path d="m21 14.7v1.7h2.8v1.5h-2.8v1.8h3.1v1.6h-5v-8.1h5v1.5z" fill="#fff"/></svg>