<svg height="29" viewBox="0 0 31 29" width="31" xmlns="http://www.w3.org/2000/svg"><g fill="#114668"><path d="m30 23h-4.7c-.6 0-.8.2-.8.8v.4q0 .5 0 1 .1.2 0 .4 0 .2-.1.4 0 .2-.1.4-.1.2-.2.4-.3.4-.6.7-.3.3-.7.5-.5.2-.9.3-.5.1-.9.1h-16.6q-.8 0-1.5-.2-.8-.2-1.4-.7-.6-.5-1-1.2-.4-.6-.5-1.4v-22.5l.6-.6c.5-.6 1.1-1.2 1.7-1.7v-.1l.1.1q.3.3.6.5.3.4.7.7 0 .1.1.1 0 .1.1.1 0 0 .1.1.1 0 .2 0 0 0 .1 0 .1-.1.1-.1.1 0 .1-.1.1 0 .1-.1.5-.4.9-.9l.4-.3v-.1l.1.1.3.3q.5.5.9.9.1.1.1.1.1.1.2.1 0 0 .1.1.1 0 .1 0 .1 0 .2 0 0-.1.1-.1.1 0 .1-.1.1 0 .1-.1.4-.3.7-.7.3-.2.6-.5v-.1l.1.1q.3.3.6.6.3.3.7.6 0 .1.1.1 0 .1.1.1 0 0 .1.1.1 0 .1 0 .1 0 .2 0 0-.1.1-.1.1 0 .1-.1.1 0 .1-.1.4-.3.7-.7.3-.3.6-.5v-.1l.1.1q.3.3.6.6.3.3.7.7 0 0 .1.1 0 0 .1 0 0 0 .1.1.1 0 .1 0 .1 0 .1 0 .1 0 .1 0 .1-.1.1-.1.1 0 .1-.1 0 0 .1 0 .3-.4.6-.6.3-.4.7-.7v-.1l.1.1q1 1 2.1 2.1.1 0 .1.1 0 0 .1.1 0 0 0 .1 0 .1 0 .1v.2 5.7 1.8c0 .6.2.7.8.7h6.8q0 0 .1 0 .1.1.2.1.1 0 .2 0 0 0 .1 0 .6.1 1 .4.5.2.9.7.3.4.5.9.3.5.3 1v4.5zm-11.7 3.8q0-.1 0-.1 0-.1 0-.1 0 0-.1-.1 0 0 0-.1-.1-.1-.1-.3-.1-.2-.1-.3 0-.2 0-.4-.1-.1-.1-.3c0-2.8 0-8 0-10.7q0-1.4 0-2.7c0-2.6 0-5.2.1-7.8q0-.2-.1-.5 0-.2-.1-.5-.1-.2-.3-.4-.1-.2-.3-.4-.1 0-.1-.1-.1 0-.1 0-.1-.1-.2-.1 0 0-.1 0-.1 0-.1 0-.1.1-.2.1 0 0-.1.1 0 0-.1.1-.4.4-.9.9l-.3.3q0 0 0 0l-.1.1v-.1q-.2-.1-.3-.3h-.1q-.4-.5-.9-.9 0-.1-.1-.1 0-.1-.1-.1-.1-.1-.1-.1-.1 0-.2 0 0 0-.1 0-.1 0-.1.1-.1 0-.2.1 0 0-.1.1-.3.3-.6.6-.3.3-.6.6l-.1.1v-.1q-.3-.3-.6-.6h-.1q-.3-.4-.6-.7-.1 0-.1-.1-.1 0-.1 0-.1-.1-.1-.1-.1 0-.2 0 0 0-.1 0-.1 0-.1.1-.1 0-.1 0-.1.1-.1.1-.4.4-.7.7-.3.3-.6.6l-.1.1v-.1q-.3-.3-.6-.6-.4-.3-.7-.7-.1 0-.1-.1-.1 0-.1 0-.1-.1-.1-.1-.1 0-.2 0 0 0-.1 0 0 0-.1.1-.1 0-.1 0-.1.1-.1.1-.3.4-.7.7-.3.3-.6.6v.1l-.1-.1q-.3-.3-.6-.6l-.3-.3c-.4-.4-.6-.5-.8-.5-.3 0-.5.1-.9.5q-.1.1-.1.2-.1.1-.2.2 0 .1 0 .2-.1.1-.1.2v13.7 7q0 .1 0 .3 0 .1.1.3 0 .1 0 .3.1.1.1.2.2.5.4.9.3.4.7.7.4.3.9.4.5.1 1 .1h13.4c.2 0 .6 0 .6-.4zm5.4-13.8q.1-.1.1-.3 0-.1-.1-.3-.1-.1-.3-.2-.1 0-.3 0h-3.2c-.6 0-.8.2-.8.8v11.9q0 .3 0 .6.1.3.3.6.1.3.3.5.3.2.5.4.1 0 .3.1.1 0 .2 0 .1.1.3.1.1 0 .2 0 .5 0 .9-.2.4-.2.7-.5.3-.3.5-.8.1-.4.1-.9c0-2.5 0-7.9 0-10.5q0-.2 0-.3 0-.2.1-.3 0-.2 0-.4.1-.1.1-.3zm5.2 8.5q0 0 0-.1 0-.1 0-.2.1 0 0-.1 0-1.2 0-2.3 0-.5 0-1c0-.3 0-.7 0-1q0-1.2 0-2.3 0-.5-.1-.9-.2-.4-.5-.7-.3-.3-.7-.5-.4-.2-.8-.2-.3 0-.5.1-.2 0-.4.1-.2.1-.4.3-.2.1-.4.3-.1.1-.2.3-.1.2-.2.4 0 .2 0 .4-.1.2-.1.4v2.9 3.7q0 .2.1.3 0 .1.1.3.1.1.3.1.1 0 .2 0h.1q.7 0 1.4 0 .8 0 1.4 0 .1 0 .2 0 .1 0 .1 0 .1 0 .2-.1 0 0 .1-.1 0 0 .1-.1z" fill-rule="evenodd"/><path d="m9 17.6v-.1q0-.2 0-.3 0-.1 0-.3 0-.2 0-.5-.1-.2-.2-.4-.1-.2-.3-.4-.1-.1-.3-.2-.2-.1-.4-.3-.2-.2-.3-.3-.1-.2-.2-.5-.1-.2-.1-.4v-.1h.7q.2 0 .4 0h.1v.1q.1.1.2.3.1.1.2.2.2.1.4.2.1 0 .3 0h.1q.2 0 .3 0 .2-.1.4-.2.1-.1.2-.3.1-.2.2-.4 0-.1 0-.2 0-.1 0-.3 0-.1 0-.2-.1-.1-.2-.2-.1-.2-.2-.2-.1-.1-.2-.2-.1-.1-.3-.1-.1-.1-.2-.1-.3 0-.6 0-.3-.1-.6-.2-.2-.2-.5-.4-.2-.2-.4-.4-.1-.3-.2-.5-.1-.2-.1-.5-.1-.2 0-.5 0-.2 0-.5.1-.2.2-.4.1-.2.3-.4.1-.2.3-.4.2-.2.5-.3.1 0 .2-.1.1-.1.2-.2 0-.1.1-.3 0-.1 0-.2 0-.4 0-.7 0-.2 0-.4v-.1q.3 0 .5 0 .3 0 .5 0h.1v.1q0 .2 0 .4 0 .4 0 .7 0 .1 0 .3.1.1.1.2.1.1.2.2.1.1.2.1.2.1.5.3.2.2.4.4.1.3.2.5.2.3.2.6v.1h-.8-.3-.1v-.1q-.1-.2-.2-.3-.1-.2-.2-.3-.2-.1-.4-.2-.2-.1-.4-.1 0 0 0 0-.1 0-.1 0 0 .1 0 .1-.1 0-.1 0-.5.1-.7.4-.3.4-.3.9.1.4.4.8.4.3.9.2.4.1.8.2.4.1.7.4.3.3.5.6.2.4.3.8.1.4 0 .8 0 .4-.2.7-.2.4-.5.6-.3.3-.6.5-.1 0-.2.1-.1.1-.2.2 0 .1-.1.2 0 .1 0 .2 0 .4 0 .8 0 .2 0 .4v.1z"/><path d="m11.2 21.2h-4v-.1q0-.2 0-.3 0-.4 0-.7v-.1h2.1 4.3 1.8.1v.1q0 .6 0 1v.1h-.1z"/><path d="m7.4 24.8h-.2v-.1q0 0 0-.1 0-.2 0-.3 0-.3 0-.6v-.1h2 4.3 1.9.1v.1 1 .1h-.1-.1z"/><path d="m4.6 21.2h-1v-.1q0-.1 0-.3 0-.1 0-.2 0-.1 0-.2 0-.1 0-.3v-.1h.1q.2 0 .5 0 .2 0 .4 0h.1v.1q0 .5 0 1v.1z"/><path d="m4.3 24.8h-.7v-.1q0-.1 0-.3s0-.1 0-.2v-.2q0-.1 0-.3v-.1h1.1v.1q0 .6 0 1v.1z"/></g><path d="m23.7 13q-.1.2-.2.3 0 .2 0 .4-.1.1-.1.3 0 .1 0 .3v7.8 2.8q0 .4-.1.8-.2.5-.5.8-.3.3-.7.5-.4.2-.9.2-.1 0-.2 0-.2 0-.3-.1-.1 0-.2 0-.1-.1-.3-.1-.2-.2-.5-.4-.2-.2-.3-.5-.2-.3-.3-.6 0-.3 0-.6 0-2.1 0-4.3v-7.6c0-.6.2-.8.8-.8h1.4 1.8q.2 0 .3 0 .2.1.3.2.1.2.1.3 0 .2-.1.3z" fill="#ef9b11"/><path d="m28.9 21.1q0 .1 0 .1-.1.1-.1.2 0 .1 0 .1-.1.1-.1.2-.1 0-.1 0-.1.1-.2.1 0 0-.1 0-.1 0-.1 0h-.1q-.6 0-1.4 0-.7 0-1.4 0-.2.1-.3 0-.2 0-.3-.1-.1-.1-.1-.3-.1-.1-.1-.3c0-1.2 0-2.5 0-3.7q0-1.5 0-2.9 0-.2.1-.4 0-.2.1-.4 0-.2.1-.4.1-.2.2-.3.3-.3.5-.4.3-.2.6-.3.3-.1.7-.1.3 0 .6.2.3.1.6.3.3.2.5.5.2.3.3.6.1.3 0 .7.1 1.1 0 2.3v.1q0 .4 0 .9 0 .5 0 1 0 1.1.1 2.3z" fill="#ef9b11"/><path d="m0 0h30v28.4h-30z" fill="none"/></svg>