<svg height="24" viewBox="0 0 19 24" width="19" xmlns="http://www.w3.org/2000/svg"><path d="m1.9 3.9c0-1.1.9-2 2-2h12.3c1.1 0 2 .9 2 2v18.1c0 1.1-.9 2-2 2h-12.3c-1.1 0-2-.9-2-2z" fill="#ef9b11"/><path d="m11.2 0h-10.3q-.1 0-.3.1-.2 0-.3.2-.2.1-.2.3-.1.1-.1.3v20.3q0 .1.1.3 0 .2.2.3.1.1.3.2.2.1.3.1h14.4q.2 0 .4-.1.2-.1.3-.2.1-.1.2-.3.1-.2.1-.3v-16.2z" fill="#fff"/><path d="m11.2 4.1q0 .2.1.4.1.1.2.3.1.1.3.2.2 0 .4 0h4.1l-5.1-5z" fill="#ebf2fc"/><g fill="#ef9b11"><path d="m11.7 16.6c.5 0 .9.4.9.9 0 .6-.4 1-.9 1h-7.1c-.5 0-1-.4-1-1 0-.5.5-.9 1-.9z"/><path d="m11.7 12.6c.5 0 .9.4.9.9 0 .6-.4 1-.9 1h-7.1c-.5 0-1-.4-1-1 0-.5.5-.9 1-.9z"/><path d="m11.7 8.6c.5 0 .9.4.9.9 0 .6-.4 1-.9 1h-4.1c-.5 0-1-.4-1-1 0-.5.5-.9 1-.9z"/></g></svg>