<svg height="338" viewBox="0 0 326 338" width="326" xmlns="http://www.w3.org/2000/svg" xmlns:xlink="http://www.w3.org/1999/xlink"><linearGradient id="a" gradientTransform="matrix(0 12.925 -6.564 0 238.32 190.325)" gradientUnits="userSpaceOnUse" x2="1"><stop offset="0" stop-color="#ef9b11"/><stop offset="1" stop-color="#ef9b11"/></linearGradient><linearGradient id="b"><stop offset="0" stop-color="#22577a"/><stop offset=".966" stop-color="#0e2253"/><stop offset="1" stop-color="#0e2253"/></linearGradient><linearGradient id="c" gradientTransform="matrix(-2.259 4.213 -9.323 -5 463.112 -422.855)" gradientUnits="userSpaceOnUse" x2="1" xlink:href="#b"/><linearGradient id="d" gradientTransform="matrix(-20.922 -16.823 31.497 -39.173 127.867 272.949)" gradientUnits="userSpaceOnUse" x2="1" xlink:href="#b"/><linearGradient id="e" gradientTransform="matrix(-36.603 13.244 -13.731 -37.949 97.945 256.871)" gradientUnits="userSpaceOnUse" x2="1" xlink:href="#b"/><linearGradient id="f" gradientTransform="matrix(-2.24 4.211 -3.221 -1.713 87.236 290.6)" gradientUnits="userSpaceOnUse" x2="1" xlink:href="#b"/><path d="m98.6 77.3h-33.1q-1.5 0-2.9-.6-1.5-.6-2.6-1.7-1.1-1.1-1.7-2.6-.6-1.4-.6-3 0-1.5.6-3 .6-1.4 1.7-2.5 1.1-1.1 2.6-1.7 1.4-.6 3-.6h33q1.6 0 3 .6 1.4.6 2.5 1.7 1.1 1.1 1.7 2.5.6 1.5.6 3 0 1.6-.6 3-.6 1.5-1.7 2.6-1.1 1.1-2.5 1.7-1.4.6-3 .6z" fill="#d8e2f4"/><path d="m90.8 66.9c-1.6 6.4-7.9 10.3-14.3 8.8-6.4-1.6-10.3-7.9-8.8-14.3s7.9-10.3 14.3-8.8 10.3 7.9 8.8 14.3z" fill="#d8e2f4"/><path d="m253.5 52.3h-57.8c-1.8 0-3.5-.4-5.2-1.1s-3.2-1.7-4.4-2.9c-1.3-1.3-2.3-2.8-3-4.5-.7-1.6-1-3.4-1-5.2s.3-3.6 1-5.3c.7-1.6 1.7-3.1 3-4.4 1.2-1.3 2.7-2.3 4.4-3 1.7-.6 3.4-1 5.2-1h57.8c1.8 0 3.6.4 5.3 1 1.6.7 3.1 1.7 4.4 3s2.3 2.8 3 4.5c.7 1.6 1 3.4 1 5.2s-.3 3.6-1 5.2c-.7 1.7-1.7 3.2-3 4.5-1.3 1.2-2.8 2.2-4.4 2.9-1.7.7-3.5 1.1-5.3 1.1z" fill="#d8e2f4"/><path d="m234.3 44c-8.1 8.1-21.2 8.1-29.3 0s-8.1-21.2 0-29.3 21.2-8.1 29.3 0 8.1 21.2 0 29.3z" fill="#d8e2f4"/><path d="m91.9 310.6c0 1.1-5.8 1.9-12.9 1.9s-12.9-.8-12.9-1.9c0-1 5.8-1.9 12.9-1.9s12.9.9 12.9 1.9z" fill="#d0dff3"/><path d="m61.5 253c-.4 2.3 2.3 2.7 2.8 5.9.4 3.2-.9 4.1-.5 5.9s3.2 2.2 3.6 6.7c.5 4.6-1.3 4.1-.9 6.8.5 2.7 3.2 2.7 3.6 5 .5 2.2.5 5.4 1.4 8.1s3.6 6.8 4.9 6.8c1.4 0 5-7.7 4.1-10-.9-2.2-2.2-2.7-2.2-4.5s1.8-6.3 1.3-9.5c-.4-3.1-4.5-4.5-5-6.7-.4-2.3.9-8.2-2.2-10.9-3.2-2.7-10.4-5.8-10.9-3.6z" fill="#e7a943"/><path d="m76.2 297.4q0 0 0 0-.1 0-.1-.1-.1 0-.1 0 0-.1 0-.1c0-.1 0-5.9-1.7-7.7-1.8-1.7-2.8-7-3.3-17.3-.4-9.3-7.1-16.9-7.1-17q-.1-.1-.1-.2 0-.1.1-.1 0-.1.1-.1.1 0 .2.1c.1.1 6.8 7.8 7.3 17.3.5 10 1.4 15.4 3.1 17 1.8 1.9 1.9 7.7 1.9 8q0 0 0 .1-.1 0-.1 0 0 .1-.1.1 0 0-.1 0z" fill="#34916f"/><path d="m102.9 259.9c1.6 1.6-3.6 2.2-4.1 5.4-.4 3.1-.4 4.5-2.2 6.3s-4.6 2.3-4.1 5c.4 2.7 1.4 5.4 0 6.7-1.4 1.4-4.5 1.4-5.4 3.7-.9 2.2-.5 4.9-2.3 7.2-1.8 2.2-4.5 6.8-6.8 5.9-2.2-1-.9-11.3 0-13.1.9-1.9 1.8-3.2 1.8-4.6 0-1.3-.4-3.6.5-5.8.9-2.3 5.9-3.2 6.3-4.6.5-1.3.9-8.5 3.6-10.3 2.8-1.8 10-4.6 12.7-1.8z" fill="#e7a943"/><path d="m78.7 299.3q0 0-.1-.1 0 0-.1 0 0-.1 0-.2 0 0 0-.1.4-.5.7-1.1.3-.5.6-1.1.2-.6.5-1.2.2-.6.5-1.1c.1-.4.2-1 .3-1.7.5-2.5 1.3-6.3 2.4-7.5 1.7-1.7 4.4-6.8 6.3-13.4q.6-1.9 1.5-3.5 1-1.6 2.3-3 1.3-1.4 2.9-2.4 1.6-1 3.4-1.7.1 0 .2 0 0 .1.1.2 0 .1 0 .1-.1.1-.2.2-1.7.6-3.3 1.6-1.5 1-2.8 2.3-1.3 1.3-2.2 2.9-.9 1.6-1.5 3.4c-1.9 6.7-4.6 11.9-6.4 13.6-1 1.1-1.8 5-2.2 7.3-.2.7-.3 1.3-.4 1.7q-.2.6-.5 1.2-.2.6-.5 1.2-.3.6-.6 1.1-.3.6-.7 1.2 0 0 0 0-.1.1-.1.1 0 0-.1 0z" fill="#3fb690"/><path d="m78.2 265c-5.5.5-3.6 16.7-3.6 16.7 1.3 14 3.1 20.4 4.5 20.8 1.3.5 4-19.9 4-24.8 0 0 .5-13.1-4.9-12.7z" fill="#f7cd87"/><path d="m78.8 300.3q0-.1-.1-.1 0 0 0 0-.1-.1-.1-.1 0-.1 0-.1c1.8-14.7-.4-33.2-.4-33.4q-.1-.1 0-.1.1-.1.2-.1.1 0 .1 0 .1.1.1.2c0 .2 2.3 18.7.5 33.5q0 0-.1 0 0 .1 0 .1 0 0-.1 0 0 .1-.1.1z" fill="#fff"/><path d="m85.6 310.5h-13.8q-.1 0-.3 0-.1 0-.2-.1-.2-.1-.2-.2-.1-.2-.2-.3l-2-14.3q0-.2.1-.4 0-.2.2-.4.1-.2.3-.3.3-.1.5-.1h17.4q.2 0 .5.1.2.1.3.3.2.2.2.4.1.2.1.4l-2 14.3q-.1.1-.2.3 0 .1-.2.2-.1.1-.2.1-.2 0-.3 0z" fill="#d0daed"/><path d="m106.1 135c0-15.7 12.7-28.4 28.4-28.4h47.1c15.7 0 28.5 12.7 28.5 28.4v152.5c0 15.7-12.8 28.4-28.5 28.4h-47.1c-15.7 0-28.4-12.7-28.4-28.4z" fill="#fff"/><path d="m192.6 317.7h-69.1c-2.5 0-5-.5-7.3-1.4-2.4-1-4.5-2.4-6.3-4.2s-3.2-3.9-4.1-6.2c-1-2.4-1.5-4.9-1.5-7.4v-174.5c0-2.5.5-5 1.5-7.4.9-2.3 2.3-4.4 4.1-6.2s3.9-3.2 6.3-4.2c2.3-.9 4.8-1.4 7.3-1.5h69.1c2.6.1 5.1.6 7.4 1.5 2.3 1 4.5 2.4 6.2 4.2 1.8 1.8 3.3 3.9 4.2 6.2 1 2.4 1.5 4.9 1.5 7.4v174.5c0 2.5-.5 5-1.5 7.4-.9 2.3-2.4 4.4-4.2 6.2-1.7 1.8-3.9 3.2-6.2 4.2-2.3.9-4.8 1.4-7.4 1.4zm-69.1-209.3c-2 0-4 .4-5.9 1.2s-3.6 1.9-5.1 3.4c-1.4 1.4-2.6 3.2-3.3 5-.8 1.9-1.2 4-1.2 6v174.5c0 2 .4 4.1 1.2 6 .7 1.8 1.9 3.6 3.3 5 1.5 1.4 3.2 2.6 5.1 3.4s3.9 1.2 5.9 1.2h69.1c2.1 0 4.1-.4 6-1.2s3.6-2 5-3.4c1.5-1.4 2.6-3.2 3.4-5 .8-1.9 1.2-4 1.2-6v-174.5c0-2-.4-4.1-1.2-6-.8-1.8-1.9-3.6-3.4-5-1.4-1.5-3.1-2.6-5-3.4s-3.9-1.2-6-1.2z" fill="#e0e9f3" fill-rule="evenodd"/><path d="m191.8 306.5h-67.4c-.5 0-1-.2-1.3-.6-.3-.3-.5-.8-.5-1.3s.2-.9.5-1.3c.3-.3.8-.5 1.3-.5h67.4c.5 0 .9.2 1.3.5.3.4.5.8.5 1.3s-.2 1-.5 1.3c-.4.4-.8.6-1.3.6z" fill="#e0e9f3"/><path d="m124.2 120.8c0 1.3-.9 2.6-2.1 3.1-1.3.5-2.8.2-3.7-.7-1-1-1.3-2.5-.8-3.7.6-1.3 1.8-2.1 3.2-2.1q.7 0 1.3.2.6.3 1.1.8.5.4.7 1.1.3.6.3 1.3z" fill="#e0e9f3"/><path d="m232.6 313.1h5.8v-54.8h2.7v21.7h4.4v-21.7h2.7v24.4h-7.1v30.4h5.7c.4 0 .8.1 1 .4.3.3.4.6.4 1s-.1.7-.4 1c-.2.2-.6.4-1 .4h-14.2c-.3 0-.7-.2-.9-.4-.3-.3-.4-.6-.4-1s.1-.7.4-1c.2-.3.6-.4.9-.4z" fill="#ef9b11"/><path d="m242.9 246.5c12.2 0 22 2.3 22 5.1v2.7c0 2.8-9.8 5.1-22 5.1-12.1 0-21.9-2.3-21.9-5.1v-2.7c0-2.9 9.8-5.1 21.9-5.1z" fill="#ef9b11"/><path d="m214.8 178.9c-3.8 7-12.5 9.7-19.6 6-7-3.7-9.7-12.5-6-19.5 3.7-7.1 12.5-9.8 19.5-6.1 7.1 3.8 9.8 12.5 6.1 19.6z" fill="#fff" opacity=".1"/><path d="m211.1 167.7q-.2 0-.4-.1-.2 0-.4-.2-.1-.1-.2-.2-.1-.2-.2-.4-.4-1.2-1.2-2.2-.8-1-2-1.6-1.1-.6-2.4-.7-1.3-.1-2.5.3c-.3.1-.6.1-.9-.1-.3-.1-.5-.4-.6-.7s-.1-.7.1-1c.1-.2.4-.5.7-.6 1.1-.3 2.3-.4 3.4-.3 1.2.1 2.3.4 3.4 1 1 .5 1.9 1.2 2.7 2.1.7.9 1.3 2 1.6 3.1q.1.3.1.6-.1.2-.2.5-.2.2-.5.3-.2.2-.5.2z" fill="#50c6a1" opacity=".2"/><path d="m203.5 154.9c2.3.2 4.5.8 6.5 1.9 2 1 3.8 2.5 5.3 4.2 1.4 1.8 2.5 3.8 3.2 6 2.1 6.6-.1 13.9-5.4 18.4-5.4 4.5-13 5.3-19.2 2-6.2-3.2-9.8-9.9-9.2-16.8.7-7 5.4-12.9 12.1-15 2.2-.7 4.5-.9 6.7-.7zm7.7 28.3c1.5-1.2 2.7-2.7 3.6-4.4s1.4-3.5 1.6-5.4 0-3.8-.6-5.6c-1.8-5.6-6.7-9.6-12.5-10.1s-11.4 2.5-14.1 7.7-2.1 11.5 1.7 16c3.7 4.5 9.8 6.3 15.4 4.5 1.8-.5 3.5-1.5 4.9-2.7z" fill="#d0daed" fill-rule="evenodd"/><path d="m205.5 188.5 2.9-.9 4.1 13.1-2.9.9z" fill="#d0daed"/><path d="m218.4 224.7q-.6.2-1.3.2-.7-.1-1.3-.4-.7-.4-1.1-.9-.4-.5-.7-1.2l-6.2-20.1q-.1-.4-.1-.7 0-.4.2-.7.2-.3.4-.6.3-.2.7-.3l3.1-1q.3-.1.7-.1.4.1.7.2.3.2.6.5.2.3.3.6l6.3 20.1q.2.7.1 1.4 0 .7-.3 1.3-.4.6-.9 1.1-.5.4-1.2.6z" fill="url(#a)"/><path d="m219.6 215.9s-6.5-4-8.4-6.1c-2-2.1-2.8-3-2.3-3.4.5-.5 6 1.9 6.5 1.5s.1-1.4.7-1.8c.6-.5 4.1 3.1 4.9 2.9.9-.3-.4 6.2-1.4 6.9z" fill="#ffaa9d"/><path d="m193.8 290.3-4.8 4.6-12-11.2 4-6.4z" fill="#ffaa9d"/><path d="m189.7 294.2s-3.3 4.2-3.9 4.2-14.5-15.1-14.4-15.6c0-.4 6.1.1 6.1.1z" fill="url(#c)"/><path d="m180.2 276.6s13.9 14.6 14.5 14.6c.5 0 66.9-51 66.9-51l-28.1-12.5s-35.8 9.8-53.3 48.9z" fill="url(#d)"/><path d="m243.3 281 2.3 6.2-15 6.6-4.3-6.1z" fill="#ffaa9d"/><path d="m231.3 227.7s-23.5 4.9-25.6 12.8c-2 8-.2 16.7 6.3 26.9s13.1 21.2 14.5 21.6c0 0 17.4-7 17.8-7.8.3-.9-9.8-24.9-9.8-24.9s20.7-1.3 25.5-13.5z" fill="url(#e)"/><path d="m229.6 227.6c-.2 1.4 25.5 17.5 30 16.7 4.6-.8 10.5-19.5 8.8-33.5-1.6-14-14.1-24.5-19.9-24.1-5.7.5-8.7 5.9-9.5 14.4-1.2 12.5-9.1 25-9.4 26.5z" fill="#ef9b11"/><path d="m251.1 188.9c3-.3 13.4 5.8 15.9 23.9 2.4 18-7.5 19.5-15.9 18.3-8.4-1.1-29.4-11.5-32.5-15.2 0 0-.6-5.8 1.6-7.8 0 0 20.3 2 25.6 3.6 5.2 1.6-6.2-21.8 5.3-22.8z" fill="#ef9b11"/><path d="m245.3 286.3s2.5 4.6 2.2 5.2c-.2.6-19.5 7.4-19.9 7.2-.4-.3 2.5-5.7 2.5-5.7z" fill="url(#f)"/><path d="m234.1 177.2-.1 6.4h1s.7 5.3 4.5 4.5c1.1-.3 2.5-1.2 2.9-1s.6 1.7.7 2.1c.5 1.6 6.1 0 5.2-1.7-.9-1.5-2.2-3.7-1.9-4.3 1-2 1.2-7.2-4-8.9-4.1-1.4-8.2.7-8.3 2.9z" fill="#ffaa9d"/><path d="m248.3 187.5c-.9-1.5-2.2-3.7-1.9-4.3 0 0-2.2 3.4-4.2 3.9q0 0 0 0 .1 0 .1 0 0 0 .1 0c.4.2.6 1.7.7 2.1.5 1.6 6.1 0 5.2-1.7z" fill="#ff9f91"/><path d="m242.8 180.3c2.4-.4.9 5 3.6 4.9 2.7-.2 4.5-6.1 2.6-10.6-2-4.5-5.7-4.2-9.3-3.6-3.5.6-7.9 2.2-7.9 4.9 0 6.5 7.7 1 8.2 3 .4 1.5 1 5.8-.6 5.9-1.5.1-3.1-1.1-4.4-.8-.7.2-2.6 8.7 2.5 8.9 5 .3 6.3-4.1 5.2-7.8-1-3.4-1.1-4.5.1-4.8z" fill="#22577a"/><g fill="#ef9b11"><path d="m189.7 213.1c-2.5 5-5.2 9.9-7.8 14.9q-.9 1.6-1.7 3.2-.3.6-.7 1-.4.5-.9.8-.5.3-1.1.4-.5.2-1.1.2-18.5-.1-36.9-.1-.2.1-.5 0-.2 0-.5 0-.2-.1-.4-.2-.3 0-.5-.1-.4-.2-.7-.5-.3-.3-.5-.6-.2-.4-.3-.8-.1-.4-.1-.8 0-14.8 0-29.7 0-.6.2-1.1.2-.6.6-1 .5-.4 1-.6.6-.3 1.2-.3h2.3c.4 0 .6.1.6.5q0 .9 0 1.7c0 .4-.2.5-.6.5q-.7 0-1.3 0-.3 0-.5.1-.3.1-.5.3-.1.2-.2.4-.1.2-.1.5-.1.2 0 .5 0 13.4 0 26.8c0 1.3.4 1.7 1.7 1.7 1.8 0 1.3.3 2.1-1.3q4.1-8.2 8.1-16.3 0-.2.1-.3.1-.1.1-.2.1-.2.2-.3.1-.1.1-.2.2-.4.5-.6.3-.3.6-.4.4-.2.7-.3.4-.1.8-.1 10.4 0 20.9 0c.7 0 .7 0 .7-.7q0-3 0-6c0-.6.1-.7.7-.5q.4.1.8.4.4.3.6.6.3.4.5.8.1.4.1.9 0 2 0 4c0 .4.1.5.6.5h9.1q.3 0 .6 0 .3.1.6.2.3.2.5.4.2.2.3.5z"/><path d="m143.5 203.6q0-8.9 0-17.7 0-.6.1-1.2.2-.6.7-1 .4-.4 1-.6.6-.2 1.2-.2 9.4 0 18.9 0 .3 0 .5.1.2 0 .5.1.2.1.4.3.2.1.4.3 2.9 3.2 5.9 6.4.1.2.2.3.1.2.2.4 0 .1.1.3 0 .2 0 .4 0 8.6 0 17.2c0 .5-.2.6-.7.6-1.5 0-1.5 0-1.5-1.6q0-7.2 0-14.5c0-.9-.1-1-1-1q-2.1 0-4.2 0c-.9 0-1.3-.4-1.3-1.3q0-2.4 0-4.7c0-.9-.1-1-.9-1h-17.4c-.8 0-.9 0-.9.9q0 16.3 0 32.6 0 .2 0 .4 0 .2-.1.4 0 .2-.1.4-.1.2-.2.4c-.3.7-.7 1.4-1 2-.1.2-.1.4-.3.4s-.3-.2-.4-.4q0-.1 0-.2-.1-.2-.1-.3 0-.1 0-.2 0-.1 0-.3 0-8.9 0-17.7zm23.6-16.7v2.8c0 .3.2.4.4.4q1 0 2.1 0c.1 0 .2 0 .2-.1.1-.1 0-.2-.1-.3q-.5-.6-1-1.1c-.5-.6-1-1.1-1.6-1.7z" fill-rule="evenodd"/><path d="m158.5 196.9h-9.1q-.1 0-.1 0-.1 0-.2 0 0 0-.1 0-.1 0-.1 0-.3 0-.5-.1-.2-.1-.4-.3-.2-.2-.3-.4-.1-.3-.1-.5 0-.3.1-.5.1-.3.3-.4.2-.2.4-.3.3-.1.5-.1 1.4-.1 2.7 0 8.2 0 16.4 0 .2-.1.5 0 .2.1.4.2.2.2.4.4.1.2.2.4 0 .3-.1.6 0 .3-.2.6-.3.2-.5.3-.3.2-.6.1-2.2.1-4.4 0z"/><path d="m158.5 204.4q-4.6 0-9.3 0-.1 0-.2 0-.1 0-.2 0-.1 0-.2 0-.1-.1-.1-.1-.2-.1-.4-.2-.1-.1-.3-.3-.1-.2-.1-.4-.1-.2-.1-.4 0-.2.1-.4.1-.2.2-.3.2-.2.3-.3.2-.1.4-.2.1 0 .2 0 .1-.1.2-.1.1 0 .1 0 .1 0 .2 0 9.3 0 18.5 0 .1 0 .3 0 .1 0 .3.1.1 0 .3.1.1 0 .2.1.4.2.5.6.2.4.1.8-.2.4-.5.7-.3.3-.7.3-1.1 0-2.2 0z"/><path d="m152 209.3q-.2.1-.4.2-.2.1-.4.3-.2.1-.3.2-.2.2-.4.3-.1.1-.3.3-.1.1-.2.3-.1.1-.2.3-.1.2-.2.3 0 .1-.1.2 0 .1-.1.2-.1 0-.2 0-.1.1-.2 0-.3 0-.5-.1-.3-.1-.4-.2-.2-.2-.3-.4-.1-.2-.2-.5 0-.2.1-.5.1-.2.2-.4.2-.2.4-.4.2-.1.5-.1c1.1-.1 2.1 0 3.2 0z"/></g></svg>