<svg height="31" viewBox="0 0 31 31" width="31" xmlns="http://www.w3.org/2000/svg"><path d="m27.3 0c1.6.1 2.7 1.2 2.7 2.8q0 12.2 0 24.5c0 1.6-1.1 2.7-2.7 2.7q-6.1 0-12.3 0-6.1 0-12.2 0c-1.6 0-2.8-1.2-2.8-2.7q0-4.1 0-8.2v-4.1q0-1.7.1-3.5c0-2.8 0-5.8-.1-8.7 0-.7.3-1.4.8-1.9.6-.6 1.3-.9 2-.9 3.4 0 7 .1 11.7.1q3 0 6.1-.1 3 0 6 0h.7zm-9.2 21.8c2.4 2.4 4.9 4.9 6.7 6.7q.2.2.5.2.2 0 .4 0h.8q.3 0 .7 0c.9 0 1.5-.6 1.5-1.5q0-.4 0-.7 0-.2 0-.3 0-.2 0-.3 0-.4 0-.7 0-.4-.3-.7-.8-.8-1.5-1.5-.3-.3-.6-.6l-1.2-1.2q-1.5-1.6-3.1-3.1v-.1c-.1 0-.2-.1-.3-.1q-.2 0-.3.1c-1.1 1.1-2.2 2.2-3.3 3.3 0 0-.1.1-.1.3 0 .1.1.2.1.2zm-16.7-2.5v.4q.1 0 .2.1l.1-.1q0 0 .1-.1 0-.1.1-.1 1-1.1 2.1-2.1c1.4-1.4 2.8-2.8 4.2-4.2.2-.3.4-.4.6-.4q.1 0 .2 0c.2.1.3.2.5.4l1.2 1.2c1.9 1.9 3.9 3.9 5.8 5.9.1 0 .2.1.4.1.1 0 .2-.1.3-.2q.6-.5 1.2-1.1.3-.3.6-.6 1-1.1 2.1-2.1.3-.3.5-.3.2 0 .3.1.3.1.4.3h.1l1.4 1.4q2.2 2.2 4.4 4.4 0 0 0 .1c.1 0 .2.1.3.2h.1v-.1c.1-.1.1-.2.1-.3q0-.1 0-.1 0-9.5 0-19 0-.1 0-.3c-.1-.8-.6-1.4-1.5-1.4q0 0-.1 0h-24.1q-.1 0-.2 0-1.2.1-1.4 1.3 0 .2 0 .4 0 8.1 0 16.2zm21 9.4h.6l-.2-.2q0-.1-.1-.1-.1-.1-.1-.2-5.2-5.1-10.3-10.3-.4-.4-.8-.8-1.2-1.1-2.4-2.3c0-.1-.1-.2-.3-.2-.1 0-.2.1-.3.2-1.9 1.9-3.9 3.9-5.8 5.8l-1.1 1.1c-.1.1-.2.2-.2.5q0 .9 0 1.9 0 1.6 0 3.1c0 .7.4 1.2.9 1.4q.4.1.8.1 9.6 0 19.3 0z" fill="#ef9b11" fill-rule="evenodd"/><path d="m28.7 26.5q0 .3 0 .7c0 .9-.6 1.5-1.5 1.5q-.4 0-.7 0c-.1 0-.6 0-.8 0q-.2 0-.4 0-.3 0-.5-.2c-1.8-1.8-4.3-4.3-6.7-6.7 0 0-.1-.1-.1-.2 0-.2.1-.3.1-.3 1.1-1.1 2.2-2.2 3.3-3.3q.1-.1.3-.1c.1 0 .2.1.3.1v.1q1.6 1.5 3.1 3.1l1.2 1.2q.3.3.6.6.7.7 1.5 1.5.3.3.3.7 0 .3 0 .7 0 .1 0 .3 0 .1 0 .3z" fill="#24577a"/><path d="m15.6 11.2c-2 0-3.6-1.5-3.6-3.5 0-1 .4-1.9 1.1-2.6.6-.7 1.6-1.1 2.5-1.1 1.9 0 3.6 1.6 3.6 3.5.1 1-.3 1.9-1 2.7-.7.7-1.6 1-2.5 1zm0-5.8c-1.2 0-2.2 1-2.2 2.2 0 .6.2 1.2.7 1.6.4.5.9.7 1.5.7 1.2 0 2.2-1 2.2-2.3 0-1.2-.9-2.2-2.1-2.2z" fill="#24577a" fill-rule="evenodd"/><path d="m15.6 9.9c-.6 0-1.1-.2-1.5-.7-.5-.4-.7-1-.7-1.6 0-1.2 1-2.2 2.3-2.2 1.2 0 2.2 1 2.1 2.2 0 1.3-1 2.3-2.2 2.3z" fill="#ef9b11"/></svg>