<svg height="30" viewBox="0 0 30 30" width="30" xmlns="http://www.w3.org/2000/svg"><path d="m30 16.4q0 3.5 0 7.1 0 .4-.1.8-.2.4-.4.7-.2.3-.6.5-.3.3-.7.4-.1 0-.3.1-.1 0-.3 0-.2 0-.4 0-.1 0-.3 0c-.2 0-.3 0-.2.3q.2.3.3.6.1.3.2.6.1.3.2.6.1.3.1.6 0 .3 0 .5-.1.3-.2.4-.2.2-.4.3-.3.1-.5.1h-22.8q-.2 0-.5-.1-.2-.1-.4-.3-.1-.2-.2-.4 0-.2 0-.5.1-.3.1-.6.1-.3.2-.7.1-.3.2-.6.2-.3.3-.6c.1-.1.1-.2-.1-.2q-.2 0-.3 0-.1 0-.3 0-.1 0-.2 0-.1 0-.3 0-.3-.1-.7-.2-.4-.2-.6-.5-.3-.2-.5-.6-.2-.3-.3-.7v-20q.1-.4.3-.7.2-.4.4-.6.3-.3.6-.5.4-.1.8-.2.1 0 .2 0 .2 0 .3 0 .1 0 .3 0 .1 0 .2 0c.2 0 .3-.1.3-.3q0-.3.1-.6.1-.2.2-.5.2-.2.4-.4.2-.1.5-.2h.8q.2.1.5.2.2.2.4.4.1.2.2.5 0 .3 0 .5c0 .3.1.4.3.4q.7-.1 1.3 0c.3 0 .4-.1.4-.4q-.1-.2 0-.5.1-.3.2-.5.2-.2.4-.4.2-.1.5-.2h.8q.2.1.5.2.2.2.3.4.2.2.3.5.1.2 0 .5c0 .3.1.4.4.4q.6-.1 1.2 0c.3 0 .4-.1.3-.3q0-.3.1-.6.1-.2.2-.5.2-.2.4-.4.2-.1.5-.2h.8q.3.1.5.2.2.2.4.4.1.3.2.5.1.3 0 .6c0 .2.1.3.3.3q.7 0 1.3 0c.3 0 .3-.1.3-.3q0-.3.1-.6.1-.2.2-.5.2-.2.4-.4.2-.1.5-.2h.8q.2.1.5.2.2.2.3.4.2.2.3.5 0 .3 0 .5c0 .3.1.4.3.4q.7-.1 1.3 0c.3 0 .4-.1.4-.4q-.1-.2 0-.5.1-.3.2-.5.2-.2.4-.4.2-.1.5-.2h.8q0 0 .1.1.1 0 .2 0 .1.1.1.1.1.1.2.1.1.2.2.3.1.1.2.3.1.2.1.4 0 .1 0 .3c0 .3.1.4.4.4q.3 0 .6 0 .5 0 1 .2.4.1.8.5.3.4.5.8.2.5.2 1 0 5.9 0 11.9zm-1.3 7.9q.1-.2.1-.4.1-.1.1-.3 0-.2 0-.4 0-3.4 0-6.8 0-4.5 0-8.9c0-.5 0-.5-.5-.5h-26.8c-.6 0-.6 0-.6.6q0 4.4 0 8.8 0 3.4 0 6.8 0 .2.1.4 0 .3.1.5.1.3.3.4.2.2.4.3.3.1.5.1.8 0 1.5 0 .1 0 .2 0 0 0 .1 0 0 0 .1-.1 0 0 .1-.1.3-.4.7-.7.3-.4.8-.7.4-.3.8-.6.4-.3.9-.5.5-.3 1.1-.5.6-.3 1.2-.5.6-.2 1.2-.3.6-.1 1.2-.2c.3-.1.3-.2.2-.4q-.2-.4-.4-.9-.5-1.1-.9-2.1c-.1-.3-.2-.3-.4-.1q-.2 0-.3.1-.1.1-.2.2-.2.1-.3.2-.1.1-.2.2-.1.1-.2.2-.1.1-.2.1-.1 0-.2.1-.1 0-.3 0-.1 0-.2 0 0 0-.1 0-.1 0-.2 0-.1 0-.2 0-.3.1-.6.2-.2.1-.5.2-.2.1-.5.3-.2.2-.4.4 0 0 0 0h-1.2q0 0 0 0 .1.2.2.3 0 0 .1.1 0 0 .2 0 0 0 0 0-.2 0-.3-.1-.1-.1-.2-.3.1.2.2.3 0 0 .1.1-.1-.1-.1-.1-.1-.1-.2-.3 0 0 0 0 0 0 0-.1 0 0 0 0 0-.4 0-.8 0-.3 0-.7.1-.4.2-.7 0-.4.2-.7.1-.3.2-.6.4-.9 1.1-1.6.6-.8 1.4-1.3.8-.6 1.8-.9.9-.4 1.9-.5.6-.1 1.3 0 .7 0 1.4.2.6.1 1.2.4.6.3 1.2.7.1.1.2.2.2.2.3.3.1.1.2.2.2.1.3.3 0 0 .1.1 0 .1 0 .2 0 .1 0 .1 0 .1-.1.2 0 .1-.1.1 0 .1-.1.1 0 0-.1.1-.1 0-.2 0-.1 0-.2 0-.4-.1-.8 0-.4.1-.8.3-.4.2-.7.4-.3.3-.6.6 0 .1-.1.1-.1.1-.2.1-.1.1-.2.1-.1 0-.1 0-.1 0-.2 0-.1 0-.2 0-.1 0-.2 0-.1 0-.2.1-.3 0-.5.1c-.3.1-.3.1-.2.4q.5 1.2 1.1 2.5.1.4.3.7 0 .1.1.2 0 .1.1.1.1.1.1.1.1 0 .2 0 .4-.1.9-.1.4 0 .8.1.4 0 .9 0 .4.1.8.1.5.1 1 .2.5.1 1 .2.5.2 1 .4.5.1.9.3c.2.1.3.1.4-.1q0 0 .1-.1 0-.1 0-.1.1-.1.1-.1 0-.1.1-.1 0-.1.1-.2.1 0 .2 0 .1-.1.2 0 .1 0 .2 0 .1.1.1.2.1 0 .1.1 0 .1 0 .2 0 .1 0 .2 0 .1-.1.1 0 .1 0 .1 0 .1-.1.1 0 0 0 .1c-.1.1-.1.2.1.3q.4.3.7.5.4.3.8.6.3.3.7.6.3.3.6.7 0 0 .1 0 0 .1.1.1 0 0 .1 0 0 0 .1 0 .7 0 1.4 0 .2 0 .3 0 .1 0 .2-.1.1 0 .3-.1.1 0 .1-.1.2-.2.3-.3zm-4.2-21.8q0 .5 0 1 0 .1.1.1 0 .1.1.2 0 .1.1.1.1 0 .2.1.1 0 .2-.1 0 0 .1-.1.1-.1.1-.1 0-.1 0-.2.1-1 0-2 0-.1 0-.2 0 0-.1-.1-.1-.1-.1-.1-.1 0-.2 0-.4 0-.5.4 0 .5 0 1zm-5 .9q0 .1 0 .2.1.1.1.2.1.1.2.1.1 0 .2.1c.2 0 .4-.2.4-.5q0-.5 0-1 0-.5 0-.9 0-.5-.4-.5-.1 0-.2 0-.1 0-.2.1 0 .1-.1.2 0 .1 0 .2 0 .9 0 1.8zm-5-.9q0 .5 0 1 0 .1.1.1 0 .1.1.2 0 .1.1.1.1 0 .2.1.1 0 .2-.1 0 0 .1-.1.1-.1.1-.1 0-.1 0-.2 0-1 0-2 0-.1 0-.2 0 0-.1-.1 0-.1-.1-.1-.1 0-.2 0-.1 0-.2 0-.1 0-.1.1-.1.1-.1.2-.1 0-.1.1 0 .5 0 1zm-5 .9q0 .1.1.2 0 .1.1.2 0 .1.1.1.1 0 .2 0 .1 0 .2 0 .1 0 .1-.1.1-.1.1-.2.1-.1.1-.2 0-.4 0-.9 0-.5 0-1 0-.1-.1-.1 0-.1-.1-.2 0-.1-.1-.1-.1 0-.2 0-.4 0-.4.4-.1 1-.1 1.9zm-5 0q0 .1.1.2 0 .1.1.2 0 .1.1.1.1 0 .2.1c.2 0 .4-.2.4-.6q0-.4 0-.9 0-.5 0-1 0-.4-.4-.4-.1 0-.2 0-.1 0-.2.1 0 .1 0 .2-.1.1-.1.2 0 .9 0 1.8zm-3.5 2.1c0 .5 0 .5.5.5h24.5q1.3 0 2.6 0c.2 0 .3-.1.3-.4q0-.6 0-1.3 0-.1 0-.3-.1-.1-.2-.2 0-.1-.1-.3-.1-.1-.2-.1-.2-.1-.3-.2-.1-.1-.3-.1-.1 0-.3-.1-.1 0-.3.1c-.6 0-.6 0-.7.5q0 .1 0 .2-.1.3-.3.6-.1.2-.4.4-.2.1-.5.2-.3.1-.6 0-.2 0-.5-.2-.2-.1-.4-.3-.2-.2-.3-.5-.1-.3 0-.5c0-.4-.1-.4-.5-.4h-1c-.5 0-.5 0-.5.4q0 .3-.1.5-.1.3-.2.5-.2.2-.4.3-.2.1-.5.2-.2 0-.5 0-.2 0-.5-.1-.2-.1-.4-.3-.2-.2-.3-.4 0-.1-.1-.2 0-.1 0-.2 0-.1-.1-.2 0-.1 0-.2c0-.3-.1-.4-.3-.4q-.5.1-1.1 0c-.5 0-.5 0-.5.5 0 .4-.2.8-.5 1.1s-.6.4-1.1.4c-.4 0-.7-.2-1-.5s-.5-.6-.5-1 0-.5-.4-.5q-.5 0-1 0c-.4 0-.4.1-.5.5q0 .4-.1.7-.2.3-.5.6-.3.2-.7.2-.4.1-.7-.1-.3-.1-.5-.2-.2-.2-.3-.4-.1-.2-.2-.4 0-.2 0-.5c0-.3-.1-.4-.4-.4q-.6.1-1.1 0c-.5 0-.5 0-.5.5q0 .3-.1.5-.1.3-.2.5-.2.2-.4.3-.2.1-.5.2-.2 0-.5 0-.2 0-.5-.1-.2-.1-.4-.3-.2-.2-.3-.5 0 0-.1-.1 0-.1 0-.2 0-.1 0-.2-.1-.1-.1-.2c.1-.3-.1-.4-.3-.4q-.4 0-.7.1-.3 0-.5.1-.2.1-.4.2-.2.2-.3.4-.1.3-.1.5-.1.6-.1 1.2zm25.3 22.6q-.3-.8-.6-1.5-.4-.7-.9-1.3-.5-.6-1.2-1.1-.6-.5-1.3-.9 0 0-.1 0 0 0 0 0 0 0-.1 0 0 0 0 0-.1.1-.2.2 0 .1-.1.2 0 .1 0 .2 0 .2 0 .3.3.4.6.9.1.1.1.2 0 .1 0 .3 0 .1-.1.2 0 .1-.1.1-.1.1-.2.1-.1 0-.2 0-.2 0-.2-.1-.1-.1-.2-.2-.3-.5-.6-.9 0-.1-.1-.1 0-.1-.1-.1 0 0-.1-.1-.1 0-.1 0-2 0-3.9 0-.1 0-.2 0 0 .1-.1.1 0 0-.1.1 0 0-.1.1-.3.4-.6.9 0 .1-.1.2-.1.1-.2.1-.1 0-.3 0-.1 0-.2-.1-.1 0-.1-.1-.1-.1-.1-.3 0-.1 0-.2 0-.1.1-.2.4-.6.8-1.1 0-.1.1-.3.2-.1.3-.1.1-.1.3-.1.1-.1.3 0c1.2 0 2.5-.1 3.8 0q.1 0 .2 0 .2-.1.3-.1.1-.1.1-.2.1-.1.2-.2c.1-.2.1-.3-.2-.4q-.7-.3-1.4-.5-.7-.2-1.5-.3-.8-.2-1.5-.2-.8-.1-1.5-.1-.2 0-.4 0c-.2.1-.3.2-.2.3q.2.3.3.6 0 .1 0 .2.1.1 0 .2 0 .2-.1.2-.1.1-.2.2-.1 0-.2 0-.1 0-.2 0-.1-.1-.2-.2-.1-.1-.1-.2-.2-.4-.4-.9 0 0-.1-.1 0 0-.1-.1 0 0-.1 0-.1 0-.1 0-.4 0-.7.1-.9.1-1.7.4-.8.2-1.5.6-.8.3-1.5.8-.7.4-1.4 1-.4.3-.8.8-.4.5-.7 1-.3.5-.6 1.1-.2.5-.3 1.1c0 .3.1.3.3.3h21.7c.9 0 .9 0 .7-.8zm-16.8-14.3q-.1.2-.2.5-.1.2-.1.5 0 .2 0 .5 0 .1 0 .3 0 .1 0 .2 0 .2.1.3 0 .1 0 .3.1.1.1.2c0 .1.1.2.2.1q.2-.2.4-.3.4-.2.7-.4.3-.2.6-.3.4-.1.7-.2.4-.1.7-.2c.2 0 .3-.1.2-.2q-.2-.4-.5-.7-.3-.3-.6-.6-.3-.2-.7-.4-.4-.2-.8-.2-.1-.1-.1 0-.1 0-.2 0-.1 0-.1.1-.1 0-.1.1-.2.2-.3.4zm2.5-1.2q0 0 0 0 0 .1.1.1 0 0 0 0 .3.2.5.4.3.2.5.5.2.2.4.5.2.2.3.5c.1.2.2.1.3 0q.2-.1.3-.2.2-.1.3-.1.2-.1.3-.2.2-.1.3-.1l.9-.3q-.5-.4-1-.6-.5-.2-1-.4-.6-.1-1.1-.1-.6-.1-1.1 0 0 0 0 0zm-5.7 5.4q.2-.2.4-.3.3-.1.5-.2.3-.1.5-.2.3 0 .5-.1.3 0 .2-.2 0-.1-.1-.2 0 0 0-.1 0-.1 0-.2-.1-.1-.1-.1 0-.3-.1-.5 0-.2 0-.5 0-.2 0-.4 0-.3.1-.5s0-.1-.1-.2c0 0-.1 0-.1.1q-.2.2-.4.4-.2.2-.4.5-.2.2-.4.5-.1.3-.2.6-.1.1-.2.3 0 .2-.1.4-.1.2-.1.4 0 .1-.1.3c0 .1 0 .2.1.2zm-.1 1.4h-1.2c.1.1.5.4.5.4q.1.1.3 0 .1-.1.2-.2.1-.1.2-.2z" fill="#114668" fill-rule="evenodd"/><path d="m25.3 12.1q.1 0 .1.1.1 0 .1.1.1.1.1.2-.1.1-.1.2 0 .1-.1.2-.1 0-.2.1 0 0-.1 0-.1 0-.2 0c-.2 0-.4 0-.5.3s.1.4.2.5q.1 0 .1.1 0 .1.1.1 0 .1 0 .2 0 0 0 .1 0 .1 0 .2-.1.1-.2.1 0 .1-.1.1-.1.1-.2.1c-.3 0-.4-.2-.6-.4-.1-.1-.2-.1-.4-.1-.1.1-.3.2-.2.4q0 .1 0 .1 0 0 0 .1 0 0 0 .1 0 0 0 0-.1.1-.1.2 0 .1-.1.2-.1 0-.1.1-.1 0-.2 0-.1 0-.2 0-.1 0-.2-.1 0-.1-.1-.1 0-.1-.1-.2 0 0 0-.1 0 0 0-.1 0 0 0-.1 0 0 0-.1 0 0 0-.1 0-.1-.1-.1 0-.1-.1-.1 0-.1-.1-.1c-.2-.1-.3.1-.4.2q0 0-.1.1 0 0-.1.1-.1 0-.1 0-.1.1-.2.1 0 0-.1 0-.1 0-.2-.1 0 0-.1-.1 0 0-.1-.1 0-.1 0-.1-.1-.1-.1-.2 0-.1.1-.1 0-.1.1-.2 0 0 0 0 0-.1.1-.1 0 0 0 0 0-.1.1-.1 0 0 .1-.1 0 0 0-.1 0-.1 0-.1 0-.1 0-.2 0 0-.1-.1 0 0-.1 0 0-.1-.1-.1 0 0-.1 0 0 0-.1 0 0 0-.1 0 0 0 0 0-.1 0-.1 0-.1 0-.2 0-.1-.1-.1-.1-.1-.1-.1-.2-.1-.1-.1-.2 0-.1 0-.1.1-.1.1-.2.1-.1.1-.1.1-.1.2-.1 0 0 .1 0 0 0 .1-.1 0 0 .1 0 0 0 .1 0 0 0 .1 0 .1 0 .1 0 .1 0 .1-.1.1 0 .1-.1 0-.1 0-.1 0-.1 0-.1 0-.1-.1-.2 0 0 0 0-.1-.1-.1-.1 0 0-.1-.1 0 0 0 0-.1-.2-.1-.4 0-.2.1-.3.2-.2.4-.2.2 0 .4.2 0 0 0 0 0 0 .1.1 0 0 0 0 .1 0 .1.1 0 0 .1 0 0 .1 0 .1.1 0 .1 0 .1 0 .1-.1c.2 0 .3-.1.3-.3q0 0 0-.1 0 0 0-.1 0-.1 0-.1 0-.1 0-.1.1-.1.1-.2.1-.1.1-.1.1-.1.2-.1.1 0 .2 0 .1 0 .2 0 .1.1.1.1.1.1.1.2.1.1.1.2 0 0 0 0 0 .1 0 .1 0 0 0 .1 0 0 0 .1 0 .1 0 .2.1.1.2.1.1.1.2 0 .2 0 .2-.1.1 0 .1 0 0-.1.1-.1 0 0 0 0 0-.1.1-.1 0-.1.1-.1.1 0 .2 0 .1 0 .2 0 .1.1.2.1 0 .1.1.2 0 .1 0 .2 0 .1 0 .2 0 .1-.1.1 0 .1 0 .1-.1 0-.1.1 0 0-.1 0 0 .1 0 .1c-.1.1-.2.2-.1.4.1.1.1.3.3.2q.1 0 .1 0 .1 0 .1 0 .1.1.1.1.1 0 .1 0 .1 0 .2.1zm-2.4 1.3q.2-.1.3-.2.1-.2.2-.3.1-.2.1-.4 0-.2-.1-.4-.1-.2-.2-.3-.1-.1-.3-.2-.2-.1-.4 0-.2-.1-.3 0-.2.1-.3.2-.2.1-.2.3-.1.2-.1.4 0 .2.1.3 0 .2.2.4.1.1.3.2.1 0 .3 0 .2 0 .4 0z" fill="#114668" fill-rule="evenodd"/><g fill="#ef9b11"><path d="m25.6 28.9h-21.4q-.2 0-.3 0c-.2 0-.3 0-.3-.3q.1-.6.3-1.1.2-.6.6-1.1.3-.5.7-1 .3-.4.8-.8.7-.6 1.4-1 .7-.5 1.5-.8.7-.3 1.5-.6.8-.2 1.7-.4.3 0 .7-.1 0 0 .1 0 .1 0 .1 0 .1.1.1.1.1.1.1.2.2.4.4.9.1.2.3.3.2.1.4 0 .2-.1.3-.3.1-.3 0-.5-.1-.3-.3-.5c0-.2 0-.3.2-.3q.2 0 .4-.1.7 0 1.5.1.8.1 1.5.2.8.1 1.5.4.7.2 1.4.5c.3.1.3.1.2.4q-.1.1-.2.2 0 0-.1.1-.1.1-.3.1-.1 0-.2 0c-1.3 0-2.5 0-3.8 0q-.2 0-.3 0-.2 0-.3.1-.1.1-.2.2-.2.1-.2.2-.4.6-.8 1.1-.1.1-.1.2 0 .1 0 .3 0 .1.1.2 0 .1.1.1.1.1.2.1.2 0 .3 0 .1 0 .2-.1.1-.1.1-.2.3-.4.6-.9.1-.1.1-.1.1-.1.1-.1.1 0 .1 0 .1-.1.2 0 1.9 0 3.9 0 0-.1.1 0 .1 0 .1 0 .1 0 .1.1.1 0 .1.1.3.5.6.9.1.2.4.3.2.1.4-.1.2-.1.2-.3.1-.3-.1-.5-.3-.4-.6-.9 0-.1 0-.2 0-.2 0-.3.1-.1.1-.2.1-.1.2-.2 0 0 .1 0 0 0 0 0 0 0 .1 0 0 .1 0 .1.7.3 1.3.8.7.5 1.2 1.1.5.6.9 1.3.4.7.6 1.5c.2.8.2.8-.7.8z"/><path d="m8.2 17.2q-.2.1-.5.1-.2.1-.5.2-.2.1-.5.2-.2.1-.4.2c-.1.1-.1.1-.1.1-.1 0-.1-.1-.1-.2q.1-.2.1-.4 0-.1.1-.3.1-.2.1-.4.1-.2.2-.3.1-.3.2-.6.2-.3.4-.5.2-.3.4-.5.2-.2.4-.4c0-.1.1-.1.1-.1.1.1.1.2.1.2q-.1.2-.1.5 0 .2 0 .4 0 .3 0 .5.1.2.1.5 0 0 .1.1 0 .1 0 .2 0 0 0 .1.1.1.1.2.1.2-.2.2z"/><path d="m23.5 12.5q0 .2-.1.4-.1.1-.2.3-.2.1-.3.2-.2 0-.4 0-.2 0-.4 0-.1-.1-.3-.2-.1-.2-.2-.4 0-.1 0-.3 0-.2 0-.4.1-.2.2-.3.2-.1.3-.2.2-.1.4 0 .2-.1.4 0 .1.1.3.2.1.1.2.3.1.2.1.4z"/><path d="m16.2 13.7c-.3.1-.6.2-.9.3q-.1 0-.3.1-.1.1-.3.2-.1 0-.3.1-.1.1-.3.2c-.1.1-.2.2-.3 0q-.1-.3-.3-.5-.2-.3-.4-.5-.2-.3-.5-.5-.2-.2-.5-.4 0 0 0 0 0 0-.1-.1 0 0 0 0 .5-.1 1.1 0 .5 0 1.1.1.5.2 1 .4.5.2 1 .6z"/><path d="m12.7 15.3q-.3.1-.7.2-.3.1-.7.2-.3.1-.6.3-.4.2-.7.4-.2.1-.4.3c-.1.1-.2 0-.2-.2q0-.1-.1-.1 0-.2 0-.3-.1-.1-.1-.3 0-.1 0-.3 0-.1 0-.2 0-.3 0-.5 0-.3.1-.5.1-.3.2-.5.1-.2.3-.4 0-.1.1-.1 0-.1.1-.1.1 0 .2 0 0 0 .1 0 .4 0 .8.2.4.2.7.4.3.3.6.6.3.3.5.7c.1.1 0 .2-.2.2z"/></g></svg>