<svg height="24" viewBox="0 0 24 24" width="24" xmlns="http://www.w3.org/2000/svg"><path d="m23.5 9.5q.2.2.3.5.1.3.2.6 0 .3 0 .6v9.8q0 .6-.2 1.2-.3.5-.7.9-.4.4-.9.7-.6.2-1.2.2h-18q-.6 0-1.1-.2-.6-.3-1-.7-.4-.4-.7-.9-.2-.6-.2-1.2v-9.8q0-.3.1-.6 0-.3.1-.6.1-.3.3-.5.2-.3.4-.5l7.6-7.5q.7-.7 1.6-1.1.9-.4 1.9-.4 1 0 1.9.4.9.4 1.6 1.1l7.6 7.5q.2.2.4.5zm-1.5 1.7q0-.1 0-.2 0-.1-.1-.2 0-.1-.1-.2 0-.1-.1-.1l-7.6-7.6q-.4-.4-1-.7-.5-.2-1.1-.2-.6 0-1.1.2-.6.3-1 .7l-7.6 7.6q-.1 0-.1.1-.1.1-.1.2-.1.1-.1.2 0 .1 0 .2v9.8q0 .2.1.4.1.2.2.3.1.2.3.2.2.1.4.1h4v-3.9c0-1.4.5-2.6 1.5-3.6.9-.9 2.2-1.4 3.5-1.4s2.6.5 3.5 1.4c1 1 1.5 2.2 1.5 3.6v3.9h4q.2 0 .4-.1.2 0 .3-.2.1-.1.2-.3.1-.2.1-.4zm-7 6.9c0-.8-.3-1.6-.9-2.1-.5-.6-1.3-.9-2.1-.9s-1.6.3-2.1.9c-.6.5-.9 1.3-.9 2.1v3.9h6z" fill="#212121" fill-rule="evenodd"/><path d="m22 11.2v9.8q0 .2-.1.4-.1.2-.2.3-.1.2-.3.2-.2.1-.4.1h-4v-3.9c0-1.4-.5-2.6-1.5-3.6-.9-.9-2.2-1.4-3.5-1.4s-2.6.5-3.5 1.4c-1 1-1.5 2.2-1.5 3.6v3.9h-4q-.2 0-.4-.1-.2 0-.3-.2-.1-.1-.2-.3-.1-.2-.1-.4v-9.8q0-.1 0-.2 0-.1.1-.2 0-.1.1-.2 0-.1.1-.1l7.6-7.6q.4-.4 1-.7.5-.2 1.1-.2.6 0 1.1.2.6.3 1 .7l7.6 7.6q.1 0 .1.1.1.1.1.2.1.1.1.2 0 .1 0 .2z" fill="#ef9b11"/><path d="m15 18.1v3.9h-6v-3.9c0-.8.3-1.6.9-2.2.5-.5 1.3-.8 2.1-.8s1.6.3 2.1.8c.6.6.9 1.4.9 2.2z" fill="#ef9b11"/><path d="m0 0h24v24h-24z" fill="none"/></svg>