<svg height="338" viewBox="0 0 326 338" width="326" xmlns="http://www.w3.org/2000/svg" xmlns:xlink="http://www.w3.org/1999/xlink"><linearGradient id="a"><stop offset=".003" stop-color="#ffc9d5"/><stop offset="1" stop-color="#fae8f3"/></linearGradient><linearGradient id="b" gradientTransform="matrix(9.177 -10.789 8.443 7.182 -73.907 174.489)" gradientUnits="userSpaceOnUse" x2="1" xlink:href="#a"/><linearGradient id="c"><stop offset="0" stop-color="#22577a"/><stop offset=".997" stop-color="#ffc9d5"/><stop offset="1" stop-color="#ffc9d5"/></linearGradient><linearGradient id="d" gradientTransform="matrix(13.815 0 0 13.059 306.335 276.356)" gradientUnits="userSpaceOnUse" x2="1" xlink:href="#c"/><linearGradient id="e" gradientTransform="matrix(15.294 0 0 11.539 315.301 277.734)" gradientUnits="userSpaceOnUse" x2="1" xlink:href="#c"/><linearGradient id="f" gradientTransform="matrix(18.7 0 0 55.09 334.672 245.344)" gradientUnits="userSpaceOnUse" x2="1" xlink:href="#c"/><linearGradient id="g" gradientTransform="matrix(17.306 0 0 9.462 310.76 277.696)" gradientUnits="userSpaceOnUse" x2="1" xlink:href="#c"/><linearGradient id="h" gradientTransform="matrix(18.227 0 0 7.429 315.232 279.938)" gradientUnits="userSpaceOnUse" x2="1" xlink:href="#c"/><linearGradient id="i" gradientTransform="matrix(-9.817 .44 -.278 -6.211 297.997 189.78)" gradientUnits="userSpaceOnUse" x2="1" xlink:href="#a"/><linearGradient id="j" gradientTransform="matrix(11.142 0 0 15.897 -81.934 200.366)" gradientUnits="userSpaceOnUse" x2="1" xlink:href="#a"/><linearGradient id="k" gradientTransform="matrix(-21.239 0 0 -33.408 -73.331 188.31)" gradientUnits="userSpaceOnUse" x2="1"><stop offset="0" stop-color="#fae8f3"/><stop offset=".997" stop-color="#ffc9d5"/></linearGradient><linearGradient id="l" gradientTransform="matrix(9.6 -11.295 3.587 3.049 -83.601 222.088)" gradientUnits="userSpaceOnUse" x2="1" xlink:href="#a"/><linearGradient id="m" gradientTransform="matrix(9.764 0 0 20.093 267.374 211.481)" gradientUnits="userSpaceOnUse" x2="1"><stop offset=".003" stop-color="#ffd1db"/><stop offset=".163" stop-color="#fdd7e1"/><stop offset=".596" stop-color="#fae3ee"/><stop offset="1" stop-color="#fae8f3"/></linearGradient><g fill="#d8e2f4"><path d="m98.6 77.3h-33.1q-1.5 0-2.9-.6-1.5-.6-2.6-1.7-1.1-1.1-1.7-2.6-.6-1.4-.6-3 0-1.5.6-3 .6-1.4 1.7-2.5 1.1-1.1 2.6-1.7 1.4-.6 3-.6h33q1.6 0 3 .6 1.4.6 2.5 1.7 1.1 1.1 1.7 2.5.6 1.5.6 3 0 1.6-.6 3-.6 1.5-1.7 2.6-1.1 1.1-2.5 1.7-1.4.6-3 .6z"/><path d="m90.8 66.9c-1.6 6.4-7.9 10.3-14.3 8.8-6.4-1.6-10.3-7.9-8.8-14.3s7.9-10.3 14.3-8.8 10.3 7.9 8.8 14.3z"/><path d="m253.5 52.3h-57.8c-1.8 0-3.5-.4-5.2-1.1s-3.2-1.7-4.4-2.9c-1.3-1.3-2.3-2.8-3-4.5-.7-1.6-1-3.4-1-5.2s.3-3.6 1-5.3c.7-1.6 1.7-3.1 3-4.4 1.2-1.3 2.7-2.3 4.4-3 1.7-.6 3.4-1 5.2-1h57.8c1.8 0 3.6.4 5.3 1 1.6.7 3.1 1.7 4.4 3s2.3 2.8 3 4.5c.7 1.6 1 3.4 1 5.2s-.3 3.6-1 5.2c-.7 1.7-1.7 3.2-3 4.5-1.3 1.2-2.8 2.2-4.4 2.9-1.7.7-3.5 1.1-5.3 1.1z"/><path d="m234.3 44c-8.1 8.1-21.2 8.1-29.3 0s-8.1-21.2 0-29.3 21.2-8.1 29.3 0 8.1 21.2 0 29.3z"/></g><path d="m91.9 310.6c0 1.1-5.8 1.9-12.9 1.9s-12.9-.8-12.9-1.9c0-1 5.8-1.9 12.9-1.9s12.9.9 12.9 1.9z" fill="#d0dff3"/><path d="m61.5 253c-.4 2.3 2.3 2.7 2.8 5.9.4 3.2-.9 4.1-.5 5.9s3.2 2.2 3.6 6.7c.5 4.6-1.3 4.1-.9 6.8.5 2.7 3.2 2.7 3.6 5 .5 2.2.5 5.4 1.4 8.1s3.6 6.8 4.9 6.8c1.4 0 5-7.7 4.1-10-.9-2.2-2.2-2.7-2.2-4.5s1.8-6.3 1.3-9.5c-.4-3.1-4.5-4.5-5-6.7-.4-2.3.9-8.2-2.2-10.9-3.2-2.7-10.4-5.8-10.9-3.6z" fill="#3fb790"/><path d="m76.2 297.4q0 0 0 0-.1 0-.1-.1-.1 0-.1 0 0-.1 0-.1c0-.1 0-5.9-1.7-7.7-1.8-1.7-2.8-7-3.3-17.3-.4-9.3-7.1-16.9-7.1-17q-.1-.1-.1-.2 0-.1.1-.1 0-.1.1-.1.1 0 .2.1c.1.1 6.8 7.8 7.3 17.3.5 10 1.4 15.4 3.1 17 1.8 1.9 1.9 7.7 1.9 8q0 0 0 .1-.1 0-.1 0 0 .1-.1.1 0 0-.1 0z" fill="#34916f"/><path d="m102.9 259.9c1.6 1.6-3.6 2.2-4.1 5.4-.4 3.1-.4 4.5-2.2 6.3s-4.6 2.3-4.1 5c.4 2.7 1.4 5.4 0 6.7-1.4 1.4-4.5 1.4-5.4 3.7-.9 2.2-.5 4.9-2.3 7.2-1.8 2.2-4.5 6.8-6.8 5.9-2.2-1-.9-11.3 0-13.1.9-1.9 1.8-3.2 1.8-4.6 0-1.3-.4-3.6.5-5.8.9-2.3 5.9-3.2 6.3-4.6.5-1.3.9-8.5 3.6-10.3 2.8-1.8 10-4.6 12.7-1.8z" fill="#4fc7a0"/><path d="m78.7 299.3q0 0-.1-.1 0 0-.1 0 0-.1 0-.2 0 0 0-.1.4-.5.7-1.1.3-.5.6-1.1.2-.6.5-1.2.2-.6.5-1.1c.1-.4.2-1 .3-1.7.5-2.5 1.3-6.3 2.4-7.5 1.7-1.7 4.4-6.8 6.3-13.4q.6-1.9 1.5-3.5 1-1.6 2.3-3 1.3-1.4 2.9-2.4 1.6-1 3.4-1.7.1 0 .2 0 0 .1.1.2 0 .1 0 .1-.1.1-.2.2-1.7.6-3.3 1.6-1.5 1-2.8 2.3-1.3 1.3-2.2 2.9-.9 1.6-1.5 3.4c-1.9 6.7-4.6 11.9-6.4 13.6-1 1.1-1.8 5-2.2 7.3-.2.7-.3 1.3-.4 1.7q-.2.6-.5 1.2-.2.6-.5 1.2-.3.6-.6 1.1-.3.6-.7 1.2 0 0 0 0-.1.1-.1.1 0 0-.1 0z" fill="#3fb690"/><path d="m78.2 265c-5.5.5-3.6 16.7-3.6 16.7 1.3 14 3.1 20.4 4.5 20.8 1.3.5 4-19.9 4-24.8 0 0 .5-13.1-4.9-12.7z" fill="#90dad8"/><path d="m78.8 300.3q0-.1-.1-.1 0 0 0 0-.1-.1-.1-.1 0-.1 0-.1c1.8-14.7-.4-33.2-.4-33.4q-.1-.1 0-.1.1-.1.2-.1.1 0 .1 0 .1.1.1.2c0 .2 2.3 18.7.5 33.5q0 0-.1 0 0 .1 0 .1 0 0-.1 0 0 .1-.1.1z" fill="#fff"/><path d="m85.6 310.5h-13.8q-.1 0-.3 0-.1 0-.2-.1-.2-.1-.2-.2-.1-.2-.2-.3l-2-14.3q0-.2.1-.4 0-.2.2-.4.1-.2.3-.3.3-.1.5-.1h17.4q.2 0 .5.1.2.1.3.3.2.2.2.4.1.2.1.4l-2 14.3q-.1.1-.2.3 0 .1-.2.2-.1.1-.2.1-.2 0-.3 0z" fill="#d0daed"/><g fill="#38a3a5" opacity=".5"><path d="m106.6 196.3-.4-.7q-1.2-2.2-2.5-4.2-1.3-2.1-2.8-4.1-1.5-2-3.1-3.9-1.6-1.8-3.3-3.6l-2.1-2.1 2.5 2.7q1.6 1.6 3 3.4 1.5 1.8 2.9 3.6 1.3 1.9 2.5 3.8 1.2 2 2.3 4l.7 1.3z"/><path d="m97.7 180.8q-.1-.1-.1-.2 0-.1-.1-.2 0-.1-.1-.2 0-.1-.1-.2l-.5-.8c-.1-.2-.2-.1-.2 0l-.3.8q-.1.3-.1.6 0 .4.1.7 0 .3.2.6.2.3.4.5l.2.2q0 0 0 0 0 0 0 .1.1 0 .1 0l-.1-.5-.1-.1q-.1-.1-.1-.1-.1-.1-.1-.1-.1-.1-.1-.1 0-.1-.1-.1l-.1-.3.2.3q0 0 .1.1 0 0 0 .1 0 0 .1 0 0 .1.1.1l.1.1-.1-.6-.1-.1q0 0-.1-.1 0 0-.1-.1 0 0 0-.1-.1 0-.1-.1l-.1-.2.2.3q0 0 0 0 0 .1.1.1 0 0 0 .1 0 0 .1 0l.1.1-.1-.6-.1-.1q0 0 0 0-.1-.1-.1-.1 0-.1-.1-.1 0 0 0-.1l-.1-.2.1.3q0 0 .1 0 0 0 0 .1 0 0 .1 0 0 0 0 .1h.1l-.1-.5q-.1-.1-.1-.1-.1-.1-.1-.1 0 0 0-.1l-.1-.1.1.2q0 0 0 0 .1 0 .1 0 0 .1 0 .1l.1.1-.1-.6q0 0 0 0l.1.6.1-.1q0 0 0 0 0 0 0-.1.1 0 .1 0l.1-.2-.1.1q0 .1 0 .1 0 0 0 .1-.1 0-.1 0 0 0 0 .1h-.1l.1.5h.1q0-.1 0-.1 0 0 .1 0 0-.1 0-.1l.1-.3-.1.2q0 .1 0 .1 0 0 0 .1 0 0-.1.1 0 0 0 0l-.1.1.1.6.1-.1q0 0 .1 0 0-.1 0-.1 0 0 0-.1 0 0 .1 0l.1-.3-.1.2q0 .1 0 .1-.1.1-.1.1 0 .1 0 .1-.1.1-.1.1l-.1.1.1.6.1-.1q.1 0 .1-.1 0 0 0-.1.1 0 .1 0 0-.1 0-.1l.1-.3v.2q-.1.1-.1.2 0 0 0 .1-.1 0-.1.1 0 0-.1.1l-.1.1.1.5q0 0 0 0 .1 0 .1 0 0-.1 0-.1l.2-.3q0-.1 0-.1.1-.2.1-.3.1-.2.1-.4 0-.1 0-.3 0-.2 0-.4z"/><path d="m96.8 180.2v-.6q0 0 0 0v.6q0 0 0 0z"/><path d="m96.8 180.2v-.6q0 0 0 0v.6q0 0 0 0z" opacity=".8"/><path d="m97 181.4-.1-.6z"/><path d="m97 181.4-.1-.6z" opacity=".8"/><path d="m96.9 180.7-.1-.5.1.5v.1z"/><path d="m96.9 180.7-.1-.5.1.5v.1z" opacity=".8"/><path d="m97.1 182.2.1.5z"/><path d="m97.1 182.2.1.5z" opacity=".8"/><path d="m97.1 182.1-.1-.6z"/><path d="m97.1 182.1-.1-.6z" opacity=".8"/><path d="m97.1 182.1v.1l.1-.1q.1-.1.1-.1 0-.1.1-.1 0-.1 0-.1 0-.1.1-.2v-.2l-.1.3q0 0 0 .1-.1 0-.1 0 0 .1 0 .1 0 .1-.1.1z"/><path d="m97 181.4v.1l.1-.1q0 0 .1-.1 0 0 0-.1 0 0 .1-.1 0 0 0-.1l.1-.2-.1.3q-.1 0-.1 0 0 .1 0 .1 0 0 0 .1-.1 0-.1 0l-.1.1q0 0 0 0z"/><path d="m96.9 180.8.1-.1q0 0 0-.1.1 0 .1 0 0-.1 0-.1 0 0 .1-.1v-.2l-.1.3q0 0 0 0 0 0 0 .1-.1 0-.1 0 0 0 0 .1h-.1q0 0 0 .1z"/><path d="m96.8 180.2h.1q0-.1 0-.1 0 0 .1-.1 0 0 0 0 0 0 0-.1l.1-.1-.1.2q0 0 0 0 0 0-.1 0 0 .1 0 .1z"/><path d="m97.1 182.2v-.1l-.1-.1q-.1 0-.1-.1-.1 0-.1 0 0-.1 0-.1-.1-.1-.1-.1l-.2-.3.1.3q.1 0 .1.1 0 0 .1.1 0 0 .1.1 0 0 .1.1l.1.1q0 0 0 0z"/><path d="m97 181.5v-.1l-.1-.1q0 0-.1 0 0-.1 0-.1-.1 0-.1 0 0-.1 0-.1l-.2-.3.1.2q0 .1.1.1 0 .1 0 .1.1.1.1.1.1.1.1.1l.1.1q0 0 0 0z"/><path d="m96.9 180.8v-.1h-.1q0-.1 0-.1-.1 0-.1 0 0-.1 0-.1-.1 0-.1 0l-.1-.3.1.2q0 .1 0 .1.1.1.1.1 0 0 .1.1 0 0 0 0l.1.1q0 0 0 0z"/><path d="m96.8 180.2v-.1q-.1 0-.1 0 0 0 0-.1 0 0-.1 0 0 0 0 0l-.1-.2.1.1q0 .1 0 .1 0 0 .1.1 0 0 0 0 0 0 .1.1 0 0 0 0z"/><path d="m95.9 183.6q-.1 0-.2-.1-.1 0-.2-.1 0-.1-.1-.2-.1 0-.2-.1l-.6-.7c-.2-.2-.1-.2.1-.2l.7-.2q.3 0 .7 0 .3.1.5.3.3.1.5.3.3.3.4.6l.2.2q0 0 0 0 0 .1 0 .1l-.5-.2v-.1q-.1-.1-.1-.1 0-.1-.1-.2 0 0 0-.1-.1 0-.1-.1l-.2-.2.2.3q0 0 .1.1 0 0 0 .1 0 0 .1 0 0 .1 0 .1l.1.2-.6-.2v-.1q0-.1-.1-.1 0-.1 0-.1-.1-.1-.1-.1 0-.1-.1-.1l-.2-.2.2.2q.1.1.1.1 0 0 0 .1.1 0 .1 0 0 .1 0 .1l.1.1-.6-.2v-.1q0 0-.1-.1 0 0 0-.1 0 0-.1 0 0-.1 0-.1l-.2-.2.2.3q0 0 0 0 0 0 .1.1 0 0 0 0 0 .1 0 .1l.1.1-.5-.2v-.1q0 0-.1 0 0-.1 0-.1 0 0 0-.1-.1 0-.1 0l-.1-.1.1.1q0 0 .1.1 0 0 0 0 0 0 0 .1 0 0 0 0l.1.1-.5-.2q0 0 0 0l.5.2-.1.1q0 0 0 0-.1 0-.1 0 0 0-.1 0l-.1.1.1-.1q0 0 .1 0 0 0 0 0 .1 0 .1 0l.1-.1.5.2-.1.1q0 0-.1 0 0 0 0 0-.1 0-.1 0 0 .1 0 .1h-.3.2q.1 0 .1 0 0 0 .1 0 0-.1.1-.1 0 0 0 0l.1-.1.6.3h-.1q-.1.1-.1.1 0 0-.1 0 0 0 0 0-.1 0-.1 0l-.3.1h.3q0 0 .1 0 0 0 0-.1.1 0 .1 0 .1 0 .1 0l.1-.1.6.2-.2.1q0 0 0 0-.1.1-.1.1 0 0-.1 0 0 0-.1 0l-.3.1h.3q0 0 .1 0 .1-.1.1-.1.1 0 .1 0 .1 0 .1-.1h.1l.5.1q0 .1-.1.1 0 0 0 0l-.3.1q-.1 0-.1 0-.2.1-.4.1-.1 0-.3 0-.1 0-.3-.1-.2 0-.3-.1z"/><path d="m95.5 182.6-.5-.2q0 0 0 0l.5.2q0 0 0 0z"/><path d="m95.5 182.6-.5-.2q0 0 0 0l.5.2q0 0 0 0z" opacity=".8"/><path d="m96.6 183.1-.6-.3z"/><path d="m96.6 183.1-.6-.3z" opacity=".8"/><path d="m96 182.8-.5-.2z"/><path d="m96 182.8-.5-.2z" opacity=".8"/><path d="m97.3 183.3h-.1l.5.2q0 0 0 0v.1l-.5-.2z"/><path d="m97.3 183.3h-.1l.5.2q0 0 0 0v.1l-.5-.2z" opacity=".8"/><path d="m97.2 183.3-.6-.2z"/><path d="m97.2 183.3-.6-.2z" opacity=".8"/><path d="m97.2 183.3h.1l-.1.1h-.1q0 .1-.1.1 0 0-.1 0 0 0-.1.1-.1 0-.1 0h-.3l.3-.1q.1 0 .1 0 .1 0 .1 0 0 0 .1 0 0-.1 0-.1z"/><path d="m96.6 183.1-.1.1q0 0-.1 0 0 0-.1 0 0 .1 0 .1-.1 0-.1 0h-.3.3q0-.1.1-.1 0 0 0 0 .1 0 .1 0 0 0 .1 0l.1-.1q0 0 0 0z"/><path d="m96 182.8-.1.1q0 0 0 0-.1.1-.1.1-.1 0-.1 0 0 0-.1 0h-.2.3q0 0 0 0 0-.1.1-.1 0 0 0 0 .1 0 .1 0l.1-.1q0 0 0 0z"/><path d="m95.5 182.6-.1.1q0 0 0 0 0 0-.1 0 0 0 0 0-.1 0-.1.1h-.1l.1-.1q.1 0 .1 0 0 0 .1 0 0 0 0 0l.1-.1q0 0 0 0z"/><path d="m97.3 183.3h-.1l-.1-.2q0 0 0-.1-.1 0-.1 0 0-.1 0-.1-.1-.1-.1-.1l-.2-.3.2.2q0 .1.1.1 0 .1 0 .1.1.1.1.2.1 0 .1.1v.1q.1 0 .1 0z"/><path d="m96.6 183.1-.1-.2q0 0 0-.1 0 0-.1 0 0-.1 0-.1 0 0-.1-.1l-.2-.2.2.2q.1 0 .1.1 0 0 .1 0 0 .1 0 .1 0 .1.1.2v.1q0 0 0 0z"/><path d="m96 182.8-.1-.1q0 0 0-.1 0 0 0 0-.1-.1-.1-.1l-.2-.2.2.1q0 0 0 .1.1 0 .1.1 0 0 0 0 .1.1.1.1v.1q0 0 0 0z"/><path d="m95.5 182.6-.1-.1q0 0 0 0 0-.1 0-.1-.1 0-.1-.1l-.1-.1.1.1q0 0 .1 0 0 .1 0 .1 0 0 0 .1.1 0 .1 0v.1q0 0 0 0z"/><path d="m100.3 184q0-.1 0-.2-.1-.1-.1-.2 0-.1-.1-.2 0-.1-.1-.2l-.5-.8c-.2-.2-.2-.1-.2 0l-.3.8q-.1.3-.1.6-.1.4 0 .7.1.3.3.6.1.3.4.5l.2.2q0 0 0 0 0 0 0 .1v-.5l-.1-.1q-.1-.1-.1-.1-.1-.1-.1-.1-.1-.1-.1-.1-.1-.1-.1-.2l-.2-.2.3.3q0 0 0 .1.1 0 .1 0 0 .1.1.1 0 .1 0 .1l.2.1-.1-.6-.1-.1q-.1 0-.1-.1-.1 0-.1-.1 0 0-.1-.1 0 0 0-.1l-.2-.2.2.3q.1 0 .1 0 0 .1 0 .1.1 0 .1.1 0 0 0 0l.2.1-.1-.6-.1-.1q0 0-.1-.1 0 0 0 0-.1-.1-.1-.1 0 0-.1-.1l-.1-.2.2.3q0 0 0 0 .1 0 .1.1 0 0 0 0 0 0 .1.1h.1l-.1-.5h-.1q0-.1 0-.1-.1 0-.1-.1 0 0 0 0 0 0-.1-.1v-.1l.1.2q0 0 0 0 .1.1.1.1l.1.1-.1-.6q0 0 0 0l.1.6.1-.1q0 0 0 0 0 0 0-.1 0 0 0 0 0 0 .1-.1v-.1.1q0 .1 0 .1-.1 0-.1 0 0 .1 0 .1 0 0 0 .1h-.1l.1.5h.1q0-.1 0-.1 0-.1.1-.1 0 0 0-.1l.1-.2-.1.2q0 .1 0 .1 0 0 0 .1-.1 0-.1 0 0 .1 0 .1l-.1.1.1.6.1-.1q0 0 0 0 0-.1.1-.1 0 0 0-.1 0 0 0 0l.1-.3v.2q0 .1-.1.1 0 .1 0 .1 0 .1-.1.1 0 .1 0 .1l-.1.1.1.6.1-.1q0 0 .1-.1 0 0 0-.1 0 0 0 0 .1-.1.1-.1l.1-.3-.1.2q0 .1 0 .2 0 0-.1.1 0 0 0 .1-.1 0-.1.1l-.1.1.1.5q0 0 0 0 0 0 0-.1 0 0 0 0 .1 0 .1 0l.1-.3q.1-.1.1-.1.1-.2.1-.3 0-.2.1-.4 0-.2 0-.3 0-.2-.1-.4z"/><path d="m99.5 183.4-.1-.6q0 0 0 0l.1.6q0 0 0 0z"/><path d="m99.5 183.4-.1-.6q0 0 0 0l.1.6q0 0 0 0z" opacity=".8"/><path d="m99.7 184.6-.1-.6z"/><path d="m99.7 184.6-.1-.6z" opacity=".8"/><path d="m99.6 183.9-.1-.5.1.5v.1z"/><path d="m99.6 183.9-.1-.5.1.5v.1z" opacity=".8"/><path d="m99.8 185.4v.5h.1z"/><path d="m99.8 185.4v.5h.1z" opacity=".8"/><path d="m99.8 185.3-.1-.6z"/><path d="m99.8 185.3-.1-.6z" opacity=".8"/><path d="m99.8 185.3v.1l.1-.1q0-.1.1-.1 0-.1 0-.1.1-.1.1-.2 0 0 0-.1l.1-.2-.1.3q0 0-.1.1 0 0 0 0 0 .1-.1.1 0 0 0 .1z"/><path d="m99.7 184.6v.1l.1-.1q0-.1 0-.1.1 0 .1-.1 0 0 0-.1.1 0 .1-.1v-.2l-.1.3q0 0 0 0 0 .1 0 .1-.1 0-.1.1 0 0 0 0l-.1.1q0 0 0 0z"/><path d="m99.6 184 .1-.1q0 0 0-.1 0 0 .1 0 0-.1 0-.1 0 0 0-.1l.1-.2-.1.2q0 .1 0 .1-.1 0-.1.1 0 0 0 0 0 0 0 .1h-.1q0 0 0 .1z"/><path d="m99.5 183.4h.1q0-.1 0-.1 0 0 0-.1 0 0 .1 0 0 0 0-.1v-.1.1q-.1.1-.1.1 0 .1 0 .1z"/><path d="m99.8 185.4v-.1l-.2-.1q0 0 0-.1-.1 0-.1 0 0-.1-.1-.1 0-.1 0-.1l-.3-.3.2.3q0 0 .1.1 0 0 .1.1 0 0 .1.1 0 0 .1.1l.1.1q0 0 0 0z"/><path d="m99.7 184.7v-.1l-.1-.1q-.1 0-.1 0 0-.1-.1-.1 0 0 0-.1 0 0-.1 0l-.2-.3.2.2q0 .1 0 .1.1.1.1.1 0 .1.1.1 0 .1.1.1l.1.1q0 0 0 0z"/><path d="m99.6 184v-.1h-.1q0-.1-.1-.1 0 0 0 0 0-.1-.1-.1 0 0 0 0l-.2-.3.2.2q0 .1 0 .1 0 0 .1.1 0 0 0 .1.1 0 .1 0l.1.1q0 0 0 0z"/><path d="m99.5 183.4-.1-.1q0 0 0 0 0 0-.1-.1 0 0 0 0l-.1-.2v.1q.1.1.1.1 0 0 0 .1.1 0 .1 0 0 0 0 .1h.1q0 0 0 0z"/><path d="m98.6 186.8q-.1 0-.2-.1-.1-.1-.2-.1-.1-.1-.1-.2-.1 0-.2-.1l-.6-.7c-.2-.2-.1-.2 0-.2l.8-.2q.3 0 .6 0 .3.1.6.3.3.1.5.3.2.3.4.6l.1.2q0 0 0 0 0 .1 0 .1l-.4-.2-.1-.1q0-.1 0-.2 0 0-.1-.1 0 0-.1-.1 0 0-.1-.1l-.2-.2.3.3q0 0 0 .1.1 0 .1.1 0 0 0 0 .1.1.1.1l.1.2-.6-.2-.1-.2q0 0 0-.1 0 0-.1-.1 0 0 0 0-.1-.1-.1-.1l-.2-.2.2.2q0 .1.1.1 0 0 0 .1 0 0 .1 0 0 .1 0 .1l.1.1-.6-.2-.1-.1q0 0 0-.1 0 0 0-.1-.1 0-.1 0 0-.1-.1-.1l-.1-.2.2.3q0 0 0 0 0 0 0 .1.1 0 .1 0 0 .1 0 .1l.1.1-.5-.2v-.1q-.1 0-.1 0 0-.1 0-.1 0 0-.1-.1 0 0 0 0l-.1-.1.1.1q0 0 0 .1 0 0 .1 0 0 0 0 .1 0 0 0 0l.1.1-.5-.2q0 0 0 0l.5.2-.1.1q0 0-.1 0 0 0 0 0-.1 0-.1 0l-.2.1.2-.1q0 0 0 0 .1 0 .1 0 0 0 .1 0 0 0 0 0l.1-.1.4.2v.1q-.1 0-.1 0-.1 0-.1 0 0 .1-.1.1h-.2.2q0 0 .1 0 0 0 .1 0 0-.1 0-.1.1 0 .1 0l.1-.1.5.3h-.1q0 .1 0 .1-.1 0-.1 0 0 0-.1 0 0 0 0 0l-.3.1h.2q.1 0 .1 0 .1-.1.1-.1.1 0 .1 0 .1 0 .1 0l.1-.1.5.2-.1.1q0 0-.1 0 0 .1 0 .1-.1 0-.1 0-.1 0-.1 0l-.3.1h.3q0 0 .1-.1 0 0 .1 0 0 0 .1 0 0 0 .1-.1h.1l.4.1q0 0 0 .1 0 0 0 0l-.4.1q0 0-.1 0-.1.1-.3.1-.1 0-.3 0-.2 0-.3-.1-.2 0-.3-.1z"/><path d="m98.1 185.8-.4-.2q0 0 0 0l.4.2q.1 0 0 0z"/><path d="m98.1 185.8-.4-.2q0 0 0 0l.4.2q.1 0 0 0z" opacity=".8"/><path d="m99.2 186.3-.5-.3.5.2.1.1z"/><path d="m99.2 186.3-.5-.3.5.2.1.1z" opacity=".8"/><path d="m98.6 186-.4-.2.4.2h.1z"/><path d="m98.6 186-.4-.2.4.2h.1z" opacity=".8"/><path d="m99.9 186.5.4.2q0 0 0 0l-.4-.1z"/><path d="m99.9 186.5.4.2q0 0 0 0l-.4-.1z" opacity=".8"/><path d="m99.8 186.5-.5-.2.6.2z"/><path d="m99.8 186.5-.5-.2.6.2z" opacity=".8"/><path d="m99.9 186.5v.1h-.1q-.1.1-.1.1-.1 0-.1 0-.1 0-.1.1-.1 0-.2 0h-.2l.3-.1q0 0 .1 0 0 0 .1 0 0 0 0-.1.1 0 .1 0l.1-.1z"/><path d="m99.3 186.3-.1.1q0 0-.1 0 0 0-.1 0 0 .1-.1.1 0 0-.1 0h-.2l.3-.1q0 0 0 0 .1 0 .1 0 0 0 .1 0 0 0 0-.1h.1q0 0 .1 0z"/><path d="m98.7 186-.1.1q0 0-.1 0 0 0 0 .1-.1 0-.1 0-.1 0-.1 0h-.2.2q.1 0 .1-.1 0 0 0 0 .1 0 .1 0l.1-.1q0 0 .1 0z"/><path d="m98.2 185.8-.1.1q0 0 0 0-.1 0-.1 0 0 0-.1 0 0 0 0 0l-.2.1.2-.1q0 0 0 0 .1 0 .1 0 .1 0 .1 0v-.1q0 0 .1 0z"/><path d="m99.9 186.5-.1-.2q0 0-.1-.1 0 0 0 0 0-.1-.1-.1 0-.1 0-.1l-.3-.3.2.2q.1.1.1.1.1.1.1.1.1.1.1.1 0 .1 0 .2l.1.1q0 0 0 0z"/><path d="m99.3 186.3v-.1l-.1-.1q0 0-.1-.1 0 0 0 0 0-.1 0-.1-.1 0-.1-.1l-.2-.2.2.2q0 0 .1.1 0 0 0 0 .1.1.1.1 0 .1 0 .1l.1.2q0 0 0 0z"/><path d="m98.7 186h-.1v-.1q0 0 0-.1-.1 0-.1 0 0-.1 0-.1 0 0-.1 0l-.1-.3.1.2q.1 0 .1.1 0 0 0 .1.1 0 .1 0 0 .1 0 .1l.1.1q0 0 0 0z"/><path d="m98.2 185.8-.1-.1q0 0 0 0 0-.1 0-.1-.1 0-.1 0 0-.1 0-.1l-.1-.1.1.1q0 0 0 0 .1.1.1.1 0 0 0 .1 0 0 0 0l.1.1q0 0 0 0z"/><path d="m103.7 188.5q-.1-.1-.1-.3 0-.1-.1-.2 0-.1-.1-.3-.1-.1-.1-.2l-.7-1c-.2-.3-.2-.1-.2 0l-.4.9q-.1.4-.1.8-.1.5 0 .9.1.4.3.7.2.4.5.7l.3.2q0 0 0 0 0 .1.1.1l-.1-.6-.2-.2q0 0-.1-.1 0 0-.1-.1-.1-.1-.1-.1-.1-.1-.1-.2l-.2-.3.3.4q0 0 .1.1 0 0 0 .1.1 0 .1 0 .1.1.1.1l.2.2-.1-.8-.2-.1q0-.1-.1-.1 0-.1-.1-.1 0-.1 0-.1-.1-.1-.1-.1l-.2-.3.2.3q.1 0 .1.1 0 0 .1.1 0 0 0 0 .1.1.1.1l.2.1-.2-.8-.1-.1q0 0 0 0-.1-.1-.1-.1-.1-.1-.1-.1 0-.1-.1-.1l-.1-.2.2.2q0 .1 0 .1.1 0 .1.1 0 0 .1 0 0 .1 0 .1l.1.1-.1-.7q-.1-.1-.1-.1 0 0-.1-.1 0 0 0 0 0-.1-.1-.1l-.1-.2.2.2q0 0 0 .1 0 0 .1 0 0 0 0 .1 0 0 .1 0v.1-.7q0 0 0 0l.1.7v-.1q.1 0 .1 0 0-.1 0-.1 0-.1.1-.1v-.2.2q0 0 0 0-.1.1-.1.1 0 .1 0 .1 0 0-.1.1l.1.7.1-.1q0-.1 0-.1.1-.1.1-.1 0 0 0-.1l.1-.3v.3q-.1 0-.1.1 0 0 0 .1-.1 0-.1.1 0 0 0 0l-.1.1.1.8.1-.1q0 0 .1-.1 0 0 0 0 0-.1 0-.1.1-.1.1-.1l.1-.3-.1.2q0 .1 0 .2 0 0-.1.1 0 0 0 .1-.1 0-.1.1l-.1.1.1.8.1-.2q.1 0 .1-.1 0 0 .1-.1 0 0 0-.1 0 0 .1-.1l.1-.3-.1.3q0 .1 0 .1-.1.1-.1.2 0 0-.1.1 0 .1-.1.1l-.1.1.1.7q0-.1.1-.1 0 0 0 0l.2-.4q.1-.1.1-.1.1-.2.1-.4.1-.2.1-.5 0-.2 0-.4 0-.2 0-.4z"/><path d="m102.7 187.7-.1-.7q0 0 0 0v.7z"/><path d="m102.7 187.7-.1-.7q0 0 0 0v.7z" opacity=".8"/><path d="m102.9 189.2-.1-.8v.1l-.1-.1.2.8v.1z"/><path d="m102.9 189.2-.1-.8v.1l-.1-.1.2.8v.1z" opacity=".8"/><path d="m102.8 188.4-.1-.7h-.1l.1.7z"/><path d="m102.8 188.4-.1-.7h-.1l.1.7z" opacity=".8"/><path d="m103 190.2.1.6z"/><path d="m103 190.2.1.6z" opacity=".8"/><path d="m103 190.1-.1-.8z"/><path d="m103 190.1-.1-.8z" opacity=".8"/><path d="m103 190.1v.1l.1-.2q.1 0 .1-.1.1-.1.1-.1 0-.1.1-.2 0 0 0-.1l.1-.3-.1.4q-.1 0-.1.1 0 0 0 0-.1.1-.1.1 0 .1-.1.1z"/><path d="m102.9 189.3.1-.1q0-.1.1-.1 0-.1 0-.1.1-.1.1-.1 0-.1 0-.2l.1-.2-.1.3q0 0-.1.1 0 0 0 .1 0 0 0 0-.1.1-.1.1l-.1.1z"/><path d="m102.8 188.4v.1-.1l.1-.1q0 0 0 0 0-.1.1-.1 0-.1 0-.1 0-.1.1-.1v-.3l-.1.3q0 .1 0 .1 0 0-.1.1 0 0 0 0 0 0 0 .1l-.1.1q0 0 0 0z"/><path d="m102.7 187.7q.1-.1.1-.1 0 0 0-.1 0 0 .1-.1 0 0 0 0v-.2.2q-.1 0-.1.1 0 0 0 0 0 0 0 .1 0 0-.1 0v.1q0 0 0 0z"/><path d="m103 190.2v-.1l-.2-.2q0 0-.1 0 0-.1-.1-.1 0-.1 0-.1-.1-.1-.1-.1l-.3-.4.2.3q0 .1.1.2 0 0 .1.1.1.1.1.1.1.1.1.1z"/><path d="m102.9 189.3v-.1l-.2-.1q0 0-.1-.1 0 0 0 0-.1-.1-.1-.1 0 0-.1-.1l-.2-.3.2.3q0 0 .1.1 0 0 0 .1.1.1.1.1.1.1.1.1l.2.1q0 0 0 0z"/><path d="m102.8 188.5v-.1h-.1l-.1-.1q0 0 0-.1-.1 0-.1 0 0-.1 0-.1-.1 0-.1-.1l-.2-.2.1.2q.1 0 .1.1 0 0 .1.1 0 0 .1.1 0 0 0 .1h.1q.1.1.1.1z"/><path d="m102.7 187.7h-.1v-.1q-.1 0-.1 0 0-.1 0-.1-.1 0-.1 0 0-.1 0-.1l-.2-.2.1.2q.1 0 .1.1 0 0 0 0 .1.1.1.1 0 0 .1.1.1 0 .1 0z"/><path d="m101.1 190.7q-.2 0-.3-.1-.1-.1-.2-.2-.1 0-.2-.1-.1-.1-.2-.2l-.7-.9c-.2-.3-.1-.3 0-.3l1-.2q.4 0 .8.1.3 0 .7.2.3.2.6.5.3.3.5.7l.1.3q0 0 0 0 .1 0 .1 0 0 .1 0 .1l-.6-.2-.1-.2q0-.1 0-.2-.1-.1-.1-.1-.1-.1-.1-.2-.1 0-.1-.1l-.3-.3.3.4q0 0 .1.1 0 0 0 .1.1.1.1.1 0 .1.1.1l.1.2-.7-.3-.1-.1q0-.1-.1-.1 0-.1 0-.2-.1 0-.1-.1-.1 0-.1-.1l-.2-.2.2.3q0 0 .1.1 0 0 0 .1.1 0 .1 0 0 .1 0 .1l.1.2-.7-.3v-.1q-.1 0-.1-.1 0-.1-.1-.1 0-.1 0-.1-.1 0-.1-.1l-.2-.2.2.3q0 0 .1 0 0 .1 0 .1 0 .1.1.1 0 0 0 .1l.1.1-.6-.2-.1-.1q0-.1 0-.1 0-.1-.1-.1 0 0 0-.1 0 0-.1 0l-.1-.2.2.2q0 0 0 .1 0 0 0 0 .1.1.1.1v.2l-.6-.3q0 0 0 0l.6.3q-.1 0-.1.1 0 0 0 0-.1 0-.1 0 0 0-.1 0l-.2.1.2-.1q0 0 .1 0 0 0 .1 0 0 0 0 0 .1 0 .1-.1h.1l.6.2-.2.1q0 0 0 0-.1 0-.1.1 0 0-.1 0 0 0 0 0l-.3.1.2-.1q.1 0 .1 0 .1 0 .1 0 .1 0 .1 0 .1-.1.1-.1h.1l.7.2-.1.1q-.1 0-.1.1 0 0-.1 0 0 0-.1 0 0 0-.1.1h-.3.3q.1 0 .1 0 .1 0 .1-.1.1 0 .1 0 .1 0 .2-.1h.1l.6.3-.1.1q-.1 0-.1 0 0 0-.1 0 0 .1-.1.1 0 0-.1 0l-.4.1h.3q.1-.1.2-.1.1 0 .1 0 .1 0 .2-.1 0 0 .1 0l.1-.1.6.2q-.1 0-.1 0 0 .1 0 .1l-.4.1q-.1.1-.2.1-.2 0-.4 0-.2.1-.4 0-.2 0-.4 0-.2-.1-.3-.2z"/><path d="m100.5 189.5-.6-.3q0 0 0 0l.6.3h.1z"/><path d="m100.5 189.5-.6-.3q0 0 0 0l.6.3h.1z" opacity=".8"/><path d="m101.9 190.1-.7-.3v-.1l.7.3z"/><path d="m101.9 190.1-.7-.3v-.1l.7.3z" opacity=".8"/><path d="m101.2 189.7-.6-.2z"/><path d="m101.2 189.7-.6-.2z" opacity=".8"/><path d="m102.7 190.4.6.2q0 0 0 0h-.1z"/><path d="m102.7 190.4.6.2q0 0 0 0h-.1z" opacity=".8"/><path d="m102.6 190.4-.6-.3v-.1l.7.3v.1z"/><path d="m102.6 190.4-.6-.3v-.1l.7.3v.1z" opacity=".8"/><path d="m102.7 190.4-.1.1q-.1 0-.2.1 0 0-.1 0-.1 0-.1 0-.1.1-.2.1h-.3l.4-.1q0 0 .1 0 0 0 .1 0 0-.1.1-.1 0 0 .1 0l.1-.1z"/><path d="m101.9 190 .1.1-.2.1q0 0-.1 0 0 0-.1.1 0 0-.1 0-.1 0-.1 0h-.3.3q.1 0 .1-.1.1 0 .1 0 0 0 .1 0 0 0 .1-.1h.1z"/><path d="m101.2 189.7v.1h-.1q0 .1-.1.1 0 0-.1 0 0 0-.1 0 0 0-.1.1h-.2l.3-.1q0 0 0 0 .1 0 .1 0 0 0 .1-.1 0 0 0 0l.1-.1q.1 0 .1 0z"/><path d="m100.6 189.5h-.1q0 .1-.1.1 0 0 0 0-.1 0-.1 0-.1 0-.1 0l-.2.1.2-.1q.1 0 .1 0 .1 0 .1 0 0 0 0-.1h.1q0 0 .1 0z"/><path d="m102.7 190.4v-.1l-.1-.2q-.1 0-.1-.1 0 0-.1-.1 0 0 0-.1-.1 0-.1-.1l-.3-.4.3.3q0 .1.1.1 0 .1.1.2 0 .1.1.1 0 .1 0 .2z"/><path d="m102 190.1-.1-.1-.1-.2q0 0 0 0 0-.1-.1-.1 0-.1 0-.1-.1-.1-.1-.1l-.2-.3.2.2q0 .1.1.1 0 .1.1.1 0 .1 0 .2.1 0 .1.1l.1.1q0 .1 0 .1z"/><path d="m101.2 189.8v-.1l-.1-.1q0-.1 0-.1-.1 0-.1-.1 0 0 0 0-.1-.1-.1-.1l-.2-.3.2.2q0 .1.1.1 0 .1 0 .1.1.1.1.1 0 .1.1.1v.1q0 0 0 .1z"/><path d="m100.6 189.5h-.1v-.1q0-.1 0-.1-.1 0-.1-.1 0 0 0 0 0 0 0-.1l-.2-.2.1.2q.1 0 .1 0 0 .1 0 .1.1.1.1.1 0 0 0 .1l.1.1q0 0 0 0z"/><path d="m92.3 179.7q-.1-.1-.2-.2-.1 0-.2-.1-.1-.1-.1-.2-.1-.2-.2-.3l-.6-1c-.2-.3-.1-.2.1-.2h.9q.4 0 .8.1.4.2.7.4.3.3.5.6.2.3.4.7l.1.4q0 0 0 0 0 0 0 .1l-.5-.3v-.2q-.1-.1-.1-.2 0-.1-.1-.2 0 0 0-.1-.1-.1-.1-.2l-.2-.3.2.4q0 .1 0 .2.1 0 .1.1 0 0 0 .1.1 0 .1.1v.2l-.6-.4v-.1q-.1-.1-.1-.2 0 0 0-.1-.1-.1-.1-.1 0-.1-.1-.2l-.1-.2.1.3q.1.1.1.1 0 .1 0 .1.1.1.1.1 0 .1 0 .1l.1.2-.7-.4v-.1q0-.1-.1-.2 0 0 0-.1 0 0-.1-.1 0 0 0-.1l-.2-.2.2.3q0 0 0 .1 0 0 .1 0 0 .1 0 .1 0 .1 0 .1l.1.2-.6-.4v-.1q0 0 0-.1 0 0-.1-.1 0 0 0 0 0-.1 0-.1l-.2-.2.2.2q0 .1 0 .1 0 0 0 .1 0 0 0 0 .1.1.1.1v.1l-.6-.3q0 0 0 0l.6.3-.1.1q0 0-.1 0 0 0 0 0 0 0-.1 0 0 0 0 0h-.2.1q.1 0 .1 0 0 0 .1 0 0 0 .1 0 0 0 0 0l.1-.1.5.4h-.1q0 0 0 .1-.1 0-.1 0-.1 0-.1 0 0 0-.1 0h-.2.2q0 0 .1 0 0 0 .1 0 0 0 .1 0 0 0 .1 0l.1-.1.6.4-.1.1q-.1 0-.1 0-.1 0-.1 0 0 0-.1 0 0 0-.1 0l-.3.1h.3q0 0 .1 0 .1 0 .1 0 .1 0 .1-.1.1 0 .1 0h.2l.6.4h-.2q0 0-.1.1 0 0-.1 0 0 0-.1 0 0 0-.1 0h-.4.4q0 .1.1.1.1-.1.1-.1.1 0 .2 0 .1 0 .1 0l.2-.1.4.3q0 0 0 .1 0 0 0 0l-.5.1h-.1q-.2 0-.4 0-.2-.1-.4-.1-.2-.1-.3-.2-.2-.1-.4-.2z"/><path d="m92 178.4-.5-.3q0 0-.1 0 0 0 0-.1 0 0 0 0 .1 0 .1 0z"/><path d="m92 178.4-.5-.3q0 0-.1 0 0 0 0-.1 0 0 0 0 .1 0 .1 0z" opacity=".8"/><path d="m93.2 179.2-.6-.4.7.4z"/><path d="m93.2 179.2-.6-.4.7.4z" opacity=".8"/><path d="m92.6 178.8-.6-.4z"/><path d="m92.6 178.8-.6-.4z" opacity=".8"/><path d="m94 179.7.5.3q0 0 0 0z"/><path d="m94 179.7.5.3q0 0 0 0z" opacity=".8"/><path d="m93.9 179.7-.6-.4v-.1l.6.4h.1z"/><path d="m93.9 179.7-.6-.4v-.1l.6.4h.1z" opacity=".8"/><path d="m94 179.7-.2.1q0 0-.1 0-.1 0-.1 0-.1 0-.2 0-.1 0-.1 0h-.4.4q.1 0 .2 0 0 0 .1 0 0 0 .1 0 0-.1 0-.1h.2s.1-.1.1 0z"/><path d="m93.3 179.2v.1h-.1q-.1 0-.1 0-.1.1-.2.1 0 0-.1 0 0 0-.1 0l-.3-.1h.4q0 0 0 0 .1 0 .1 0 .1 0 .1 0 .1 0 .1 0l.1-.1z"/><path d="m92.6 178.8h-.1q0 .1-.1.1 0 0-.1 0 0 0-.1 0 0 0-.1 0h-.2.3q0 0 0 0 .1 0 .1 0 0 0 .1-.1 0 0 0 0h.2q0 0 0 0z"/><path d="m92 178.4v.1q-.1 0-.1 0-.1 0-.1 0 0 0-.1 0 0 0 0 0h-.2.2q0 0 0 0 .1 0 .1 0 0 0 .1 0 0 0 0-.1h.1q0 0 0 0z"/><path d="m94 179.7v-.1h-.1v-.2q0-.1-.1-.1 0-.1 0-.1 0-.1-.1-.2 0 0 0-.1l-.2-.4.2.3q0 .1.1.2 0 .1 0 .1.1.1.1.2 0 .1.1.2z"/><path d="m93.3 179.2-.1-.2q0-.1 0-.1 0 0-.1-.1 0 0 0-.1 0 0-.1-.1l-.1-.3.1.2q.1.1.1.2 0 0 .1.1 0 .1 0 .1.1.1.1.2v.1q0 0 0 0z"/><path d="m92.6 178.8v-.1l-.1-.1q0 0 0-.1 0 0 0-.1 0 0-.1 0 0-.1 0-.1l-.2-.3.2.2q0 .1.1.1 0 .1 0 .1 0 .1.1.1 0 .1 0 .1v.2q0 0 0 0z"/><path d="m92 178.4v-.1q0-.1 0-.1-.1 0-.1 0 0-.1 0-.1 0 0 0-.1l-.2-.2.2.2q0 0 0 .1 0 0 .1 0 0 .1 0 .1 0 .1 0 .1v.1q0 0 0 0z"/><path d="m109.3 201.5-.3-1.5q-1.3-4.7-2.8-9.3-1.5-4.7-3.4-9.2-1.9-4.5-4-8.9-2.2-4.4-4.7-8.6l-2.9-5 3.5 6.3q2.2 4 4.1 8.1 2 4.1 3.6 8.3 1.7 4.2 3.1 8.5 1.4 4.4 2.6 8.8l.7 2.7z"/><path d="m99.7 167.6q0-.2 0-.4-.1-.2-.1-.4 0-.2-.1-.4 0-.2-.1-.4l-.6-1.9c-.2-.4-.3-.3-.4-.1l-.9 1.3q-.3.6-.5 1.2-.2.6-.2 1.3 0 .6.2 1.3.2.6.5 1.1l.3.5q0 0 0 .1 0 0 0 0 .1 0 .1 0l.1-.9-.2-.3q-.1-.1-.1-.2-.1-.1-.2-.2 0-.2-.1-.3 0-.1-.1-.2l-.1-.6.2.7q.1.1.1.1.1.1.1.2 0 .1.1.2 0 .1.1.2l.2.3.1-1.3-.1-.2q-.1-.1-.1-.2-.1-.1-.1-.2-.1-.1-.1-.2-.1-.1-.1-.2l-.2-.5.3.6q0 .1 0 .1.1.1.1.2 0 .1.1.1 0 .1.1.2l.1.2.2-1.2-.2-.2q0-.1-.1-.2 0-.1 0-.1-.1-.1-.1-.2 0-.1-.1-.2l-.1-.4.2.5q0 .1 0 .1.1.1.1.1 0 .1.1.2 0 0 0 .1l.2.2.1-1.1-.1-.1q0-.1-.1-.1 0-.1-.1-.2 0 0 0-.1 0-.1-.1-.1v-.3l.1.3q0 .1 0 .1.1.1.1.1 0 .1 0 .1.1.1.1.1l.1.2.1-1.1q0 0 0 0l-.1 1.1.2-.1q0 0 0-.1.1 0 .1 0 0-.1.1-.1 0 0 0-.1l.2-.3-.1.3q-.1 0-.1.1 0 0-.1.1 0 0-.1.1 0 0-.1.1h-.1l-.1 1.1.2-.1q0-.1.1-.1 0-.1.1-.1 0 0 .1-.1 0 0 0-.1l.3-.3-.2.3q0 .1-.1.1 0 .1-.1.2 0 0-.1.1-.1 0-.1.1l-.2.1-.1 1.2.2-.1q.1-.1.1-.1.1-.1.1-.1.1-.1.1-.1.1-.1.1-.1l.3-.5-.2.4q0 .1-.1.2-.1.1-.1.1-.1.1-.2.2 0 0-.1.1l-.2.1-.1 1.3.2-.2q.1-.1.2-.1 0-.1.1-.1 0-.1.1-.2 0 0 .1-.1l.4-.5-.3.5q0 .1-.1.2-.1 0-.2.1 0 .1-.1.2-.1.1-.2.1l-.2.2-.1.9q0 .1 0 0 .1 0 .1 0l.5-.5q.1-.1.2-.2.2-.2.3-.5.2-.3.3-.6.1-.4.2-.7.1-.3.1-.7z"/><path d="m98.4 166 .1-1.1q0 0 0 0z"/><path d="m98.4 166 .1-1.1q0 0 0 0z" opacity=".8"/><path d="m98.2 168.4.1-1.2-.2 1.2.1.1z"/><path d="m98.2 168.4.1-1.2-.2 1.2.1.1z" opacity=".8"/><path d="m98.3 167.1.1-1.1v.1-.1z"/><path d="m98.3 167.1.1-1.1v.1-.1z" opacity=".8"/><path d="m98 169.9-.1.9.1.1.1-1z"/><path d="m98 169.9-.1.9.1.1.1-1z" opacity=".8"/><path d="m98.1 169.8.1-1.3v.1l-.1-.1-.1 1.3z"/><path d="m98.1 169.8.1-1.3v.1l-.1-.1-.1 1.3z" opacity=".8"/><path d="m98 169.8v.1h.1l.2-.1q.1-.1.2-.2 0-.1.1-.2.1 0 .2-.1 0-.1.1-.2l.3-.5-.4.5q-.1.1-.1.2-.1 0-.1.1-.1 0-.2.1 0 0-.1.1l-.2.2z"/><path d="m98.2 168.5v.1-.1l.2-.1q0-.1.1-.1.1-.1.2-.2 0 0 .1-.1 0-.1.1-.2l.2-.4-.3.5q0 0-.1.1 0 0-.1.1 0 0-.1.1 0 0-.1.1l-.2.1z"/><path d="m98.3 167.1v.1l.2-.1q0-.1.1-.1.1-.1.1-.1.1-.1.1-.2.1 0 .1-.1l.2-.3-.3.3q0 .1-.1.1 0 .1 0 .1-.1.1-.1.1-.1 0-.1.1z"/><path d="m98.4 166v.1l.1-.1q.1-.1.1-.1.1-.1.1-.1.1 0 .1-.1 0 0 .1-.1l.1-.3-.2.3q0 .1 0 .1-.1 0-.1.1 0 0-.1 0 0 .1 0 .1l-.2.1q0 0 0 0z"/><path d="m98 169.9v-.1l-.2-.3q-.1-.1-.1-.2-.1-.1-.1-.2 0-.1-.1-.1 0-.1-.1-.2l-.2-.7.1.6q.1.1.1.2.1.1.1.3.1.1.2.2 0 .1.1.2z"/><path d="m98.2 168.6v-.1l-.1-.1-.1-.2q-.1-.1-.1-.2-.1 0-.1-.1 0-.1-.1-.2 0 0 0-.1l-.3-.6.2.5q0 .1.1.2 0 .1.1.2 0 .1.1.2 0 .1.1.2l.1.2s.1.1.1.1z"/><path d="m98.3 167.2v-.1l-.2-.2q0-.1 0-.1-.1-.1-.1-.2 0 0-.1-.1 0 0 0-.1l-.2-.5.1.4q.1.1.1.2 0 .1.1.2 0 .1 0 .1.1.1.2.2z"/><path d="m98.4 166.1v-.1l-.1-.2q0 0-.1-.1 0 0 0-.1 0 0-.1-.1 0 0 0-.1l-.2-.3.1.3q.1.1.1.1 0 .1 0 .2.1 0 .1.1.1 0 .1.1l.1.1q0 .1 0 .1z"/><path d="m95.1 172q-.2-.2-.3-.3-.2-.2-.3-.4-.1-.1-.2-.3-.1-.2-.2-.4l-.9-1.7c-.2-.4 0-.4.2-.4l1.5.2c1.6.2 2.8 1.4 3.4 3.3l.2.5q0 0 0 0 0 .1 0 .1 0 0-.1.1l-.7-.6v-.3q-.1-.1-.1-.3 0-.1-.1-.2 0-.1-.1-.3 0-.1-.1-.2l-.3-.5.3.6q.1.1.1.2 0 .1.1.2 0 .1 0 .2 0 .1.1.2v.3l-.9-.7-.1-.2q0-.1 0-.3 0-.1-.1-.2 0-.1-.1-.2 0-.1-.1-.2l-.2-.4.2.5q.1.1.1.2 0 .1.1.1 0 .1 0 .2 0 .1 0 .2l.1.3-1-.8v-.2q0-.1 0-.2-.1-.1-.1-.2 0 0-.1-.1 0-.1 0-.2l-.2-.4.2.5q0 .1 0 .1 0 .1.1.2 0 0 0 .1 0 .1 0 .1l.1.3-.8-.6v-.2q-.1-.1-.1-.1 0-.1 0-.2 0-.1-.1-.1 0-.1 0-.1l-.2-.3.2.3q0 .1 0 .1 0 .1 0 .1.1.1.1.1 0 .1 0 .1v.2l-.8-.6q0 0 0 0l.8.7h-.1q-.1 0-.1 0-.1 0-.1 0-.1 0-.1 0 0 0-.1 0h-.3l.2.1q.1 0 .2 0 0 0 .1 0 .1 0 .1 0 .1 0 .1-.1h.2l.8.6-.2.1q-.1 0-.2 0 0 0-.1 0 0 0-.1 0 0 0-.1 0h-.4.3q.1.1.2.1.1 0 .1 0 .1 0 .2-.1.1 0 .1 0h.2l1 .7-.3.1q0 0-.1 0-.1 0-.1 0-.1 0-.2 0 0 0-.1 0h-.5l.4.1q.1 0 .2 0 .1 0 .2 0 .1 0 .2 0 .1 0 .1-.1h.2l1 .7-.3.1q-.1 0-.2 0 0 0-.1 0-.1 0-.2.1-.1 0-.1-.1h-.7l.5.1q.1 0 .3 0 .1 0 .2 0 .1 0 .2 0 .1 0 .2 0l.3-.1.7.6q0 0 0 0 0 0-.1 0 0 0 0 0 0 0 0 .1h-.7q-.1 0-.2 0-.3 0-.7-.1-.3 0-.6-.2-.3-.1-.5-.3-.3-.1-.5-.3z"/><path d="m94.7 169.9-.8-.7q0 0 0 0l.8.6z"/><path d="m94.7 169.9-.8-.7q0 0 0 0l.8.6z" opacity=".8"/><path d="m96.6 171.3-1-.7h.1l-.1-.1z"/><path d="m96.6 171.3-1-.7h.1l-.1-.1z" opacity=".8"/><path d="m95.6 170.5-.8-.6z"/><path d="m95.6 170.5-.8-.6z" opacity=".8"/><path d="m97.7 172.2v-.1l.7.6q0 0 0 0v.1z"/><path d="m97.7 172.2v-.1l.7.6q0 0 0 0v.1z" opacity=".8"/><path d="m97.6 172.1-1-.7h.1v-.1l.9.7z"/><path d="m97.6 172.1-1-.7h.1v-.1l.9.7z" opacity=".8"/><path d="m97.6 172.1.1.1-.3.1q-.1 0-.2 0-.1 0-.2 0-.1 0-.2 0-.1 0-.3 0l-.5-.1h.7q0 .1.1 0 .1 0 .2 0 .1 0 .2 0 0 0 .1 0z"/><path d="m96.6 171.3.1.1h-.1-.2q0 .1-.1.1-.1 0-.2 0-.1 0-.2 0-.1 0-.2 0l-.4-.1h.5q.1 0 .1 0 .1 0 .2 0 0 0 .1 0 .1 0 .1 0z"/><path d="m95.6 170.5.1.1h-.1-.1q-.1 0-.2 0-.1.1-.2.1 0 0-.1 0-.1 0-.2-.1h-.3.4q.1 0 .1 0 .1 0 .1 0 .1 0 .1 0 .1 0 .2 0z"/><path d="m94.7 169.9h.1-.2q0 0-.1.1 0 0-.1 0-.1 0-.1 0-.1 0-.1 0l-.3-.1h.3q.1 0 .1 0 0 0 .1 0 0 0 .1 0 0 0 .1 0h.1q0-.1 0 0z"/><path d="m97.7 172.2-.1-.1v-.1-.3q-.1-.1-.1-.2 0-.1 0-.2-.1-.1-.1-.2 0-.1-.1-.2l-.3-.6.3.5q.1.1.1.2.1.2.1.3.1.1.1.2 0 .2.1.3v.3z"/><path d="m96.7 171.4-.1-.1-.1-.3q0-.1 0-.2 0-.1 0-.2-.1 0-.1-.1 0-.1-.1-.2l-.2-.5.2.4q.1.1.1.2.1.1.1.2.1.1.1.2 0 .1 0 .3l.1.2z"/><path d="m95.7 170.6-.1-.1-.1-.3q0 0 0-.1 0-.1 0-.1-.1-.1-.1-.2 0 0 0-.1l-.2-.5.2.4q0 .1 0 .2.1.1.1.1 0 .1.1.2 0 .1 0 .2l.1.2z"/><path d="m94.8 169.9h-.1v-.1-.2q0 0 0-.1 0 0-.1-.1 0 0 0-.1 0 0 0-.1l-.2-.3.2.2q0 .1 0 .2.1 0 .1.1 0 .1 0 .2.1 0 .1.1v.2q0 0 0 0z"/><path d="m103.2 175.1q0-.2 0-.4 0-.3 0-.5-.1-.2-.1-.4-.1-.2-.1-.4l-.6-1.8c-.2-.5-.3-.3-.4-.1l-.9 1.3q-.4.5-.6 1.2-.2.6-.2 1.2 0 .7.2 1.3.2.6.6 1.2l.2.5q0 0 0 0 0 0 .1 0 0 0 0 0 0 .1 0 .1l.1-1-.1-.2q-.1-.1-.2-.3-.1-.1-.1-.2-.1-.1-.1-.3-.1-.1-.1-.2l-.2-.6.3.7q0 .1.1.2 0 .1 0 .2.1 0 .1.1.1.1.1.2l.2.3.2-1.2-.2-.3q0 0-.1-.1 0-.1-.1-.2 0-.2-.1-.3 0-.1-.1-.2l-.1-.5.2.6q.1.1.1.2 0 .1.1.1 0 .1 0 .2.1 0 .1.1l.2.2.1-1.2-.1-.2q-.1-.1-.1-.1-.1-.1-.1-.2 0-.1-.1-.2 0-.1 0-.2l-.1-.4.1.5q.1.1.1.2 0 0 .1.1 0 0 0 .1.1.1.1.1l.1.2.1-1-.1-.2q0 0 0-.1-.1 0-.1-.1 0-.1-.1-.1 0-.1 0-.2l-.1-.3.1.4q.1 0 .1.1 0 0 0 .1.1 0 .1.1 0 0 0 0l.1.2.2-1.1q0 0 0 0l-.1 1.1.1-.1q0 0 .1 0 0-.1 0-.1.1 0 .1-.1 0 0 .1 0l.2-.3-.2.2q0 .1 0 .1-.1.1-.1.1-.1.1-.1.1-.1.1-.1.1l-.1.1-.1 1 .1-.1q.1 0 .1-.1.1 0 .1-.1.1 0 .1 0 0-.1.1-.1l.2-.4-.2.3q0 .1 0 .2-.1 0-.1.1-.1 0-.2.1 0 .1-.1.1l-.1.1-.2 1.3.2-.2q.1 0 .2-.1 0 0 .1-.1 0 0 .1-.1 0 0 0-.1l.4-.4-.3.4q0 0-.1.1 0 .1-.1.2-.1.1-.1.1-.1.1-.2.1l-.2.2-.1 1.2.3-.2q0 0 .1-.1.1 0 .1-.1.1-.1.1-.1.1-.1.1-.1l.4-.6-.2.5q-.1.1-.2.2 0 .1-.1.2-.1.1-.2.1-.1.1-.2.2l-.2.1-.1 1q.1 0 .1 0 0 0 .1 0 0 0 0-.1l.5-.5q0-.1.1-.2.2-.2.4-.5.1-.3.3-.6.1-.3.1-.6.1-.4.1-.7z"/><path d="m102 173.4.1-1.1q0 0 0 0l-.2 1.1z"/><path d="m102 173.4.1-1.1q0 0 0 0l-.2 1.1z" opacity=".8"/><path d="m101.8 175.9.1-1.3h-.1l-.1 1.3z"/><path d="m101.8 175.9.1-1.3h-.1l-.1 1.3z" opacity=".8"/><path d="m101.9 174.5.1-1h-.1l-.1 1z"/><path d="m101.9 174.5.1-1h-.1l-.1 1z" opacity=".8"/><path d="m101.6 177.4-.1-.1-.1 1h.1l.1-1z"/><path d="m101.6 177.4-.1-.1-.1 1h.1l.1-1z" opacity=".8"/><path d="m101.6 177.2.1-1.2-.2 1.2z"/><path d="m101.6 177.2.1-1.2-.2 1.2z" opacity=".8"/><path d="m101.6 177.2v.2-.1l.2-.1q.1-.1.2-.2.1 0 .2-.1.1-.1.1-.2.1-.1.2-.2l.2-.5-.4.6q0 0-.1.1 0 .1-.1.1 0 .1-.1.1-.1.1-.1.1z"/><path d="m101.7 175.9v.1l.2-.2q.1 0 .2-.1 0 0 .1-.1.1-.1.1-.2.1 0 .1-.1l.3-.4-.4.4q0 .1 0 .1-.1.1-.1.1-.1.1-.1.1-.1.1-.2.1z"/><path d="m101.8 174.5v.1h.1l.1-.1q.1 0 .1-.1.1 0 .2-.1 0-.1.1-.1 0-.1.1-.2l.1-.3-.2.4q-.1 0-.1.1 0 0-.1.1 0 0-.1 0 0 .1-.1.1l-.1.1z"/><path d="m102 173.4v.1l.1-.1q0 0 .1-.1 0 0 .1-.1 0 0 .1-.1 0 0 0-.1l.2-.2-.2.3q-.1 0-.1 0 0 .1-.1.1 0 0 0 .1-.1 0-.1 0l-.1.1q0 0 0 0z"/><path d="m101.6 177.4v-.2h-.1l-.2-.3q0-.1-.1-.2 0 0-.1-.1 0-.1 0-.2-.1-.1-.1-.2l-.3-.7.2.6q0 .1.1.3 0 .1.1.2 0 .1.1.2.1.2.2.3l.1.2s.1.1.1.1z"/><path d="m101.7 176v-.1l-.2-.3q0-.1-.1-.1 0-.1 0-.2-.1 0-.1-.1 0-.1-.1-.2l-.2-.6.1.5q.1.1.1.3.1.1.1.2.1.1.1.2.1.1.1.2z"/><path d="m101.8 174.6v-.1l-.1-.2q0 0-.1-.1 0-.1 0-.1-.1-.1-.1-.1 0-.1-.1-.2l-.1-.4.1.4q0 0 0 .1.1.1.1.2.1.1.1.2 0 .1.1.1z"/><path d="m102 173.5v-.1h-.1l-.1-.1q0-.1 0-.1 0-.1-.1-.1 0-.1 0-.1 0-.1-.1-.1l-.1-.4.1.3q0 .1 0 .2.1 0 .1.1 0 .1.1.1 0 .1 0 .1l.1.2q0 0 .1 0z"/><path d="m98.6 179.4q-.2-.1-.3-.3-.1-.2-.3-.3-.1-.2-.2-.4-.1-.2-.2-.3l-.9-1.7c-.2-.5 0-.4.2-.4l1.5.1c1.6.2 2.8 1.4 3.4 3.3l.2.5q0 .1 0 .1 0 0 0 .1 0 0 0 0l-.7-.5-.1-.3q0-.2 0-.3-.1-.1-.1-.3-.1-.1-.1-.2-.1-.2-.2-.3l-.2-.5.3.7q0 .1 0 .2.1.1.1.1 0 .1.1.2 0 .1 0 .2l.1.4-1-.7v-.3q0-.1-.1-.2 0-.1 0-.2-.1-.1-.1-.3-.1-.1-.1-.2l-.3-.4.3.6q0 0 .1.1 0 .1 0 .2 0 .1.1.1 0 .1 0 .2l.1.3-1-.7v-.2q-.1-.1-.1-.2 0-.1 0-.2-.1-.1-.1-.2-.1-.1-.1-.2l-.2-.3.2.5q0 0 .1.1 0 0 0 .1 0 .1 0 .1.1.1.1.2v.2l-.8-.6v-.2q0 0 0-.1 0-.1-.1-.1 0-.1 0-.2-.1 0-.1-.1l-.2-.3.2.4q0 0 .1.1 0 0 0 .1 0 0 0 .1 0 0 0 .1l.1.2-.8-.7q0 0 0 0-.1 0-.1 0l.9.7h-.2q0 0-.1.1 0 0-.1 0 0 0-.1 0 0 0 0 0l-.4-.1.3.1q.1 0 .1 0 .1 0 .1 0 .1 0 .2 0 0 0 .1 0l.1-.1.8.7h-.2q-.1 0-.1 0-.1 0-.1 0-.1.1-.1.1-.1 0-.1-.1h-.5l.4.1q0 0 .1 0 .1 0 .2 0 .1 0 .1 0 .1 0 .2 0l.2-.1.9.8h-.2q-.1 0-.2 0 0 .1-.1.1-.1 0-.1 0-.1 0-.2 0l-.5-.1.4.1q.1 0 .2 0 .1 0 .2 0 .1 0 .2 0 .1 0 .2 0l.2-.1.9.8h-.2q-.1 0-.2.1-.1 0-.2 0 0 0-.1 0-.1 0-.2 0l-.6-.1.5.1q.1.1.2.1.1 0 .2 0 .2 0 .3-.1.1 0 .2 0l.2-.1.7.6q0 0 0 0 0 .1 0 .1-.1 0-.1 0h-.7q-.1 0-.2 0-.3 0-.6 0-.3-.1-.6-.2-.3-.1-.6-.3-.3-.2-.5-.4z"/><path d="m98.3 177.3-.8-.7q0 0-.1 0 0 0 0 0 .1 0 .1 0z"/><path d="m98.3 177.3-.8-.7q0 0-.1 0 0 0 0 0 .1 0 .1 0z" opacity=".8"/><path d="m100.1 178.8-.9-.8.9.7h.1z"/><path d="m100.1 178.8-.9-.8.9.7h.1z" opacity=".8"/><path d="m99.1 178-.8-.7.8.6z"/><path d="m99.1 178-.8-.7.8.6z" opacity=".8"/><path d="m101.3 179.6.7.5q0 0 0 0v.1l-.8-.6z"/><path d="m101.3 179.6.7.5q0 0 0 0v.1l-.8-.6z" opacity=".8"/><path d="m101.1 179.6-.9-.8 1 .7z"/><path d="m101.1 179.6-.9-.8 1 .7z" opacity=".8"/><path d="m101.2 179.5.1.1h-.1l-.2.1q-.1 0-.2 0-.1.1-.2.1-.2 0-.3 0-.1 0-.2-.1l-.5-.1.6.1q.1 0 .2 0 .1 0 .1 0 .1 0 .2 0 .1-.1.2-.1h.2z"/><path d="m100.2 178.7v.1l-.2.1q-.1 0-.2 0-.1 0-.2 0-.1 0-.2 0-.1 0-.2 0l-.4-.1.5.1q.1 0 .2 0 0 0 .1 0 .1 0 .1-.1.1 0 .2 0h.2s.1-.1.1-.1z"/><path d="m99.1 177.9.1.1-.2.1q-.1 0-.1 0-.1 0-.2 0-.1 0-.2 0 0 0-.1 0l-.4-.1h.5q0 .1.1.1 0 0 .1-.1 0 0 .1 0 .1 0 .1 0h.2z"/><path d="m98.3 177.3-.1.1q-.1 0-.1 0-.1 0-.2 0 0 0-.1 0 0 0-.1 0l-.3-.1.4.1q0 0 .1 0 0 0 0 0 .1 0 .1 0 .1-.1.1-.1h.2q0 0 0 0z"/><path d="m101.3 179.6-.1-.1-.1-.4q0-.1 0-.2-.1-.1-.1-.2 0 0-.1-.1 0-.1 0-.2l-.3-.7.2.5q.1.1.2.3 0 .1.1.2 0 .2.1.3 0 .1 0 .3l.1.2z"/><path d="m100.2 178.8v-.1l-.1-.3q0-.1 0-.2-.1 0-.1-.1 0-.1 0-.2-.1-.1-.1-.1l-.3-.6.3.4q0 .1.1.2 0 .2.1.3 0 .1 0 .2.1.1.1.2z"/><path d="m99.2 178-.1-.1v-.2q0-.1 0-.2-.1 0-.1-.1 0-.1 0-.1-.1-.1-.1-.1l-.2-.5.2.3q.1.1.1.2 0 .1.1.2 0 .1 0 .2 0 .1.1.1z"/><path d="m98.3 177.3v-.2q-.1-.1-.1-.1 0-.1 0-.1 0-.1 0-.1-.1-.1-.1-.1l-.1-.4.1.3q0 .1.1.1 0 .1 0 .2.1 0 .1.1 0 .1 0 .1v.2q0 0 0 0z"/><path d="m107.5 185.3q0-.3-.1-.5 0-.3 0-.6-.1-.2-.1-.5-.1-.2-.2-.5l-.7-2.2c-.2-.6-.3-.4-.5-.2l-1.1 1.6q-.4.7-.7 1.5-.2.8-.2 1.6 0 .8.2 1.5.3.8.7 1.5l.3.6q0 0 0 0 0 .1.1.1 0 0 0 0 0 0 .1 0l.1-1.1-.2-.4q-.1-.1-.2-.2-.1-.2-.2-.3 0-.2-.1-.3-.1-.2-.1-.4l-.2-.7.3.9q0 .1.1.2 0 .1.1.2.1.1.1.2.1.1.1.2l.3.4.2-1.5-.2-.3q-.1-.1-.2-.2 0-.2-.1-.3-.1-.1-.1-.2-.1-.2-.1-.3l-.2-.6.3.7q0 .1.1.2 0 .1.1.2 0 .1.1.2 0 0 .1.1l.2.3.1-1.5-.1-.2q-.1-.1-.1-.2-.1-.1-.2-.2 0-.1-.1-.2 0-.2 0-.3l-.2-.5.3.6q0 .1 0 .2.1.1.1.1 0 .1.1.2 0 .1.1.1l.1.3.2-1.3-.1-.2q-.1-.1-.1-.1-.1-.1-.1-.2-.1-.1-.1-.2 0 0-.1-.1l-.1-.4.2.5q0 0 .1.1 0 0 0 .1 0 0 .1.1 0 .1 0 .1l.2.2.1-1.3q0 0 0 0l-.1 1.3.2-.1q0 0 .1-.1 0 0 .1 0 0-.1 0-.1.1-.1.1-.1l.3-.4-.2.3q-.1.1-.1.2-.1 0-.1.1-.1.1-.1.1-.1.1-.1.1l-.2.1-.1 1.3.2-.2q.1 0 .1 0 .1-.1.1-.1.1-.1.1-.1.1-.1.1-.2l.3-.4-.2.4q0 .1-.1.2-.1 0-.1.1-.1.1-.2.2-.1 0-.1.1l-.2.1-.2 1.6.3-.2q.1-.1.1-.1.1-.1.2-.1 0-.1.1-.2 0 0 .1-.1l.4-.6-.3.5q-.1.1-.1.2-.1.1-.2.2-.1.1-.2.2-.1.1-.2.1l-.2.2-.1 1.5.3-.2q.1-.1.1-.1.1-.1.2-.2.1 0 .1-.1.1-.1.2-.2l.5-.6-.4.5q-.1.2-.1.3-.1.1-.2.2-.1.1-.2.2-.2.1-.3.2l-.2.2-.1 1.2q0 0 0 0 0 0 .1 0 0 0 0-.1 0 0 .1 0l.6-.7q0 0 .1-.1.3-.4.5-.7.2-.4.4-.8.1-.4.2-.8 0-.4.1-.8z"/><path d="m105.9 183.2.1-1.3q0 0 0 0z"/><path d="m105.9 183.2.1-1.3q0 0 0 0z" opacity=".8"/><path d="m105.7 186.2.1-1.5h-.1l-.1 1.5v.1z"/><path d="m105.7 186.2.1-1.5h-.1l-.1 1.5v.1z" opacity=".8"/><path d="m105.8 184.6.1-1.3-.2 1.3z"/><path d="m105.8 184.6.1-1.3-.2 1.3z" opacity=".8"/><path d="m105.4 188.1-.1 1.1.1.1.1-1.2z"/><path d="m105.4 188.1-.1 1.1.1.1.1-1.2z" opacity=".8"/><path d="m105.5 187.9.1-1.5-.2 1.5v.1z"/><path d="m105.5 187.9.1-1.5-.2 1.5v.1z" opacity=".8"/><path d="m105.4 188v.1h.1l.2-.2q.2-.1.3-.2.1-.1.2-.2.1-.1.2-.2 0-.1.1-.3l.4-.5-.5.6q-.1.1-.2.2 0 .1-.1.1-.1.1-.2.2 0 0-.1.1l-.3.2s-.1.1-.1.1z"/><path d="m105.6 186.3v.1l.2-.2q.1 0 .2-.1.1-.1.2-.2.1-.1.2-.2 0-.1.1-.2l.3-.5-.4.6q-.1.1-.1.1-.1.1-.1.1-.1.1-.2.2 0 0-.1.1l-.2.1s-.1.1-.1.1z"/><path d="m105.8 184.6v.1l.2-.1q.1-.1.1-.2.1 0 .2-.1 0-.1.1-.2.1 0 .1-.1l.2-.4-.3.4q0 .1-.1.1 0 .1-.1.1 0 .1-.1.1 0 .1-.1.1z"/><path d="m105.9 183.2v.1l.2-.1q0 0 .1-.1 0 0 .1-.1.1-.1.1-.1 0-.1.1-.2l.2-.3-.3.4q0 0-.1.1 0 0 0 .1-.1 0-.1 0-.1.1-.1.1l-.2.1q0 0 0 0z"/><path d="m105.4 188.1v-.1-.1l-.3-.4q0-.1-.1-.2 0-.1-.1-.2-.1-.1-.1-.2-.1-.1-.1-.2l-.3-.9.2.7q0 .2.1.4.1.1.1.3.1.1.2.3.1.1.2.2z"/><path d="m105.6 186.4v-.1-.1l-.2-.3q-.1 0-.1-.1-.1-.1-.1-.2-.1-.1-.1-.2-.1-.1-.1-.2l-.3-.7.2.6q0 .1.1.3 0 .1.1.2.1.2.1.3.1.1.2.2z"/><path d="m105.8 184.7v-.1h-.1l-.1-.3q-.1 0-.1-.1-.1-.1-.1-.2 0 0-.1-.1 0-.1 0-.2l-.3-.6.2.5q0 .2.1.3 0 .1 0 .2.1.1.2.2 0 .1.1.2l.1.2z"/><path d="m105.9 183.3v-.1l-.1-.2q-.1 0-.1-.1-.1-.1-.1-.1 0-.1 0-.1-.1-.1-.1-.1l-.2-.5.1.4q.1.1.1.1 0 .1.1.2 0 .1.1.2 0 .1.1.1z"/><path d="m101.5 188.1q-.2-.2-.4-.4-.1-.2-.3-.4-.2-.2-.3-.4-.1-.2-.2-.5l-1.1-2.1c-.3-.5 0-.5.2-.4l1.9.2c1.9.2 3.5 1.6 4.2 4l.2.7q0 0 0 0 0 0 0 .1 0 0 0 0 0 0 0 .1l-.9-.7-.1-.4q0-.2 0-.3-.1-.2-.1-.4-.1-.1-.2-.3 0-.1-.1-.3l-.4-.6.4.8q0 .1.1.2 0 .2.1.3 0 .1 0 .2.1.1.1.2l.1.5-1.2-.9v-.3q-.1-.2-.1-.3 0-.1-.1-.3 0-.1-.1-.2-.1-.2-.1-.3l-.3-.5.3.7q0 .1.1.2 0 .1 0 .1.1.1.1.2 0 .1 0 .2l.1.4-1.2-.9v-.3q0-.1-.1-.2 0-.1 0-.2-.1-.1-.1-.2-.1-.1-.1-.2l-.3-.5.3.6q0 .1 0 .2.1 0 .1.1 0 .1 0 .2.1.1.1.1v.3l-.9-.7-.1-.2q0-.1 0-.2 0-.1-.1-.2 0-.1 0-.1-.1-.1-.1-.2l-.2-.4.2.5q0 .1 0 .1.1.1.1.1 0 .1 0 .2 0 0 .1.1v.2l-1-.7q0 0 0 0 0-.1 0-.1 0 0 0 .1 0 0 0 0l1 .8h-.2q-.1 0-.1 0-.1.1-.1.1-.1 0-.1 0-.1 0-.1 0l-.5-.1.4.1q0 0 .1 0 .1 0 .2 0 0 0 .1 0 .1 0 .2 0l.1-.1 1 .8-.2.1q-.1 0-.2 0 0 0-.1 0-.1 0-.1 0-.1 0-.2 0h-.5l.4.1q.1 0 .2 0 .1 0 .2 0 .1 0 .2 0 .1-.1.2-.1h.2l1.2.9-.3.1q-.1 0-.2 0-.1 0-.2 0 0 0-.1 0-.1 0-.2 0h-.6l.5.1q.1 0 .2 0 .1 0 .2 0 .2 0 .3 0 .1 0 .2-.1h.3l1.1.9-.3.1q-.1 0-.2 0-.1 0-.2 0-.1 0-.2 0-.1 0-.2 0h-.8l.6.1q.2 0 .3 0 .1 0 .3 0 .1 0 .3 0 .1 0 .2 0l.3-.1.9.7q0 0 0 0 0 0 0 .1-.1 0-.1 0h-.9q-.1 0-.2 0-.4 0-.8-.1-.4 0-.8-.2-.3-.1-.7-.3-.3-.2-.6-.5z"/><path d="m101.1 185.5-1-.8q0 0 0 0l1 .7z"/><path d="m101.1 185.5-1-.8q0 0 0 0l1 .7z" opacity=".8"/><path d="m103.4 187.3-1.2-.9v-.1l1.2.9z"/><path d="m103.4 187.3-1.2-.9v-.1l1.2.9z" opacity=".8"/><path d="m102.1 186.3-1-.8h.1l.9.7.1.1z"/><path d="m102.1 186.3-1-.8h.1l.9.7.1.1z" opacity=".8"/><path d="m104.8 188.4v-.1l.9.7q0 0 0 0l-.1.1-.9-.7z"/><path d="m104.8 188.4v-.1l.9.7q0 0 0 0l-.1.1-.9-.7z" opacity=".8"/><path d="m104.6 188.3-1.1-.9v-.1l1.2.9v.1z"/><path d="m104.6 188.3-1.1-.9v-.1l1.2.9v.1z" opacity=".8"/><path d="m104.7 188.3.1.1h-.1l-.2.1q-.2 0-.3 0-.2 0-.3 0-.1.1-.3 0-.1 0-.3 0l-.6-.1h.8q.1.1.2.1.1-.1.2-.1.1 0 .2 0 .1 0 .2 0l.3-.1z"/><path d="m103.4 187.3.1.1h-.3q-.1.1-.2.1-.1 0-.2 0-.2 0-.3 0-.1 0-.2 0l-.5-.1h.6q.1 0 .2 0 .1 0 .2 0 0 0 .1 0 .1 0 .2 0z"/><path d="m102.2 186.3v.1h-.2q-.1.1-.2.1-.1 0-.2 0-.1 0-.2 0-.1 0-.2 0l-.4-.1h.5q.1 0 .2 0 0 0 .1 0 .1 0 .1 0 .1 0 .2 0l.2-.1z"/><path d="m101.1 185.5h.1-.1l-.1.1q-.1 0-.2 0 0 0-.1 0-.1 0-.2 0 0 0-.1 0l-.4-.1.5.1q0 0 .1 0 0 0 .1 0 0 0 .1 0 0-.1.1-.1h.2q0 0 0 0z"/><path d="m104.8 188.4-.1-.1v-.1l-.1-.4q0-.2-.1-.3 0-.1 0-.2-.1-.1-.1-.2 0-.2-.1-.3l-.4-.8.4.6q.1.2.1.3.1.2.2.4 0 .1.1.3 0 .1 0 .3l.1.4z"/><path d="m103.5 187.4-.1-.1v-.1l-.1-.3q0-.1 0-.2 0-.1-.1-.2 0-.1 0-.2-.1-.1-.1-.2l-.3-.7.3.5q0 .1.1.3.1.1.1.2.1.2.1.3 0 .1.1.3v.3z"/><path d="m102.2 186.4v-.1-.1l-.1-.3q0 0 0-.1-.1-.1-.1-.2 0-.1 0-.1-.1-.1-.1-.2l-.3-.6.3.5q0 .1.1.2 0 .1.1.2 0 .1 0 .2.1.1.1.3v.2z"/><path d="m101.2 185.5h-.1v-.1-.2q-.1-.1-.1-.1 0-.1 0-.1 0-.1 0-.2-.1 0-.1-.1l-.2-.4.2.3q0 .1.1.2 0 .1 0 .1.1.1.1.2 0 .1 0 .2z"/><path d="m90.1 162.7q-.1-.2-.3-.4-.1-.2-.2-.5-.2-.2-.3-.5-.1-.2-.1-.4l-.8-2.3c-.1-.6.1-.5.3-.4l1.8.5c1.9.6 3.2 2.3 3.6 4.7l.1.7q0 0 0 .1 0 0-.1 0 0 0 0 .1 0 0 0 0l-.8-.8v-.4q0-.2 0-.3 0-.2 0-.4-.1-.1-.1-.3-.1-.2-.1-.3l-.3-.7.3.9q0 .1 0 .2.1.1.1.2 0 .2 0 .3 0 .1 0 .2v.5l-1-1.1v-.3q0-.2 0-.3 0-.2 0-.3-.1-.1-.1-.3 0-.1-.1-.3l-.2-.5.2.7q0 .1 0 .2.1.1.1.2 0 .1 0 .2 0 .1 0 .2v.4l-1-1.1v-.3q0-.1 0-.2 0-.1 0-.2-.1-.2-.1-.3 0-.1-.1-.2l-.1-.5.1.6q.1.1.1.2 0 .1 0 .2 0 0 0 .1 0 .1 0 .2v.3l-.8-.9v-.2q0-.1 0-.2 0-.1 0-.2-.1-.1-.1-.2 0 0 0-.1l-.2-.4.2.5q0 0 0 .1 0 .1 0 .1 0 .1 0 .2 0 0 0 .1v.2l-.8-.9q0 0 0 0-.1 0-.1 0 0 0 .1 0l.8 1h-.2q0 0-.1 0 0 0-.1 0 0 0-.1 0-.1 0-.1-.1l-.4-.1.3.2q.1 0 .2 0 0 0 .1 0 .1.1.2.1 0 0 .1 0l.2-.1.8 1h-.2q-.1 0-.2 0-.1 0-.1 0-.1 0-.2 0 0-.1-.1-.1l-.5-.1.4.2q.1 0 .2 0 .1 0 .2 0 .1.1.2.1.1 0 .2 0l.2-.1 1 1.1-.3.1q-.1 0-.2 0-.1 0-.2 0 0 0-.1-.1-.1 0-.2 0l-.6-.1.5.1q.1.1.2.1.1 0 .2.1.2 0 .3 0 .1 0 .2 0l.3-.1.9 1.1-.3.1q-.1 0-.2 0-.1 0-.2 0-.1 0-.2-.1-.1 0-.2 0l-.7-.2.6.2q.1.1.2.1.2.1.3.1.1 0 .3 0 .1 0 .3 0h.2l.8.8q0 0 0 0 0 .1-.1.1 0 0 0 0 0 0-.1 0l-.8-.1q-.1 0-.2-.1-.4 0-.8-.2-.4-.1-.7-.3-.4-.3-.6-.5-.3-.3-.6-.6z"/><path d="m90.1 160.1-.8-1q-.1 0-.1 0 0 0 .1 0 0 0 0 0l.8.9z"/><path d="m90.1 160.1-.8-1q-.1 0-.1 0 0 0 .1 0 0 0 0 0l.8.9z" opacity=".8"/><path d="m92.1 162.3-1-1.2 1 1.1z"/><path d="m92.1 162.3-1-1.2 1 1.1z" opacity=".8"/><path d="m91 161.1-.8-1 .8.9z"/><path d="m91 161.1-.8-1 .8.9z" opacity=".8"/><path d="m93.3 163.6v-.1l.8.8q0 0 0 0l-.1.1z"/><path d="m93.3 163.6v-.1l.8.8q0 0 0 0l-.1.1z" opacity=".8"/><path d="m93.2 163.4-1-1.1z"/><path d="m93.2 163.4-1-1.1z" opacity=".8"/><path d="m93.2 163.4.1.2h-.3q-.2 0-.3 0-.2 0-.3 0-.1 0-.3-.1-.1 0-.2-.1l-.6-.2.7.2q.1 0 .2 0 .1.1.2.1.1 0 .2 0 .1 0 .2 0z"/><path d="m92.1 162.3h.1l-.3.1q-.1 0-.2 0-.1 0-.3 0-.1-.1-.2-.1-.1 0-.2-.1l-.5-.1.6.1q.1 0 .2 0 .1.1.2.1 0 0 .1 0 .1 0 .2 0z"/><path d="m91.1 161.1-.2.1q-.1 0-.2 0-.1 0-.2-.1-.1 0-.2 0-.1 0-.2 0l-.4-.2.5.1q.1 0 .1.1.1 0 .2 0 .1 0 .1 0 .1 0 .2 0h.2z"/><path d="m90.1 160.1h.1-.2q-.1.1-.1.1-.1 0-.2-.1-.1 0-.1 0-.1 0-.2 0l-.3-.2.4.1q.1.1.1.1.1 0 .1 0 .1 0 .1 0 .1 0 .1 0h.2q0 0 0 0z"/><path d="m93.3 163.6-.1-.2v-.5q0-.1 0-.2 0-.1 0-.3 0-.1-.1-.2 0-.1 0-.2l-.3-.9.3.7q0 .1.1.3 0 .2.1.3 0 .2 0 .4 0 .1 0 .3v.4z"/><path d="m92.2 162.3h-.1v-.1-.4q0-.1 0-.2 0-.1 0-.2 0-.1 0-.2-.1-.1-.1-.2l-.2-.7.2.6q.1.1.1.2 0 .2.1.3 0 .1 0 .3 0 .1 0 .3z"/><path d="m91.1 161.1v-.1l-.1-.3q0-.1 0-.2 0 0 0-.1 0-.1 0-.2 0-.1-.1-.2l-.1-.6.1.5q.1.1.1.2 0 .1.1.3 0 .1 0 .2 0 .1 0 .2z"/><path d="m90.2 160.1v-.1l-.1-.2q0-.1 0-.1 0-.1 0-.2 0 0 0-.1 0-.1 0-.1l-.2-.5.2.4q0 .1 0 .2 0 0 .1.1 0 .1 0 .2 0 .1 0 .2z"/><path d="m110.9 199.3-.1-1.5q-.3-4.8-.9-9.7-.6-4.8-1.6-9.6-1-4.8-2.2-9.5-1.3-4.7-2.9-9.3l-1.9-5.5 2.2 6.9q1.4 4.3 2.5 8.7 1.1 4.4 1.9 8.8.9 4.5 1.4 9 .6 4.5.8 9l.2 2.8z"/><path d="m107.9 164.4q0-.2.1-.4 0-.2 0-.4 0-.2 0-.4 0-.3-.1-.5l-.2-1.9c-.1-.5-.2-.3-.3-.1l-1.2 1q-.4.5-.7 1.1-.3.5-.4 1.2-.1.6-.1 1.2.1.7.3 1.3l.2.5q0 0 0 0 0 0 0 .1 0 0 0 0 0 0 .1 0l.2-.9-.1-.3q0-.1-.1-.2 0-.1-.1-.3 0-.1 0-.2 0-.2-.1-.3v-.6l.1.7q0 .1.1.2 0 .1 0 .2 0 .1.1.2 0 .1 0 .2l.2.3.3-1.2-.1-.2q0-.1-.1-.2 0-.1 0-.2 0-.1-.1-.2 0-.2 0-.3v-.5l.1.6q0 .1 0 .2 0 .1 0 .2.1 0 .1.1 0 .1 0 .2l.2.2.3-1.1-.1-.2q0-.1 0-.2-.1-.1-.1-.2 0-.1 0-.2 0-.1 0-.2l-.1-.4.1.5q0 .1 0 .2 0 0 .1.1 0 .1 0 .1 0 .1.1.2v.2l.3-1v-.2q0 0-.1-.1 0-.1 0-.1 0-.1 0-.2-.1 0-.1-.1v-.3l.1.4q0 0 0 .1 0 0 0 .1 0 0 .1.1 0 0 0 .1l.1.1.3-1q0 0 0 0l-.3 1.1.1-.1q.1 0 .1-.1.1 0 .1 0 0 0 .1 0 0-.1 0-.1l.3-.2-.2.2q0 0-.1.1 0 0-.1 0 0 .1-.1.1 0 0-.1.1h-.1l-.3 1 .2-.1q0 0 .1 0 0-.1.1-.1 0 0 .1-.1 0 0 .1 0l.3-.3-.3.2q0 .1-.1.2 0 0-.1.1-.1 0-.1 0-.1.1-.2.1l-.1.1-.4 1.2.2-.1q.1-.1.2-.1 0 0 .1-.1 0 0 .1 0 .1-.1.1-.1l.4-.4-.3.3q-.1.1-.1.2-.1 0-.2.1-.1 0-.1.1-.1 0-.2.1l-.2.1-.3 1.1.2-.1q.1 0 .2-.1 0 0 .1 0 .1-.1.1-.1.1-.1.2-.1l.4-.5-.3.4q-.1.1-.2.2-.1.1-.2.1-.1.1-.2.2-.1 0-.2.1l-.2.1-.3.9q.1 0 .1 0 0 0 .1 0 0 0 0 0l.6-.5q.1 0 .1-.1.3-.2.5-.4.2-.3.4-.6.2-.2.3-.5.1-.4.2-.7z"/><path d="m107 162.5.3-1q0 0 0 0z"/><path d="m107 162.5.3-1q0 0 0 0z" opacity=".8"/><path d="m106.3 164.9.4-1.2h-.1v-.1l-.3 1.2z"/><path d="m106.3 164.9.4-1.2h-.1v-.1l-.3 1.2z" opacity=".8"/><path d="m106.7 163.6.3-1z"/><path d="m106.7 163.6.3-1z" opacity=".8"/><path d="m105.9 166.3-.1-.1-.2.9.1.1z"/><path d="m105.9 166.3-.1-.1-.2.9.1.1z" opacity=".8"/><path d="m106 166.1.3-1.1-.1-.1-.3 1.2v.1z"/><path d="m106 166.1.3-1.1-.1-.1-.3 1.2v.1z" opacity=".8"/><path d="m105.9 166.2v.1-.1h.2q.1-.1.2-.1.1-.1.2-.2.1 0 .2-.1.1-.1.2-.2l.3-.4-.4.5q-.1 0-.2.1 0 0-.1.1-.1 0-.1 0-.1.1-.2.1l-.2.1s-.1.1-.1.1z"/><path d="m106.3 164.9v.1l.2-.1q.1-.1.2-.1 0-.1.1-.1.1-.1.2-.1 0-.1.1-.2l.3-.3-.4.4q0 0-.1.1-.1 0-.1 0-.1.1-.1.1-.1 0-.2.1z"/><path d="m106.7 163.6-.1.1h.1l.1-.1q.1 0 .2-.1 0 0 .1-.1.1 0 .1-.1.1 0 .1-.1l.3-.2-.3.3q-.1 0-.1 0-.1.1-.1.1-.1 0-.1.1-.1 0-.1 0z"/><path d="m107 162.6.1-.1q.1 0 .1 0 .1 0 .1-.1.1 0 .1 0 .1-.1.1-.1l.2-.2-.3.2q0 0 0 0-.1.1-.1.1 0 0-.1 0 0 .1 0 .1h-.2q0 0 0 .1z"/><path d="m105.9 166.3v-.1-.1l-.2-.3q0-.1 0-.2-.1-.1-.1-.2 0-.1 0-.2-.1-.1-.1-.2l-.1-.7v.6q.1.1.1.3 0 .1 0 .2.1.2.1.3.1.1.1.2l.1.3s.1.1.1.1z"/><path d="m106.3 165v-.1-.1l-.2-.2q0-.1 0-.2 0-.1-.1-.1 0-.1 0-.2 0-.1 0-.2l-.1-.6v.5q0 .1 0 .2.1.2.1.3 0 .1 0 .2.1.1.1.2l.1.2s.1.1.1.1z"/><path d="m106.6 163.7.1-.1h-.1v-.3q-.1 0-.1-.1 0 0 0-.1-.1-.1-.1-.1 0-.1 0-.2l-.1-.5.1.4q0 .1 0 .2 0 .1 0 .2 0 .1.1.2 0 .1 0 .2z"/><path d="m107 162.6v-.1l-.1-.2q0 0 0 0-.1-.1-.1-.1 0-.1 0-.1 0-.1 0-.2l-.1-.4v.4q0 0 .1.1 0 .1 0 .2 0 0 0 .1.1.1.1.1v.2q.1 0 .1 0z"/><path d="m102.6 167.6q-.1-.2-.2-.3-.1-.2-.2-.4-.1-.2-.2-.4-.1-.2-.1-.4l-.5-1.8c-.1-.5 0-.4.2-.4l1.5.5q.5.2 1 .6.5.4.9 1 .3.5.5 1.1.2.6.2 1.2l.1.6q0 0 0 0 0 .1 0 .1l-.6-.7v-.3q0-.1 0-.3-.1-.1-.1-.2 0-.2 0-.3-.1-.1-.1-.3l-.2-.5.2.7q0 .1 0 .2 0 .1.1.2 0 .1 0 .2 0 .1 0 .2v.3l-.8-.9v-.2q0-.1 0-.3 0-.1 0-.2-.1-.1-.1-.2 0-.1 0-.2l-.2-.5.2.6q0 .1 0 .2 0 0 0 .1 0 .1 0 .2 0 .1 0 .2v.3l-.8-1v-.2q0-.1 0-.2 0-.1 0-.1 0-.1 0-.2 0-.1-.1-.2l-.1-.4.1.5q0 .1 0 .1.1.1.1.2 0 0 0 .1 0 .1 0 .1v.3l-.7-.8v-.2q0 0 0-.1 0-.1 0-.1 0-.1 0-.2 0-.1-.1-.1l-.1-.3.1.4q0 0 .1.1 0 0 0 .1 0 0 0 .1 0 0 0 .1v.2l-.7-.8q0 0 0 0l.7.8h-.2q0 0-.1 0 0 0-.1 0 0 0-.1 0 0 0 0-.1h-.4l.3.1q0 0 .1 0 .1 0 .1 0 .1 0 .1 0 .1 0 .2 0h.1l.6.8h-.2q0 0-.1 0 0 0-.1 0 0 0-.1 0 0 0-.1 0l-.4-.2.3.2q.1 0 .2 0 0 0 .1.1.1 0 .2 0 0 0 .1 0h.2l.8.9h-.3q0 0-.1 0-.1 0-.1 0-.1 0-.2 0 0 0-.1-.1l-.5-.1.4.2q.1 0 .2 0 .1 0 .2.1.1 0 .1 0 .1 0 .2 0h.2l.8.9h-.3q-.1 0-.1 0-.1 0-.2 0-.1 0-.2 0 0-.1-.1-.1l-.6-.2.5.2q.1.1.2.1.1 0 .2.1.1 0 .2 0 .1 0 .3 0h.2l.6.7q0 0 0 0-.1 0-.1 0 0 0 0 .1 0 0-.1 0l-.6-.2q-.1 0-.2 0-.3-.1-.6-.2-.3-.1-.6-.3-.3-.2-.5-.4-.2-.2-.4-.5z"/><path d="m102.7 165.5-.7-.8q0 0 0 0z"/><path d="m102.7 165.5-.7-.8q0 0 0 0z" opacity=".8"/><path d="m104.2 167.3-.8-.9h.1v-.1z"/><path d="m104.2 167.3-.8-.9h.1v-.1z" opacity=".8"/><path d="m103.4 166.3-.7-.8z"/><path d="m103.4 166.3-.7-.8z" opacity=".8"/><path d="m105.2 168.4v-.1l.6.7-.1.1-.6-.7z"/><path d="m105.2 168.4v-.1l.6.7-.1.1-.6-.7z" opacity=".8"/><path d="m105 168.3-.7-.9v-.1l.8.9v.1z"/><path d="m105 168.3-.7-.9v-.1l.8.9v.1z" opacity=".8"/><path d="m105.1 168.3.1.1h-.1-.2q-.1 0-.3 0-.1 0-.2 0-.1 0-.2-.1-.1 0-.2-.1l-.5-.2.6.2q.1 0 .2.1 0 0 .1 0 .1 0 .2 0 .1 0 .1 0h.3z"/><path d="m104.2 167.3.1.1h-.2q-.1 0-.2 0-.1 0-.2 0-.1 0-.2-.1-.1 0-.2 0l-.4-.2.5.1q.1.1.2.1 0 0 .1 0 .1 0 .1 0 .1 0 .2 0z"/><path d="m103.4 166.3.1.1h-.1-.2q0 0-.1 0-.1 0-.2 0 0 0-.1-.1-.1 0-.2 0l-.3-.2.4.2q.1 0 .1 0 .1 0 .1 0 .1 0 .2 0 0 0 .1 0z"/><path d="m102.7 165.5-.1.1q-.1 0-.1 0-.1-.1-.2-.1 0 0-.1 0 0 0-.1 0l-.2-.1.3.1q0 0 .1 0 0 0 0 0 .1 0 .1 0 .1 0 .1 0h.2q0 0 0 0z"/><path d="m105.2 168.4-.1-.1v-.1-.3q0-.1 0-.2 0-.1 0-.2 0-.1-.1-.2 0-.1 0-.2l-.2-.7.2.5q.1.2.1.3 0 .1 0 .3.1.1.1.2 0 .2 0 .3z"/><path d="m104.3 167.4-.1-.1v-.3q0-.1 0-.2 0-.1 0-.2 0-.1 0-.1 0-.1 0-.2l-.2-.6.2.5q0 .1 0 .2.1.1.1.2 0 .1 0 .2 0 .2 0 .3z"/><path d="m103.5 166.4-.1-.1v-.3q0 0 0-.1 0-.1 0-.1 0-.1 0-.2 0 0-.1-.1l-.1-.5.1.4q.1.1.1.2 0 .1 0 .2 0 .1.1.1 0 .1 0 .2z"/><path d="m102.7 165.5v-.2q0-.1 0-.1 0-.1 0-.1 0-.1 0-.1 0-.1 0-.1l-.1-.4.1.3q0 0 0 .1 0 .1 0 .2 0 0 0 .1.1.1.1.1s0 .2-.1.2z"/><path d="m109.9 172.4q.1-.2.1-.4 0-.2 0-.4 0-.3 0-.5 0-.2 0-.4l-.2-1.9c-.1-.5-.2-.3-.4-.2l-1.1 1.1q-.5.5-.8 1-.3.6-.4 1.2-.1.7 0 1.3 0 .6.2 1.2l.2.6q0 0 0 0 .1 0 .1.1 0 0 0 0l.3-.9-.1-.3q-.1-.1-.1-.2-.1-.2-.1-.3-.1-.1-.1-.3 0-.1 0-.2l-.1-.6.2.7q0 .1 0 .2 0 .1 0 .2.1.1.1.2 0 .1.1.2l.1.3.4-1.2-.1-.2q-.1-.1-.1-.2 0-.1-.1-.3 0-.1 0-.2 0-.1-.1-.2v-.5l.1.6q0 .1 0 .2.1.1.1.1 0 .1 0 .2.1.1.1.1l.1.3.4-1.2-.1-.2q-.1 0-.1-.1 0-.1 0-.2-.1-.1-.1-.2 0-.1 0-.2v-.4.5q.1.1.1.1 0 .1 0 .2 0 0 0 .1.1.1.1.1l.1.3.3-1-.1-.2q0 0 0-.1-.1-.1-.1-.2 0 0 0-.1 0-.1 0-.1l-.1-.4.1.4q0 .1 0 .1.1.1.1.1 0 .1 0 .1 0 .1 0 .1l.1.2.3-1q0 0 0 0l-.3 1h.2q0-.1.1-.1 0 0 0 0 .1 0 .1-.1 0 0 .1 0l.2-.3-.1.3q-.1 0-.1 0-.1.1-.1.1-.1.1-.1.1-.1 0-.2 0l-.1.1-.3 1 .2-.1q.1 0 .1-.1.1 0 .1 0 .1 0 .1-.1.1 0 .1-.1l.3-.3-.2.3q-.1.1-.1.1-.1.1-.2.1 0 .1-.1.1-.1.1-.1.1l-.2.1-.3 1.1.2-.1q0 0 .1 0 .1-.1.1-.1.1 0 .1-.1.1 0 .1-.1l.4-.3-.3.3q0 .1-.1.1-.1.1-.1.2-.1 0-.2.1-.1 0-.2.1h-.2l-.3 1.2.2-.1q.1 0 .2-.1.1 0 .1-.1.1 0 .2-.1 0 0 .1-.1l.5-.4-.4.4q-.1.1-.1.2-.1 0-.2.1-.1.1-.2.1-.1.1-.2.1l-.2.1-.3.9q0 0 0 .1 0 0 .1 0 0 0 0-.1 0 0 0 0l.6-.4q.1 0 .2-.1.2-.2.4-.5.3-.2.4-.5.2-.3.3-.6.2-.3.2-.6z"/><path d="m109 170.5.3-1q0 0 0 0z"/><path d="m109 170.5.3-1q0 0 0 0z" opacity=".8"/><path d="m108.4 172.8.3-1.2v.1-.1l-.4 1.2v.1z"/><path d="m108.4 172.8.3-1.2v.1-.1l-.4 1.2v.1z" opacity=".8"/><path d="m108.7 171.6.3-1-.3.9z"/><path d="m108.7 171.6.3-1-.3.9z" opacity=".8"/><path d="m107.9 174.3v-.1l-.3.9h.1l.3-.9z"/><path d="m107.9 174.3v-.1l-.3.9h.1l.3-.9z" opacity=".8"/><path d="m108 174.1.3-1.2v.1-.1l-.4 1.2z"/><path d="m108 174.1.3-1.2v.1-.1l-.4 1.2z" opacity=".8"/><path d="m107.9 174.1v.2l.1-.1.2-.1q.1 0 .2-.1.1 0 .2-.1.1-.1.2-.1 0-.1.1-.2l.4-.4-.5.4q-.1.1-.1.1-.1.1-.2.1 0 .1-.1.1-.1.1-.1.1l-.3.1z"/><path d="m108.3 172.9v.1-.1h.2q.1-.1.2-.1.1-.1.2-.1 0-.1.1-.2.1 0 .1-.1l.3-.3-.4.3q0 .1-.1.1 0 .1-.1.1 0 0-.1.1 0 0-.1 0l-.2.1s-.1.1-.1.1z"/><path d="m108.7 171.6v.1-.1h.2q0-.1.1-.1.1 0 .1-.1.1 0 .2-.1 0 0 .1-.1l.2-.3-.3.3q0 .1-.1.1 0 0-.1.1 0 0-.1 0 0 .1-.1.1z"/><path d="m109 170.5v.1l.2-.1q0 0 .1 0 0-.1.1-.1 0 0 .1-.1 0 0 0-.1l.2-.2-.2.3q0 0-.1 0 0 0-.1.1 0 0 0 0-.1 0-.1 0l-.2.1q0 0 0 0z"/><path d="m107.9 174.3v-.2l-.1-.3q-.1-.1-.1-.2 0-.1-.1-.2 0-.1 0-.2 0-.1 0-.2l-.2-.7.1.6q0 .1 0 .2 0 .2.1.3 0 .1.1.3 0 .1.1.2l.1.3z"/><path d="m108.3 173v-.1-.1l-.1-.3q0 0-.1-.1 0-.1 0-.2 0-.1-.1-.1 0-.1 0-.2l-.1-.6v.5q.1.1.1.2 0 .1 0 .2.1.1.1.3 0 .1.1.2l.1.2z"/><path d="m108.7 171.7v-.1-.1l-.1-.2q0 0-.1-.1 0-.1 0-.1 0-.1 0-.2 0 0-.1-.1v-.5.4q0 .1 0 .2 0 .1.1.2 0 .1 0 .2 0 0 .1.1l.1.2z"/><path d="m109 170.6v-.1l-.1-.2q0 0 0-.1 0 0 0-.1-.1 0-.1-.1 0 0 0-.1l-.1-.4.1.3q0 .1 0 .2 0 .1 0 .1 0 .1.1.2 0 0 0 .1l.1.2q0 0 0 0z"/><path d="m104.6 175.6q-.1-.2-.2-.4-.1-.2-.2-.3-.1-.2-.1-.4-.1-.2-.2-.4l-.5-1.9c-.1-.5.1-.4.3-.3l1.4.5q.6.2 1.1.6.5.4.8.9.4.6.6 1.2.2.6.2 1.2v.5q0 0 0 .1 0 0 0 0 0 0 0 .1 0 0 0 0l-.6-.7v-.3q0-.1 0-.3 0-.1 0-.2-.1-.2-.1-.3 0-.1-.1-.3l-.1-.6.1.8q.1.1.1.2 0 .1 0 .2 0 .1 0 .2 0 .1 0 .2v.3l-.8-.9v-.3q0-.1 0-.2 0-.1 0-.2 0-.1 0-.2-.1-.1-.1-.3l-.1-.4.1.6q0 .1 0 .1 0 .1.1.2 0 .1 0 .2 0 0 0 .1v.3l-.8-.9v-.2q0-.1 0-.2 0-.1 0-.2-.1-.1-.1-.2 0-.1 0-.1l-.2-.4.2.5q0 0 0 .1 0 .1 0 .1 0 .1 0 .2 0 0 0 .1v.2l-.6-.7v-.2q0-.1 0-.1 0-.1 0-.2-.1 0-.1-.1 0-.1 0-.2l-.1-.3.1.4q0 .1 0 .1 0 .1 0 .1 0 .1 0 .1 0 .1 0 .1v.2l-.7-.8q0 0 0 0 0 .1 0 .1l.7.8h-.2q0 0 0 0-.1 0-.1 0-.1 0-.1-.1-.1 0-.1 0l-.3-.1.2.1q.1.1.2.1 0 0 .1 0 0 0 .1 0 .1 0 .1 0h.1l.7.8h-.2q-.1 0-.1 0-.1 0-.1 0-.1 0-.1 0-.1-.1-.1-.1l-.5-.1.4.1q0 .1.1.1.1 0 .2 0 0 0 .1.1.1 0 .2 0l.1-.1.8 1h-.2q-.1 0-.2 0 0 0-.1 0-.1 0-.1-.1-.1 0-.1 0l-.6-.1.4.1q.1.1.2.1.1 0 .2 0 .1.1.2.1.1 0 .2 0l.2-.1.7 1h-.2q-.1 0-.2 0-.1 0-.1 0-.1 0-.2-.1-.1 0-.2 0l-.6-.2.5.2q.1.1.2.1.1 0 .2 0 .2.1.3.1.1 0 .2 0h.2l.6.7q0 0 0 0 0 0-.1 0 0 0 0 0l-.7-.1q-.1 0-.2 0-.3-.1-.6-.2-.3-.2-.5-.3-.3-.2-.5-.4-.3-.3-.5-.5z"/><path d="m104.7 173.5-.7-.8q0 0 0 0 .1-.1.1-.1 0 0 0 .1 0 0 0 0l.6.7z"/><path d="m104.7 173.5-.7-.8q0 0 0 0 .1-.1.1-.1 0 0 0 .1 0 0 0 0l.6.7z" opacity=".8"/><path d="m106.2 175.3-.7-.9v-.1l.8.9v.1z"/><path d="m106.2 175.3-.7-.9v-.1l.8.9v.1z" opacity=".8"/><path d="m105.4 174.3-.6-.8z"/><path d="m105.4 174.3-.6-.8z" opacity=".8"/><path d="m107.2 176.4v-.1l.6.7-.1.1-.6-.7z"/><path d="m107.2 176.4v-.1l.6.7-.1.1-.6-.7z" opacity=".8"/><path d="m107.1 176.3-.8-.9v-.1l.8.9z"/><path d="m107.1 176.3-.8-.9v-.1l.8.9z" opacity=".8"/><path d="m107.1 176.3.1.1h-.1-.2q-.1 0-.2 0-.1 0-.2-.1-.2 0-.3 0-.1 0-.2-.1l-.5-.2.6.2q.1 0 .2 0 .1.1.2.1 0 0 .1 0 .1 0 .2 0z"/><path d="m106.3 175.3v.1h-.2q-.1 0-.2 0-.1 0-.2-.1-.1 0-.2 0-.1 0-.1-.1l-.4-.1.5.1q0 0 .1.1.1 0 .1 0 .1 0 .2 0 0 0 .1 0h.2z"/><path d="m105.4 174.3.1.1h-.2q-.1 0-.2 0 0 0-.1-.1-.1 0-.2 0-.1 0-.1 0l-.4-.2.5.1q0 .1.1.1 0 0 .1 0 0 0 .1 0 0 0 .1 0z"/><path d="m104.7 173.5h.1-.2q0 0-.1 0-.1 0-.1 0-.1 0-.1 0-.1 0-.2-.1l-.2-.1.3.1q.1 0 .1.1 0 0 .1 0 0 0 .1 0 0 0 .1 0h.1q0 0 0 0z"/><path d="m107.2 176.4-.1-.1v-.1-.3q0-.1 0-.2 0-.1 0-.2 0-.1 0-.2 0-.1-.1-.2l-.1-.7.2.5q0 .2 0 .3.1.1.1.3 0 .1 0 .2 0 .2 0 .3z"/><path d="m106.3 175.4v-.1-.1-.3q0-.1 0-.1 0-.1 0-.2 0-.1-.1-.2 0 0 0-.1l-.1-.6.1.4q.1.2.1.3 0 .1 0 .2 0 .1 0 .2.1.1.1.2s0 .4-.1.4z"/><path d="m105.5 174.4-.1-.1v-.1-.2q0-.1 0-.1 0-.1 0-.2 0 0 0-.1 0-.1 0-.1l-.1-.5.1.4q0 .1 0 .1.1.1.1.2 0 .1 0 .2 0 .1 0 .2z"/><path d="m104.8 173.5h-.1v-.1-.1q0-.1 0-.2 0 0 0-.1 0 0 0-.1 0 0 0-.1l-.1-.4.1.3q0 .1 0 .2.1.1.1.1 0 .1 0 .2 0 .1 0 .1z"/><path d="m112.1 183.2q.1-.3.1-.5 0-.3 0-.5.1-.3 0-.6 0-.2 0-.5l-.3-2.3c-.1-.7-.2-.5-.4-.3l-1.4 1.3c-1.5 1.4-1.9 3.6-1.2 5.9l.2.7q0 0 0 0 0 0 .1.1 0 0 0 0l.4-1.1-.2-.3q0-.2-.1-.3 0-.2-.1-.4 0-.1-.1-.3 0-.2 0-.3l-.1-.8.2 1q0 .1 0 .2.1.1.1.2 0 .1.1.2 0 .2.1.3l.1.4.5-1.5-.2-.3q0-.1-.1-.2 0-.2 0-.3-.1-.1-.1-.3 0-.1 0-.3l-.1-.6.1.8q.1.1.1.2 0 .1 0 .2.1.1.1.2 0 .1.1.2l.1.3.5-1.5-.1-.2q-.1-.1-.1-.2-.1-.1-.1-.2 0-.2 0-.3-.1-.1-.1-.2v-.5l.1.6q0 .1 0 .2 0 .1.1.1 0 .1 0 .2 0 .1.1.1l.1.3.4-1.2-.1-.2q-.1-.1-.1-.1 0-.1 0-.2-.1-.1-.1-.2 0-.1 0-.2v-.4.5q.1.1.1.1 0 .1 0 .2 0 0 0 .1.1.1.1.1l.1.2.4-1.2q0 0 0 0l-.4 1.3.2-.1q.1 0 .1-.1.1 0 .1 0 0-.1.1-.1 0 0 .1-.1l.3-.2-.2.2q-.1.1-.2.1 0 .1-.1.1 0 .1-.1.1-.1 0-.1.1h-.2l-.4 1.3.3-.1q0-.1.1-.1.1 0 .1-.1.1 0 .1 0 .1-.1.1-.1l.5-.4-.3.3q-.1.1-.2.2-.1 0-.1.1-.1.1-.2.1-.1 0-.2.1l-.2.1-.4 1.4.3-.1q0 0 .1-.1.1 0 .2 0 0-.1.1-.1.1-.1.1-.1l.5-.5-.3.4q-.1.1-.2.2-.1.1-.2.1-.1.1-.2.2-.1 0-.2.1l-.2.1-.5 1.4.3-.1q.1-.1.2-.1.1-.1.2-.1.1-.1.2-.1 0-.1.1-.2l.6-.5-.4.5q-.1.1-.2.2-.1.1-.2.2-.2.1-.3.1-.1.1-.2.2l-.3.1-.3 1.1q0 0 0 0 0 0 .1 0 0 0 0 0l.7-.5q.1-.1.2-.2.4-.2.6-.5.3-.3.5-.7.2-.3.4-.7.1-.4.2-.8z"/><path d="m111 180.9.4-1.3q0 0 0 0l-.4 1.2z"/><path d="m111 180.9.4-1.3q0 0 0 0l-.4 1.2z" opacity=".8"/><path d="m110.2 183.7.4-1.4v-.1l-.5 1.5v.1z"/><path d="m110.2 183.7.4-1.4v-.1l-.5 1.5v.1z" opacity=".8"/><path d="m110.6 182.2.4-1.3v.1-.1l-.4 1.2z"/><path d="m110.6 182.2.4-1.3v.1-.1l-.4 1.2z" opacity=".8"/><path d="m109.6 185.5v-.1l-.4 1.1.1.1h.1l.3-1.1z"/><path d="m109.6 185.5v-.1l-.4 1.1.1.1h.1l.3-1.1z" opacity=".8"/><path d="m109.7 185.3.4-1.4v-.1l-.5 1.5z"/><path d="m109.7 185.3.4-1.4v-.1l-.5 1.5z" opacity=".8"/><path d="m109.7 185.4-.1.1h.1l.3-.2q.1 0 .2-.1.1 0 .3-.1.1-.1.2-.2.1-.1.2-.2l.4-.5-.6.5q-.1.1-.1.2-.1 0-.2.1-.1 0-.2.1-.1 0-.2.1l-.3.1s-.1 0 0 .1z"/><path d="m110.1 183.8v.1l.3-.1q.1-.1.2-.1.1-.1.2-.2.1 0 .2-.1.1-.1.2-.2l.3-.4-.5.4q0 .1-.1.2-.1 0-.1.1-.1 0-.2 0-.1.1-.1.1l-.3.1s-.1.1-.1.1z"/><path d="m110.6 182.2v.1l.2-.1q.1-.1.2-.1.1-.1.2-.1 0-.1.1-.1.1-.1.1-.2l.3-.3-.4.4q0 0-.1 0 0 .1-.1.1 0 .1-.1.1-.1 0-.1.1z"/><path d="m111 180.9v.1-.1h.2q0-.1.1-.1.1 0 .1-.1.1 0 .1-.1.1 0 .2-.1l.2-.2-.3.2q-.1.1-.1.1-.1 0-.1.1 0 0-.1 0 0 .1-.1.1l-.2.1q0 0 0 0z"/><path d="m109.6 185.5.1-.1-.1-.1-.1-.4q-.1-.1-.1-.2-.1-.2-.1-.3 0-.1-.1-.2 0-.1 0-.2l-.2-1 .1.8q0 .2 0 .3.1.2.1.4.1.1.1.3.1.1.1.3l.2.3z"/><path d="m110.1 183.9v-.1-.1l-.1-.3q-.1-.1-.1-.2 0-.1-.1-.2 0-.1 0-.2 0-.1-.1-.2l-.1-.8.1.7q0 .1 0 .2 0 .2.1.3 0 .1 0 .3.1.1.1.2l.2.3z"/><path d="m110.6 182.3v-.1-.1l-.1-.2q-.1-.1-.1-.2 0-.1 0-.2-.1 0-.1-.1 0-.1 0-.2l-.1-.6v.5q0 .1.1.2 0 .1 0 .3 0 .1.1.2 0 .1.1.2l.1.2z"/><path d="m111 181v-.1-.1l-.1-.2q0 0-.1-.1 0-.1 0-.1 0-.1 0-.1 0-.1-.1-.2v-.5.4q0 .1 0 .2 0 .1.1.2 0 .1 0 .2 0 .1.1.1l.1.2z"/><path d="m105.8 184.6q-.1-.2-.3-.4-.1-.2-.2-.5-.1-.2-.2-.4-.1-.3-.2-.5l-.6-2.3c-.2-.6 0-.5.3-.4l1.8.6c1.8.6 3 2.3 3.3 4.8l.1.7q0 0 0 0 0 .1 0 .1 0 0-.1 0 0 .1 0 .1l-.7-.9v-.4q0-.1 0-.3 0-.2-.1-.3 0-.2 0-.4-.1-.1-.1-.3l-.2-.7.2.9q0 .1 0 .2 0 .2.1.3 0 .1 0 .2 0 .1 0 .3v.4l-1-1.1v-.3q0-.2 0-.3 0-.2 0-.3 0-.1-.1-.3 0-.1 0-.2l-.2-.6.1.7q.1.1.1.2 0 .1 0 .2 0 .1 0 .2 0 .1 0 .2v.4l-.9-1.2v-.2q0-.1-.1-.3 0-.1 0-.2 0-.1 0-.2 0-.1-.1-.2l-.1-.5.1.6q0 .1 0 .2.1 0 .1.1 0 .1 0 .2 0 .1 0 .2v.3l-.8-1v-.2q0-.1 0-.2 0-.1-.1-.1 0-.1 0-.2 0-.1 0-.2l-.2-.4.2.5q0 .1 0 .1 0 .1 0 .2 0 0 0 .1 0 .1 0 .1v.3l-.8-1q0 0 0 0l.8 1h-.2q-.1 0-.1 0-.1 0-.1 0-.1 0-.1 0-.1 0-.1 0l-.4-.2.3.2q.1 0 .1 0 .1 0 .2.1 0 0 .1 0 .1 0 .2 0h.1l.8.9h-.2q-.1 0-.1 0-.1 0-.2 0-.1 0-.1 0-.1 0-.2 0l-.5-.2.4.2q.1 0 .2 0 .1.1.2.1.1 0 .2 0 .1 0 .2 0h.2l1 1.1-.3.1q-.1 0-.2 0-.1-.1-.2-.1 0 0-.1 0-.1 0-.2 0l-.6-.2.5.2q.1 0 .2.1.1 0 .2 0 .1 0 .3.1.1 0 .2 0l.3-.1.9 1.2h-.3q-.1 0-.2 0-.1 0-.2 0-.1 0-.2-.1-.1 0-.2 0l-.8-.2.6.2q.1.1.3.1.1 0 .2.1.2 0 .3 0 .2 0 .3 0h.3l.7.9q0 0 0 0-.1 0-.1 0l-.9-.1q-.1 0-.2-.1-.4 0-.8-.2-.3-.2-.7-.4-.3-.2-.6-.5-.3-.3-.5-.6z"/><path d="m105.9 182-.8-1q0 0 0 0z"/><path d="m105.9 182-.8-1q0 0 0 0z" opacity=".8"/><path d="m107.8 184.3-1-1.2h.1l.9 1.1z"/><path d="m107.8 184.3-1-1.2h.1l.9 1.1z" opacity=".8"/><path d="m106.8 183-.8-.9v-.1z"/><path d="m106.8 183-.8-.9v-.1z" opacity=".8"/><path d="m109 185.6v-.1l.7.9q0 0 0 0l-.1.1-.7-.9z"/><path d="m109 185.6v-.1l.7.9q0 0 0 0l-.1.1-.7-.9z" opacity=".8"/><path d="m108.8 185.5-.9-1.1v-.1l1 1.1v.1z"/><path d="m108.8 185.5-.9-1.1v-.1l1 1.1v.1z" opacity=".8"/><path d="m108.9 185.5.1.1h-.1-.3q-.1 0-.3 0-.1 0-.2 0-.2 0-.3-.1-.2 0-.3-.1l-.6-.2.8.2q.1 0 .2 0 .1.1.2.1.1 0 .2 0 .1 0 .2 0h.3z"/><path d="m107.8 184.3.1.1h-.3q-.1 0-.2 0-.1 0-.3-.1-.1 0-.2 0-.1-.1-.2-.1l-.5-.2.6.2q.1 0 .2 0 .1 0 .2 0 0 .1.1.1.1 0 .2 0z"/><path d="m106.8 183 .1.1h-.1-.2q-.1 0-.2 0-.1 0-.2 0-.1 0-.2 0-.1-.1-.1-.1l-.5-.2.6.2q0 0 .1 0 .1 0 .1 0 .1 0 .2 0 0 0 .1 0z"/><path d="m105.9 182 .1.1h-.2q-.1 0-.2 0 0 0-.1 0-.1 0-.2-.1 0 0-.1 0l-.3-.1.4.1q0 0 .1 0 0 0 .1 0 0 0 .1 0 .1 0 .1 0h.2q0 0 0 0z"/><path d="m109 185.6-.1-.1v-.1-.4q0-.2 0-.3 0-.1 0-.2-.1-.1-.1-.3 0-.1 0-.2l-.2-.9.2.7q0 .2.1.3 0 .2 0 .4.1.1.1.3 0 .2 0 .3z"/><path d="m107.9 184.4-.1-.1v-.1-.4q0-.1 0-.2 0-.1 0-.2 0-.1 0-.2 0-.1-.1-.2l-.1-.7.2.6q0 .1 0 .2.1.2.1.3 0 .2 0 .3 0 .1 0 .3z"/><path d="m106.9 183.1-.1-.1v-.3q0-.1 0-.2 0-.1 0-.2 0 0 0-.1-.1-.1-.1-.2l-.1-.6.1.5q.1.1.1.2 0 .1 0 .2.1.1.1.3 0 .1 0 .2z"/><path d="m106 182.1-.1-.1v-.3q0 0 0-.1 0-.1 0-.1 0-.1 0-.2 0 0 0-.1l-.1-.5.1.4q0 .1 0 .2.1.1.1.2 0 .1 0 .2 0 0 0 .1z"/><path d="m99.6 157.6q-.2-.3-.2-.5-.1-.3-.2-.5-.1-.3-.1-.5-.1-.3-.1-.5l-.3-2.4c0-.6.1-.4.4-.3l1.6.9c1.7.9 2.7 2.9 2.5 5.3v.7q0 0 0 .1 0 0 0 0-.1.1-.1.1l-.6-1 .1-.4q0-.1 0-.3.1-.2.1-.3 0-.2-.1-.4 0-.1 0-.3l-.1-.7.1.9q0 .1 0 .2 0 .2 0 .3 0 .1-.1.2 0 .1 0 .3v.4l-.8-1.3v-.3q.1-.1.1-.3 0-.1 0-.3 0-.1 0-.2 0-.2-.1-.3l-.1-.6.1.7q0 .1 0 .2 0 .1 0 .2 0 .1 0 .2 0 .1 0 .2l-.1.4-.8-1.3.1-.2q0-.2 0-.3 0-.1 0-.2 0-.1 0-.2 0-.2 0-.3l-.1-.5.1.7q0 0 0 .1 0 .1 0 .2 0 .1-.1.2 0 0 0 .1v.3l-.7-1 .1-.2q0-.1 0-.2 0-.1 0-.2 0-.1 0-.2 0-.1 0-.2l-.1-.4v.5q0 .1.1.2 0 0-.1.1 0 .1 0 .1 0 .1 0 .2v.2l-.7-1.1q0 0 0 0l.7 1.1h-.2q-.1 0-.1 0-.1 0-.1 0-.1-.1-.1-.1-.1 0-.1 0l-.4-.2.3.2q0 0 .1 0 .1.1.1.1.1 0 .2.1.1 0 .1 0h.2l.6 1.1-.2-.1q-.1 0-.1 0-.1 0-.2 0 0 0-.1-.1-.1 0-.1 0l-.5-.3.4.3q0 0 .1.1.1 0 .2 0 .1.1.2.1.1 0 .2 0l.2.1.7 1.3-.2-.1q-.1 0-.2 0-.1 0-.2 0 0-.1-.1-.1-.1 0-.2-.1l-.6-.3.5.3q.1.1.2.1.1.1.2.1.1.1.2.1.2 0 .3 0l.2.1.8 1.3-.4-.1q-.1 0-.2 0-.1-.1-.2-.1-.1 0-.1 0-.1-.1-.2-.1l-.7-.4.5.4q.1 0 .3.1.1.1.2.1.1.1.3.1.1 0 .3.1h.2l.6 1q0 0 0 0 0 0-.1 0 0 0 0 0 0 0-.1 0l-.8-.3q-.1 0-.2-.1-.3-.1-.7-.3-.3-.3-.6-.5-.3-.3-.5-.6-.3-.4-.4-.7z"/><path d="m100.1 155-.7-1.1q0 0 0 0z"/><path d="m100.1 155-.7-1.1q0 0 0 0z" opacity=".8"/><path d="m101.6 157.6-.8-1.3v-.1l.8 1.3z"/><path d="m101.6 157.6-.8-1.3v-.1l.8 1.3z" opacity=".8"/><path d="m100.7 156.2-.6-1.1.7 1v.1z"/><path d="m100.7 156.2-.6-1.1.7 1v.1z" opacity=".8"/><path d="m102.5 159.1v-.1l.6 1-.1.1-.6-1z"/><path d="m102.5 159.1v-.1l.6 1-.1.1-.6-1z" opacity=".8"/><path d="m102.4 158.9-.8-1.2h.1v-.1l.8 1.3-.1.1z"/><path d="m102.4 158.9-.8-1.2h.1v-.1l.8 1.3-.1.1z" opacity=".8"/><path d="m102.4 159 .1.1h-.1l-.2-.1q-.2 0-.3 0-.2 0-.3-.1-.1 0-.2-.1-.2-.1-.3-.1l-.5-.4.7.4q.1 0 .2 0 0 .1.1.1.1 0 .2.1.1 0 .2 0h.4z"/><path d="m101.6 157.6.1.1h-.1l-.2-.1q-.1 0-.3 0-.1 0-.2-.1-.1 0-.2-.1-.1 0-.2-.1l-.5-.3.6.3q.1.1.2.1.1 0 .1 0 .1.1.2.1.1 0 .2 0l.2.1z"/><path d="m100.8 156.2v.1l-.2-.1q-.1 0-.2 0-.1 0-.2-.1-.1 0-.2 0-.1-.1-.1-.1l-.4-.3.5.3q0 0 .1 0 .1.1.1.1.1 0 .2 0 0 0 .1 0l.2.1z"/><path d="m100.1 155v.1h-.2q0 0-.1-.1-.1 0-.2 0 0 0-.1-.1-.1 0-.1 0l-.3-.2.4.2q0 0 .1 0 0 0 .1 0 0 .1.1.1 0 0 .1 0h.2q0 0 0 0z"/><path d="m102.5 159.1-.1-.1.1-.1v-.4q0-.2.1-.3 0-.1 0-.2 0-.1 0-.3 0-.1 0-.2l-.1-.9.1.7q0 .2 0 .3.1.2.1.4 0 .1-.1.3 0 .2 0 .3l-.1.4z"/><path d="m101.7 157.7-.1-.1v-.1l.1-.4q0-.1 0-.2 0-.1 0-.2 0-.1 0-.2 0-.1 0-.2v-.7.6q.1.1.1.3 0 .1 0 .2 0 .2 0 .3 0 .2-.1.3v.3z"/><path d="m100.8 156.3v-.1-.1-.3q0 0 .1-.1 0-.1 0-.2 0-.1 0-.2 0 0 0-.1l-.1-.7.1.5q0 .2 0 .3 0 .1 0 .2 0 .1 0 .2 0 .2 0 .3l-.1.2z"/><path d="m100.1 155.1v-.1-.2q0-.1 0-.2.1 0 .1-.1 0-.1 0-.1 0-.1 0-.2l-.1-.5.1.4q0 .1 0 .2 0 .1 0 .2 0 .1 0 .2 0 .1 0 .2z"/></g><g opacity=".6"><path d="m205.2 280.9-.4-.7q0 .1.1.2 0 .1.1.2 0 .1 0 .1.1.1.2.2z" fill="#8bb0c0"/><path d="m204.6 279.9.2.3q-.1-.2-.1-.3z" fill="#e7fcff" opacity=".8"/><path d="m212.5 275.5h.1v-.1z" fill="#e7fcff"/><path d="m204.7 260.1-.5-.5q0 .1.1.1.1.1.1.2.1 0 .2.1 0 .1.1.1z" fill="#afe7e1"/><path d="m204 259.4.2.2q-.1-.1-.2-.2z" fill="#e7fcff" opacity=".8"/><path d="m261.1 242.3h-16.2q-1.4 0-2.7.1-1.4.1-2.7.3-1.4.2-2.7.5-1.3.3-2.6.7-1.8 2.6-3.9 4.9-2.2 2.2-4.7 4.1-2.6 1.8-5.4 3.2-2.8 1.4-5.8 2.3-1.2 1.7-2.3 3.4-1.1 1.7-2 3.5-1 1.9-1.9 3.7-.8 1.9-1.5 3.8l-2 5.3q-.1.2-.1.4 0 .2 0 .5-.1.2 0 .4 0 .2.1.5l8-5.1.8-3.1q.3-1.3.8-2.7.4-1.3 1-2.6.6-1.3 1.2-2.5.7-1.3 1.4-2.5l3.4-5.1-3.6 6.8q-.5.9-.9 1.8-.4.9-.8 1.8-.4 1-.7 1.9-.3 1-.6 2l-.9 3.6 10.5-6.6.6-2.6q.3-1.1.7-2.2.4-1.1.8-2.2.5-1.1 1.1-2.2.5-1 1.2-2l2.8-4.3-3.1 5.7q-.4.7-.7 1.5-.4.8-.7 1.5-.3.8-.5 1.6-.3.8-.5 1.7l-.8 3 10.6-6.7.5-2.1q.3-1 .6-1.9.3-.9.7-1.8.4-.9.8-1.8.5-.8 1-1.6l2.3-3.6-2.5 4.7q-.3.6-.6 1.2-.3.7-.5 1.3-.3.7-.5 1.3-.2.7-.4 1.4l-.7 2.5 8.8-5.5.5-1.7q.1-.7.4-1.5.2-.7.5-1.4.3-.7.7-1.3.3-.7.8-1.3l1.8-2.8-2 3.6q-.2.5-.5 1-.2.5-.4 1-.2.5-.4 1-.1.5-.3 1.1l-.5 1.9 9.2-5.7q0 0 0 0 .1 0 .1 0 0 .1 0 .1 0 .1 0 .1l-9.1 5.9 1.6.6q.5.1.9.3.5.1 1 .2.4.1.9.1.5.1.9.1l3.7.1-3 .2q-.6.1-1.3.1-.7-.1-1.3-.2-.7 0-1.3-.2-.7-.2-1.3-.4l-1.4-.5-8.7 5.6 2.1.7q.6.2 1.1.4.6.1 1.2.2.6.2 1.2.2.6.1 1.2.1l4.7.2-3.8.3q-.8 0-1.7 0-.8 0-1.7-.1-.8-.2-1.6-.4-.9-.2-1.7-.5l-1.7-.6-10.5 6.7 2.4.9q.7.3 1.4.5.7.1 1.4.3.8.1 1.5.2.7.1 1.5.1l5.6.2-4.6.3q-1 .1-2 .1-1 0-2.1-.2-1-.1-2-.4-1-.2-2-.6l-2-.8-10.4 6.7 2.9 1q.8.3 1.7.6.8.2 1.7.4.8.1 1.7.2.9.1 1.8.1l6.8.3-5.6.4q-1.2.1-2.4 0-1.2 0-2.5-.2-1.2-.1-2.4-.4-1.2-.3-2.3-.8l-2.5-.9-8 5.2q.1.2.2.4.1.2.3.3.2.1.4.2.2.1.4.2l7.4 1c16 2.1 29.9-5 38.9-19.8l10.1-16.7c2.5-4.7.6-4.2-1.8-4.2z" fill="#ef9b11"/><path d="m212.6 275.4v.1h-.1zm23.2-14.7v.1h-.1z" fill="#57cc99"/><path d="m203.5 208.4h42.1v52.2h-42.1z" fill="#ef9b11"/><path d="m240.9 222.5-2.4 1.2q-.6.3-1.1.5-.6.2-1.1.3-.6.2-1.2.2-.6.1-1.2.1l-1.3.1-6 7.6 1.9-.1q.5 0 1.1-.1.5-.1 1-.2.6-.1 1.1-.2.5-.2 1-.3l4-1.5-3.1 1.6q-.7.3-1.4.5-.7.3-1.5.5-.7.2-1.5.3-.7.1-1.5.1h-1.6l-7.3 9.2 2.3-.1q.6 0 1.3-.1.6-.1 1.3-.2.6-.1 1.2-.3.7-.2 1.3-.4l4.8-1.7-3.8 1.8q-.8.4-1.7.7-.8.3-1.7.5-.9.3-1.8.4-1 .1-1.9.1l-1.9.1-7.2 9 2.7-.1q.8 0 1.6-.1.7-.1 1.5-.2.8-.2 1.5-.4.8-.2 1.5-.5l5.8-2-4.6 2.2q-.9.4-2 .8-1 .4-2.1.6-1.1.3-2.2.4-1 .2-2.1.2l-2.3.1-5.6 7-.5-.5q-.1-.1-.2-.2l5.6-6.9v-2.9q-.1-1.2 0-2.5.1-1.3.2-2.6.2-1.3.4-2.5.3-1.3.7-2.5l1.6-5.5-1.5 7q-.1.9-.3 1.8-.1.9-.2 1.8-.1.9-.1 1.8-.1.9-.1 1.8l.1 3.4 7.3-9-.1-2.4q0-1.1.1-2.1 0-1.1.1-2.2.2-1 .4-2.1.2-1 .5-2.1l1.4-4.6-1.2 5.8q-.2.8-.3 1.6-.1.7-.2 1.5-.1.7-.1 1.5 0 .8 0 1.5v2.8l7.4-9.1v-2q-.1-.8 0-1.7 0-.9.1-1.8.2-.9.3-1.7.2-.9.5-1.7l1.1-3.8-1 4.8q-.1.6-.2 1.2-.1.6-.2 1.3-.1.6-.1 1.2 0 .7 0 1.3v2.3l6.2-7.5-.1-1.6q0-.7 0-1.4.1-.6.2-1.3 0-.7.2-1.4.1-.7.3-1.3l.9-3-.8 3.8q-.1.4-.2.9 0 .5-.1 1 0 .5-.1 1 0 .5 0 1l.1 1.8 6.3-7.9q.1 0 .1 0 .1 0 .1 0 0 0 0 .1 0 0 0 0 0 0 0 .1 0 0 0 0l-6.3 7.9h1.5q.4 0 .9-.1.4 0 .8-.1.4-.1.8-.2.4-.1.8-.2zm-23.2 20.5v-.1z" fill="#e7fcff" fill-rule="evenodd"/></g><path d="m106.1 129c0-15.7 12.7-28.4 28.4-28.4h47.1c15.7 0 28.5 12.7 28.5 28.4v152.5c0 15.7-12.8 28.4-28.5 28.4h-47.1c-15.7 0-28.4-12.7-28.4-28.4z" fill="#fff"/><path d="m192.6 311.7h-69.1c-2.5 0-5-.5-7.3-1.4-2.4-1-4.5-2.4-6.3-4.2s-3.2-3.9-4.1-6.2c-1-2.4-1.5-4.9-1.5-7.4v-174.5c0-2.5.5-5 1.5-7.4.9-2.3 2.3-4.4 4.1-6.2s3.9-3.2 6.3-4.2c2.3-.9 4.8-1.4 7.3-1.5h69.1c2.6.1 5.1.6 7.4 1.5 2.3 1 4.5 2.4 6.2 4.2 1.8 1.8 3.3 3.9 4.2 6.2 1 2.4 1.5 4.9 1.5 7.4v174.5c0 2.5-.5 5-1.5 7.4-.9 2.3-2.4 4.4-4.2 6.2-1.7 1.8-3.9 3.2-6.2 4.2-2.3.9-4.8 1.4-7.4 1.4zm-69.1-209.3c-2 0-4 .4-5.9 1.2s-3.6 1.9-5.1 3.4c-1.4 1.4-2.6 3.2-3.3 5-.8 1.9-1.2 4-1.2 6v174.5c0 2 .4 4.1 1.2 6 .7 1.8 1.9 3.6 3.3 5 1.5 1.4 3.2 2.6 5.1 3.4s3.9 1.2 5.9 1.2h69.1c2.1 0 4.1-.4 6-1.2s3.6-2 5-3.4c1.5-1.4 2.6-3.2 3.4-5 .8-1.9 1.2-4 1.2-6v-174.5c0-2-.4-4.1-1.2-6-.8-1.8-1.9-3.6-3.4-5-1.4-1.5-3.1-2.6-5-3.4s-3.9-1.2-6-1.2z" fill="#e0e9f3" fill-rule="evenodd"/><path d="m191.8 300.5h-67.4c-.5 0-1-.2-1.3-.6-.3-.3-.5-.8-.5-1.3s.2-.9.5-1.3c.3-.3.8-.5 1.3-.5h67.4c.5 0 .9.2 1.3.5.3.4.5.8.5 1.3s-.2 1-.5 1.3c-.4.4-.8.6-1.3.6z" fill="#e0e9f3"/><path d="m124.2 114.8c0 1.3-.9 2.6-2.1 3.1-1.3.5-2.8.2-3.7-.7-1-1-1.3-2.5-.8-3.7.6-1.3 1.8-2.1 3.2-2.1q.7 0 1.3.2.6.3 1.1.8.5.4.7 1.1.3.6.3 1.3z" fill="#e0e9f3"/><path d="m168.9 211.5q.2.1.2.3.1.3 0 .5 0 .2-.2.4l-2.7 1.8q-.1.1-.2.3-.1.2 0 .4 0 .2.2.4.1.1.3.2l3.1.6q.2.1.4.3.1.2.2.4 0 .2-.2.4-.1.2-.3.3l-3 1q-.2.1-.4.2-.1.2-.1.4 0 .2.1.4.1.2.3.3l2.7 1.5q.3.1.3.4.1.2.1.4-.1.2-.2.4-.2.1-.5.1l-3.2.2q-.2 0-.3.1-.2.1-.3.3-.1.2 0 .4 0 .2.2.4l2.2 2.2q.2.2.2.4.1.3-.1.5-.1.2-.3.3-.2.1-.4 0l-3.1-.8q-.2 0-.4 0-.2.1-.4.3-.1.1-.1.3 0 .3.1.4l1.5 2.8q.1.2.1.5-.1.2-.2.4-.2.1-.4.2-.3 0-.5-.1l-2.7-1.6q-.2-.1-.4-.1-.2 0-.4.1-.2.1-.2.3-.1.2-.1.4l.7 3.1q.1.3 0 .5-.1.2-.4.3-.2.1-.4.1-.2-.1-.4-.2l-2.2-2.4q-.1-.1-.3-.2-.2 0-.4 0-.2.1-.3.3-.2.1-.2.4l-.2 3.1q0 .3-.2.4-.2.2-.4.3-.2 0-.4-.1-.2-.1-.4-.3l-1.4-2.8q-.1-.2-.3-.3-.1-.1-.4-.1-.2 0-.3.1-.2.1-.3.3l-1.1 3q-.1.2-.3.4-.2.1-.4.1-.3-.1-.4-.2-.2-.2-.2-.4l-.6-3.1q-.1-.3-.2-.4-.2-.2-.4-.2-.2 0-.4 0-.1.1-.3.3l-1.9 2.5q-.1.2-.4.3-.2 0-.4-.1-.2-.1-.4-.3-.1-.2-.1-.4l.4-3.2q0-.2-.1-.4-.1-.1-.3-.2-.2-.1-.4-.1-.2 0-.3.1l-2.6 1.9q-.2.1-.4.1-.3 0-.4-.1-.2-.1-.3-.4-.1-.2 0-.4l1.2-3q.1-.2.1-.4-.1-.2-.2-.3-.2-.2-.4-.2-.2-.1-.4 0l-2.9 1.1q-.3.1-.5 0-.2-.1-.4-.3-.1-.1-.1-.4 0-.2.2-.4l2-2.5q.1-.2.1-.4 0-.2-.1-.4-.1-.1-.2-.2-.2-.1-.4-.1l-3.2.2q-.3 0-.5-.1-.2-.2-.2-.4-.1-.2 0-.4 0-.2.2-.4l2.6-1.8q.2-.1.3-.3.1-.2 0-.4 0-.2-.2-.4-.1-.1-.3-.2l-3.1-.7q-.3 0-.4-.2-.2-.2-.2-.4 0-.2.1-.4.2-.2.4-.3l3-1q.2-.1.3-.3.2-.1.2-.3 0-.2-.1-.4-.1-.2-.3-.3l-2.8-1.5q-.2-.2-.3-.4-.1-.2 0-.4.1-.3.2-.4.2-.2.5-.2l3.1-.1q.2 0 .4-.1.2-.1.3-.3 0-.2 0-.4 0-.2-.2-.4l-2.2-2.2q-.2-.2-.2-.4-.1-.3.1-.5.1-.2.3-.3.2-.1.4 0l3.1.8q.2 0 .4-.1.2 0 .3-.2.2-.2.2-.4 0-.2-.1-.4l-1.5-2.8q-.1-.2-.1-.4.1-.2.2-.4.2-.2.4-.2.3 0 .5.1l2.7 1.6q.2.1.4.1.2 0 .4-.1.1-.1.2-.3.1-.2.1-.4l-.7-3.2q-.1-.2 0-.4.1-.2.3-.3.3-.1.5-.1.2 0 .4.2l2.2 2.3q.1.2.3.2.2.1.4 0 .2 0 .3-.2.2-.2.2-.4l.2-3.2q0-.2.2-.4.2-.1.4-.2.2 0 .4.1.2.1.3.3l1.5 2.8q.1.2.3.3.1.1.3.1.3 0 .4-.1.2-.2.3-.4l1.1-2.9q.1-.3.3-.4.2-.1.4-.1.2 0 .4.2.2.2.2.4l.6 3.1q.1.2.2.4.1.1.3.2.2 0 .4 0 .2-.1.4-.3l1.9-2.5q.1-.2.4-.3.2 0 .4 0 .2.1.3.3.2.2.1.5l-.3 3.1q0 .2.1.4.1.2.3.3.1.1.4.1.2 0 .3-.1l2.6-1.9q.2-.2.4-.2.2 0 .4.2.2.1.3.4 0 .2 0 .4l-1.3 2.9q0 .2 0 .4 0 .3.2.4.1.1.3.2.2 0 .4 0l3-1.1q.3-.1.5 0 .2 0 .3.2.2.2.2.4 0 .3-.2.5l-2 2.5q-.1.1-.1.3 0 .2.1.4.1.2.2.3.2.1.4.1l3.2-.2q.2 0 .5.1zm-23-3q-1 .6-1.8 1.3-.7.7-1.4 1.5-.6.8-1.1 1.8l3 1.4q.7-1.3 1.7-2.2 1.1-.9 2.4-1.4 1.4-.5 2.8-.5 1.4 0 2.7.5l1.4-3.1q-1-.3-1.9-.5-1-.3-2-.3-1 0-2 .2-1 .1-1.9.5-1 .3-1.9.8zm9.4 13.9q.9-.8 1.4-1.8.5-1.1.5-2.2.1-1.2-.3-2.2c-.8-2.3-2.8-3.8-5.2-3.9-2.3-.1-4.5 1.2-5.5 3.3s-.6 4.6.9 6.4c1.6 1.7 4.1 2.3 6.3 1.6q1.1-.4 1.9-1.2zm-13.4 1.3q.5.9 1.2 1.7.7.8 1.6 1.4.8.7 1.7 1.1l1.4-3q-1.2-.7-2.2-1.7-.9-1.1-1.4-2.4-.5-1.3-.5-2.7 0-1.4.5-2.8l-3-1.3q-.4.9-.6 1.9-.2.9-.2 1.9 0 1.1.1 2 .2 1 .5 2 .4 1 .9 1.9zm15.1 3.9q1-.5 1.7-1.2.8-.7 1.5-1.5.6-.9 1.1-1.8l-3-1.4q-.7 1.3-1.8 2.2-1 .9-2.3 1.4-1.4.5-2.8.5-1.4 0-2.7-.5l-1.4 3q.9.4 1.9.6 1 .2 2 .2 1 .1 2-.1 1-.2 1.9-.5 1-.3 1.9-.9zm5.5-9.4c0-1.4-.2-2.7-.7-4s-1.2-2.5-2.1-3.5-2-1.9-3.2-2.5l-1.4 3.1q1.2.6 2.1 1.7 1 1.1 1.5 2.4.5 1.3.5 2.7 0 1.4-.5 2.7l3 1.4c.5-1.3.8-2.6.8-4z" fill="#ef9b11" fill-rule="evenodd"/><path d="m141.9 178.9q.1 0 .2 0 0 0 .1.1 0 0 0 0 .1.1.1.2l.1 1.2q0 .1 0 .3.1.2.2.3.1.2.2.3.1.1.2.2.1.1.3.2.1.1.3.1.1.1.3.1.1 0 .3 0 .2 0 .3-.1.2 0 .3-.1.2 0 .3-.1.1-.1.2-.3l.8-.9q.1 0 .1 0 .1 0 .1-.1.1 0 .2.1 0 0 0 0l2.5 2.1q.1.1.1.1 0 .1 0 .1 0 .1 0 .1 0 .1 0 .1l-.9 1.1q-.3.3-.3.8-.1.5.2 1 .2.4.6.7.4.2.9.2l1.4-.1q0 0 .1.1 0 0 .1 0 0 .1 0 .1 0 .1.1.1l.2 3.3q0 0 0 .1 0 0-.1.1 0 0-.1 0 0 .1-.1.1l-1.3.1q-.5.1-.9.4-.4.3-.6.8-.1.5 0 .9.1.5.5.9l1 .9q.1 0 .1.1 0 0 0 .1 0 .1 0 .1 0 .1-.1.1l-2.1 2.5q0 0-.1 0 0 .1-.1.1 0 0-.1 0 0-.1-.1-.1l-.9-.8q-.2-.1-.3-.1-.1-.1-.3-.2-.2 0-.3 0-.2-.1-.3 0-.2 0-.3 0-.2.1-.3.1-.2.1-.3.2-.1.1-.3.2-.1.1-.2.3 0 .1-.1.3-.1.1-.1.3 0 .2 0 .3l.1 1.3q0 0-.1.1 0 0 0 .1-.1 0-.1 0-.1.1-.1.1l-3.3.2q0 0-.1 0 0 0-.1-.1 0 0 0-.1-.1 0-.1-.1l-.1-1.3q0-.2-.1-.4 0-.1-.1-.3-.1-.1-.2-.3-.1-.1-.3-.2-.1-.1-.2-.2-.2 0-.3-.1-.2 0-.3 0-.2-.1-.4 0-.1 0-.3 0-.1.1-.3.1-.1.1-.2.2-.1.1-.3.2l-.9 1q0 .1-.1.1 0 0-.1 0-.1 0-.1 0-.1 0-.1-.1l-2.5-2.1q0 0 0-.1-.1 0-.1-.1 0 0 0-.1.1 0 .1-.1l.8-1q.3-.4.4-.9 0-.5-.2-.9-.2-.5-.6-.7-.5-.3-1-.3l-1.3.1q0 0-.1 0 0-.1-.1-.1 0 0 0-.1-.1 0-.1-.1l-.2-3.2q0-.1 0-.1 0-.1.1-.1 0-.1.1-.1 0 0 .1 0l1.2-.2q.5 0 .9-.3.4-.4.5-.8.2-.5 0-1-.1-.5-.5-.8l-.9-.8q0-.1 0-.1 0-.1-.1-.1 0-.1.1-.1 0-.1 0-.1l2.1-2.5q.1-.1.1-.1.1 0 .1 0 .1 0 .1 0 .1 0 .1 0l1.1.9q.2.1.3.2.1.1.3.1.1.1.3.1.1 0 .3 0 .2 0 .3-.1.2 0 .3-.1.2 0 .3-.1.1-.1.2-.2.1-.2.2-.3.1-.2.2-.3 0-.2.1-.3 0-.2 0-.4l-.1-1.4q0 0 0-.1.1 0 .1-.1 0 0 .1 0 0-.1.1-.1zm-.1 15.2q.3 0 .5-.1.2 0 .5-.1.2-.1.4-.2c2.2-1.2 3.2-3.8 2.3-6-.9-2.3-3.4-3.6-5.8-2.9s-3.8 3-3.4 5.4c.4 2.5 2.6 4.2 5.1 4q.2 0 .4-.1z" fill="#ef9b11" fill-rule="evenodd"/><path d="m165.5 204.7q-.1 0-.2-.1-.1 0-.1-.1-.1-.1-.1-.2 0-.1 0-.2l.4-2q.1-.3.1-.5 0-.3-.1-.6 0-.3-.1-.5-.1-.3-.3-.5-.2-.3-.3-.4-.2-.2-.4-.4-.3-.1-.5-.2-.3-.1-.5-.2-.3-.1-.5-.1-.3 0-.6 0-.2.1-.5.2-.2.1-.5.2l-1.8 1q0 .1-.1.1-.1 0-.2 0-.1 0-.2-.1-.1 0-.1-.1l-2.9-4.7q0 0 0-.1-.1-.1 0-.2 0-.1 0-.2.1-.1.2-.1l1.8-1.2c.4-.3.8-.8 1-1.3s.3-1 .2-1.6c-.1-.5-.3-1-.7-1.4s-.8-.7-1.4-.8l-2.1-.6q-.1 0-.2-.1-.1 0-.1-.1 0-.1-.1-.2 0-.1 0-.2l1.3-5.3q0-.1.1-.2 0 0 .1-.1.1 0 .2-.1.1 0 .2 0l2.2.5c.6.1 1.1 0 1.6-.2s1-.5 1.3-.9c.3-.5.5-1 .5-1.5.1-.6-.1-1.1-.3-1.6l-1.2-2q0-.1-.1-.2 0-.1.1-.2 0-.1 0-.2.1 0 .2-.1l4.6-2.9q.1 0 .2 0 .1 0 .2 0 .1 0 .1.1.1 0 .2.1l1.1 1.7q.2.2.3.4.2.2.4.4.3.1.5.2.2.2.5.2.3.1.5.1.3 0 .6 0 .2-.1.5-.2.2 0 .5-.2.2-.1.4-.3.2-.2.4-.4.2-.2.3-.5.1-.2.2-.5l.5-2q.1-.1.1-.2.1-.1.2-.1 0 0 .1-.1.1 0 .2 0l5.3 1.3q.1 0 .2.1.1 0 .1.1.1.1.1.2 0 .1 0 .2l-.4 2.2q-.1.3-.1.6 0 .3 0 .6.1.2.2.5.1.3.3.5.1.2.3.4.2.2.4.3.3.2.5.3.2.1.5.2.3 0 .5 0 .3 0 .5 0 .3 0 .6-.1.2-.1.4-.2l2.1-1.2q0 0 .1 0 .1-.1.2 0 .1 0 .2 0 .1.1.1.2l2.9 4.6q0 .1.1.2 0 .1-.1.2 0 .1 0 .1-.1.1-.2.2l-1.8 1.2c-.5.3-.8.7-1 1.2s-.3 1.1-.2 1.6.3 1 .7 1.4c.3.5.8.7 1.3.9l2.1.6q.1 0 .2.1.1 0 .1.1.1.1.1.2 0 .1 0 .2l-1.3 5.3q0 .1-.1.1 0 .1-.1.2-.1 0-.2 0-.1 0-.2 0l-2-.4c-.5-.1-1.1 0-1.6.2s-.9.5-1.2.9c-.4.5-.5 1-.6 1.6 0 .5.1 1 .4 1.5l1 1.8q.1.1.1.2 0 .1 0 .2 0 0-.1.1 0 .1-.1.2l-4.7 2.8q0 .1-.1.1-.1 0-.2 0-.1 0-.2-.1-.1 0-.1-.1l-1.3-2q-.2-.2-.4-.4-.1-.2-.4-.3-.2-.2-.4-.3-.3-.1-.5-.1-.3-.1-.5-.1-.3 0-.6 0-.2.1-.5.1-.2.1-.5.3-.2.1-.4.3-.2.2-.4.4-.2.2-.3.5-.1.2-.2.5l-.6 2.2q-.1.1-.1.2-.1.1-.2.1 0 .1-.1.1-.1 0-.2 0zm7.7-24.3q-.4 0-.8 0-.4 0-.8 0-.4 0-.8.1c-4 .7-6.9 4.3-6.6 8.4.2 4.2 3.6 7.4 7.7 7.5s7.7-2.9 8.2-7c.6-4-2.1-7.9-6.1-8.8q-.4-.1-.8-.2z" fill="#ef9b11" fill-rule="evenodd"/><path d="m220.3 204.2c.1-.3.1-.5.1-.6l1.5-5.6 6 1.2-1.7 6c-1.1 2.8-1.6 3.9-3.1 4.9q-.3-.7-.6-1.5-.3-.8-.7-1.5-.3-.7-.7-1.4-.4-.8-.8-1.5z" fill="url(#b)"/><path d="m233.4 271.7c.4.6.8 1.1 1.1 1.7q.1.1.1.1 0 .1.1.1 0 .1 0 .2 0 0 .1.1c.1.2.3.5.4.7 0 1.1 0 1.7-1.1 2.4-1.8 1-4 1.8-5.8 2.8-.1.1-.2.1-.3.2-1.5.8-3.1 1.8-4.6 2.6q-.2.2-.5.2-.2.1-.5.1-.3 0-.6-.1-.2-.2-.4-.3c0-.1-.1.2 0-.1.4-1.4 1.9-2.7 3-3.6q.4-.4.8-.8.5-.3.9-.7.4-.4.8-.8.4-.4.8-.8.2-.1.3-.3.1-.2.2-.5 0-.2 0-.4 0-.3-.1-.5c-.1-.3-1.2-1.8-1-2 1.5-1.6 3.3-1.5 5.2-2.2.4.7.8 1.3 1.1 1.9z" fill="url(#d)"/><path d="m236.5 275.7c-.1-.5-.5-.7-.7-1q-.1-.2-.2-.3 0-.1-.1-.3-.1-.1-.2-.3-.1-.1-.2-.2c-.1-.2-1.1-1.9-1.5-1.6-2.1 1.3-2.9 2.1-5.7 3.1-.1.1-3.1 3.1-3.8 3.9-.7.7-2.7 2-2.8 2.9q-.1.2-.1.3 0 .2.1.3.1.2.2.3.1.1.3.1 0 .1.1.1.1 0 .2.1.1 0 .2.1.1 0 .1 0 .1.1.2.1.2.1.4.1.2.1.4.1.2 0 .4 0 .2 0 .4-.1.5-.1 1-.3.5-.1 1-.4.5-.2 1-.4.4-.2.9-.5c.3-.2.7-.5.9-.7q.5-.4 1.1-.7.5-.4 1-.7.5-.3 1-.6.6-.4 1.1-.7c.7-.3 1.8-.9 2.5-1.3s.9-.8.8-1.4z" fill="url(#e)"/><path d="m238.1 219.9c.8 2.3-.8-3.4.1 1.7 1 5-7.2 21.3-7.9 23.5q-.2.7-.5 1.4-.2.7-.4 1.4-.1.7-.3 1.5-.1.7-.2 1.4c-.6 3.6 0 3.5.8 6.1 1.3 4.2 3.2 8.3 4.1 12.6-2.4 1.1-4.9 2.1-7.2 3.4-4-9.3-8.5-18.1-6.4-26.1q.9-3.6 2-7.3 1-3.7 2.1-7.3 1.1-3.6 2.4-7.2 1.2-3.6 2.5-7.2c3 .6 6 1.5 8.9 2.1z" fill="url(#f)"/><path d="m242.6 275.9c.1.8.3 1.4.4 2.1q0 .1 0 .2 0 .1 0 .1 0 .1 0 .2 0 .1 0 .1c0 .3.1.7 0 .9-.4 1.2-.6 1.8-2 1.9-2.3.2-4.8.1-7.1.3-.2 0-.2 0-.4.1-1.8.2-3.9.5-5.7.6q-.3.1-.6 0-.3 0-.6-.2-.2-.1-.4-.3-.3-.3-.4-.5c0-.1-.1.1.1-.1.9-1.2 3-1.8 4.5-2.3q.6-.2 1.2-.4.6-.2 1.2-.4.6-.2 1.1-.4.6-.2 1.2-.4.2-.1.4-.3.2-.1.4-.3.1-.2.2-.5.1-.2.1-.5c0-.3-.4-2.3-.1-2.4 2.2-1 4 0 6.2.1.1.8.2 1.6.3 2.4z" fill="url(#g)"/><path d="m243.7 279.9q0 0 0 0 0-.2-.1-.4 0-.2 0-.3-.1-.2-.1-.4 0-.2-.1-.3c0-.3-.3-2.4-.8-2.3-2.6.5-3.8.9-7 .7-.2 0-4.5 1.7-5.5 2.2-1 .4-3.6.8-4.2 1.7q-.1.1-.1.3-.1.1-.1.3 0 .2.1.3.1.2.2.3.2.3.4.5-.1 0-.1-.1c0 .1.1.2.1.2q.2.2.4.4.2.1.4.2.3.2.5.2.3.1.5.2.8 0 1.5 0 .7.1 1.5 0 .7 0 1.4-.1.8 0 1.5-.2c1.8-.2 3.4-.6 5.3-.8.9-.1 2.2-.1 3.1-.2.8-.1 1.3-.4 1.4-1.1.1-.6-.2-.9-.2-1.3z" fill="url(#h)"/><path d="m243.7 274.3c.6-12.5.6-21.1.8-23.8.4-7.2 4.8-24.9.5-30.4 0 0-6.9-.5-9.9.1-.2 9.9-1 21-.3 30.7.4 6.1 0 11.3 0 23 .9.1 8.9.4 8.9.4z" fill="#22577a"/><path d="m231.3 189q.6.2 1.3.4.6.2 1.2.3.7.1 1.3.2.7 0 1.3.1.4-.1.9-.1.4 0 .9 0 .4-.1.8-.1.5-.1.9-.2.3 0 .6 0 .3-.1.5-.2.3 0 .6-.1.3 0 .5-.1l-1.3-.2c-1.9-.6-1.4-6.6-1.4-6.6l-5.9 2.4-.3 1.4q0 .3-.1.6-.2.2-.3.5-.2.2-.4.5-.2.2-.5.3-.1.1-.3.2-.2.1-.4.2-.2 0-.4.1-.2 0-.4 0h-.1q.5.2 1 .4z" fill="url(#i)"/><path d="m221.3 199.4q.2-1 .5-2 .3-1 .7-2 .3-1 .7-1.9.4-1 .9-1.9c1.4-2 2.2-3 5.5-3.4.1 0 2.4.1 2.4.2q0 0 0 0 .1 0 .2 0 0 0 .1 0 .1.1.1.1.1 0 .2 0l2.8.7q.2 0 .4.1.3 0 .5 0 .2 0 .5 0 .2 0 .4-.1c1.7-.3 3.6-.9 5.6-.2 1 .4 1.4 1 2.3 1.9 1.3 1.3 1.6 20.4 1.8 25.4.1 2.1 1.1 6.9.6 7 0 0-3.5.7-16.6-.4l-3.3-.6s-.6-15.7-1-22.1q.1.2.1.5 0 .2 0 .5 0 .2 0 .4.1.3 0 .5c-1.4-.8-4.1-1.3-5.4-2.7z" fill="#ef9b11"/><path d="m235.7 189.2-1.4 1.8q0 .1 0 .1 0 0-.1 0 0 0 0 0 0 0-.1 0l-2.7-2.6q0 0 0 0 0 0 0-.1 0 0 0 0 0-.1 0-.1l.7-.4q0 0 0 0 .1 0 .1 0z" fill="#22577a"/><path d="m235.7 189.2 1.2 1.9q0 .1 0 .1 0 0 .1 0 0 0 0 0 0 0 .1 0l3.6-2.4q0 0 0 0 0 0 0-.1 0 0 0 0 0-.1 0-.1l-.6-.5q0 0-.1 0 0 0 0 0z" fill="#22577a"/><path d="m206.2 169.3-16.1-16.6q-.1-.1-.3-.1-.1 0-.3 0-.1.1-.2.2-.1.1-.1.3l-.8 10.8q-.1 1 0 1.9.1 1 .4 1.9.2.9.7 1.7.4.9.9 1.7l6.6 8.8q.2.1.4.2.2.1.4.1.2 0 .4-.1.2-.1.4-.3z" fill="#414042"/><path d="m197.8 179.3q0 0 0 0l7.2-9.9-14.9-15.3-.8 9.9q-.1.9 0 1.7.1.9.4 1.7.2.9.6 1.6.4.8.9 1.5l6.6 8.8q0 0 0 0z" fill="#2c272e"/><path d="m201.2 178.3c-1.1-1.2-1.1-3.1.1-4.2l9.3-9.1c1.2-1.1 3.1-1.1 4.2.1 1.2 1.2 1.1 3 0 4.2l-9.4 9c-1.2 1.2-3 1.2-4.2 0z" fill="#2c272e"/><path d="m208.9 170.9q.3.4.7.6.4.3.8.5.5.1 1 .2.5 0 .9-.1c.5-.1 1.1-.5 1-.9v-.1q0-.1-.1-.2-.1-.1-.2-.2-.1 0-.2-.1-.1 0-.2.1-.7 0-1.4-.2-.7-.3-1.2-.8-.4-.5-.7-1.2-.2-.6-.1-1.3.1-.2.1-.3-.1-.1-.1-.2-.1-.1-.2-.2-.1-.1-.2-.1c-.5-.1-.9.5-1 .9q-.1.5-.1 1 0 .5.1 1 .2.4.4.9.3.4.7.7z" fill="#414042"/><path d="m206.3 173.3q.4.4.8.7.4.3.8.4.5.2 1 .2.4 0 .9-.1c.5 0 1-.5 1-.9q-.1-.1-.1-.3-.1-.1-.2-.1-.1-.1-.2-.1-.1 0-.3 0-.7.1-1.3-.2-.7-.2-1.2-.7-.5-.5-.7-1.2-.2-.7-.1-1.4 0-.1 0-.2 0-.2 0-.3-.1-.1-.2-.1-.1-.1-.2-.1l-.1-.1c-.4 0-.8.5-.9 1q-.2.5-.1 1 0 .4.1.9.2.5.4.9.3.4.6.7z" fill="#414042"/><path d="m203.8 175.8q.3.4.7.6.4.3.9.5.5.1.9.2.5 0 1-.1c.5-.1 1-.5.9-.9v-.1q0-.1 0-.2-.1-.1-.2-.2-.1 0-.2-.1-.2 0-.3.1-.7 0-1.3-.2-.7-.3-1.2-.8-.5-.5-.7-1.2-.2-.6-.1-1.3 0-.2 0-.3 0-.1-.1-.2 0-.1-.1-.2-.1-.1-.3-.1c-.4-.1-.9.5-1 .9q-.1.5-.1 1 0 .5.2 1 .1.4.4.8.3.5.6.8z" fill="#414042"/><path d="m208.5 160.7q.2-.2.3-.5.2-.3.2-.7 0-.3-.2-.6-.1-.3-.3-.5l-10.6-10.1q-.1-.1-.2-.3 0-.2.1-.4 0-.2.2-.3.1-.1.3-.1l10.5.1q2 0 3.9.5 1.9.6 3.6 1.6 1.6 1.1 2.9 2.5 1.4 1.5 2.2 3.2l.2.4q.6 1.3 1 2.8.4 1.5.5 3 0 1.5-.2 3-.2 1.5-.8 2.9l-4.3 11.3q-.2.6-.4 1.3-.1.7-.1 1.5 0 .7.1 1.4.1.7.4 1.4l7.3 20.8q1.3 3.5 2.9 7l11.7 25.3q.3.8.5 1.7.2.9.1 1.8-.1.9-.4 1.8-.3.8-.8 1.6l-.2.3q-.6.9-1.5 1.6-.9.7-2 1.1-1.1.4-2.3.4-1.1 0-2.2-.3-.8-.3-1.6-.8-.7-.4-1.3-1.1-.6-.6-1.1-1.4-.4-.7-.6-1.6l-7.1-25.2q-.4-1.3-.8-2.7-.4-1.3-.9-2.6-.4-1.3-.9-2.6-.5-1.3-1.1-2.6l-8.4-19.7q-.3-.5-.6-1-.3-.5-.6-1-.4-.4-.8-.8-.4-.4-.9-.7l-10.5-7.3q-.1 0-.2-.2-.1-.1-.1-.2 0-.2 0-.3.1-.1.2-.2zm23.6 82c1.3.3 2.6-.2 3.3-1.3.8-1.1.7-2.5 0-3.6-.8-1-2.2-1.5-3.4-1.1-1.3.3-2.2 1.4-2.3 2.7q-.1.6.1 1.1.1.6.5 1 .3.5.8.8.5.3 1 .4zm-30-67.6 2.8 2.8q.2.2.6.4.3.1.7.1.3 0 .7-.1.3-.2.6-.4l6-6q.3-.3.4-.6.2-.4.2-.7 0-.4-.2-.7-.1-.4-.4-.6l-2.8-2.8q-.2-.3-.6-.4-.3-.2-.7-.2-.3 0-.7.2-.3.1-.6.4l-6 6q-.3.2-.4.6-.1.3-.1.7 0 .4.1.7.1.3.4.6z" fill="#414042" fill-rule="evenodd"/><path d="m209.1 161.4q.4-.4.6-.9.2-.5.2-1 0-.5-.2-1-.2-.4-.6-.8l-10-9.5h9.7q1.9 0 3.6.5 1.8.5 3.4 1.5 1.5 1 2.7 2.3 1.3 1.4 2.1 3.1l.1.3q.7 1.2 1 2.6.4 1.4.4 2.8.1 1.4-.1 2.8-.3 1.4-.8 2.7l-4.3 11.3q-.2.8-.4 1.6-.1.8-.2 1.6 0 .8.2 1.6.1.8.4 1.5l7.4 20.8q1.2 3.6 2.8 7.1l11.7 25.3q.3.7.5 1.5.1.8 0 1.6 0 .7-.3 1.5-.2.7-.7 1.4l-.2.3c-.6.9-1.5 1.7-2.6 2.2-1.1.4-2.2.6-3.4.4s-2.2-.7-3.1-1.5-1.5-1.8-1.8-2.9l-7.1-25.2q-.4-1.4-.8-2.8-.4-1.3-.9-2.6-.4-1.4-1-2.7-.5-1.3-1-2.6l-8.5-19.7q-.2-.6-.6-1.1-.3-.6-.7-1.1-.4-.5-.9-.9-.5-.4-1-.8l-9.9-6.8q-.1-.1-.1-.1 0-.1 0-.1 0-.1 0-.2 0 0 .1-.1zm23 81.4c1.2.3 2.5-.2 3.3-1.3.7-1.1.7-2.5-.1-3.6-.8-1-2.1-1.5-3.4-1.2-1.3.4-2.2 1.5-2.3 2.8q0 .6.1 1.1.2.6.5 1 .3.5.8.8.5.3 1.1.4zm-30.1-67.6 2.8 2.8q.3.2.6.4.3.1.7.1.4 0 .7-.1.3-.2.6-.4l6-6q.3-.3.4-.6.2-.4.2-.7 0-.4-.2-.7-.1-.4-.4-.6l-2.7-2.8q-.3-.3-.6-.4-.4-.2-.7-.2-.4 0-.7.2-.4.1-.6.4l-6.1 6q-.2.2-.4.6-.1.3-.1.7 0 .3.1.7.2.3.4.6z" fill="#2c272e" fill-rule="evenodd"/><path d="m233.3 235.4c1.8.1 3.3 1.4 3.7 3.2.5 1.7-.2 3.6-1.6 4.6-1.5 1.1-3.5 1.1-5 .2-1.5-1-2.2-2.8-1.9-4.6q.2-.8.6-1.5.5-.7 1.1-1.1.7-.5 1.5-.7.8-.2 1.6-.1zm-1.2 7.4c1.3.2 2.6-.3 3.3-1.4.8-1.1.7-2.5-.1-3.6-.7-1-2.1-1.5-3.3-1.1-1.3.3-2.2 1.4-2.3 2.7q-.1.6.1 1.1.1.6.5 1 .3.5.8.8.5.3 1 .5z" fill="#414042" fill-rule="evenodd"/><path d="m241.9 179.7v-4.8q0-.4-.1-.8-.1-.3-.3-.7-.3-.3-.6-.6-.3-.3-.6-.4l-2.4-1.2q-.3-.1-.6-.2-.3-.1-.6-.1-.3 0-.6 0-.3.1-.6.2l-2.1.9q-.3.1-.6.4-.3.2-.6.5-.2.3-.3.7-.2.3-.2.7l-.2 1.6q0 0 0 .1-.1 0-.1.1 0 0 0 .1 0 0 0 .1l-.5 1.7c-.3 6.1 1.9 8.5 3.2 8.6q.2 0 .4 0 .3 0 .5 0 .2-.1.4-.1.2-.1.4-.2l.5-.3q.7-.4 1.4-.9.7-.6 1.3-1.2.7-.6 1.2-1.2.6-.7 1.1-1.4.1-.2.2-.4.1-.2.2-.4.1-.2.1-.4.1-.2.1-.4z" fill="url(#j)"/><path d="m240.9 178.9h.1q.2-.1.4-.1.3 0 .5.1.2.1.4.2.1.2.2.4 0 0 .1.1 0 .1 0 .2.1.2 0 .3 0 .1 0 .3 0 .1-.1.2c-.2.3-.5.5-.6.7-.3.6-.4.6-.9.4h-.2z" fill="url(#k)"/><path d="m242.1 176.3c0-.1-.1-1.3-.2-1.8q0-.1 0-.1-.2-.7-.6-1.3-.3-.5-.8-1-.5-.5-1.1-.8-.6-.4-1.2-.5c-.5-.2-6.6-1.9-7.3.1q-.1.3-.2.6 0 .2 0 .5-.1.3 0 .6 0 .2.1.5 0 0 0 .1 0 0 0 0 0 0 0 .1.1 0 .1 0c.4.7 1.5.7 2.3.6l1.7-.1c.3 0 3.7.4 4.9 1.2z" fill="#22577a"/><path d="m241.3 179.4q0 .3-.1.5 0 .3 0 .6-.1.2-.1.5-.1.3-.1.5 0 .1 0 .1 0 .1-.1.1 0 .1 0 .1 0 0 0 .1 0 .1-.1.2 0 0-.1.1 0 .1-.1.2 0 0-.1.1-.5.5-1 1-.4.4-1 .9-.5.4-1 .8-.6.4-1.1.8l-.5.3q-.2.1-.5.2-.2.1-.4.1-.3 0-.5 0-.3 0-.5 0-.2 0-.3-.1-.1 0-.3-.1-.1 0-.2-.1-.1-.1-.2-.1-.4-.3-.7-.6-.3-.3-.6-.7-.2-.4-.3-.8-.2-.4-.2-.9l-.3-2.8 1.7-.3q.4 0 .8-.1.3 0 .7.1.4 0 .8.1.3.1.7.2l2.6 1c.4.2 1.6.2 1.7-.4l.8-4.4.2-1.1c1 0 1-.4 1.2.8.1.4-.1 2.6-.1 2.6q0 0-.3-.1-.1 0-.2.1 0 0-.1 0 0 .1-.1.1 0 .1 0 .2z" fill="#22577a"/><path d="m223.5 223.6q.2-.1.3-.1.1-.1.2-.2.2-.1.3-.1.1-.1.3-.2c.3-.2.9-.4 1.3-.7.2-.1.4-.3.6-.4q0 0 0 0 .1 0 .1 0 0-.1 0-.1c.4-.3 1.3-1 1.6-1.2s.2-.2.3-.3c.2-.1.1-.1 0-.2h-.1s0 0-.1 0c-.4 0-.9.1-1.3.1q-.1.1-.2.1-.1 0-.3-.1-.1 0-.2 0-.1 0-.2 0c-.3-.1-.7-.3-.8-.6q0 0 0 0c0-.2 0-.5.3-.5h.5q.3-.1.6-.1.3-.1.7-.2.3 0 .6-.1.3-.1.6-.3.3-.1.6-.2.4-.1.8 0 .4 0 .8 0 .4 0 .8 0 .4 0 .7.1c.8 0 1.1-.7 1.4-1 2.2-2.7 5.9-7.1 7.7-8.5q.1-.3.1-.7 0-.3 0-.6 0-.4 0-.7 0-.4 0-.7l.3-5.6 6.6.1-.5 6.4c-.6 3.5-.9 4.4-3 6.2l-9.3 7.8c-.9.8-1.9 1.8-2.5 2.2q0 .1-.1.1 0 .1-.1.1-.1 0-.1.1-.1 0-.1.1-.5.2-.9.5c-.1 0 0 0-.1 0q-.3.1-.5.3-.2.1-.5.3-.2.2-.4.3-.2.2-.4.4-.2.1-.4.3-.2.1-.4.2-.2.1-.5.2-.2.1-.4.2c-.1 0-.5.2-.6.1-.4-.3.2-.7.2-.7s1.1-.8 1.2-.9c.6-.5.6-.5 1-.9-.5.4-.7.6-1.5 1.2 0 0-2.2 1.2-2.5 1.3-.6.3-.8.4-1.1.3q0 0 0 0-.1 0-.1 0 0 0 0-.1 0 0-.1 0 0-.1 0-.1-.1-.1 0-.2 0-.1 0-.2.1 0 .1-.1c1.1-.8 2.4-1.5 3.5-2.3-1.1.8-3.2 1.9-3.3 2-1.1.6-1.7.1-1.1-.5 1-.7 2.8-1.8 3.6-2.3.7-.6.5-.5 1.1-.9-.6.4-1.1.8-1.7 1.1s-1 .4-1.6.7q-.2.1-.4.2-.1 0-.3.1-.2.1-.4.1-.2.1-.4.1 0 0 0 0-.1.1-.1 0 0 0 0 0-.1 0-.1 0-.1-.1-.1-.1-.1-.1-.1-.1 0-.1 0-.1 0-.1 0-.1 0-.1 0-.1 0-.1.1-.1 0-.1 0-.1z" fill="url(#l)"/><path d="m240.8 202.4 7.8.5s.6-7.3-.5-9.8q-.3-.7-.7-1.3-.4-.6-1-1.1-.5-.5-1.1-.9-.7-.4-1.4-.7-.1 0-.3-.1-.1 0-.3 0-.1 0-.3 0-.2 0-.3.1c-.1 0-1.5 0-1.9 13.3z" fill="#ef9b11"/><path d="m216.8 199.4c.2-.1.8-.4 1.2-.7 1.5-1 1.6-1.8.1-.8q-.1 0-.2.1-.1 0-.2.1-.1 0-.2.1-.1 0-.2 0l-1.1.5 1.7-.8q.1 0 .2-.1.1 0 .1-.1.1 0 .2-.1 0 0 .1-.1c1.8-1.7 1.6-2.4-.6-.7l-2 1 1.8-1c3.1-2.1 2.2-3-.3-1l-1.8 1.1c4.2-2.5 3.2-3 2.1-2.4l-2.6 1.1q-.2.1-.3.1-.1 0-.2.1-.2 0-.3 0-.1 0-.2.1l-1 .1c-.2 0 .1-.2.1-.4l.4-.7q0-.1 0-.2.1-.1 0-.2 0-.2 0-.3 0-.1-.1-.2 0 0-.1 0c-.1-.1-.5.6-1 1.1q-.1.1-.1.2-.1.1-.1.2-.1 0-.1.1-.1.1-.1.2l-.4 1.5q-.1.4-.1.7-.1.4-.1.7-.1.3-.1.7 0 .3 0 .7 0 .1 0 .3 0 .1.1.3 0 .1 0 .3.1.1.1.3l2.3 4.7q.4.7.8 1.3.5.7.9 1.4.4.6.9 1.3.5.6.9 1.3l-2.3-7.9q-.1-.4-.2-.8-.1-.3-.1-.7-.1-.3-.1-.7 0-.4 0-.7.3-.1.6-.3.2-.1.5-.2.3-.1.6-.3.2-.1.5-.3z" fill="url(#m)"/></svg>