<svg height="24" viewBox="0 0 24 24" width="24" xmlns="http://www.w3.org/2000/svg"><path d="m8.5.3q.8.3 1.3.9.6.5.9 1.3.3.7.3 1.5v3q0 .8-.3 1.5-.3.8-.9 1.3-.5.6-1.3.9-.7.3-1.5.3h-3q-.8 0-1.5-.3-.8-.3-1.3-.9-.6-.5-.9-1.3-.3-.7-.3-1.5v-3q0-.8.3-1.5.3-.8.9-1.3.5-.6 1.3-.9.7-.3 1.5-.3h3q.8 0 1.5.3zm.5 3.7q0-.4-.2-.8-.1-.3-.4-.6-.3-.3-.6-.4-.4-.2-.8-.2h-3q-.4 0-.8.2-.3.1-.6.4-.3.3-.4.6-.2.4-.2.8v3q0 .4.2.8.1.3.4.6.3.3.6.4.4.2.8.2h3q.4 0 .8-.2.3-.1.6-.4.3-.3.4-.6.2-.4.2-.8z" fill="#212121" fill-rule="evenodd"/><path d="m9 4v3q0 .4-.2.8-.1.3-.4.6-.3.3-.6.4-.4.2-.8.2h-3q-.4 0-.8-.2-.3-.1-.6-.4-.3-.3-.4-.6-.2-.4-.2-.8v-3q0-.4.2-.8.1-.3.4-.6.3-.3.6-.4.4-.2.8-.2h3q.4 0 .8.2.3.1.6.4.3.3.4.6.2.4.2.8z" fill="#ef9b11"/><path d="m8.5 13.3q.8.3 1.3.9.6.5.9 1.3.3.7.3 1.5v3q0 .8-.3 1.5-.3.8-.9 1.3-.5.6-1.3.9-.7.3-1.5.3h-3q-.8 0-1.5-.3-.8-.3-1.3-.9-.6-.5-.9-1.3-.3-.7-.3-1.5v-3q0-.8.3-1.5.3-.8.9-1.3.5-.6 1.3-.9.7-.3 1.5-.3h3q.8 0 1.5.3zm.5 3.7q0-.4-.2-.8-.1-.3-.4-.6-.3-.3-.6-.4-.4-.2-.8-.2h-3q-.4 0-.8.2-.3.1-.6.4-.3.3-.4.6-.2.4-.2.8v3q0 .4.2.8.1.3.4.6.3.3.6.4.4.2.8.2h3q.4 0 .8-.2.3-.1.6-.4.3-.3.4-.6.2-.4.2-.8z" fill="#212121" fill-rule="evenodd"/><path d="m9 17v3q0 .4-.2.8-.1.3-.4.6-.3.3-.6.4-.4.2-.8.2h-3q-.4 0-.8-.2-.3-.1-.6-.4-.3-.3-.4-.6-.2-.4-.2-.8v-3q0-.4.2-.8.1-.3.4-.6.3-.3.6-.4.4-.2.8-.2h3q.4 0 .8.2.3.1.6.4.3.3.4.6.2.4.2.8z" fill="#ef9b11"/><path d="m21.5 13.3q.8.3 1.3.9.6.5.9 1.3.3.7.3 1.5v3q0 .8-.3 1.5-.3.8-.9 1.3-.5.6-1.3.9-.7.3-1.5.3h-3q-.8 0-1.5-.3-.8-.3-1.3-.9-.6-.5-.9-1.3-.3-.7-.3-1.5v-3q0-.8.3-1.5.3-.8.9-1.3.5-.6 1.3-.9.7-.3 1.5-.3h3q.8 0 1.5.3zm.5 3.7q0-.4-.2-.8-.1-.3-.4-.6-.3-.3-.6-.4-.4-.2-.8-.2h-3q-.4 0-.8.2-.3.1-.6.4-.3.3-.4.6-.2.4-.2.8v3q0 .4.2.8.1.3.4.6.3.3.6.4.4.2.8.2h3q.4 0 .8-.2.3-.1.6-.4.3-.3.4-.6.2-.4.2-.8z" fill="#212121" fill-rule="evenodd"/><path d="m22 17v3q0 .4-.2.8-.1.3-.4.6-.3.3-.6.4-.4.2-.8.2h-3q-.4 0-.8-.2-.3-.1-.6-.4-.3-.3-.4-.6-.2-.4-.2-.8v-3q0-.4.2-.8.1-.3.4-.6.3-.3.6-.4.4-.2.8-.2h3q.4 0 .8.2.3.1.6.4.3.3.4.6.2.4.2.8z" fill="#ef9b11"/><path d="m14 7h3v3q0 .4.3.7.3.3.7.3.4 0 .7-.3.3-.3.3-.7v-3h3q.4 0 .7-.3.3-.3.3-.7 0-.4-.3-.7-.3-.3-.7-.3h-3v-3q0-.4-.3-.7-.3-.3-.7-.3-.4 0-.7.3-.3.3-.3.7v3h-3q-.4 0-.7.3-.3.3-.3.7 0 .4.3.7.3.3.7.3z" fill="#212121"/><path d="m0 0h24v24h-24z" fill="none"/></svg>