<svg height="31" viewBox="0 0 34 31" width="34" xmlns="http://www.w3.org/2000/svg"><path d="m1.9 2.9q-.1 0-.3 0-.2 0-.3-.1-.2-.1-.3-.2-.2-.1-.3-.2-.2-.3-.2-.6 0-.3.1-.6.1-.3.4-.5.2-.1.5-.2.1 0 .1 0 .1 0 .1 0 .1 0 .1 0 .1 0 .1 0h29.3q.1 0 .3 0 .1 0 .3.1.1 0 .2.1.2.1.3.2.1.1.1.2.1.1.1.2.1.1.1.2 0 .1 0 .2 0 .2-.1.4-.1.2-.2.4-.1.1-.3.2-.2.1-.4.2-.1 0-.1 0-.1 0-.2 0 0 0-.1 0 0 0-.1 0v-.2.2h-20.9q-4.1 0-8.3 0z" fill="#ef9b11"/><path d="m1.9 24.5q-.2 0-.3 0-.2 0-.4-.1-.1-.1-.3-.2-.1-.1-.2-.3-.2-.3-.2-.6 0-.3.1-.5.2-.3.4-.5.3-.1.6-.2.1 0 .3 0h29.4q.1 0 .1 0 .1 0 .2 0 0 0 .1 0 0 .1.1.1.4.1.6.4.2.4.2.8-.1.4-.3.7-.3.3-.7.4-.1 0-.1 0-.1 0-.1 0-.1 0-.1 0-.1 0-.1 0h-11.1-18.2z" fill="#ef9b11"/><path d="m7.5 19.2q-1.1 0-2.3 0c-.2 0-.2 0-.2-.2q0-2.3 0-4.6c0-.1 0-.2.2-.2q2.3 0 4.6 0c.2 0 .2.1.2.2q0 2.3 0 4.6c0 .2-.1.2-.3.2q-1.1 0-2.2 0z" fill="#ef9b11"/><path d="m4.7 11.2q0-.1 0-.1-.1-.1-.1-.1 0-.1 0-.1 0-.1 0-.1 0-.1 0-.1 0-.8 0-1.7 0-1.5 0-3 0 0 0-.1 0 0 0-.1.1 0 .1-.1 0 0 0-.1.1 0 .1 0 0 0 .1 0 0-.1.1-.1 0 0 .1 0 1.2 0 2.4 0 1.2 0 2.4 0 .1 0 .1 0 .1 0 .1.1 0 0 .1 0 0 0 .1 0 0 .1 0 .1 0 0 .1.1 0 0 0 .1 0 0 0 .1 0 1.6 0 3.3 0 .7 0 1.5 0 0 0 0 0 .1 0 .1 0 .1-.1.1 0 0 0 .1 0 0 0 .1h-.1-.9q-.9 0-1.7 0h-.2q-.9 0-1.8 0l-.9.1z" fill="#ef9b11"/><path d="m4.9 11.1q-.1-.1-.1-.1 0-.1 0-.1 0-.1 0-.1 0-.1 0-.1 0-2.4 0-4.7c0-.2.1-.3.3-.3q2.4 0 4.8 0c.2 0 .3 0 .3.3q0 2.4 0 4.8 0 0 0 0 0 .1 0 .1 0 .1 0 .1-.1 0-.1.1-1.3 0-2.7-.1-1.3.1-2.5.1z" fill="#ef9b11"/><g fill="#22577a"><path d="m31.7 3.6c.1 6.2.1 12 0 17.6 0 .4.1.5.4.6q.1 0 .3.1.1.1.2.2.1.1.2.2.1.2.2.3 0 .1 0 .1 0 .1 0 .1v1.1q0 0 0 0 0 0 0 .1 0 0 0 0-.1 0-.1 0-.1.2-.2.4-.1.2-.3.3-.2.1-.4.2-.2.1-.4.1-.1 0-.1 0-.1 0-.2 0 0 0-.1 0-.1 0-.1 0h-9.3l.1.1q.4.5.9.9.3.3.6.6.3.3.4.8.1.4-.1.8-.1.5-.5.7-.4.3-.8.3-.2 0-.3-.1-.2 0-.3 0-.2-.1-.3-.2-.1-.1-.2-.2-1.2-1.1-2.3-2.2-.4-.5-.9-1 0 .6 0 1.2 0 .9 0 1.8 0 .3-.1.6-.2.3-.4.5-.2.2-.5.4-.2.1-.5.1-.3 0-.6-.1-.3-.2-.5-.4-.2-.2-.3-.5-.1-.3-.1-.6c0-.8 0-2.4 0-3.2l-1.1 1.1q-1.1 1.2-2.3 2.3-.1.1-.2.2-.2.1-.3.1-.1.1-.3.1-.1.1-.3.1-.2 0-.5-.1-.2-.1-.4-.2-.2-.2-.3-.4-.1-.2-.2-.4-.1-.2-.1-.4 0-.2.1-.4 0-.2.1-.4.1-.1.3-.3.6-.6 1.3-1.3l.3-.3h-9.3c-.5.1-.9 0-1.2-.3-.4-.3-.6-.6-.7-1.1 0-.4 0-.8.3-1.2.2-.3.5-.6 1-.7.1-.1.1-.1.1-.2 0-5.7 0-11.6 0-18 0-.1 0-.1-.1-.1q-.3-.1-.6-.3-.3-.2-.4-.5-.2-.2-.3-.5 0-.3 0-.6.1-.3.2-.6.2-.3.4-.5.2-.2.5-.3.3-.1.6-.1h29.4q.3-.1.6 0 .3.1.6.2.2.2.4.4.2.3.3.6v1.1q0 0 0 0 0 0 0 .1 0 0 0 0-.1.2-.2.3-.1.2-.3.3-.1.1-.3.2-.1.1-.3.1c-.1.1-.2.1-.2.3zm-17.6 21.5h-1.6q-.1 0-.1 0-.4.3-.7.7-.8.7-1.5 1.5-.1.1-.1.1-.1.1-.1.2 0 0 0 .1 0 .1 0 .1.1.1.1.2 0 0 .1.1 0 0 .1.1 0 0 .1 0 0 0 .1.1 0 0 0 0 .1 0 .1 0 .1 0 .2 0 0-.1.1-.1.1 0 .1-.1.1 0 .1-.1c1-.9 1.9-1.9 2.9-2.8q0-.1.1-.1zm3.1 0h-.1q-.3 0-.6 0-.2 0-.5-.1 0 .1 0 .1 0 .6 0 1.3v1q0 .5 0 1.1 0 .1 0 .3 0 .1.1.2.1.1.2.1.1.1.2.1h.1q.1 0 .2-.1.1 0 .2-.1.1-.1.1-.2.1-.1.1-.3 0-1 0-2 0-.7 0-1.4zm4.2.8q-.4-.4-.8-.8 0 0 0 0-.1 0-.1 0h-1.6l.5.5q1.2 1.3 2.5 2.5.1.1.1.1.1 0 .1.1.1 0 .1 0 .1 0 .1 0 .1 0 .2 0 0 0 .1 0 0-.1.1-.1 0 0 .1-.1.1-.1.1-.2 0-.1 0-.2 0-.1 0-.2 0-.1-.1-.2-.7-.7-1.4-1.4zm10.8-2.8q0-.1-.1-.2-.1-.1-.2-.2-.1-.1-.3-.2 0 0 0 0-.1 0-.1 0-.1 0-.1 0 0 0-.1 0h-29.5q-.1 0-.2 0-.2 0-.4.1-.1.2-.2.3-.1.2-.1.4 0 .3.1.4.1.1.2.2.1.1.2.2.1 0 .3.1.1 0 .2 0h29.3q0 0 .1 0 0 0 .1 0 0 0 0-.1.1 0 .1 0 .2 0 .3-.1.1 0 .2-.1.1-.1.1-.2.1-.2.1-.3 0-.1 0-.3zm-1.3-1.7v-.1q0-.2 0-.3 0-8.4 0-16.8 0-.2-.1-.4 0-.1 0-.3 0 0 0 0c-6.2 0-22.3 0-28.5 0q0 0 0 0-.1 0-.1 0 0 0 0 .1v13.9 3.5q0 .1 0 .3v.1q0 .1 0 .2.1 0 .2 0h28.3q.1 0 .2 0 0-.1 0-.2zm.9-19q.1 0 .2-.2.1-.1.2-.2 0-.1 0-.3 0 0 0-.1 0-.1 0-.2-.1 0-.1-.1 0-.1-.1-.1-.1-.1-.2-.2-.1 0-.2-.1-.1 0-.2 0-.1 0-.2 0h-29.3q0 0-.1 0 0 0-.1 0 0 0 0 0-.1 0-.1 0-.2 0-.4.2-.2.1-.3.3 0 .2 0 .4 0 .2.1.4.1.1.2.2.1 0 .2.1.1 0 .3 0 .1.1.2 0h29.2q0 0 .1 0 .1 0 .1 0 .1 0 .1 0 .1 0 .1 0 .2 0 .3-.1z" fill-rule="evenodd"/><path d="m10.1 19.9q-1.3 0-2.6 0-1.3 0-2.6 0-.1.1-.3 0-.1 0-.2-.1-.1-.1-.1-.2 0-.1 0-.3 0-.9 0-1.8 0-.4 0-.8 0-.4 0-.7 0-.9 0-1.9 0 0 0-.1 0-.1 0-.1 0-.1.1-.1 0-.1 0-.1.1-.1.1-.1.1 0 .1-.1.1 0 .2 0 0 0 .1 0 1.3 0 2.6 0 1.3 0 2.6 0 .1 0 .1 0 .1 0 .2 0 0 .1.1.1 0 0 .1.1 0 0 0 .1.1 0 .1.1 0 0 0 .1 0 0 0 .1v5.2q0 .1 0 .2 0 0 0 .1 0 0-.1.1 0 0 0 .1-.1 0-.1.1-.1 0-.2 0 0 0-.1 0 0 0-.1 0zm-1.4-.9q.5 0 1 .1 0 0 .1 0 0 0 0 0 0 0 0-.1 0 0 0 0c0-1.7 0-3.2 0-4.6q0 0 0 0-1.1 0-2.3 0-1.1 0-2.3 0 0 0 0 0v4.6q0 0 0 0 0 0 0 .1 0 0 0 0 .6-.1 1.1-.1h1.2z" fill-rule="evenodd"/><path d="m10.1 11.6q-1.3 0-2.6 0-1.3 0-2.6 0-.1 0-.1 0-.1 0-.2 0 0 0-.1-.1 0 0-.1 0 0-.1 0-.1-.1-.1-.1-.2 0 0 0-.1 0 0 0-.1 0-.9 0-1.8 0-.4 0-.8 0-.3 0-.7 0-1 0-1.9 0-.1 0-.1 0-.1 0-.1 0-.1.1-.2 0 0 0-.1.1 0 .1 0 .1-.1.1-.1.1 0 .2 0 0 0 .1 0 1.3 0 2.6 0 1.3 0 2.6 0 .1 0 .3 0 .1.1.2.1 0 .1.1.2 0 .2 0 .3v5.2q0 .1 0 .1 0 .1 0 .1 0 .1-.1.2 0 0 0 .1-.1 0-.1 0-.1.1-.2.1 0 0-.1 0 0 0-.1 0zm-4.9-5.5q0 0 0 0 0 1.4 0 2.7 0 .8 0 1.5 0 0 0 .1 0 0 0 0 0 .1 0 .1v.1.1q1.2 0 2.3 0h2.3l-.1-.1.1-.1q0 0 0 0 0 0 0-.1 0 0 0 0 0-.7 0-1.4 0-1.4 0-2.9 0 0 0 0c-.7 0-1.5 0-2.3 0q-1.1 0-2.3 0z" fill-rule="evenodd"/><path d="m12.8 16.4q-.1 0-.2 0-.1-.1-.1-.1-.1-.1-.1-.1 0-.1-.1-.2 0-.1 0-.2 0-.1.1-.2.1-.1.2-.2.1 0 .2 0h15.2q.1 0 .1 0 .1 0 .2 0 0 .1.1.1 0 0 .1.1 0 0 0 .1.1 0 .1.1 0 0 0 .1 0 .1 0 .1 0 .1-.1.2 0 0 0 .1-.1 0-.2 0 0 .1-.1.1h-4.8q-5.2 0-10.5 0h-.1q0 0 0 0z"/><path d="m28.1 8c-1.5 0-3.1 0-4.2 0h-6.8q-2.1 0-4.3 0 0 0-.1 0 0 0-.1 0 0 0-.1-.1 0 0-.1 0 0-.1 0-.1 0-.1-.1-.1 0-.1 0-.1 0-.1 0-.1 0-.1.1-.2 0 0 0-.1.1 0 .2-.1 0 0 .1 0h.1.1 3.7q5.7 0 11.4 0 0 0 0 0 .1 0 .1 0 0 0 .1 0 0 0 0 0 .1 0 .1 0 .1 0 .1.1.1 0 .1.1.1.1.1.1 0 .1 0 .1 0 .1 0 .2 0 0-.1.1 0 0 0 .1-.1 0-.1 0-.1.1-.1.1-.1 0-.1 0-.1 0-.1 0z"/><path d="m12.8 9.7q-.1 0-.2 0-.1 0-.1-.1-.1-.1-.1-.2-.1-.1-.1-.2 0 0 0 0 0-.1.1-.1 0-.1 0-.1 0-.1.1-.1 0 0 0-.1.1 0 .1 0 .1 0 .1 0 .1 0 .2 0 2.1 0 4.2 0 2.2 0 4.4 0c.1 0 .5 0 .5.5q0 0 0 0 0 .1 0 .1 0 .1-.1.1 0 .1 0 .1-.1 0-.1.1-.1 0-.1 0-.1 0-.1 0-.1 0-.1 0-1.1 0-2.3 0h-4.2q-1.1 0-2.1 0z"/><path d="m21.5 18q-1.1 0-2.2 0h-4.2q-1.1 0-2.3 0 0 0-.1 0 0 0-.1 0 0 0-.1 0 0-.1-.1-.1 0-.1-.1-.2 0-.2.1-.3 0-.2.2-.2.1-.1.2-.1 2.2 0 4.3 0 2.2 0 4.4 0 .1 0 .2 0 .1 0 .2.1 0 .1.1.2 0 .1 0 .2 0 .1 0 .2-.1 0-.1.1-.1.1-.2.1-.1 0-.2 0z"/></g></svg>