<svg height="28" viewBox="0 0 35 28" width="35" xmlns="http://www.w3.org/2000/svg"><g fill="#ef9b11"><path d="m9.2 21.1s1.6-.6 2-1.7c.4-1 3-.3 4 .3q.3.2.5.4.3.2.5.5.3.2.5.5.2.3.3.5v5.2h-7.8z"/><path d="m26.7 21.8s1.5-.5 1.8-1.4c.4-.9 2.7-.3 3.6.2q.2.2.4.4.2.2.4.4.2.2.4.4.2.3.3.5v4.6h-6.9z"/><path d="m26.7 3.5v6.7s3.3 1.5 4.8.8c1.5-.6 1.4-.9 1.4-.9q0-.5 0-.9-.1-.5-.2-.9-.1-.5-.2-.9-.2-.4-.3-.8-.3-.4-.5-.7-.3-.3-.5-.5-.3-.3-.6-.6-.3-.2-.6-.5z"/><path d="m13.1 3.3q.2.5.3 1 .2.5.2 1.1.1.5.1 1.1 0 .3 0 .6-.1.3-.1.6 0 .3-.1.6-.1.3-.1.6-.3-.2-.5-.3-.2-.2-.4-.4-.3-.2-.5-.4-.2-.1-.4-.3-.9.4-1.9.8-1 .3-2 .6-1 .2-2 .4-1.1.1-2.1.2 0 .3-.1.6 0 .3 0 .6 0 .3.1.7 0 .3 0 .6 0 .5.2.9.1.4.3.8.2.5.5.8.3.4.7.7-.2 0-.4 0-.1 0-.2 0-.2 0-.3 0-.2 0-.3 0-.1-.1-.3-.1-.1-.2-.3-.4-.1-.3-.3-.5-.1-.2-.2-.5-.1-.3-.2-.5 0-.1-.1-.1 0-.1 0-.1-.1 0-.1-.1-.1 0-.1 0-.6-.2-1.1-.6-.4-.4-.6-1.1-.1-.6 0-1.2.2-.6.7-1 0 0 .1-.1 0-.1 0-.1 0-.1 0-.2.1 0 .1-.1-.1-.4-.1-.8 0-.4 0-.8 0-.4.1-.7 0-.4.1-.8.4-1.2 1-2.2.7-1 1.7-1.8 1-.7 2.2-1.1 1.2-.3 2.4-.3.3 0 .5 0 .3.1.6.1.3.1.5.1.3.1.6.2.2.2.4.5.2.2.3.4.2.3.4.5.1.3.3.5.2.5.4 1zm-10.6 6.3q-.2.1-.3.2-.2.1-.3.3-.1.2-.1.3-.1.2 0 .4 0 .2 0 .3.1.2.2.3.1.1.2.2.1.1.3.2z" fill-rule="evenodd"/></g><path d="m30.7 19.6q.4.1.8.1.6.2 1.1.5.5.3.9.8.4.5.6 1 .2.6.2 1.2.1 1.8 0 3.5c0 .4-.1.6-.6.6q-7.3 0-14.6 0-.6 0-.6-.5c0-1.3 0-2.5 0-3.8q.1-.6.3-1.2.3-.6.7-1 .4-.5 1-.8.6-.2 1.2-.3.1 0 .1 0 .1-.1.2-.1 0 0 .1 0 0 0 .1-.1-.4 0-.8-.1-.4 0-.8-.1-.4-.2-.7-.5-.3-.4-.5-.8-.2-.4-.2-.8c.1-2.7.1-5.3.3-8q.1-1.2.6-2.3.5-1 1.3-1.9.8-.8 1.9-1.4 1.1-.5 2.3-.6 1.3-.2 2.6.2 1.3.3 2.4 1.1 1.1.8 1.8 2 .7 1.1 1 2.4 0 .1 0 .3 0 .1 0 .2 0 .1 0 .2.1.1.1.2 0 3.7.1 7.3.1.5-.1 1-.1.4-.5.8-.3.4-.8.6-.4.2-.9.2-.3 0-.6 0zm-1.4-.9 1-.1q.5-.1.9-.1.3 0 .6-.1.3-.1.5-.3.2-.3.3-.5 0-.3 0-.6-.1-3.6-.2-7.2 0-.2 0-.3 0-.1 0-.3 0-.1 0-.2-.1-.2-.1-.3c-.3-1.4-1.1-2.6-2.2-3.5-1.2-.8-2.6-1.3-4-1.2s-2.8.7-3.8 1.7c-1 .9-1.7 2.3-1.8 3.7-.1 1.1-.1 2.2-.1 3.3q-.1 2.2-.1 4.4-.1.2 0 .4 0 .2.2.4.1.2.3.3.1.1.3.2c.8.1 1.6.2 2.5.3 0-.5 0-.7-.4-1q-.4-.3-.8-.6-.3-.3-.6-.7-.3-.4-.5-.8-.2-.5-.3-1-.1-.4-.2-.9-.1-.4-.1-.9 0-.5 0-1 0-.4.1-.9 0-.1 0-.1 0-.1.1-.1 0-.1.1-.1 0-.1.1-.1.3-.1.6-.3.3-.2.6-.4.3-.2.6-.4.2-.3.4-.5c.4-.4.5-.4.9-.2q.7.3 1.4.6.7.3 1.4.5.7.2 1.5.4.7.1 1.5.2.7.1 1.4.1c.6 0 .7.1.7.7q.1.9 0 1.9 0 .7-.1 1.3-.2.7-.5 1.3-.3.6-.8 1.1-.4.5-1 .9-.1.1-.2.2-.1.1-.2.2 0 .1 0 .3 0 .1 0 .3zm4 7.6q0-1.4 0-2.9 0-.1 0-.3 0-.4-.2-.8-.1-.4-.4-.7-.3-.3-.6-.5-.4-.2-.8-.3c-.6-.1-1.3-.2-1.9-.4-.3 0-.4 0-.5.3q-.2.4-.5.7-.4.3-.8.5-.4.2-.9.2-.5.1-.9 0-.3-.1-.7-.3-.3-.1-.5-.3-.3-.3-.5-.5-.2-.3-.3-.6c-.8.1-1.6.2-2.4.5q-.4 0-.7.2-.3.2-.5.5-.2.2-.4.5-.1.4-.2.7 0 .4 0 .9 0 .4 0 .9 0 .4 0 .9 0 .4 0 .8zm-2.3-14.8q0 0 0 0-.1 0-.1 0-.9-.1-1.8-.2-.8-.1-1.7-.3-.8-.2-1.7-.5-.8-.3-1.6-.7 0 0-.1 0 0 0-.1 0 0 0-.1.1 0 0 0 0-1 .7-1.9 1.3 0 .1 0 .1-.1 0-.1.1 0 0 0 .1-.1 0-.1.1 0 .2 0 .4 0 .2 0 .5 0 .2 0 .4 0 .2 0 .5c.1.8.4 1.6.8 2.3.5.6 1.2 1.2 1.9 1.5.7.4 1.6.5 2.4.5.8-.1 1.6-.4 2.3-.9 1.9-1.3 2.2-3.2 1.9-5.3zm-6.4 6.9q0 .6 0 1 0 .4.2.8.2.3.5.6.3.2.7.3.4.1.8 0 .4-.2.7-.4.4-.3.6-.7.1-.3.2-.7 0-.4-.1-.8-.5.1-.9.2-.5 0-.9 0-.5 0-.9-.1-.5 0-.9-.2z" fill="#22577a" fill-rule="evenodd"/><path d="m17.7 26.7c0 .5-.2.6-.7.6q-8.1 0-16.3 0c-.5 0-.7-.1-.7-.7q0-1.8 0-3.6 0-.8.2-1.5.3-.7.8-1.2.4-.6 1.1-1 .6-.3 1.4-.4 1.1-.2 2.2-.5 0-.7 0-1.5 0 0 0-.1 0 0-.1 0 0-.1 0-.1-.1 0-.1-.1-.2-.1-.5-.3-.2-.2-.4-.3-.2-.2-.4-.4-.2-.3-.4-.5-.1-.2-.3-.4-.1-.3-.3-.5-.1-.3-.2-.5-.1-.3-.2-.5 0-.1-.1-.1 0-.1 0-.1-.1 0-.1-.1-.1 0-.1 0-.6-.2-1.1-.6-.4-.4-.6-1.1-.1-.6 0-1.2.2-.6.7-1 0-.1.1-.1 0-.1 0-.1 0-.1 0-.2.1 0 0-.1 0-.4 0-.8 0-.4 0-.8 0-.4.1-.7 0-.4.1-.8.3-1.2 1-2.2.7-1 1.7-1.8 1-.7 2.2-1.1 1.2-.3 2.4-.3 1.2 0 2.3.5 1.2.4 2.1 1.2.9.8 1.6 1.8.6 1.1.8 2.3.1.3.1.7 0 .3 0 .6 0 .4 0 .7 0 .3 0 .7 0 .1 0 .1 0 .1.1.2 0 .1 0 .1.1.1.1.1.5.5.7 1.1.1.5 0 1.1-.2.6-.6 1.1-.4.4-1 .6-.1 0-.2 0 0 0-.1.1-.1.1-.1.1 0 .1 0 .2-.2.5-.5.9-.2.5-.6.9-.3.5-.7.8-.4.4-.8.7-.1 0-.2.1 0 0-.1.1 0 .1 0 .2 0 0 0 .1 0 .6 0 1.3 1.3.3 2.5.5.7.2 1.3.5.5.4 1 .9.4.5.7 1.2.2.7.2 1.3 0 2 0 3.9zm-2.5-14.9q.2-.1.3-.2.2-.1.2-.2.1-.2.2-.4 0-.1 0-.3 0-.2 0-.4-.1-.1-.2-.3-.1-.1-.2-.2-.1-.1-.3-.2zm-12.7-2.2q-.2 0-.3.2-.2.1-.3.3-.1.1-.1.3-.1.2 0 .4 0 .1 0 .3.1.1.2.3.1.1.2.2.1.1.3.1zm2.4-1.3q1.1-.1 2.2-.3 1-.3 2.1-.6 1-.4 2-.9c.6-.3.6-.3 1.2.2q.6.5 1.2 1 .3.3.7.5.1.1.1.1.1 0 .2.1.1 0 .2 0 .1.1.2.1.1-.9.1-1.7-.1-.9-.4-1.7-.3-.8-.8-1.5-.6-.7-1.2-1.3c-1-.7-2.3-1.2-3.5-1.2-1.3-.1-2.5.2-3.6.9-1.1.6-1.9 1.6-2.5 2.8-.5 1.1-.6 2.4-.4 3.6q1.1.1 2.2-.1zm1.1 7.4q.4.3.8.5.4.1.9.2.4.1.9.2.9 0 1.7-.2.9-.3 1.6-.8.7-.5 1.3-1.2.5-.8.8-1.6 0-.4.1-.9.1-.4.1-.8 0-.4 0-.8 0-.4 0-.9 0 0 0 0-.1 0-.1-.1 0 0 0 0 0 0-.1 0 0-.1-.1-.1-.1-.1-.2-.1-.1-.1-.2-.1-.1-.1-.1-.1-.3-.2-.5-.3-.2-.2-.5-.4-.2-.2-.4-.3-.2-.2-.4-.4-.9.4-1.9.8-1 .3-2 .6-1 .2-2 .4-1.1.1-2.1.2 0 .3-.1.6 0 .3 0 .6 0 .4.1.7 0 .3 0 .6 0 .5.2.9.1.4.3.9.2.4.5.7.3.4.7.7.3.3.7.5zm3.9 1.8q-.5.1-1 .1-.6 0-1.1-.1-.6-.1-1.1-.3 0 .7 0 1.2.1.4.2.7.1.4.4.6.3.3.6.5.3.2.7.2.4 0 .8 0 .3-.1.7-.4.3-.2.5-.5.2-.3.3-.7 0-.2 0-.4.1-.2.1-.4 0-.2 0-.4 0-.2 0-.4-.5.2-1.1.3zm6.8 5.3q0-.5-.2-.9-.2-.5-.5-.9-.3-.4-.7-.7-.4-.2-.9-.3c-.8-.2-1.5-.3-2.3-.5q-.1 0-.1 0-.1 0-.2 0-.1.1-.1.1-.1.1-.1.1-.2.4-.5.8-.3.3-.6.5-.4.2-.8.3-.4.1-.9.1-.4 0-.8-.1-.4-.1-.8-.3-.4-.2-.7-.6-.3-.3-.4-.7-.1-.1-.2-.3c-.9.2-1.7.4-2.5.5q-.5.1-.9.4-.4.2-.7.5-.3.4-.5.8-.2.4-.2.9c-.1 1.2-.1 2.5-.1 3.8h15.7q0-1.8 0-3.5z" fill="#22577a" fill-rule="evenodd"/><path d="m5.1 25.6q-.4 0-.8 0-.2 0-.4-.2-.1-.1-.1-.3 0-.2.1-.4.2-.1.4-.1.8-.1 1.7 0 .1 0 .2 0 .1 0 .2.1.1.1.1.2 0 .1 0 .2 0 .1 0 .2 0 .1-.1.1-.1.1-.2.2-.1 0-.2 0-.4 0-.9 0z" fill="#38a3a5"/></svg>