<svg height="30" viewBox="0 0 27 30" width="27" xmlns="http://www.w3.org/2000/svg" xmlns:xlink="http://www.w3.org/1999/xlink"><clipPath id="a"><path d="m0 0h26.89v30h-26.89z"/></clipPath><g clip-path="url(#a)"><path d="m26.3 20.8q.2.5.3.9.2.5.2 1 .1.6.1 1.1-.1 1.1-.5 2.2-.4 1.1-1.2 1.9-.8.9-1.9 1.4-1 .5-2.1.7-.3 0-.5 0-.2 0-.5 0-.2 0-.4 0-.3 0-.5 0-9.2 0-18.4 0c-.7 0-.9-.2-.9-.9 0-4.7 0-23.5 0-28.2q0-.1 0-.1 0-.1 0-.2 0 0 0-.1 0-.1.1-.1 0-.1.1-.2.1-.1.2-.1.1-.1.2-.1.1 0 .2 0c4.4 0 8.7.1 13.1 0q.3 0 .6 0 .3.1.6.2.3.1.6.3.2.2.4.4c1.3 1.3 2.6 2.5 3.9 3.7q1.3 1.3 2.6 2.5.1.1.1.2.1.1.1.2.1.1.1.2 0 .1 0 .2 0 4.9 0 9.8c0 .8-.3 1-1 .8q-.5-.1-1.1-.1-.6-.1-1.2.1-.6.1-1.2.3-.5.2-1 .6-.5.3-.8.7-.4.4-.7.9-.2.5-.4 1-.2.6-.2 1.1c-.1 1.4.3 2.7 1.1 3.7.9 1.1 2.1 1.7 3.4 1.9s2.7-.2 3.7-1c1.1-.8 1.8-1.9 2.1-3.3q0-.4 0-.9 0-.5 0-.9-.1-.5-.3-.9-.2-.4-.4-.8c-.2-.3-.2-.3-.4-.1q-1.7 1.9-3.4 3.7c-.5.6-.8.6-1.3 0q-.8-.8-1.5-1.7 0 0-.1 0 0 0 0-.1 0 0-.1 0 0 0 0-.1-.1-.1-.1-.2 0-.1 0-.2 0-.1.1-.2 0-.1.1-.2.1-.1.2-.1.1-.1.2-.1.1.1.3.1.1.1.1.2.7.6 1.2 1.3c.2.2.3.2.5 0q2.5-2.8 5-5.5.2-.2.4-.3.3 0 .5.2.3.2.2.5 0 .2-.2.4-.4.5-.8.9-.1.1-.1.1-.1.1-.1.2 0 0 .1.1 0 .1 0 .1.3.4.6.9zm-9.9 8q0 0 .1 0 0 0 0 0 .1 0 .1-.1s-.1-.1-.1-.1q-.7-.5-1.2-1.2-.5-.6-.8-1.4-.3-.7-.4-1.5-.1-.9 0-1.7.1-1.3.8-2.4.6-1.1 1.6-1.9 1-.8 2.3-1.1 1.2-.4 2.5-.2c.3 0 .4-.1.4-.3q0-4.1 0-8.2c0-.4 0-.4-.4-.4q-2 0-3.9 0-.6.1-1.2-.2-.6-.2-1-.6-.5-.5-.7-1.1-.2-.6-.2-1.2 0-1.8 0-3.6c0-.4 0-.4-.4-.4h-12.2c-.4 0-.4 0-.4.5v26.6c0 .5 0 .5.4.5q7.3 0 14.6 0 .1 0 .1 0zm-.8-23.4q0 .4.1.7.1.3.4.5.3.3.6.4.3.1.7.1 1.5 0 3 0c.1 0 .2 0 .3-.1l-5.2-4.9c0 1.1 0 2.2.1 3.3z" fill="#124668" fill-rule="evenodd"/><path d="m20.7 7c-.1.1-.2.1-.3.1q-1.5 0-3 0-.4 0-.7-.1-.3-.1-.6-.4-.2-.2-.4-.5-.1-.3-.1-.7c-.1-1.1-.1-2.2-.1-3.3 0 0 5.2 4.9 5.2 4.9z" fill="#ef9b11"/><g fill="#124668"><path d="m12.4 18q0 .1 0 .2 0 0 0 .1.1.1.1.2 0 .1-.1.3 0 .1-.1.2-.1.1-.2.2-.2 0-.3 0c-.3 0-.4.1-.4.3q-.2.6-.5 1.2-.3.5-.8.9-.5.4-1.1.6-.6.2-1.3.2c-.9 0-1.8-.4-2.5-1-.7-.5-1.1-1.4-1.2-2.3-.2-.9 0-1.8.5-2.6.5-.7 1.3-1.3 2.2-1.6.3 0 .4-.1.4-.4q0-.2.1-.3 0-.1.1-.2.1-.1.2-.1.1 0 .3 0 .8 0 1.6.3.8.3 1.4.8.6.5 1.1 1.3.4.7.5 1.5 0 .1 0 .2zm-2.5 1.2q-1 0-2.1 0-.1 0-.3 0-.1-.1-.2-.2-.1-.1-.2-.2 0-.2 0-.3 0-.5 0-1.1 0-.5 0-1c0-.3-.1-.3-.3-.2q-.4.1-.7.4-.3.2-.5.6-.2.3-.3.7-.1.3-.1.7 0 .5.1.9.2.4.5.8.3.3.7.5.4.3.9.3.4.1.8 0 .4-.1.8-.3.4-.2.7-.5.2-.4.4-.8c.1-.2.1-.3-.2-.3zm1.2-1.5q-.1-.4-.3-.8-.3-.5-.6-.8-.3-.3-.7-.5-.4-.3-.9-.4c-.2 0-.2 0-.2.2q0 1.1 0 2.3c0 .2.1.3.3.3q.5 0 1.1 0 .6-.1 1.1 0c.2 0 .3-.1.2-.3z" fill-rule="evenodd"/><path d="m7.9 10.4h3.2q.1 0 .3 0 .2 0 .4.2.2.2.2.5 0 .2-.2.4-.2.2-.4.2-.1 0-.2 0h-6.5c-.6 0-.9-.2-.9-.6s.3-.7.9-.7z"/><path d="m16.4 11.7q-.9 0-1.9 0 0 0-.1 0 0 0-.1 0 0 0-.1 0 0 0-.1 0-.2-.1-.3-.3-.1-.1-.1-.3 0-.2.1-.4.1-.2.3-.2.1 0 .2 0 .1-.1.2-.1.1 0 .3 0 .1 0 .2 0 1.6 0 3.3 0 .1 0 .1 0 .1 0 .1.1.1 0 .2 0 0 0 .1 0 .1 0 .1.1.1 0 .2.1 0 .1.1.2 0 .1 0 .2 0 .1 0 .2-.1.1-.1.1-.1.1-.2.2-.1 0-.1.1-.1 0-.1 0-.1 0-.1 0-.1 0-.1 0-.1 0-.1 0z"/><path d="m6.1 24.2q.9 0 1.7 0 .1 0 .2.1.2 0 .3.1.1.1.1.3.1.1 0 .2c0 .4-.2.6-.7.6q-.6 0-1.3 0-1 0-1.9 0-.1 0-.2 0-.1-.1-.2-.1-.1-.1-.1-.1-.1-.1-.1-.2-.1-.1-.1-.2 0 0 0-.1 0-.1.1-.2 0-.1 0-.1.1-.1.2-.1 0-.1.1-.1.1-.1.2-.1.1 0 .1 0z"/><path d="m6.1 8q-.8 0-1.6 0-.1 0-.2 0-.1-.1-.2-.1-.1-.1-.2-.2 0 0-.1-.1 0-.1 0-.2 0-.1 0-.2 0-.1.1-.1 0-.1.1-.2 0 0 .1-.1.1 0 .1 0 .1-.1.2-.1 0 0 .1 0 1.6 0 3.3 0 .1 0 .2.1.2 0 .3.1.1.1.1.2 0 .1 0 .3c0 .3-.2.6-.7.6q-.8 0-1.6 0z"/><path d="m17 14.2q.8 0 1.6 0 .2 0 .4 0 .1.1.2.3.1.1.1.3 0 .2-.1.3 0 .1-.1.2-.1 0-.2.1 0 0-.1 0-.1 0-.2 0-1.6 0-3.3 0-.1 0-.2 0-.1-.1-.2-.2-.1-.1-.2-.2 0-.1 0-.2 0-.2 0-.3.1-.1.2-.2.1-.1.2-.1.2 0 .3 0 .8 0 1.6 0z"/><path d="m11.1 24.2q.3 0 .6 0 .3 0 .5.2.2.2.2.5 0 .2-.2.4-.2.2-.5.2-.6 0-1.3 0-.1 0-.2-.1-.2 0-.2-.1-.1-.1-.2-.2 0-.1 0-.3 0-.1 0-.2.1-.1.2-.2.1-.1.2-.1.1-.1.2-.1.3 0 .7 0z"/><path d="m11 8q-.3 0-.6 0-.1 0-.2-.1-.1 0-.2-.1-.1-.1-.2-.2 0-.1 0-.2 0-.1 0-.2 0-.2.1-.2.1-.1.2-.2.1 0 .2 0 .2-.1.4-.1.2 0 .4 0 .2 0 .3 0 .2 0 .4.1.1 0 .2 0 .1.1.2.2.1 0 .1.2 0 .1 0 .2 0 .1 0 .2-.1.1-.1.2-.1.1-.2.1-.1.1-.2.1-.4 0-.8 0"/></g><path d="m10.1 19.5q-.2.4-.4.8-.3.3-.7.5-.4.2-.8.3-.4.1-.8 0-.5 0-.9-.3-.4-.2-.7-.5-.3-.4-.5-.8-.1-.4-.1-.9 0-.4.1-.7.1-.4.3-.7.2-.4.5-.6.3-.3.7-.4c.2-.1.3-.1.3.2q0 .5 0 1 0 .6 0 1.1 0 .1 0 .3.1.1.2.2.1.1.2.2.2 0 .3 0 1.1 0 2.1 0c.3 0 .3.1.2.3z" fill="#ef9b11"/><path d="m10.9 18q-.5 0-1.1 0-.6 0-1.1 0c-.3 0-.3-.1-.3-.3q0-1.2 0-2.3c0-.2 0-.2.2-.2q.5.1.9.4.4.2.7.5.3.4.6.8.2.4.3.8c.1.2 0 .3-.2.3z" fill="#ef9b11"/></g></svg>