<svg height="30" viewBox="0 0 27 30" width="27" xmlns="http://www.w3.org/2000/svg"><path d="m11.6 3.1h13.5v11.5h-13.5z" fill="#ef9b11"/><path d="m3.5 22.2h14v4.5h-14z" fill="#ef9b11"/><g fill="#22577a"><path d="m20.7 0q.1.1.2.2.1 0 .2.2 0 .1 0 .2.1.1 0 .2v1.2h2.7q.5 0 .9.2.5.1.8.5.4.3.6.8.1.4.1.9 0 4 0 8.1 0 .5-.1.9-.2.5-.6.8-.3.3-.8.5-.4.2-.9.2-.5 0-.9 0-.1 0-.1 0-.1 0-.1 0-.1.1-.1.1 0 .1 0 .1 0 .1 0 .1-.1.1-.1.2 0 0 0 .1-.1.1-.1.1 0 .2-.1.3-.1.2-.3.2-.2.1-.3 0-.2 0-.3-.1l-.3-.2v13.3q0 .1 0 .3 0 .1 0 .2-.1.1-.1.2-.1.1-.3.2-.1 0-.2 0-.9 0-1.7 0h-18c-.6 0-.8-.2-.8-.8q0-14.2 0-28.4 0-.1 0-.2 0-.1.1-.2 0-.2.1-.2.1-.1.2-.2zm-.8 14.9h-6.9q-.5 0-1-.2-.5-.1-.9-.5-.3-.4-.5-.8-.2-.5-.2-1 0-4 0-7.9 0-.5.2-1 .2-.4.5-.8.4-.4.9-.6.5-.1 1-.1h6.9v-.8h-18.7v27.6h18.7zm1.6-.3q0-.2.1-.3c.1-.5.3-.6.8-.6q.7 0 1.3 0 .3.1.5 0 .3-.1.5-.3.2-.2.3-.4 0-.3 0-.5 0-4 0-8 0-.3 0-.5-.1-.3-.3-.5-.2-.1-.5-.2-.2-.1-.5-.1-5.4 0-10.8 0-.2 0-.5.1-.2.1-.4.3-.2.1-.3.4-.1.2-.1.5 0 4 0 7.9 0 .3.1.6.1.2.3.4.2.2.4.3.3.1.5 0 3.6 0 7.1 0 .1.1.2.1.1 0 .1 0 .1 0 .2.1.1 0 .1.1.2 0 .3.1.1.1.2.2.1.1.2.1.1.1.2.2z" fill-rule="evenodd"/><path d="m10.6 27.6h-7c-.6 0-.8-.2-.8-.8q0-2.3 0-4.6c0-.5.2-.7.7-.7q7.1 0 14.1 0c.5 0 .7.2.7.7q0 2.3 0 4.6c0 .6-.2.8-.8.8zm6.6-4.9h-13.1v3.7h13.1z" fill-rule="evenodd"/><path d="m10.5 18.9h7q0 0 .1 0 0 0 0 0 .1 0 .1 0 .1 0 .1 0 .2.1.3.2.2.1.2.3 0 .2-.1.4-.1.2-.3.2 0 0-.1.1 0 0-.1 0 0 0-.1 0 0 0-.1 0-7 0-14 0 0 0 0 0-.1 0-.1 0-.1 0-.1 0 0 0-.1 0-.2-.1-.3-.3-.1-.1-.1-.4 0-.2.2-.3.1-.2.3-.2.2 0 .3 0z"/><path d="m10.5 17.4h-6.9q0 0-.1 0 0 0 0 0-.1 0-.1-.1-.1 0-.1 0-.2 0-.3-.1-.2-.2-.2-.4 0-.1.1-.3.1-.2.3-.3 0 0 .1 0 0 0 .1 0 0 0 .1 0 0 0 .1 0 6.9 0 13.9 0 .1 0 .1 0 .1 0 .1 0 .1 0 .1 0 .1 0 .1 0 .1.1.2.1.1.1.1.2.1.1.1.2 0 .1 0 .2 0 0-.1.1 0 .1-.1.2-.1.1-.1.1-.1 0-.2 0-.1 0-.1 0 0 .1-.1.1 0 0-.1 0 0 0 0-.1z"/><path d="m6 10q-1.3 0-2.5 0c-.4 0-.7-.2-.7-.5q0-.2.1-.3 0-.1.1-.2.1-.1.2-.1.1-.1.3 0 2.5 0 4.9 0 .2-.1.3 0 .1 0 .2.1.1.1.2.2 0 .1 0 .3c0 .3-.3.5-.7.5q-1.2 0-2.4 0z"/><path d="m5.9 5.3q1.3 0 2.5 0c.4 0 .7.2.7.5 0 .4-.3.6-.7.6q-2.4 0-4.9 0c-.4 0-.7-.2-.7-.6 0-.3.3-.5.7-.5q1.2 0 2.4 0z"/><path d="m6 13.6q-1.3 0-2.5 0-.1 0-.2 0 0 0-.1-.1-.1 0-.2 0 0-.1-.1-.1-.1-.1-.1-.3 0-.1 0-.3.1-.1.2-.2.1-.1.3-.1 0 0 0 0 .1 0 .1 0 .1-.1.1-.1.1 0 .1 0 2.4 0 4.7 0 0 0 .1 0 0 0 .1.1 0 0 0 0 .1 0 .1 0 .1 0 .2 0 .1.1.2.2 0 0 .1.1 0 .1 0 .3 0 .1 0 .2-.1.1-.1.1-.1.1-.2.2-.1 0-.2 0-.7 0-1.3 0-.7 0-1.3 0z"/></g><path d="m19.7 11.3q.1.1 0 .2 0 .1 0 .2-.1 0-.2.1-.1.1-.1.1-.1 0-.2 0-.1 0-.2 0-.1 0-.2-.1-.1 0-.1-.1 0 0 0-.1-.1 0-.1 0 0-.1 0-.1c-.1-.5-.4-.6-.9-.6q-.1 0-.2 0-.1 0-.2 0-.1 0-.2 0-.1 0-.2 0 0 0-.1 0 0 0-.1.1 0 0-.1 0 0 .1 0 .1 0 .1 0 .1 0 .1-.1.1 0 .1 0 .1 0 0 0 .1-.1.2-.3.4-.3.1-.5 0-.3-.1-.3-.4-.1-.2 0-.4.3-1 .7-1.9.4-1 .8-2 0-.1.1-.2 0-.1.1-.2.1 0 .2-.1.1 0 .3 0 .1 0 .2 0 .1.1.2.2.1 0 .1.1.1.1.1.2.7 1.9 1.5 3.8 0 .2 0 .3zm-2.2-2.6-.3 1h.7z" fill="#fff" fill-rule="evenodd"/><path d="m20.6 5.6c.5 0 .8.2.8.5 0 .4-.2.6-.8.7-.1.6-.3.8-.7.8-.3-.1-.5-.3-.5-.8q-.1 0-.2 0-.1-.1-.2-.1-.1-.1-.1-.1-.1-.1-.2-.1 0-.1-.1-.1 0-.1 0-.1 0 0 0-.1 0 0 0-.1c0-.4.2-.5.7-.6q0 0 .1-.1 0-.1 0-.2.1-.1.1-.2.1-.1.1-.2.1 0 .1 0 .1 0 .1 0 .1-.1.1-.1.1 0 .1 0c.4 0 .5.2.6.9z" fill="#fff"/></svg>