<svg height="30" viewBox="0 0 30 30" width="30" xmlns="http://www.w3.org/2000/svg"><g fill="#22577a"><path d="m0 18.3q0 0 0 0 .1-.3.3-.5.2-.3.4-.4.3-.2.6-.2.3-.1.6 0 .1 0 .2 0 .1 0 .2-.1.1 0 .1-.1.1-.1.1-.2.1-.2.1-.3.1-.1.1-.2 0-.1 0-.2 0-.1-.1-.2 0 0-.1-.1-.1-.1-.1-.1-.1-.1-.1-.1-.1-.1-.1-.1-.1-.1-.1-.1-.2-.2-.3-.5-.1-.2-.1-.5 0-.2.1-.5.1-.2.3-.4.2-.2.4-.4.2-.2.4-.4.2-.2.4-.4.2-.2.4-.4.2-.1.4-.2.3-.1.5-.1.3 0 .5.1.3.1.5.3 0 0 0 0 0 0 .1 0 0 0 0 .1 0 0 0 0c.6.6.6.5 1.4.2q.1-.1.1-.1.1-.1.1-.1 0-.1.1-.1 0-.1 0-.2 0-.3 0-.6 0-.2.1-.5.1-.2.3-.4.2-.2.4-.3.3-.1.6-.2 1 0 2.1 0 .2.1.5.2.2.1.4.3.2.2.3.4.2.3.2.5 0 .1 0 .3c0 .7.2.9.9 1q0 0 .1 0 0 0 .1 0 .1 0 .1 0 .1-.1.1-.1.3-.3.5-.5.2-.2.5-.2.2-.1.4-.1.3 0 .5.1.3.1.5.2.8.8 1.5 1.6.2.2.3.4.1.3.1.5 0 .3-.1.5-.1.3-.2.5-.1 0-.2.1 0 0-.1.1 0 .1-.1.1 0 .1-.1.1 0 .1-.1.2 0 0 0 .1-.1.1-.1.2.1.1.1.2.1.1.1.3.1.1.1.2.1.1.2.1 0 .1.1.1.1 0 .2 0 .1 0 .2 0 .2 0 .3 0 .1 0 .2 0 .1 0 .2.1.2 0 .4.1.2.2.3.4.2.1.2.3.1.2.1.5.1 1 0 2.1 0 .3-.1.5-.1.3-.3.5-.2.2-.4.3-.3.1-.6.1-.1 0-.2 0c-.7 0-.9.2-1.1.9q0 .1 0 .1 0 .1.1.2 0 0 0 .1.1 0 .1.1.3.2.5.5.1.2.2.4.1.2.1.5 0 .2-.1.4-.1.3-.2.4-.2.3-.4.5-.2.2-.4.4-.2.2-.5.4-.2.2-.4.4-.2.2-.4.3-.3 0-.5 0-.2 0-.5-.1-.2 0-.4-.2-.2-.2-.5-.4 0-.1-.1-.2-.1 0-.1 0-.1 0-.2 0-.1 0-.2 0-.1.1-.2.1c-.5.2-.5.3-.5.8q0 .1 0 .2 0 .1 0 .1 0 .1-.1.2 0 .1 0 .1 0 .3-.2.5-.1.2-.3.3-.1.2-.4.3-.2.1-.4.1-1.1 0-2.1 0-.3 0-.6-.2-.2-.1-.4-.3-.2-.1-.3-.4-.1-.2-.1-.5 0-.1 0-.2c0-.8-.1-.8-.8-1.1q-.1 0-.1 0-.1 0-.2 0-.1 0-.2 0-.1.1-.1.1-.2.3-.5.5-.1.1-.4.2-.2.1-.5.1-.3 0-.5-.1-.3-.1-.4-.2-.8-.8-1.6-1.6-.2-.2-.3-.4-.1-.3-.1-.5 0-.3.1-.6.1-.2.3-.4 0 0 0 0 .1-.1.1-.1 0-.1.1-.1c.5-.5.5-.5.1-1.3q0-.1 0-.1-.1-.1-.1-.1-.1-.1-.2-.1 0 0-.1 0-.2 0-.4 0-.3 0-.5 0-.3-.1-.5-.2-.2-.2-.3-.4-.2-.2-.2-.4 0 0-.1-.1 0 0 0 0z"/><path d="m18 0q.2.1.4.1.2.1.3.3.2.1.3.3.1.2.2.4 0 .2 0 .5 0 .6 0 1.3 0 .1 0 .2.1.1.1.2.1.1.1.1.1.1.2.1.2.1.3.1.2.1.3.1.2.1.3.2.2 0 .3.1.1 0 .2.1.1 0 .2 0 .1-.1.2-.1 0-.1.1-.1.5-.5 1-1 .2-.2.4-.4.3-.1.7-.1.3 0 .6.1.2.2.5.4 1 1 1.9 2 .3.2.4.5.1.3.1.6 0 .3-.1.6-.1.3-.4.5-.5.5-.9.9-.1.1-.2.2 0 .1 0 .2 0 .1 0 .1 0 .1 0 .2.1.2.2.3 0 .2.1.3.1.2.1.3.1.2.1.3.1.1.1.2.1.1.1.1.1.1.2.1.1 0 .2 0 .6 0 1.3 0 .3 0 .6.1.4.1.6.3.2.3.3.6.2.3.1.6 0 1.4 0 2.7.1.3-.1.6-.1.3-.3.6-.2.2-.5.3-.3.1-.7.1-.6 0-1.3 0-.1 0-.2 0-.1.1-.2.1 0 .1-.1.1-.1.1-.1.2 0 .2-.1.3 0 .2-.1.3-.1.2-.1.3-.1.2-.2.3 0 .1 0 .2-.1.1 0 .2 0 .1 0 .1.1.1.1.2.5.5 1 1 .3.2.4.4.1.3.1.7 0 .3-.1.6-.1.2-.4.5-1 1-2 1.9-.2.3-.4.4-.3.1-.6.1-.3 0-.6-.1-.3-.1-.5-.4-.8-.7-1.5-1.5-.1 0-.2-.1 0-.1 0-.2 0-.1 0-.2 0-.1.1-.2c.2-.2.5-.2.8.1q.7.7 1.4 1.4c.3.3.6.3.9 0q.9-1 1.9-1.9c.3-.3.3-.6 0-.9q-.5-.5-1-1-.1-.1-.3-.3-.1-.2-.1-.5-.1-.2 0-.4 0-.3.1-.5.3-.6.5-1.2.1-.2.2-.4.2-.2.4-.3.1-.1.4-.2.2-.1.4-.1.7 0 1.4 0c.5 0 .6-.1.6-.6q0-1.3 0-2.7c0-.4-.1-.6-.6-.6q-.7 0-1.4 0-.2 0-.4-.1-.2 0-.4-.1-.2-.2-.4-.4-.1-.2-.2-.4-.2-.6-.5-1.2-.1-.2-.1-.5-.1-.2 0-.4 0-.2.1-.4.2-.3.3-.4.5-.5 1-1 .1-.1.2-.2 0-.1 0-.2 0-.2 0-.3-.1-.1-.2-.2-1-.9-1.9-1.9-.1-.1-.2-.1-.1-.1-.2-.1-.2 0-.3.1-.1 0-.2.1-.5.5-.9 1-.2.2-.4.3-.2.1-.5.1-.2.1-.4.1-.3-.1-.5-.2-.6-.2-1.2-.5-.2-.1-.4-.2-.2-.1-.3-.3-.2-.2-.2-.5-.1-.2-.1-.4 0-.7 0-1.4c0-.4-.2-.6-.6-.6q-1.3 0-2.7 0c-.4 0-.6.2-.6.6q0 .7 0 1.3 0 .3-.1.5 0 .3-.2.5-.1.2-.3.3-.2.2-.5.2-.5.3-1.1.5-.2.1-.4.2-.3 0-.5 0-.2-.1-.5-.2-.2-.1-.3-.3-.5-.5-1-1-.1-.1-.2-.1-.1-.1-.2-.1-.2 0-.3.1-.1 0-.2.1-.9 1-1.9 1.9c-.3.4-.3.6.1.9q.7.7 1.4 1.4 0 .1.1.1 0 .1 0 .2.1 0 .1.1 0 .1 0 .1 0 .1-.1.2 0 0 0 .1-.1 0-.1.1-.1 0-.1 0-.1 0-.2 0-.1 0-.1 0-.1 0-.2 0 0-.1-.1-.1-.6-.6-1.2-1.2-.2-.3-.5-.5-.1-.2-.2-.5-.1-.2-.1-.4 0-.3.1-.5.1-.3.3-.5.2-.3.5-.5.3-.3.6-.6.3-.3.6-.6.3-.3.6-.6.2-.1.4-.2.3-.1.5-.1.3 0 .6.1.2.1.4.3.5.5 1 1 .1.1.2.2.1 0 .2.1.1 0 .2 0 .1-.1.2-.1.5-.3 1.1-.5.1 0 .2-.1.1 0 .1-.1.1-.1.1-.2 0-.1 0-.2 0-.6 0-1.3 0-.2.1-.5 0-.2.2-.4.1-.3.3-.4.2-.2.5-.2 0 0 0-.1 0 0 0 0z"/><path d="m22.6 13.8q0 .5-.1 1.1-.2.5-.4 1-.2.5-.5.9-.3.5-.7.9c-.3.2-.6.3-.8.1s-.2-.5 0-.8c1-1 1.6-2.3 1.6-3.7s-.6-2.8-1.5-3.8c-1-1-2.3-1.6-3.7-1.6-1.4-.1-2.8.4-3.8 1.3q-.1.1-.1.1 0 0-.1.1 0 0 0 0-.1 0-.1.1-.1 0-.2.1-.1 0-.2 0 0 0-.1-.1-.1 0-.2-.1 0-.1-.1-.2 0 0 0-.1 0-.1.1-.2 0-.1.1-.2.1-.1.2-.2.1-.1.3-.2.1-.1.2-.2.2-.1.3-.2 1.1-.7 2.5-.9 1.3-.2 2.6.1 1.3.3 2.3 1.1 1 .9 1.7 2 .2.4.3.9.2.4.3.9.1.4.1.9.1.4 0 .9z"/></g><path d="m3.7 16.3q0-.2 0-.3-.1-.2-.1-.3-.1-.1-.1-.3-.1-.1-.2-.2-.2-.2-.4-.4-.1-.1-.1-.2-.1-.1-.1-.2 0-.1.1-.2 0 0 .1-.1.7-.7 1.4-1.4 0-.1.1-.1.1 0 .2 0 .1 0 .2 0 .1 0 .2.1.2.2.3.4.2.1.4.2.2.1.4.2.2 0 .4 0 .2 0 .4-.1.1 0 .2-.1 0 0 .1 0 .1 0 .1-.1.1 0 .2 0 .2-.1.3-.3.2-.1.3-.3.1-.2.2-.4 0-.2 0-.4c.1-1 .1-1 1.1-1q.6 0 1.3 0c.4 0 .6.2.6.6q0 .2 0 .3 0 .3 0 .5.1.2.2.4.2.2.4.4.1.1.4.2.1.1.3.2.2.1.5.1.2 0 .5 0 .2-.1.4-.2.2-.1.4-.3c.6-.6.7-.6 1.3 0q.5.5 1 1 .1.1.1.2.1.1.1.2 0 .2-.1.3 0 .1-.1.2-.2.1-.3.2-.1.1-.2.3-.1.1-.1.3-.1.1-.1.3-.1.4 0 .8.1.4.4.7.3.3.6.5.4.2.8.2c.8 0 .8 0 .8.8q0 .8 0 1.5.1.2 0 .3 0 .1-.1.2-.1.1-.2.1-.1 0-.2 0-.2 0-.4 0-.2 0-.4.1c-1 .1-1.9 2.1-.9 2.9q0 .1.1.1c.6.6.6.7 0 1.3q-.5.5-1 1c-.4.3-.6.3-.9 0q-.1-.2-.3-.3-.1-.1-.3-.2-.1-.1-.3-.1-.2-.1-.4-.1c-1 0-2.1.6-2 1.9 0 .6-.1.8-.8.8q-.7 0-1.5 0c-.5 0-.6-.2-.7-.6q0-.3 0-.5 0-.2 0-.4-.1-.2-.2-.3-.1-.2-.2-.3-.2-.2-.3-.2-.1-.1-.2-.1-.1-.1-.2-.1-.1 0-.2-.1-.1 0-.1 0-.2-.1-.5-.1-.2 0-.4 0-.2.1-.4.2-.1.1-.3.2c-.6.7-.8.6-1.4 0q-.5-.4-.9-.9-.1-.1-.2-.2-.1-.1-.1-.3 0-.1.1-.2.1-.1.2-.2.1-.1.3-.3.1-.2.2-.3.1-.2.2-.4 0-.2 0-.4 0-.2-.1-.4 0-.1-.1-.2 0 0 0-.1-.1-.1-.1-.2 0 0-.1-.1 0-.2-.2-.4-.1-.1-.3-.2-.2-.2-.4-.2-.2-.1-.4-.1c-1 0-1 0-1-1q0-.6 0-1.2c0-.6.1-.7.7-.7q.1 0 .1 0 .1 0 .2 0 .1 0 .1 0 .1 0 .2-.1.1 0 .2 0 .1-.1.2-.1.1-.1.2-.1.1-.1.1-.2.2-.1.3-.3.1-.2.2-.3.1-.2.1-.4.1-.2.1-.4z" fill="#ef9b11"/><path d="m14.2 19.7q.1.8-.3 1.7-.3.8-.9 1.4-.6.6-1.5 1-.8.3-1.7.3c-1.8 0-3.4-1.1-4-2.8-.7-1.6-.4-3.5.9-4.8 1.3-1.2 3.2-1.6 4.8-.9 1.7.7 2.7 2.3 2.7 4.1z" fill="#22577a"/><path d="m13.3 19.6c0 1.4-.9 2.7-2.2 3.2-1.2.5-2.7.3-3.7-.7s-1.3-2.5-.8-3.8c.6-1.2 1.8-2.1 3.2-2.1q.7 0 1.3.3.7.2 1.1.7.5.5.8 1.1.2.7.3 1.3z" fill="#fefefe"/></svg>