<svg height="338" viewBox="0 0 326 338" width="326" xmlns="http://www.w3.org/2000/svg"><path d="m98.6 77.3h-33.1q-1.5 0-2.9-.6-1.5-.6-2.6-1.7-1.1-1.1-1.7-2.6-.6-1.4-.6-3 0-1.5.6-3 .6-1.4 1.7-2.5 1.1-1.1 2.6-1.7 1.4-.6 3-.6h33q1.6 0 3 .6 1.4.6 2.5 1.7 1.1 1.1 1.7 2.5.6 1.5.6 3 0 1.6-.6 3-.6 1.5-1.7 2.6-1.1 1.1-2.5 1.7-1.4.6-3 .6z" fill="#d8e2f4"/><path d="m90.8 66.9c-1.6 6.4-7.9 10.3-14.3 8.8-6.4-1.6-10.3-7.9-8.8-14.3s7.9-10.3 14.3-8.8 10.3 7.9 8.8 14.3z" fill="#d8e2f4"/><path d="m253.5 52.3h-57.8c-1.8 0-3.5-.4-5.2-1.1s-3.2-1.7-4.4-2.9c-1.3-1.3-2.3-2.8-3-4.5-.7-1.6-1-3.4-1-5.2s.3-3.6 1-5.3c.7-1.6 1.7-3.1 3-4.4 1.2-1.3 2.7-2.3 4.4-3 1.7-.6 3.4-1 5.2-1h57.8c1.8 0 3.6.4 5.3 1 1.6.7 3.1 1.7 4.4 3s2.3 2.8 3 4.5c.7 1.6 1 3.4 1 5.2s-.3 3.6-1 5.2c-.7 1.7-1.7 3.2-3 4.5-1.3 1.2-2.8 2.2-4.4 2.9-1.7.7-3.5 1.1-5.3 1.1z" fill="#d8e2f4"/><path d="m234.3 44c-8.1 8.1-21.2 8.1-29.3 0s-8.1-21.2 0-29.3 21.2-8.1 29.3 0 8.1 21.2 0 29.3z" fill="#d8e2f4"/><path d="m278.9 310.6c0 1.1-5.8 1.9-12.9 1.9s-12.9-.8-12.9-1.9c0-1 5.8-1.9 12.9-1.9s12.9.9 12.9 1.9z" fill="#d0dff3"/><path d="m248.5 253c-.4 2.3 2.3 2.7 2.8 5.9.4 3.2-.9 4.1-.5 5.9s3.2 2.2 3.6 6.7c.5 4.6-1.3 4.1-.9 6.8.5 2.7 3.2 2.7 3.6 5 .5 2.2.5 5.4 1.4 8.1s3.6 6.8 4.9 6.8c1.4 0 5-7.7 4.1-10-.9-2.2-2.2-2.7-2.2-4.5s1.8-6.3 1.3-9.5c-.4-3.1-4.5-4.5-5-6.7-.4-2.3.9-8.2-2.2-10.9-3.2-2.7-10.4-5.8-10.9-3.6z" fill="#3fb790"/><path d="m263.2 297.4q0 0 0 0-.1 0-.1-.1-.1 0-.1 0 0-.1 0-.1c0-.1 0-5.9-1.7-7.7-1.8-1.7-2.8-7-3.3-17.3-.4-9.3-7.1-16.9-7.1-17q-.1-.1-.1-.2 0-.1.1-.1 0-.1.1-.1.1 0 .2.1c.1.1 6.8 7.8 7.3 17.3.5 10 1.4 15.4 3.1 17 1.8 1.9 1.9 7.7 1.9 8q0 0 0 .1-.1 0-.1 0 0 .1-.1.1 0 0-.1 0z" fill="#34916f"/><path d="m289.9 259.9c1.6 1.6-3.6 2.2-4.1 5.4-.4 3.1-.4 4.5-2.2 6.3s-4.6 2.3-4.1 5c.4 2.7 1.4 5.4 0 6.7-1.4 1.4-4.5 1.4-5.4 3.7-.9 2.2-.5 4.9-2.3 7.2-1.8 2.2-4.5 6.8-6.8 5.9-2.2-1-.9-11.3 0-13.1.9-1.9 1.8-3.2 1.8-4.6 0-1.3-.4-3.6.5-5.8.9-2.3 5.9-3.2 6.3-4.6.5-1.3.9-8.5 3.6-10.3 2.8-1.8 10-4.6 12.7-1.8z" fill="#4fc7a0"/><path d="m265.7 299.3q0 0-.1-.1 0 0-.1 0 0-.1 0-.2 0 0 0-.1.4-.5.7-1.1.3-.5.6-1.1.2-.6.5-1.2.2-.6.5-1.1c.1-.4.2-1 .3-1.7.5-2.5 1.3-6.3 2.4-7.5 1.7-1.7 4.4-6.8 6.3-13.4q.6-1.9 1.5-3.5 1-1.6 2.3-3 1.3-1.4 2.9-2.4 1.6-1 3.4-1.7.1 0 .2 0 0 .1.1.2 0 .1 0 .1-.1.1-.2.2-1.7.6-3.3 1.6-1.5 1-2.8 2.3-1.3 1.3-2.2 2.9-.9 1.6-1.5 3.4c-1.9 6.7-4.6 11.9-6.4 13.6-1 1.1-1.8 5-2.2 7.3-.2.7-.3 1.3-.4 1.7q-.2.6-.5 1.2-.2.6-.5 1.2-.3.6-.6 1.1-.3.6-.7 1.2 0 0 0 0-.1.1-.1.1 0 0-.1 0z" fill="#3fb690"/><path d="m265.2 265c-5.5.5-3.6 16.7-3.6 16.7 1.3 14 3.1 20.4 4.5 20.8 1.3.5 4-19.9 4-24.8 0 0 .5-13.1-4.9-12.7z" fill="#90dad8"/><path d="m265.8 300.3q0-.1-.1-.1 0 0 0 0-.1-.1-.1-.1 0-.1 0-.1c1.8-14.7-.4-33.2-.4-33.4q-.1-.1 0-.1.1-.1.2-.1.1 0 .1 0 .1.1.1.2c0 .2 2.3 18.7.5 33.5q0 0-.1 0 0 .1 0 .1 0 0-.1 0 0 .1-.1.1z" fill="#fff"/><path d="m272.6 310.5h-13.8q-.1 0-.3 0-.1 0-.2-.1-.2-.1-.2-.2-.1-.2-.2-.3l-2-14.3q0-.2.1-.4 0-.2.2-.4.1-.2.3-.3.3-.1.5-.1h17.4q.2 0 .5.1.2.1.3.3.2.2.2.4.1.2.1.4l-2 14.3q-.1.1-.2.3 0 .1-.2.2-.1.1-.2.1-.2 0-.3 0z" fill="#d0daed"/><path d="m97.8 278.9-7.5-65.5h-4.1l3.8 28.2h-8.5l3.8-28.2h-4l-7.5 65.5c-.1.3 0 .7.3 1 .2.3.5.5.9.5.4.1.7 0 1-.2.3-.3.5-.6.6-1l4.5-34.6h9.3l4.6 34.6c0 .4.2.7.5 1 .3.2.7.3 1 .2.4 0 .7-.2 1-.5.2-.3.3-.7.3-1z" fill="#92c3fe"/><path d="m186.9 278.9-7.4-65.5h-4.1l3.8 28.2h-8.5l3.8-28.2h-4.1l-7.4 65.5c-.1.3 0 .7.2 1 .3.3.6.5 1 .5.3.1.7 0 1-.2.3-.3.5-.6.5-1l4.6-34.6h9.3l4.6 34.6c0 .4.2.7.5 1 .3.2.6.3 1 .2.4 0 .7-.2 1-.5.2-.3.3-.7.2-1z" fill="#92c3fe"/><path d="m77.8 214.6v-6h110.9v6.4z" fill="#bdf"/><path d="m68.2 206.4h128.3v4.3h-128.3z" fill="#e0edfc"/><path d="m125.3 192.9-5.6 10.3q-.3.5-.3 1.1 0 .6.3 1.1.3.5.8.8.5.2 1.1.2h32.9l-13.8-7.3 2.8-6.2z" fill="#d5e7ff"/><path d="m169.1 187.4-4.2-37.1q-.1-.9-.5-1.7-.4-.8-1.1-1.3-.7-.6-1.5-.9-.8-.4-1.7-.4h-57.6q-.9 0-1.7.4-.9.4-1.5 1-.7.7-1 1.6-.3.9-.2 1.8l2.6 38.4q.1.7.4 1.4.3.7.9 1.2.5.6 1.3.8.7.3 1.4.3h59.5q1 0 2-.4.9-.4 1.6-1.2.7-.8 1.1-1.8.3-1 .2-2.1z" fill="#b3d2fa"/><path d="m169.1 187.4-4.2-37.1q-.1-.9-.5-1.7-.4-.8-1.1-1.3-.7-.6-1.5-.9-.8-.4-1.7-.4h-54.3q-1.1 0-2 .5-1 .4-1.7 1.1-.7.8-1 1.8-.4.9-.3 2l2.6 36.4q.1 1.1.6 2 .4.9 1.2 1.6.7.8 1.7 1.1 1 .4 2 .4h55.3q1 0 2-.4.9-.4 1.6-1.2.7-.8 1.1-1.8.3-1 .2-2.1z" fill="#d5e7ff"/><path d="m105.4 151.8 2.8 35.7q0 .1.1.2 0 .1.1.2.1 0 .2.1.1 0 .2 0h55.4q.1 0 .2 0 .1-.1.2-.2.1-.1.1-.2 0-.1 0-.2l-3.6-35.7q-.1-.1-.1-.1-.1-.1-.1-.2-.1-.1-.2-.1-.1 0-.2 0h-54.5q-.2 0-.3 0-.1 0-.1.1-.1.1-.2.2 0 .1 0 .2z" fill="#c18b33"/><path d="m123.5 200.5 4.3-7.6h-2.5l-5.6 10.3q-.3.5-.3 1.1 0 .6.3 1.1.3.5.8.8.5.2 1.1.2h16.2l-.6-.8q-.2-.3-.5-.6-.3-.2-.7-.4-.3-.2-.7-.3-.4-.1-.8-.1l-9.2-.4q-.6-.1-1.1-.4-.5-.3-.7-.7-.3-.5-.3-1.1 0-.6.3-1.1z" fill="#b3d2fa"/><path d="m229.2 288.2v-36.8h3.1l-1.5 36.8c0 .7-.4 1.2-.8 1.2-.5 0-.8-.6-.8-1.2z" fill="#92c3fe"/><path d="m195.5 292.6v-36.8h3.1l-1.5 36.8c-.1.7-.4 1.1-.8 1.1-.5 0-.8-.5-.8-1.1z" fill="#92c3fe"/><path d="m193.5 255.7s7.2 6.3 20.5 6.8v36.2q0 .1.1.2.1.2.2.3.1.1.2.1.1.1.3.1.1 0 .2-.1.2 0 .3-.1.1-.1.1-.2.1-.1.1-.3l3-36.4s10 .1 16.1-2.4l.9 37.4q0 .2 0 .4.1.2.2.3.2.1.4.2.1.1.3.1.2 0 .4-.1.2-.1.3-.2.1-.1.2-.3.1-.2.1-.4l1.1-38.5s6.6-.9 7.3-14.9q.1-1.7.2-3.5.2-1.7.4-3.4.2-1.7.5-3.4.4-1.7.7-3.4c1.6-6.6 4.2-15.1 8.2-20.3q.2-.3.4-.6.2-.3.3-.7.1-.3.2-.7.1-.3.1-.7c.1-1.8-1-4.5-6.8-5.9-10.2-2.4-14.7 3.9-14.7 3.9q-.8 1.3-1.5 2.7-.7 1.3-1.2 2.7-.6 1.4-1.1 2.8-.4 1.5-.8 2.9c-1.6 6.6-37.2 39.4-37.2 39.4z" fill="#c6dfff"/><path d="m195.5 250s9.3 10 31 5.1c0 0 14-2.5 15.5-14.7q.4-3.3 1-6.5.5-3.3 1.2-6.5.7-3.2 1.5-6.5.8-3.2 1.7-6.3l2.5-5.8q.3-.6.2-1.2 0-.6-.3-1.1-.3-.5-.9-.8-.5-.3-1.1-.3-.9-.1-1.8-.2-1-.1-1.9-.3-.9-.2-1.8-.5-.9-.2-1.8-.5-.5-.2-1.1-.3-.7 0-1.2.2-.6.1-1.2.4-.5.4-.9.9c-2.7 3.4-7.6 9.5-7.8 9.9-.3.5-32.8 35-32.8 35z" fill="#e0edfc"/><path d="m232.3 219q-.3-.7-.6-1.4-.4-.7-.8-1.3-.4-.7-.8-1.3-.4-.7-.8-1.3c-.6.7-1 1.2-1 1.3-.3.5-32.8 35-32.8 35s5.6 6 18.2 6.4c2-.5 31.3-9.3 18.6-37.4z" fill="#aed3fe"/><path d="m150.2 299.4s2.9-3.6 5.1-7l4.8 4s-4 8.4-6.2 10.8c-2.1 2.3-6.7-3.8-3.7-7.8z" fill="#fdaa8a"/><path d="m177.3 305.7 1.1-8.8h7.8s-.8 8.6-.8 9.5c-.1.9-8.1-.7-8.1-.7z" fill="#fdaa8a"/><path d="m177.8 300.4 8.8-.9q.1-.1.3-.1.2-.1.3-.2.1-.2.2-.3.1-.2.1-.4c.3-5.8 2.5-39.9 6-53.4l15.1-15.1-8.2-3.9-22.5 10.5c-2.8 1.5-4.6 4-4.3 7.2 1 12.5 3.2 42.6 3.3 55.7q0 .2 0 .4.1.1.2.2.2.2.3.2.2.1.4.1z" fill="#22577a"/><path d="m159.4 298.3q-1.2-.3-2.3-.7-1.1-.4-2.1-.9-1.1-.6-2.1-1.2-1-.6-1.9-1.3-.2-.1-.2-.2-.1-.2-.2-.3 0-.2 0-.3 0-.2.1-.3c1.6-4.3 11.1-29.7 20.2-44.3 0 0 7.1-6.9 33-18.8 25.9-11.8 29.8-7.6 29.8-7.6s5.7 22.5-23.4 31.9c0 0-10.1 3.4-18.8 3.5q-.7 0-1.5.1-.7.2-1.4.5-.7.3-1.3.7-.6.5-1.2 1c-3.7 3.9-11.7 13.7-25.7 37.8q-.1.1-.2.2-.1.1-.2.2-.2 0-.3 0-.2.1-.3 0z" fill="#22577a"/><path d="m152.9 303.7q-.2-.1-.5-.2-.2-.1-.4-.3-.1-.2-.2-.5-.1-.2-.1-.5c0-1.1 0-3.5-1.1-4.3-1.1-.9-3.2.6-4.2 1.3q-.1.1-.3.2-.1.1-.3.1-.1 0-.3.1-.1 0-.3 0h-2.2q-.6 0-1.3-.1-.7-.1-1.4-.3-.6-.1-1.3-.4-.6-.2-1.2-.5-.8-.4-1.6-.7-.8-.2-1.7-.3-.8-.1-1.7 0-.8 0-1.6.3-.3 0-.6.2-.3.2-.4.5-.2.3-.2.6-.1.4 0 .7c.6 1.8 2.4 5.1 8.1 8.1q.2 0 .3.1.1.1.2.1.2.1.3.1.1.1.3.1 1 .4 2 .7 1 .4 2 .9.9.4 1.9.9 1 .5 1.9 1.1c6 3.7 8.9-5.7 8.9-5.7s.9-1.5 0-2.2c-.6-.4-1.9 0-3-.1z" fill="#001c68"/><path d="m181.1 305.1q-.4 0-.7-.1-.3-.1-.6-.3-.2-.3-.3-.6-.1-.4 0-.7c.3-1.5.4-3.5-1.9-3.7 0 0-1.1-.3-2.5 2.4q-.3.7-.8 1.3-.4.5-1 1-.6.5-1.2.8-.6.3-1.4.5-.2 0-.4.1-.2 0-.4 0-.2 0-.4.1-.2 0-.4 0c-2.9 0-5.7 1.8-6.3 4.1q-.1.3 0 .6 0 .3.2.5.2.2.4.4.2.2.5.2c1.9.3 6.5.8 15.8.4q.4 0 .9 0 .4-.1.8-.1.4-.1.9-.2.4 0 .8-.1.4-.1.8-.2.5 0 .9 0 .4-.1.8-.1.5 0 .9 0c1.2 0 2.5-.7 2.5-1.8q-.1-.5-.1-1-.1-.5-.2-1-.1-.6-.2-1.1-.1-.5-.2-1c-.1-.3-.6-3.3-2.1-3.4-1.5 0-1.7.8-2.2 1.5q-.1.2-.2.4-.2.1-.3.3-.2.1-.4.3-.2.1-.4.2-.2.1-.4.1-.2.1-.4.1-.2.1-.4.1-.2 0-.4 0z" fill="#001c68"/><path d="m149.3 198.5c3.2 1.9 22 13.2 34.1 15.9v-8.1l12.1 5.5s0 6-.6 11.7q-.1 1.2-.7 2.3-.5 1-1.5 1.8-1 .7-2.2 1-1.2.3-2.4 0-1.3-.3-2.7-.7-1.3-.3-2.7-.8-1.3-.5-2.6-1.1-1.2-.6-2.5-1.2c-10.3-5.5-31.2-21.7-31.2-21.7s-6.1 1.1-9.7.1c0 0-1.6-.5-.3-1.2q.7 0 1.4.1.8 0 1.5 0 .7 0 1.5 0 .7 0 1.4-.1c.5 0-5.2-.3-7.1-1 0 0-1.3-.7-.2-1.3q.8.1 1.6.3.9.1 1.7.2.8.1 1.7.2.8.1 1.7.1c.5.1-5.1-.8-6.6-1.7 0 0-.8-1 .7-1.2q.6.3 1.2.5.6.2 1.3.4.6.2 1.2.4.7.1 1.3.2-.6-.2-1.2-.4-.5-.3-1.1-.5-.6-.2-1.2-.5-.6-.3-1.1-.6c-.4-.1-1.1-1.4.2-1.3 0 0 6.7 2.4 8.4 1.7 0 0 .4.2 1.6-1.4 1.3-1.6 1.4-2.8 3.3-2.8 0 0 .7.5 0 2q-.1.3-.3.5-.1.3-.2.6-.1.3-.2.6-.1.3-.1.6 0 .1 0 .2.1.2.2.3 0 .1.1.2.1.1.2.2z" fill="#fdaa8a"/><path d="m195.5 214.1c-.1-.3-5.4-3.8-13.8-4.6 0 0 .3-10 0-15-.4-5-.9-10.9 4.3-15.8l6.4-4.6 6.1 1c7.3.4 13.1 5.4 37.4 42.6q.2.4.3.8.1.4.1.8 0 .4-.2.8-.1.4-.4.7c-3.8 4.5-16.3 16.7-36.6 9.9 0 0-3.5-13.7-3.6-16.6z" fill="#ef9b11"/><path d="m185.1 176.8s8.6-2.8 11.4-4.7l-3-10.8s-4.6-25.6-20.9-9.4c-2.2 3 .9 5.8-4.2 10.2q-.1.1-.2.3 0 .1 0 .3 0 .1.1.2.1.2.3.2l2.3.9q.1.1.1.1.1.1.1.1.1.1.1.1.1.1.1.2.3.8.6 1.6.2.8.4 1.6.1.8.2 1.6.1.9.1 1.7.1.4.3.8.2.4.5.7.4.3.8.4.4.1.9 0c1.4-.3 3-.8 5.2-1.5q.3-.1.6-.1.3 0 .6 0 .3.1.5.2.3.2.5.4c.6.6 1.9 3.7 2.6 4.9z" fill="#fdaa8a"/><path d="m180.2 158.5s2.5-3.5 4.8-1.3c2.3 2.3-1.2 5.1-3.5 5.1 1.5 3.2.8 11 8.3 9.4q.8-.1 1.5-.3.8-.2 1.5-.5.8-.2 1.5-.6.7-.3 1.4-.7.1-.1.3-.3.1-.2.2-.4.1-.2.1-.4 0-.2 0-.5c-.4-1.4-1-4.6.2-6.7 1.5-2.6 3.2-9-.2-16.2q-.2-.4-.5-.8-.2-.3-.5-.7-.3-.3-.7-.5-.3-.3-.7-.5c-3.2-1.6-10.7-4.4-18-.5q.4-.2.7-.5.4-.3.8-.6.3-.3.6-.6.3-.3.6-.7.1-.2.1-.3 0-.2-.1-.3-.1-.2-.3-.2-.2-.1-.3 0c-1.2.2-3.5 1.1-7.1 3.8q.2-.2.4-.4.3-.3.5-.5.2-.3.3-.5.2-.3.4-.6 0-.1 0-.3 0-.1-.1-.2-.1-.1-.2-.2-.2 0-.3 0c-2.2.8-7.3 3-6.2 8.2 0 0 1 5 11.3 5.1q.5 0 .9.2.4.2.7.5.3.3.5.7.2.4.2.8 0 .4.1.8 0 .4.1.8.1.4.3.7.2.4.4.7z" fill="#22577a"/><path d="m183.6 181.6s-1.7-4.2 3.4-6.7c0 0 12.1-6.3 13.1.4q-2.2-.1-4.5.3-2.2.4-4.4 1.2-2.1.8-4 2-2 1.3-3.6 2.8z" fill="#e9d924"/><path d="m163.2 144.5q.6-.5 1.2-.9.6-.4 1.3-.6.8-.2 1.5-.2.8 0 1.5.2c.5.1.7-.6.2-.7-2.2-.5-4.7-.1-6.2 1.7-.3.3.2.9.5.5z" fill="#001c68"/><path d="m201.2 152q-.1-.4-.1-.7-.1-.3-.2-.6-.1-.4-.2-.7-.2-.3-.4-.5c-1-1.5-2.7-1.8-4.4-1.5-.5.1-.3.8.2.7 1.5-.2 3 0 3.8 1.5q.1.2.2.4.1.2.2.5 0 .2.1.4 0 .2 0 .5c0 .5.8.5.8 0z" fill="#001c68"/><g fill="#d5e7ff"><path d="m185.5 118.2c.6-.1 1.7.1 4.4 3.8 4.2 5.8 5.7 9.8 5.1 13q0 .3-.2.5-.1.3-.3.4-.2.2-.5.3-.3.1-.5.1-.1 0-.1 0 0 0-.1 0 0 0 0 0-.1 0-.1 0c-1-.2-2.4-.9-3.6-3.3l.6-.4c1.2 2.2 2.3 2.8 3.1 2.9q.2.1.4 0 .1 0 .2-.1.2-.1.3-.2.1-.2.1-.3c.5-3.1-1-6.9-5-12.4-2.6-3.6-3.5-3.6-3.6-3.6"/><path d="m185.7 119c-.2 0-.3.4-.3.4q.1 2 .5 3.9.5 1.9 1.3 3.6.9 1.8 2.1 3.3 1.1 1.5 2.6 2.8l-.4.6q-1.6-1.3-2.8-2.9-1.3-1.6-2.2-3.5-.8-1.8-1.3-3.8-.5-1.9-.5-4 0-.2 0-.4.1-.1.2-.3.1-.2.2-.3.2-.1.4-.2"/><path d="m190.5 134.5q-.1 0-.3-.1-.1 0-.3-.1-.1 0-.3-.1-.1-.1-.2-.2c-1.8-1.5-2.2-6.5-2.3-7.3q0 0 0-.1-.1 0-.1-.1 0 0 0-.1 0 0-.1-.1c-2.7.3-6.1.9-6.6 1.8q0 0 0 0 0 .1 0 .1 0 .1 0 .1 0 0 0 .1c.8 1.5 4.7 1.5 6.1 1.3l.1.8c-.6 0-5.7.5-6.8-1.8q-.1-.1-.1-.2-.1-.2-.1-.3 0-.1.1-.3 0-.1.1-.2c.7-1.3 4.6-1.9 7-2.1-.3-1.7-.3-4.3.8-5.4.6-.5 1.6-.9 3.3.3q.4.2.7.4.4-.4.9-.7.4-.2 1-.3.5-.1 1-.1.6.1 1 .3c4 1.7 3.2 4.7 3.2 4.8q0 .2-.2.5-.1.3-.3.5-.1.2-.4.4-.2.2-.4.4-.4.2-.8.3-.5.2-.9.2-.5 0-.9 0-.5-.1-.9-.2-.3-.1-.6-.2c-1.5 1.4-3.5 3-4.3 2.2q-.1-.1-.2-.2 0-.1-.1-.2 0-.1 0-.2 0-.1 0-.2c.1-.7 1.1-1.3 1.7-1.6q-.1-.2-.1-.4-.2 0-.4 0-.2 0-.4-.1-.2 0-.3 0-.2 0-.4 0-.5.1-1 .1 0 0 0 .1 0 0 .1 0 0 0 0 0 0 .1 0 .1l.1.1v.1c.1 1.5.6 5.7 1.9 6.8q.1.1.2.2.1 0 .2 0 .1.1.2.1.1 0 .2 0l.1.8q-.1 0-.2 0zm.5-8.2q0 .2.1.5v.3l-.2.1c-.7.3-1.5.8-1.6 1.1 0 .1 0 .1.1.2.2.1 1.5-.6 2.9-1.9q-.7-.2-1.3-.3zm2.8-.1h.2q.4.2.7.2.4.1.8 0 .3 0 .7-.1.4-.1.7-.2.2-.2.3-.3.2-.2.3-.3.2-.2.3-.4 0-.2.1-.4c0-.1.6-2.5-2.7-3.9q-.4-.2-.8-.2-.5-.1-.9 0-.4.1-.7.3-.4.2-.7.5.4.3.7.6.3.4.6.8.3.4.5.8.2.5.3.9 0 .2 0 .4 0 .3 0 .5 0 .2-.1.4-.1.1-.2.3zm-2.9-.6q.8.1 2 .4.2-.2.4-.3 0-.1.1-.3 0-.1 0-.2 0-.1 0-.3 0-.1 0-.2-.1-.4-.3-.8-.2-.3-.4-.7-.2-.3-.5-.6-.3-.3-.6-.5-.3.4-.4.8-.2.4-.3.9-.1.4-.1.9 0 .4.1.9zm-2.1-5.1q-.2 0-.3 0-.1 0-.2.1-.1 0-.1.1-.1 0-.2.1c-.9.9-.9 3.3-.6 4.7q.8 0 1.2-.1.1 0 .3 0 .2 0 .4 0 .2 0 .4 0 .2.1.4.1-.1-.5 0-1 0-.5.1-1 .1-.5.3-1 .2-.5.5-.9-.3-.2-.6-.4-.2-.2-.4-.3-.2-.1-.4-.2-.2-.1-.4-.1-.2-.1-.4-.1z" fill-rule="evenodd"/><path d="m190.1 131.5q-.5 0-1 0-.5 0-1-.1-.4 0-.9-.1-.5-.1-.9-.3-.5-.1-1-.3-.4-.3-.7-.6-.4-.3-.7-.7-.2-.5-.4-.9c-.3-1.1-.2-2.8 2-4.6q.3-.2.7-.4.4-.2.7-.3.4-.1.8-.1.5 0 .9.1c2.9.7 5.1 5 5.2 5.2l-.7.3s-2.1-4.2-4.7-4.8q-.3-.1-.7 0-.3 0-.6 0-.3.1-.6.3-.3.1-.5.3-2.3 1.8-1.7 3.8.1.3.3.7.2.3.5.6.3.2.6.4.4.2.8.3c4.8 1.4 13-1 13.9-1.4 1.2-.4 1.8-1.1 1.7-1.4 0-.1 0-.1-.1-.1-3.3-.9-6.8-1.6-6.8-1.6l.1-.7s3.5.7 6.9 1.5q.1.1.3.1.1.1.2.2.1.1.1.2.1.2.1.3c0 .8-.9 1.7-2.2 2.2q-1.3.5-2.6.8-1.3.3-2.6.6-1.4.2-2.7.3-1.4.2-2.7.2z"/><path d="m182.3 125.3q-.1-.2-.3-.4-.2-.2-.3-.5-.1-.3-.2-.5 0-.3-.1-.6l.8-.1q0 .2.1.4 0 .2.1.4.1.2.2.4.1.2.2.4z"/><path d="m201.4 124.4-.7-.4q.2-.3.3-.5.1-.3.2-.5 0-.3.1-.5 0-.3.1-.5h.7q0 .3-.1.6 0 .3-.1.6-.1.3-.2.6-.2.3-.3.6z"/></g><path d="m125.9 177.9h-10.9q-.6.1-1.2-.1-.5-.2-.9-.6-.5-.4-.7-1-.3-.5-.3-1.1l-.8-10.9q0-.6.2-1.2.2-.5.6-1 .4-.4.9-.6.5-.3 1.1-.3l11-.1q.6 0 1.1.2.6.2 1 .6.4.4.7.9.2.6.3 1.1l.8 11q0 .6-.2 1.1-.2.6-.6 1-.4.4-.9.7-.6.2-1.2.3z" fill="#fff"/><path d="m157.1 165.2h-23.5q-.2 0-.5-.1-.2-.1-.4-.3-.2-.2-.3-.4-.1-.3-.1-.5 0-.3.1-.5.1-.3.3-.5.2-.1.4-.2.3-.1.5-.1h23.5q.2 0 .5.1.2.1.4.2.2.2.3.5.1.2.1.5 0 .2-.1.5-.1.2-.3.4-.2.2-.4.3-.3.1-.5.1z" fill="#fff"/><path d="m157.3 170.3h-23.4q-.3 0-.5-.1-.2-.1-.4-.2-.2-.2-.3-.5-.1-.2-.1-.5 0-.2.1-.5.1-.2.3-.4.2-.2.4-.3.2-.1.5-.1h23.4q.3 0 .5.1.3.1.4.3.2.2.3.4.1.3.1.5 0 .3-.1.5-.1.3-.3.5-.1.1-.4.2-.2.1-.5.1z" fill="#fff"/><path d="m145.1 175.4h-11q-.2 0-.5-.1-.2-.1-.4-.3-.2-.2-.3-.4-.1-.3-.1-.5 0-.3.1-.5.1-.3.3-.5.2-.1.4-.2.3-.1.5-.1h11q.2 0 .5.1.2.1.4.2.2.2.3.5.1.2.1.5 0 .2-.1.5-.1.2-.3.4-.2.2-.4.3-.3.1-.5.1z" fill="#fff"/><path d="m123.8 175.5-9.9-9.9q-.2-.2-.3-.4-.1-.3-.1-.5 0-.3.1-.5.1-.2.3-.4.2-.2.4-.3.2-.1.5-.1.3 0 .5.1.2.1.4.3l9.9 9.9q.2.1.3.4.1.2.1.5 0 .2-.1.5-.1.2-.3.4-.2.2-.4.3-.3.1-.5.1-.3 0-.5-.1-.3-.1-.4-.3z" fill="#ef9b11"/><path d="m114 173.6 10-10.1q.2-.2.5-.3.2-.1.5-.1.2 0 .5.1.2.1.4.3.2.2.3.4.1.2.1.5 0 .3-.1.5-.1.2-.3.4l-10.1 10.1q-.2.2-.4.3-.3.1-.5.1-.3 0-.5-.1-.2-.1-.4-.3-.2-.2-.3-.4-.1-.3-.1-.5 0-.3.1-.5.1-.3.3-.4z" fill="#ef9b11"/><path d="m79.4 132 6.8 12 4.9-3.7 5 6.3-4.1-10.2-4.2 2.9-3.1-9.8z" fill="#ef9b11"/><path d="m76.9 149.9 10.5 3.6.9-4.8 6.4 1.1-7.9-3.9-1 4-7.1-4.3z" fill="#ef9b11"/><path d="m95 126.9-1.1 11 4.9-.2.4 6.5 2-8.6-4.1-.1 2.4-7.8z" fill="#ef9b11"/></svg>