<svg height="29" viewBox="0 0 29 29" width="29" xmlns="http://www.w3.org/2000/svg" xmlns:xlink="http://www.w3.org/1999/xlink"><clipPath id="a"><path d="m0 0h28.4v28.4h-28.4z"/></clipPath><g clip-path="url(#a)"><g fill="#003857"><path d="m22.9 27.3q.1 0 .2.1.1.1.2.2 0 .1 0 .2 0 .1 0 .2 0 .1-.1.2 0 .1-.1.1-.1.1-.1.1h-22.7q0 0-.1-.1-.1 0-.1-.1 0-.1-.1-.1 0-.1 0-.2 0-.1 0-.1 0-.1 0-.1.1-.1.1-.1 0-.1.1-.1 0-.1.1-.1 0-.1.1-.1 0 0 .1 0 0 0 .1 0 .5 0 1.1 0h1.1q.5 0 .5-.5 0-3.3 0-6.5c0-.4-.2-.4-.3-.4q-.1 0-.1 0-.1 0-.1 0-.1 0-.2 0 0 .1-.1.1-.1 0-.2 0 0 0-.1 0-.4 0-.7-.2-.4-.1-.7-.3-.3-.3-.5-.6-.2-.3-.3-.7 0-.1 0-.1 0-.1 0-.1 0-.1 0-.1 0-.1 0-.1v-2.1q0-2 0-4.1 0-.7.3-1.3.2-.6.7-1.1.4-.5 1-.8.6-.4 1.2-.5.1 0 .3 0 .1 0 .2 0 .2 0 .3 0 .1 0 .2 0h.4q0 0 .1 0 .1 0 .1 0 .1.1.2.1 0 0 .1.1c.2.1 1 .8 1 .9q.1.1.3.2.1 0 .2.1.1 0 .3.1.1 0 .2 0 .2 0 .3 0 .1-.1.3-.1.1-.1.2-.2.1 0 .2-.1.6-.5 1.1-.9.1-.1.1-.1.1 0 .1-.1.1 0 .1 0 .1 0 .1 0 .3 0 .7 0 .2-.1.5 0 .2 0 .5 0 .3.1.5.2.3 0 .5.2.2 0 .4.1.1.1.3.3.2.1.3.2.2.1.3.3.3.3.6.6.3.2.6.5 0 .1.1.1 0 .1.1.1.1 0 .1 0 .1.1.2 0l1.4.1.7-.1q.1 0 .2.1.1 0 .2 0 .1 0 .2 0 .1.1.2.1.1 0 .1 0 .1 0 .1 0 .1 0 .1 0 .1 0 .1 0 0 0 .1-.1 0 0 0 0c.6-.7 3.3-3.7 3.3-3.7q0-.1.1-.1.1-.1.1-.1.1-.1.2-.1.1 0 .1 0 .1 0 .2 0 .1 0 .2.1.1 0 .1.1.1.1.1.2 0 .1 0 .1 0 .1 0 .2 0 .1 0 .2-.1 0-.1.1-.7.8-1.4 1.5l-.5.7-1.5 1.5q0 .1-.1.2 0 0 0 .1 0 .1 0 .2 0 .1 0 .1.1.3.2.6 0 .2 0 .5 0 .3-.1.5-.1.3-.3.5-.1.2-.3.4-.2.2-.5.3-.3.2-.5.2-.3.1-.6.1h-3.3q-.2 0-.4 0-.2-.1-.5-.2-.2-.1-.4-.2-.2-.1-.3-.3-.5-.5-1-1 0 0 0 0-.1 0-.1-.1 0 0-.1 0 0 0 0 0h-.1q-.1 0-.1.1 0 0-.1 0 0 .1 0 .1 0 0 0 .1v13.2c0 .5.1.6.6.6h11.1q.1 0 .2 0zm-12.7-14.9q.1-.1.3-.2.2-.1.3-.2.2 0 .4 0 .1 0 .3 0 .1 0 .2.1.1 0 .2.1.1 0 .2.1.5.4.9.9l.3.3q.1.1.1.1.1.1.2.1.1.1.2.1.1 0 .2 0 .9 0 1.8 0 .8 0 1.7 0 .3 0 .6-.2.2-.2.3-.4.1-.3.1-.6-.1-.3-.3-.5-.1-.1-.2-.2-.1 0-.2-.1-.1 0-.2 0-.1-.1-.3-.1h-2.3q-.1.1-.2 0-.1 0-.3 0-.1-.1-.2-.2-.1 0-.2-.1-.4-.5-.8-.9-.2-.2-.5-.5-.1-.1-.2-.2-.1-.1-.3-.2-.1-.1-.3-.2-.1 0-.3-.1-.1-.1-.3-.1-.1-.1-.3-.1-.1 0-.3 0-.1-.1-.3-.1-.2 0-.4.1-.2 0-.4.1-.1.1-.3.2-.1.1-.3.3 0 0 0 0-.1.1-.1.1-.1 0-.1.1l-.1.1q-.2.1-.4.2-.2.1-.4.2-.2.1-.4.1-.2.1-.5.1-.2 0-.4-.1-.2 0-.4-.1-.2 0-.4-.2-.2-.1-.4-.2-.3-.3-.7-.6l-.2-.2q0 0-.1 0 0-.1 0-.1-.1 0-.1 0-.1 0-.2 0h-.4q-.1 0-.1 0-.1 0-.1 0-.1 0-.2 0 0 0-.1 0-.4.1-.8.3-.4.3-.7.6-.3.4-.5.9-.1.4-.1.9-.1 2.9 0 5.9 0 .1 0 .2 0 .1 0 .2.1.1.1.2.1.1.2.2 0 .1.1.1.1.1.2.1.1.1.2.1.1 0 .2 0 .2 0 .4-.1.2-.1.4-.2.1-.2.2-.4.1-.2.1-.4v-4.9q0 0 0 0 0-.1 0-.1 0-.1 0-.1 0 0 0-.1 0-.1 0-.2.1-.1.2-.2 0 0 .1-.1.1 0 .2 0h.1q.1 0 .2 0 .1 0 .1.1.1.1.2.2 0 .1 0 .2 0 0 0 .1 0 0 .1 0 0 .1 0 .1 0 .1 0 .1v14q0 0 0 .1 0 0 0 .1 0 0 0 0 0 .1 0 .1.1.1.1.1 0 0 .1 0 0 .1.1.1 0 0 .1 0h.4.7c.5 0 .6-.1.6-.6v-8.2q0-.2 0-.4 0-.1 0-.2 0-.1.1-.1.1-.1.2-.1 0-.1.1-.1 0 0 .1 0 0 0 0 0 .2 0 .3.1.1 0 .2.1.1.1.1.2 0 .1 0 .2v8.7q0 .1 0 .1.1.1.1.2.1 0 .1 0 .1.1.2.1h1.4q0 0 .1-.1.1 0 .1 0 .1-.1.1-.2 0 0 0-.1v-13.4q0-.1 0-.2 0-.1.1-.2 0-.1 0-.2.1-.1.1-.2.1-.2.2-.3z" fill-rule="evenodd"/><path d="m13.4 18.8q-.1 0-.2 0 0-.1-.1-.1-.1 0-.2-.1 0 0-.1-.1 0-.1 0-.1-.1-.1-.1-.2 0 0 0-.1.1-.1.1-.1 0-.1 0-.2.1 0 .1-.1.1 0 .2 0 0-.1.1-.1.1 0 .1 0 .1 0 .1 0 .1 0 .2 0 0 0 .1 0h12.5q.1 0 .2 0 .2 0 .3-.1.1 0 .2-.1.1-.1.2-.2.1-.1.1-.2 0-.1 0-.2 0 0 .1-.1 0-.1 0-.1 0-.1 0-.2v-14q0-.1 0-.2 0 0 0-.1-.1-.1-.1-.1 0-.1 0-.2 0-.1-.1-.2-.1-.1-.2-.2-.1-.1-.2-.1-.1-.1-.3-.1-.1 0-.2 0h-13.7q-.1 0-.1 0-.1 0-.2 0 0 0-.1 0 0 0-.1 0-.1 0-.2-.1-.1-.1-.2-.1 0-.1-.1-.2 0-.1 0-.2 0-.1.1-.2 0-.1.1-.2.1-.1.2-.1.1-.1.2-.1 0 0 .1 0h7.6q3.1 0 6.3 0 .4 0 .8.1.3.1.6.3.4.2.6.5.2.4.3.7v15.6q-.1.3-.2.6-.2.2-.4.4-.2.2-.5.4-.3.1-.6.1 0 .1-.1.1 0 0 0 0-.1 0-.1 0-.1 0-.1 0h-7.6z"/><path d="m8.4.3q.7.2 1.1.7.5.5.8 1.1.2.6.2 1.3 0 .6-.2 1.3-.3.6-.8 1.1-.4.4-1.1.7-.6.3-1.3.3-.6 0-1.2-.3-.7-.3-1.1-.7-.5-.5-.8-1.1-.2-.7-.2-1.3 0-.4 0-.7.1-.3.2-.6.1-.3.3-.6.2-.3.4-.5.3-.2.5-.4.3-.2.6-.3.3-.2.6-.2.3-.1.6-.1h.1q.7 0 1.3.3zm-.4 5.1q.4-.2.7-.5.3-.3.5-.7.1-.4.1-.8c0-.6-.2-1.1-.6-1.6-.4-.4-1-.6-1.6-.6-.5 0-1.1.2-1.5.6s-.6 1-.7 1.6q0 .4.2.8.2.4.5.7.3.3.7.5.4.2.8.2.5 0 .9-.2z" fill-rule="evenodd"/><path d="m15 4.5q0 0-.1 0-.1-.1-.2-.1 0 0-.1-.1-.1-.1-.1-.1 0-.1-.1-.2 0-.1 0-.1 0-.1.1-.2 0-.1 0-.1.1-.1.1-.1 0-.1.1-.1 0 0 .1-.1.1 0 .1 0h.5 6.8q0 0 .1 0 0 0 .1 0 .1 0 .1 0 .1 0 .1 0 .1 0 .2.1.1 0 .2.1.1.1.1.2 0 .1 0 .2 0 .2 0 .3-.1.1-.1.1-.1.1-.2.1-.1.1-.2.1h-1.7z"/><path d="m15.1 7.8c-.4 0-.7-.3-.7-.6q0-.1 0-.1 0-.1.1-.1 0-.1 0-.1 0-.1.1-.1 0-.1.1-.1.1 0 .1-.1.1 0 .2 0 0 0 .1 0 .9 0 1.8 0 .9 0 1.8 0 .1 0 .2 0 0 0 .1 0 0 .1.1.1.1 0 .1.1 0 0 .1.1 0 0 0 .1.1 0 .1.1 0 0 0 .1 0 .1-.1.2 0 .1-.1.2-.1.1-.2.1-.2.1-.3.1h-.7z"/></g><path d="m9.3 3.4c0 .6-.2 1.1-.6 1.5s-1 .7-1.6.7-1.1-.3-1.5-.7-.7-.9-.6-1.5c0-.6.2-1.2.6-1.6s1-.6 1.5-.6c.6 0 1.2.2 1.6.6.4.5.6 1 .6 1.6z" fill="#ef9b11"/><path d="m18.4 13.1q0 .2-.1.3-.1.1-.2.2-.1.1-.3.2-.1 0-.3 0-.9 0-1.7 0-.9 0-1.8 0-.1 0-.2 0-.1 0-.2-.1-.1 0-.2-.1 0-.1-.1-.1l-.3-.3q-.4-.5-.9-.9-.2-.2-.5-.3-.3-.1-.6 0-.3.1-.6.2-.3.2-.4.5 0 .1-.1.2 0 .1 0 .2-.1.1-.1.2 0 .1 0 .2v13.4q0 .1 0 .1 0 .1-.1.2 0 0-.1 0-.1.1-.1.1h-1.4q-.1 0-.2-.1 0 0-.1 0 0-.1-.1-.2 0 0 0-.1v-8.7q0-.1 0-.2 0-.1-.1-.2-.1-.1-.2-.1-.1-.1-.3-.1 0 0 0 0-.1 0-.1 0-.1 0-.1.1-.1 0-.2.1-.1 0-.1.1 0 .1 0 .2 0 .2 0 .4v8.2c0 .5-.1.6-.6.6h-.7c-.1 0-.2 0-.4 0q-.1 0-.1 0-.1 0-.1-.1-.1 0-.1 0 0 0-.1-.1 0 0 0-.1 0 0 0 0 0-.1 0-.1 0-.1 0-.1v-14q0 0 0-.1 0 0 0-.1-.1 0-.1 0 0-.1 0-.1 0-.1 0-.2-.1-.1-.2-.2 0-.1-.1-.1-.1 0-.2 0h-.1q-.1 0-.2 0-.1.1-.1.1-.1.1-.2.2 0 .1 0 .2 0 .1 0 .1 0 0 0 .1 0 0 0 .1 0 0 0 0v4.9q0 .2-.1.4-.1.2-.2.4-.2.1-.4.2-.2.1-.4.1-.1 0-.2 0-.1 0-.2-.1-.1 0-.2-.1-.1 0-.1-.1-.1-.1-.2-.2 0-.1-.1-.2 0-.1 0-.2 0-.1 0-.2-.1-3 0-5.9 0-.5.1-.9.2-.5.5-.9.3-.3.7-.6.4-.2.8-.3.1 0 .1 0 .1 0 .2 0 0 0 .1 0 0 0 .1 0h.4q.1 0 .1 0 .1 0 .1 0 .1 0 .1.1.1 0 .1 0l.2.2q.4.3.7.6.2.1.4.2.2.2.4.2.2.1.4.1.2.1.4.1.3 0 .5-.1.2 0 .4-.1.2-.1.4-.2.2-.1.4-.2l.1-.1q0-.1.1-.1 0 0 0 0 .1 0 .1-.1 0 0 0 0 .2-.2.3-.3.2-.1.3-.2.2-.1.4-.1.2-.1.4-.1.2 0 .3.1.2 0 .3 0 .2 0 .3.1.2 0 .3.1.2.1.3.1.2.1.3.2.2.1.3.2.1.1.2.2.3.3.5.5.4.4.8.9.1.1.2.1.1.1.2.2.2 0 .3 0 .1 0 .3 0h2.3q.1 0 .2.1.1 0 .2 0 .1.1.2.1.1.1.2.2.1.1.2.2.1.1.1.3 0 .1 0 .3 0 .1-.1.2z" fill="#ef9b11"/></g></svg>