<svg height="32" viewBox="0 0 32 32" width="32" xmlns="http://www.w3.org/2000/svg"><g fill="#040505"><path d="m6.2 15.5q0 .1 0 .2-.1.1-.1.2-.1.1-.2.1-.1 0-.2 0-.2.1-.5 0-.3.1-.6 0-.1 0-.2 0-.1 0-.1-.1-.1-.1-.1-.2-.1-.1-.1-.2 0-.1.1-.2 0-.1.1-.1.1-.1.1-.1.1-.1.2-.1.6 0 1.1 0 .1 0 .2.1.1 0 .2.1 0 0 .1.1 0 .1 0 .2z"/><path d="m8.9 9q-.1 0-.1.1-.1 0-.2 0-.1 0-.1 0-.1 0-.2-.1-.1-.1-.2-.2-.2-.1-.3-.2-.1-.1-.2-.3-.1-.1-.2-.2 0-.1-.1-.1 0-.1 0-.2 0 0 0-.1.1-.1.1-.1 0-.1.1-.2.1 0 .2-.1 0 0 .1 0 .1 0 .2.1.2.1.3.2.2.1.3.2.1.2.2.3.1.1.2.3.1.1.1.2 0 0 0 .1 0 .1-.1.2 0 0-.1.1z"/><path d="m9.1 22.5c0 .3-.9 1.3-1.3 1.3q0 0-.1-.1-.1 0-.1 0-.1-.1-.1-.1-.1-.1-.1-.1 0-.1-.1-.2 0 0 0-.1 0-.1.1-.1 0-.1 0-.2.4-.4.9-.8 0-.1.1-.1.1 0 .1 0 .1 0 .2 0 .1 0 .1 0 .1.1.1.1.1.1.1.1.1.1.1.2 0 0 0 .1z"/><path d="m16.1 5.7q0 .1-.1.2 0 .1-.1.2-.1 0-.2.1-.1 0-.2 0-.1 0-.2 0 0-.1-.1-.1-.1-.1-.1-.2-.1-.1-.1-.2 0-.5 0-1.1 0-.1.1-.2 0 0 .1-.1.1-.1.1-.1.1-.1.2-.1.1 0 .2.1.1 0 .2.1.1.1.1.1 0 .1.1.2 0 0 0 0 0 .1 0 .1v.5q0 .2 0 .5z"/><path d="m16.1 26.5q-.1.1-.1.1 0 .1-.1.2-.1.1-.2.1-.1 0-.2 0-.1 0-.2 0 0 0-.1-.1-.1-.1-.1-.2-.1 0-.1-.1 0-.6 0-1.1 0-.1.1-.2 0-.1.1-.2 0-.1.1-.1.1 0 .2 0 .1 0 .2 0 .1 0 .2.1.1.1.1.2.1.1.1.2 0 .2 0 .5 0 .3 0 .6z"/><path d="m21.1 10.7q0 0 0 0-.1.1-.1.1 0 0-.1.1 0 0 0 0-1.7 1.7-3.4 3.4 0 0 0 .1-.1 0-.1.1 0 .1 0 .1 0 .1 0 .1c.3.7.2 1.4-.1 2-.4.6-1.1.9-1.8.9s-1.3-.3-1.7-.9-.4-1.3-.2-2q.1 0 .1-.1 0-.1 0-.1 0-.1-.1-.2 0 0-.1-.1-.9-.9-1.9-1.9-.1 0-.1-.1-.1-.1-.1-.2 0-.1 0-.2 0-.1.1-.2 0 0 .1-.1 0 0 .1-.1.1 0 .2 0 0 0 .1 0 .1 0 .1 0 .1.1.1.1.1 0 .1.1.1 0 .1 0 1 1 1.9 2 0 0 .1 0 0 .1.1.1.1 0 .1 0 .1 0 .1-.1.2 0 .4-.1.2 0 .5 0 .2 0 .4 0 .2.1.4.2 0 0 .1 0 .1 0 .1 0 .1 0 .1 0 .1-.1.1-.1 1.7-1.7 3.4-3.4 0-.1 0-.1.1 0 .1 0 0-.1 0-.1.1 0 .1 0 .1-.1.2-.1.1-.1.2-.1.1 0 .1.1.1 0 .2.1.1.1.1.2 0 0 0 .1 0 .1 0 .2 0 .1-.1.2z"/><path d="m23.7 8.1q-.1.1-.2.3-.1.1-.3.2-.1.1-.2.2-.1.1-.3.2 0 0 0 .1 0 0-.1 0 0 0 0 0 0 0-.1 0 0 0-.1 0-.1 0-.2-.1 0 0-.1-.1 0 0-.1-.1 0 0 0-.1 0-.1 0-.2 0 0 0-.1 0-.1.1-.1.1-.1.2-.3.1-.1.2-.2.1-.1.2-.2.1-.1.2-.2.1 0 .2-.1.1 0 .1 0 .1 0 .2.1.1 0 .2.1 0 0 .1.1 0 .1.1.2 0 0-.1.1 0 .1 0 .2z"/><path d="m23.8 23.2q0 .1-.1.1 0 .1 0 .2-.1.1-.1.1-.1.1-.1.1-.1 0-.2 0-.1.1-.1.1-.1-.1-.2-.1 0 0-.1-.1-.1-.1-.2-.2-.1-.1-.2-.2-.1-.1-.2-.2-.1-.1-.2-.2-.1-.1-.1-.1 0-.1 0-.2 0-.1 0-.2 0-.1.1-.1.1-.1.1-.2.1 0 .2 0 .1 0 .2 0 .1 0 .1.1.2.1.3.2.1.1.2.2.2.1.3.2.1.2.2.3 0 0 0 0 0 .1 0 .1.1.1.1.1z"/><path d="m26.9 15.5q0 .1 0 .2 0 .1-.1.2-.1.1-.2.1 0 0-.1 0-.6.1-1.1 0-.3 0-.4-.1-.2-.2-.2-.4 0-.2.2-.3.1-.2.4-.2.2 0 .5 0 .3 0 .6 0 .1 0 .1.1.1 0 .2.1.1.1.1.1 0 .1 0 .2z"/></g><path d="m21.5 1.2c1.9.8 3.6 1.9 5.1 3.4 1.4 1.4 2.6 3.1 3.4 5 .7 1.9 1.1 4 1.1 6 0 6.3-3.8 12-9.6 14.4-5.8 2.3-12.5 1-17-3.4-4.4-4.5-5.7-11.2-3.3-17s8-9.6 14.3-9.6c2.1 0 4.1.4 6 1.2zm-.4 27.7c1.7-.7 3.3-1.8 4.7-3.1 1.3-1.4 2.4-2.9 3.1-4.7.8-1.8 1.1-3.7 1.1-5.6 0-5.8-3.5-11.1-8.9-13.4-5.4-2.2-11.7-1-15.8 3.2-4.2 4.1-5.4 10.4-3.2 15.8 2.3 5.4 7.5 8.9 13.4 8.9 1.9 0 3.8-.3 5.6-1.1z" fill="#124668" fill-rule="evenodd"/><path d="m6.2 15.5q0 .1 0 .2-.1.1-.1.2-.1.1-.2.1-.1 0-.2 0-.2.1-.5 0-.3.1-.6 0-.1 0-.2 0-.1 0-.1-.1-.1-.1-.1-.2-.1-.1-.1-.2 0-.1.1-.2 0-.1.1-.1.1-.1.1-.1.1-.1.2-.1.6 0 1.1 0 .1 0 .2.1.1 0 .2.1 0 0 .1.1 0 .1 0 .2z" fill="#f89e1b"/><path d="m8.9 9q-.1 0-.1.1-.1 0-.2 0-.1 0-.1 0-.1 0-.2-.1-.1-.1-.2-.2-.2-.1-.3-.2-.1-.1-.2-.3-.1-.1-.2-.2 0-.1-.1-.1 0-.1 0-.2 0 0 0-.1.1-.1.1-.1 0-.1.1-.2.1 0 .2-.1 0 0 .1 0 .1 0 .2.1.2.1.3.2.2.1.3.2.1.2.2.3.1.1.2.3.1.1.1.2 0 0 0 .1 0 .1-.1.2 0 0-.1.1z" fill="#f89e1b"/><path d="m9.1 22.5c0 .3-.9 1.3-1.3 1.3q0 0-.1-.1-.1 0-.1 0-.1-.1-.1-.1-.1-.1-.1-.1 0-.1-.1-.2 0 0 0-.1 0-.1.1-.1 0-.1 0-.2.4-.4.9-.8 0-.1.1-.1.1 0 .1 0 .1 0 .2 0 .1 0 .1 0 .1.1.1.1.1.1.1.1.1.1.1.2 0 0 0 .1z" fill="#f89e1b"/><path d="m16.1 5.7q0 .1-.1.2 0 .1-.1.2-.1 0-.2.1-.1 0-.2 0-.1 0-.2 0 0-.1-.1-.1-.1-.1-.1-.2-.1-.1-.1-.2 0-.5 0-1.1 0-.1.1-.2 0 0 .1-.1.1-.1.1-.1.1-.1.2-.1.1 0 .2.1.1 0 .2.1.1.1.1.1 0 .1.1.2 0 0 0 0 0 .1 0 .1v.5q0 .2 0 .5z" fill="#f89e1b"/><path d="m16.1 26.5q-.1.1-.1.1 0 .1-.1.2-.1.1-.2.1-.1 0-.2 0-.1 0-.2 0 0 0-.1-.1-.1-.1-.1-.2-.1 0-.1-.1 0-.6 0-1.1 0-.1.1-.2 0-.1.1-.2 0-.1.1-.1.1 0 .2 0 .1 0 .2 0 .1 0 .2.1.1.1.1.2.1.1.1.2 0 .2 0 .5 0 .3 0 .6z" fill="#f89e1b"/><path d="m21.1 10.7q0 0 0 0-.1.1-.1.1 0 0-.1.1 0 0 0 0-1.7 1.7-3.4 3.4 0 0 0 .1-.1 0-.1.1 0 .1 0 .1 0 .1 0 .1c.3.7.2 1.4-.1 2-.4.6-1.1.9-1.8.9s-1.3-.3-1.7-.9-.4-1.3-.2-2q.1 0 .1-.1 0-.1 0-.1 0-.1-.1-.2 0 0-.1-.1-.9-.9-1.9-1.9-.1 0-.1-.1-.1-.1-.1-.2 0-.1 0-.2 0-.1.1-.2 0 0 .1-.1 0 0 .1-.1.1 0 .2 0 0 0 .1 0 .1 0 .1 0 .1.1.1.1.1 0 .1.1.1 0 .1 0 1 1 1.9 2 0 0 .1 0 0 .1.1.1.1 0 .1 0 .1 0 .1-.1.2 0 .4-.1.2 0 .5 0 .2 0 .4 0 .2.1.4.2 0 0 .1 0 .1 0 .1 0 .1 0 .1 0 .1-.1.1-.1 1.7-1.7 3.4-3.4 0-.1 0-.1.1 0 .1 0 0-.1 0-.1.1 0 .1 0 .1-.1.2-.1.1-.1.2-.1.1 0 .1.1.1 0 .2.1.1.1.1.2 0 0 0 .1 0 .1 0 .2 0 .1-.1.2z" fill="#f89e1b"/><path d="m23.7 8.1q-.1.1-.2.3-.1.1-.3.2-.1.1-.2.2-.1.1-.3.2 0 0 0 .1 0 0-.1 0 0 0 0 0 0 0-.1 0 0 0-.1 0-.1 0-.2-.1 0 0-.1-.1 0 0-.1-.1 0 0 0-.1 0-.1 0-.2 0 0 0-.1 0-.1.1-.1.1-.1.2-.3.1-.1.2-.2.1-.1.2-.2.1-.1.2-.2.1 0 .2-.1.1 0 .1 0 .1 0 .2.1.1 0 .2.1 0 0 .1.1 0 .1.1.2 0 0-.1.1 0 .1 0 .2z" fill="#f89e1b"/><path d="m23.8 23.2q0 .1-.1.1 0 .1 0 .2-.1.1-.1.1-.1.1-.1.1-.1 0-.2 0-.1.1-.1.1-.1-.1-.2-.1 0 0-.1-.1-.1-.1-.2-.2-.1-.1-.2-.2-.1-.1-.2-.2-.1-.1-.2-.2-.1-.1-.1-.1 0-.1 0-.2 0-.1 0-.2 0-.1.1-.1.1-.1.1-.2.1 0 .2 0 .1 0 .2 0 .1 0 .1.1.2.1.3.2.1.1.2.2.2.1.3.2.1.2.2.3 0 0 0 0 0 .1 0 .1.1.1.1.1z" fill="#f89e1b"/><path d="m26.9 15.5q0 .1 0 .2 0 .1-.1.2-.1.1-.2.1 0 0-.1 0-.6.1-1.1 0-.3 0-.4-.1-.2-.2-.2-.4 0-.2.2-.3.1-.2.4-.2.2 0 .5 0 .3 0 .6 0 .1 0 .1.1.1 0 .2.1.1.1.1.1 0 .1 0 .2z" fill="#f89e1b"/><path d="m21.1 2.1c1.7.8 3.3 1.8 4.7 3.2 1.3 1.3 2.4 2.9 3.1 4.7.8 1.7 1.1 3.6 1.1 5.5 0 5.9-3.5 11.2-8.9 13.4-5.4 2.3-11.7 1-15.8-3.1-4.2-4.2-5.4-10.4-3.2-15.8 2.3-5.4 7.6-9 13.4-9 1.9 0 3.8.4 5.6 1.1zm-.4 25.9c1.6-.7 3.1-1.7 4.3-2.9 1.3-1.3 2.3-2.8 3-4.4.6-1.6 1-3.4 1-5.1 0-5.5-3.3-10.4-8.3-12.5s-10.8-.9-14.7 2.9c-3.8 3.8-5 9.6-2.9 14.7 2.1 5 7 8.3 12.4 8.3 1.8 0 3.5-.3 5.2-1z" fill="#ef9b11" fill-rule="evenodd"/><path d="m6.2 15.5q0 .1 0 .2-.1.1-.1.2-.1.1-.2.1-.1 0-.2 0-.2.1-.5 0-.3.1-.6 0-.1 0-.2 0-.1 0-.1-.1-.1-.1-.1-.2-.1-.1-.1-.2 0-.1.1-.2 0-.1.1-.1.1-.1.1-.1.1-.1.2-.1.6 0 1.1 0 .1 0 .2.1.1 0 .2.1 0 0 .1.1 0 .1 0 .2z" fill="#040505"/><path d="m8.9 9q-.1 0-.1.1-.1 0-.2 0-.1 0-.1 0-.1 0-.2-.1-.1-.1-.2-.2-.2-.1-.3-.2-.1-.1-.2-.3-.1-.1-.2-.2 0-.1-.1-.1 0-.1 0-.2 0 0 0-.1.1-.1.1-.1 0-.1.1-.2.1 0 .2-.1 0 0 .1 0 .1 0 .2.1.2.1.3.2.2.1.3.2.1.2.2.3.1.1.2.3.1.1.1.2 0 0 0 .1 0 .1-.1.2 0 0-.1.1z" fill="#040505"/><path d="m9.1 22.5c0 .3-.9 1.3-1.3 1.3q0 0-.1-.1-.1 0-.1 0-.1-.1-.1-.1-.1-.1-.1-.1 0-.1-.1-.2 0 0 0-.1 0-.1.1-.1 0-.1 0-.2.4-.4.9-.8 0-.1.1-.1.1 0 .1 0 .1 0 .2 0 .1 0 .1 0 .1.1.1.1.1.1.1.1.1.1.1.2 0 0 0 .1z" fill="#040505"/><path d="m16.1 5.7q0 .1-.1.2 0 .1-.1.2-.1 0-.2.1-.1 0-.2 0-.1 0-.2 0 0-.1-.1-.1-.1-.1-.1-.2-.1-.1-.1-.2 0-.5 0-1.1 0-.1.1-.2 0 0 .1-.1.1-.1.1-.1.1-.1.2-.1.1 0 .2.1.1 0 .2.1.1.1.1.1 0 .1.1.2 0 0 0 0 0 .1 0 .1v.5q0 .2 0 .5z" fill="#040505"/><path d="m16.1 26.5q-.1.1-.1.1 0 .1-.1.2-.1.1-.2.1-.1 0-.2 0-.1 0-.2 0 0 0-.1-.1-.1-.1-.1-.2-.1 0-.1-.1 0-.6 0-1.1 0-.1.1-.2 0-.1.1-.2 0-.1.1-.1.1 0 .2 0 .1 0 .2 0 .1 0 .2.1.1.1.1.2.1.1.1.2 0 .2 0 .5 0 .3 0 .6z" fill="#040505"/><path d="m21.1 10.7q0 0 0 0-.1.1-.1.1 0 0-.1.1 0 0 0 0-1.7 1.7-3.4 3.4 0 0 0 .1-.1 0-.1.1 0 .1 0 .1 0 .1 0 .1c.3.7.2 1.4-.1 2-.4.6-1.1.9-1.8.9s-1.3-.3-1.7-.9-.4-1.3-.2-2q.1 0 .1-.1 0-.1 0-.1 0-.1-.1-.2 0 0-.1-.1-.9-.9-1.9-1.9-.1 0-.1-.1-.1-.1-.1-.2 0-.1 0-.2 0-.1.1-.2 0 0 .1-.1 0 0 .1-.1.1 0 .2 0 0 0 .1 0 .1 0 .1 0 .1.1.1.1.1 0 .1.1.1 0 .1 0 1 1 1.9 2 0 0 .1 0 0 .1.1.1.1 0 .1 0 .1 0 .1-.1.2 0 .4-.1.2 0 .5 0 .2 0 .4 0 .2.1.4.2 0 0 .1 0 .1 0 .1 0 .1 0 .1 0 .1-.1.1-.1 1.7-1.7 3.4-3.4 0-.1 0-.1.1 0 .1 0 0-.1 0-.1.1 0 .1 0 .1-.1.2-.1.1-.1.2-.1.1 0 .1.1.1 0 .2.1.1.1.1.2 0 0 0 .1 0 .1 0 .2 0 .1-.1.2z" fill="#040505"/><path d="m23.7 8.1q-.1.1-.2.3-.1.1-.3.2-.1.1-.2.2-.1.1-.3.2 0 0 0 .1 0 0-.1 0 0 0 0 0 0 0-.1 0 0 0-.1 0-.1 0-.2-.1 0 0-.1-.1 0 0-.1-.1 0 0 0-.1 0-.1 0-.2 0 0 0-.1 0-.1.1-.1.1-.1.2-.3.1-.1.2-.2.1-.1.2-.2.1-.1.2-.2.1 0 .2-.1.1 0 .1 0 .1 0 .2.1.1 0 .2.1 0 0 .1.1 0 .1.1.2 0 0-.1.1 0 .1 0 .2z" fill="#040505"/><path d="m23.8 23.2q0 .1-.1.1 0 .1 0 .2-.1.1-.1.1-.1.1-.1.1-.1 0-.2 0-.1.1-.1.1-.1-.1-.2-.1 0 0-.1-.1-.1-.1-.2-.2-.1-.1-.2-.2-.1-.1-.2-.2-.1-.1-.2-.2-.1-.1-.1-.1 0-.1 0-.2 0-.1 0-.2 0-.1.1-.1.1-.1.1-.2.1 0 .2 0 .1 0 .2 0 .1 0 .1.1.2.1.3.2.1.1.2.2.2.1.3.2.1.2.2.3 0 0 0 0 0 .1 0 .1.1.1.1.1z" fill="#040505"/><path d="m26.9 15.5q0 .1 0 .2 0 .1-.1.2-.1.1-.2.1 0 0-.1 0-.6.1-1.1 0-.3 0-.4-.1-.2-.2-.2-.4 0-.2.2-.3.1-.2.4-.2.2 0 .5 0 .3 0 .6 0 .1 0 .1.1.1 0 .2.1.1.1.1.1 0 .1 0 .2z" fill="#040505"/><path d="m20.7 3.1c1.7.7 3.1 1.7 4.4 2.9 1.2 1.3 2.2 2.8 2.9 4.4s1 3.4 1 5.2c0 5.4-3.3 10.3-8.3 12.4-5.1 2.1-10.9.9-14.7-3-3.9-3.8-5-9.6-2.9-14.7 2.1-5 7-8.3 12.5-8.2 1.8 0 3.5.3 5.1 1zm-.4 23.9c1.5-.6 2.8-1.5 4-2.7 1.2-1.1 2.1-2.5 2.7-4s1-3.1 1-4.7c0-5.1-3-9.6-7.7-11.5-4.6-2-10-.9-13.5 2.6-3.6 3.6-4.7 8.9-2.8 13.6 2 4.6 6.5 7.7 11.5 7.7 1.7 0 3.3-.4 4.8-1z" fill="#124668" fill-rule="evenodd"/><path d="m6.2 15.5q0 .1 0 .2-.1.1-.1.2-.1.1-.2.1-.1 0-.2 0-.2.1-.5 0-.3.1-.6 0-.1 0-.2 0-.1 0-.1-.1-.1-.1-.1-.2-.1-.1-.1-.2 0-.1.1-.2 0-.1.1-.1.1-.1.1-.1.1-.1.2-.1.6 0 1.1 0 .1 0 .2.1.1 0 .2.1 0 0 .1.1 0 .1 0 .2z" fill="#e4eaee"/><path d="m8.9 9q-.1 0-.1.1-.1 0-.2 0-.1 0-.1 0-.1 0-.2-.1-.1-.1-.2-.2-.2-.1-.3-.2-.1-.1-.2-.3-.1-.1-.2-.2 0-.1-.1-.1 0-.1 0-.2 0 0 0-.1.1-.1.1-.1 0-.1.1-.2.1 0 .2-.1 0 0 .1 0 .1 0 .2.1.2.1.3.2.2.1.3.2.1.2.2.3.1.1.2.3.1.1.1.2 0 0 0 .1 0 .1-.1.2 0 0-.1.1z" fill="#e4eaee"/><path d="m9.1 22.5c0 .3-.9 1.3-1.3 1.3q0 0-.1-.1-.1 0-.1 0-.1-.1-.1-.1-.1-.1-.1-.1 0-.1-.1-.2 0 0 0-.1 0-.1.1-.1 0-.1 0-.2.4-.4.9-.8 0-.1.1-.1.1 0 .1 0 .1 0 .2 0 .1 0 .1 0 .1.1.1.1.1.1.1.1.1.1.1.2 0 0 0 .1z" fill="#e4eaee"/><path d="m16.1 5.7q0 .1-.1.2 0 .1-.1.2-.1 0-.2.1-.1 0-.2 0-.1 0-.2 0 0-.1-.1-.1-.1-.1-.1-.2-.1-.1-.1-.2 0-.5 0-1.1 0-.1.1-.2 0 0 .1-.1.1-.1.1-.1.1-.1.2-.1.1 0 .2.1.1 0 .2.1.1.1.1.1 0 .1.1.2 0 0 0 0 0 .1 0 .1v.5q0 .2 0 .5z" fill="#e4eaee"/><path d="m16.1 26.5q-.1.1-.1.1 0 .1-.1.2-.1.1-.2.1-.1 0-.2 0-.1 0-.2 0 0 0-.1-.1-.1-.1-.1-.2-.1 0-.1-.1 0-.6 0-1.1 0-.1.1-.2 0-.1.1-.2 0-.1.1-.1.1 0 .2 0 .1 0 .2 0 .1 0 .2.1.1.1.1.2.1.1.1.2 0 .2 0 .5 0 .3 0 .6z" fill="#e4eaee"/><path d="m21.1 10.7q0 0 0 0-.1.1-.1.1 0 0-.1.1 0 0 0 0-1.7 1.7-3.4 3.4 0 0 0 .1-.1 0-.1.1 0 .1 0 .1 0 .1 0 .1c.3.7.2 1.4-.1 2-.4.6-1.1.9-1.8.9s-1.3-.3-1.7-.9-.4-1.3-.2-2q.1 0 .1-.1 0-.1 0-.1 0-.1-.1-.2 0 0-.1-.1-.9-.9-1.9-1.9-.1 0-.1-.1-.1-.1-.1-.2 0-.1 0-.2 0-.1.1-.2 0 0 .1-.1 0 0 .1-.1.1 0 .2 0 0 0 .1 0 .1 0 .1 0 .1.1.1.1.1 0 .1.1.1 0 .1 0 1 1 1.9 2 0 0 .1 0 0 .1.1.1.1 0 .1 0 .1 0 .1-.1.2 0 .4-.1.2 0 .5 0 .2 0 .4 0 .2.1.4.2 0 0 .1 0 .1 0 .1 0 .1 0 .1 0 .1-.1.1-.1 1.7-1.7 3.4-3.4 0-.1 0-.1.1 0 .1 0 0-.1 0-.1.1 0 .1 0 .1-.1.2-.1.1-.1.2-.1.1 0 .1.1.1 0 .2.1.1.1.1.2 0 0 0 .1 0 .1 0 .2 0 .1-.1.2z" fill="#e4eaee"/><path d="m23.7 8.1q-.1.1-.2.3-.1.1-.3.2-.1.1-.2.2-.1.1-.3.2 0 0 0 .1 0 0-.1 0 0 0 0 0 0 0-.1 0 0 0-.1 0-.1 0-.2-.1 0 0-.1-.1 0 0-.1-.1 0 0 0-.1 0-.1 0-.2 0 0 0-.1 0-.1.1-.1.1-.1.2-.3.1-.1.2-.2.1-.1.2-.2.1-.1.2-.2.1 0 .2-.1.1 0 .1 0 .1 0 .2.1.1 0 .2.1 0 0 .1.1 0 .1.1.2 0 0-.1.1 0 .1 0 .2z" fill="#e4eaee"/><path d="m23.8 23.2q0 .1-.1.1 0 .1 0 .2-.1.1-.1.1-.1.1-.1.1-.1 0-.2 0-.1.1-.1.1-.1-.1-.2-.1 0 0-.1-.1-.1-.1-.2-.2-.1-.1-.2-.2-.1-.1-.2-.2-.1-.1-.2-.2-.1-.1-.1-.1 0-.1 0-.2 0-.1 0-.2 0-.1.1-.1.1-.1.1-.2.1 0 .2 0 .1 0 .2 0 .1 0 .1.1.2.1.3.2.1.1.2.2.2.1.3.2.1.2.2.3 0 0 0 0 0 .1 0 .1.1.1.1.1z" fill="#e4eaee"/><path d="m26.9 15.5q0 .1 0 .2 0 .1-.1.2-.1.1-.2.1 0 0-.1 0-.6.1-1.1 0-.3 0-.4-.1-.2-.2-.2-.4 0-.2.2-.3.1-.2.4-.2.2 0 .5 0 .3 0 .6 0 .1 0 .1.1.1 0 .2.1.1.1.1.1 0 .1 0 .2z" fill="#e4eaee"/><path d="m21.1 10.7q0 0 0 0-.1.1-.1.1 0 0-.1.1 0 0 0 0-1.7 1.7-3.4 3.4 0 0 0 .1-.1 0-.1.1 0 .1 0 .1 0 .1 0 .1c.3.7.2 1.4-.1 2-.4.6-1.1.9-1.8.9s-1.3-.3-1.7-.9-.4-1.3-.2-2q.1 0 .1-.1 0-.1 0-.1 0-.1-.1-.2 0 0-.1-.1-.9-.9-1.9-1.9-.1 0-.1-.1-.1-.1-.1-.2 0-.1 0-.2 0-.1.1-.2 0 0 .1-.1 0 0 .1-.1.1 0 .2 0 0 0 .1 0 .1 0 .1 0 .1.1.1.1.1 0 .1.1.1 0 .1 0 1 1 1.9 2 0 0 .1 0 0 .1.1.1.1 0 .1 0 .1 0 .1-.1.2 0 .4-.1.2 0 .5 0 .2 0 .4 0 .2.1.4.2 0 0 .1 0 .1 0 .1 0 .1 0 .1 0 .1-.1.1-.1 1.7-1.7 3.4-3.4 0-.1 0-.1.1 0 .1 0 0-.1 0-.1.1 0 .1 0 .1-.1.2-.1.1-.1.2-.1.1 0 .1.1.1 0 .2.1.1.1.1.2 0 0 0 .1 0 .1 0 .2 0 .1-.1.2z" fill="#ef9b11"/><path d="m16.1 5.7q0 .1-.1.2 0 .1-.1.2-.1 0-.2.1-.1 0-.2 0-.1 0-.2 0 0-.1-.1-.1-.1-.1-.1-.2-.1-.1-.1-.2 0-.5 0-1.1 0-.1.1-.2 0 0 .1-.1.1-.1.1-.1.1-.1.2-.1.1 0 .2.1.1 0 .2.1.1.1.1.1 0 .1.1.2 0 0 0 0 0 .1 0 .1v.5q0 .2 0 .5z" fill="#124668"/><path d="m6.2 15.5q0 .1 0 .2-.1.1-.1.2-.1.1-.2.1-.1 0-.2 0-.2.1-.5 0-.3.1-.6 0-.1 0-.2 0-.1 0-.1-.1-.1-.1-.1-.2-.1-.1-.1-.2 0-.1.1-.2 0-.1.1-.1.1-.1.1-.1.1-.1.2-.1.6 0 1.1 0 .1 0 .2.1.1 0 .2.1 0 0 .1.1 0 .1 0 .2z" fill="#124668"/><path d="m26.9 15.5q0 .1 0 .2 0 .1-.1.2-.1.1-.2.1 0 0-.1 0-.6.1-1.1 0-.3 0-.4-.1-.2-.2-.2-.4 0-.2.2-.3.1-.2.4-.2.2 0 .5 0 .3 0 .6 0 .1 0 .1.1.1 0 .2.1.1.1.1.1 0 .1 0 .2z" fill="#124668"/><path d="m16.1 26.5q-.1.1-.1.1 0 .1-.1.2-.1.1-.2.1-.1 0-.2 0-.1 0-.2 0 0 0-.1-.1-.1-.1-.1-.2-.1 0-.1-.1 0-.6 0-1.1 0-.1.1-.2 0-.1.1-.2 0-.1.1-.1.1 0 .2 0 .1 0 .2 0 .1 0 .2.1.1.1.1.2.1.1.1.2 0 .2 0 .5 0 .3 0 .6z" fill="#124668"/><path d="m8.9 9q-.1 0-.1.1-.1 0-.2 0-.1 0-.1 0-.1 0-.2-.1-.1-.1-.2-.2-.2-.1-.3-.2-.1-.1-.2-.3-.1-.1-.2-.2 0-.1-.1-.1 0-.1 0-.2 0 0 0-.1.1-.1.1-.1 0-.1.1-.2.1 0 .2-.1 0 0 .1 0 .1 0 .2.1.2.1.3.2.2.1.3.2.1.2.2.3.1.1.2.3.1.1.1.2 0 0 0 .1 0 .1-.1.2 0 0-.1.1z" fill="#124668"/><path d="m23.7 8.1q-.1.1-.2.3-.1.1-.3.2-.1.1-.2.2-.1.1-.3.2 0 0 0 .1 0 0-.1 0 0 0 0 0 0 0-.1 0 0 0-.1 0-.1 0-.2-.1 0 0-.1-.1 0 0-.1-.1 0 0 0-.1 0-.1 0-.2 0 0 0-.1 0-.1.1-.1.1-.1.2-.3.1-.1.2-.2.1-.1.2-.2.1-.1.2-.2.1 0 .2-.1.1 0 .1 0 .1 0 .2.1.1 0 .2.1 0 0 .1.1 0 .1.1.2 0 0-.1.1 0 .1 0 .2z" fill="#124668"/><path d="m9.1 22.5c0 .3-.9 1.3-1.3 1.3q0 0-.1-.1-.1 0-.1 0-.1-.1-.1-.1-.1-.1-.1-.1 0-.1-.1-.2 0 0 0-.1 0-.1.1-.1 0-.1 0-.2.4-.4.9-.8 0-.1.1-.1.1 0 .1 0 .1 0 .2 0 .1 0 .1 0 .1.1.1.1.1.1.1.1.1.1.1.2 0 0 0 .1z" fill="#124668"/><path d="m23.8 23.2q0 .1-.1.1 0 .1 0 .2-.1.1-.1.1-.1.1-.1.1-.1 0-.2 0-.1.1-.1.1-.1-.1-.2-.1 0 0-.1-.1-.1-.1-.2-.2-.1-.1-.2-.2-.1-.1-.2-.2-.1-.1-.2-.2-.1-.1-.1-.1 0-.1 0-.2 0-.1 0-.2 0-.1.1-.1.1-.1.1-.2.1 0 .2 0 .1 0 .2 0 .1 0 .1.1.2.1.3.2.1.1.2.2.2.1.3.2.1.2.2.3 0 0 0 0 0 .1 0 .1.1.1.1.1z" fill="#124668"/><path d="m16.6 15.5c0 .4-.3.8-.7 1-.3.2-.8.1-1.1-.2s-.4-.8-.2-1.1c.1-.4.5-.7.9-.7q.2 0 .4.1.2.1.4.2.1.2.2.3.1.2.1.4z" fill="#124668"/></svg>